%
M48
M72
T01C0.0157
T02C0.0197
T03C0.0276
T04C0.0315
T05C0.0320
T06C0.0374
T07C0.0394
T08C0.0400
T09C0.0520
T10C0.0787
T11C0.0906
T12C0.1180
%
T01
X3940Y3240
X4340Y3240
X4840Y3240
X5840Y4440
X8140Y6390
X4540Y6840
X4540Y7240
X8040Y9740
X8840Y11240
X10740Y11940
X11240Y11940
X8840Y12240
X15840Y12040
X18240Y12040
X24140Y12640
X26640Y12740
X27040Y12740
X28440Y12540
X28440Y13040
X28440Y13440
X28440Y13940
X27940Y14340
X29040Y13940
X29040Y13440
X29040Y13040
X29040Y12540
X30040Y11940
X24440Y14940
X23940Y19540
X23540Y19840
X16440Y20540
X9940Y18840
X9540Y19140
X23840Y9140
X22240Y8640
X22340Y7940
X20840Y8640
X23040Y7040
X23040Y6640
X21940Y6140
X21340Y6040
X20940Y6140
X20540Y5440
X18840Y6040
X17640Y5940
X16940Y5540
X17640Y6940
X18840Y4440
X19340Y3440
X20840Y2740
X21240Y2740
X22540Y4840
X22440Y5740
X24240Y5540
X27040Y4040
X27240Y4440
X27640Y4440
X28140Y3740
X26640Y3440
X34440Y8040
X34440Y8540
T02
X10140Y17140
X5340Y4440
T03
X38840Y13940
X38840Y14940
T04
X28340Y10840
X27540Y10840
X27540Y10040
X28340Y10040
X30640Y7740
X31440Y7740
X31440Y6940
X30640Y6940
X12840Y15540
X12040Y15540
X12040Y16340
X12840Y16340
X12440Y13640
X11640Y13640
X11640Y12740
X12440Y12740
X4883Y12276
X4883Y11276
X4883Y10276
X3940Y9840
X3240Y9840
X3240Y9140
X3940Y9140
X4040Y5240
X4040Y4640
X3340Y4640
X3340Y5240
X4883Y13276
T05
X8450Y15549
X9850Y15549
X14140Y8240
X14140Y6840
X28640Y5540
X29640Y5540
X30640Y5540
X31640Y5540
X32640Y5540
X33640Y5540
X34640Y5540
X35640Y5540
X36640Y5540
X37640Y5540
X37640Y2540
X36640Y2540
X35640Y2540
X34640Y2540
X33640Y2540
X32640Y2540
X31640Y2540
X30640Y2540
X29640Y2540
X28640Y2540
T06
X28996Y16690
X28012Y16690
X27224Y16690
X26240Y16690
X21516Y16690
X20531Y16690
X19744Y16690
X18760Y16690
X33720Y16690
X34705Y16690
X35492Y16690
X36476Y16690
T07
X19940Y14440
T08
X25340Y5540
X26340Y5540
X27340Y5540
T09
X26340Y7540
X25340Y7540
X15340Y5040
X2040Y5640
X2040Y6840
X2040Y8040
X2040Y4427
X16840Y19740
T10
X2815Y3115
X2815Y19650
X39035Y19650
X39035Y3115
T11
X37685Y17757
X32512Y17757
X30205Y17757
X25031Y17757
X22724Y17757
X17551Y17757
T12
X6240Y16894
X3878Y16894
X5059Y15044
M30
