G75*
G70*
%OFA0B0*%
%FSLAX24Y24*%
%IPPOS*%
%LPD*%
%AMOC8*
5,1,8,0,0,1.08239X$1,22.5*
%
%ADD10C,0.0000*%
%ADD11R,0.0670X0.0750*%
%ADD12R,0.0434X0.0473*%
%ADD13R,0.0280X0.0910*%
%ADD14R,0.0473X0.0434*%
%ADD15C,0.0560*%
%ADD16C,0.0690*%
%ADD17R,0.0690X0.0690*%
%ADD18R,0.0555X0.0555*%
%ADD19C,0.0555*%
%ADD20R,0.0512X0.0355*%
%ADD21OC8,0.0890*%
%ADD22C,0.1740*%
%ADD23R,0.1142X0.1694*%
%ADD24R,0.0394X0.0355*%
%ADD25C,0.0780*%
%ADD26OC8,0.0670*%
%ADD27C,0.0670*%
%ADD28C,0.0614*%
%ADD29C,0.1346*%
%ADD30R,0.0355X0.0276*%
%ADD31R,0.0355X0.0355*%
%ADD32C,0.1221*%
%ADD33C,0.0512*%
%ADD34C,0.0631*%
D10*
X001240Y001540D02*
X001240Y021225D01*
X040610Y021225D01*
X040610Y001540D01*
X001240Y001540D01*
D11*
X036780Y006740D03*
X037900Y006740D03*
D12*
X037940Y007705D03*
X037940Y008375D03*
X036840Y008375D03*
X036840Y007705D03*
X035840Y007705D03*
X035840Y008375D03*
X038940Y008375D03*
X038940Y007705D03*
X038940Y009505D03*
X038940Y010175D03*
X038940Y010705D03*
X038940Y011375D03*
X035940Y011405D03*
X035940Y012075D03*
X024240Y005175D03*
X024240Y004505D03*
X022840Y004775D03*
X022840Y004105D03*
X022840Y005405D03*
X022840Y006075D03*
X018840Y005475D03*
X018840Y004805D03*
X009240Y009805D03*
X009240Y010475D03*
X021440Y018305D03*
X021440Y018975D03*
X021440Y019705D03*
X021440Y020375D03*
X028640Y004075D03*
X028640Y003405D03*
X029640Y003405D03*
X029640Y004075D03*
X030640Y004075D03*
X030640Y003405D03*
X031640Y003405D03*
X031640Y004075D03*
X032640Y004075D03*
X032640Y003405D03*
X033640Y003405D03*
X033640Y004075D03*
X034640Y004075D03*
X034640Y003405D03*
X035640Y003405D03*
X035640Y004075D03*
X036640Y004075D03*
X036640Y003405D03*
X037640Y003405D03*
X037640Y004075D03*
D13*
X037690Y009510D03*
X037190Y009510D03*
X036690Y009510D03*
X038190Y009510D03*
X038190Y011570D03*
X037690Y011570D03*
X037190Y011570D03*
X036690Y011570D03*
D14*
X029675Y011940D03*
X029005Y011940D03*
X021875Y008740D03*
X021205Y008740D03*
X023905Y007540D03*
X024575Y007540D03*
X021975Y005640D03*
X021305Y005640D03*
X018875Y006440D03*
X018205Y006440D03*
X022005Y002940D03*
X022675Y002940D03*
X022675Y002140D03*
X022005Y002140D03*
D15*
X028640Y002280D02*
X028640Y002800D01*
X029640Y002800D02*
X029640Y002280D01*
X030640Y002280D02*
X030640Y002800D01*
X031640Y002800D02*
X031640Y002280D01*
X032640Y002280D02*
X032640Y002800D01*
X033640Y002800D02*
X033640Y002280D01*
X034640Y002280D02*
X034640Y002800D01*
X035640Y002800D02*
X035640Y002280D01*
X036640Y002280D02*
X036640Y002800D01*
X037640Y002800D02*
X037640Y002280D01*
X037640Y005280D02*
X037640Y005800D01*
X036640Y005800D02*
X036640Y005280D01*
X035640Y005280D02*
X035640Y005800D01*
X034640Y005800D02*
X034640Y005280D01*
X033640Y005280D02*
X033640Y005800D01*
X032640Y005800D02*
X032640Y005280D01*
X031640Y005280D02*
X031640Y005800D01*
X030640Y005800D02*
X030640Y005280D01*
X029640Y005280D02*
X029640Y005800D01*
X028640Y005800D02*
X028640Y005280D01*
D16*
X038840Y013940D03*
D17*
X038840Y014940D03*
D18*
X004883Y013276D03*
D19*
X004883Y012276D03*
X004883Y011276D03*
X004883Y010276D03*
D20*
X004940Y004494D03*
X004940Y003786D03*
D21*
X002040Y004427D03*
X002040Y005640D03*
X002040Y006840D03*
X002040Y008040D03*
X015340Y005040D03*
X025340Y007540D03*
X026340Y007540D03*
X016840Y019740D03*
D22*
X006240Y016894D03*
X003878Y016894D03*
X005059Y015044D03*
D23*
X007653Y019247D03*
X011118Y019247D03*
D24*
X019407Y018640D03*
X020234Y019014D03*
X020234Y019666D03*
X019407Y020040D03*
X020234Y020414D03*
X020234Y018266D03*
D25*
X025340Y005540D03*
X026340Y005540D03*
X027340Y005540D03*
D26*
X014140Y006840D03*
X008450Y015549D03*
D27*
X009850Y015549D03*
X014140Y008240D03*
D28*
X018760Y016403D02*
X018760Y016977D01*
X019744Y016977D02*
X019744Y016403D01*
X020531Y016403D02*
X020531Y016977D01*
X021516Y016977D02*
X021516Y016403D01*
X026240Y016403D02*
X026240Y016977D01*
X027224Y016977D02*
X027224Y016403D01*
X028012Y016403D02*
X028012Y016977D01*
X028996Y016977D02*
X028996Y016403D01*
X033720Y016403D02*
X033720Y016977D01*
X034705Y016977D02*
X034705Y016403D01*
X035492Y016403D02*
X035492Y016977D01*
X036476Y016977D02*
X036476Y016403D01*
D29*
X037685Y017757D03*
X032512Y017757D03*
X030205Y017757D03*
X025031Y017757D03*
X022724Y017757D03*
X017551Y017757D03*
D30*
X010814Y010396D03*
X010814Y009884D03*
X010066Y009884D03*
D31*
X010066Y010376D03*
D32*
X002815Y003115D03*
X002815Y019650D03*
X039035Y019650D03*
X039035Y003115D03*
D33*
X031440Y006940D03*
X030640Y006940D03*
X030640Y007740D03*
X031440Y007740D03*
X028340Y010040D03*
X027540Y010040D03*
X027540Y010840D03*
X028340Y010840D03*
X012840Y015540D03*
X012040Y015540D03*
X012040Y016340D03*
X012840Y016340D03*
X012440Y013640D03*
X011640Y013640D03*
X011640Y012740D03*
X012440Y012740D03*
X003940Y009840D03*
X003240Y009840D03*
X003240Y009140D03*
X003940Y009140D03*
X004040Y005240D03*
X004040Y004640D03*
X003340Y004640D03*
X003340Y005240D03*
D34*
X019940Y014440D03*
M02*
