G75*
G70*
%OFA0B0*%
%FSLAX24Y24*%
%IPPOS*%
%LPD*%
%AMOC8*
5,1,8,0,0,1.08239X$1,22.5*
%
%ADD10C,0.0000*%
%ADD11R,0.0433X0.0394*%
%ADD12R,0.0630X0.0709*%
%ADD13R,0.0870X0.0240*%
%ADD14R,0.0591X0.0098*%
%ADD15R,0.0098X0.0591*%
%ADD16R,0.0630X0.0157*%
%ADD17R,0.0157X0.0650*%
%ADD18R,0.0240X0.0870*%
%ADD19R,0.0630X0.0710*%
%ADD20R,0.0460X0.0630*%
%ADD21R,0.0394X0.0433*%
%ADD22R,0.0472X0.0315*%
%ADD23R,0.1102X0.1654*%
%ADD24R,0.0551X0.0827*%
%ADD25R,0.0315X0.0472*%
%ADD26R,0.2126X0.1575*%
%ADD27R,0.0197X0.0276*%
%ADD28R,0.2100X0.0760*%
%ADD29R,0.0472X0.1260*%
%ADD30R,0.0709X0.1260*%
D10*
X001240Y001540D02*
X001240Y021225D01*
X040610Y021225D01*
X040610Y001540D01*
X001240Y001540D01*
D11*
X004005Y002440D03*
X004675Y002440D03*
X005505Y002440D03*
X006175Y002440D03*
X007005Y002440D03*
X007675Y002440D03*
X008705Y007340D03*
X009375Y007340D03*
X009375Y008340D03*
X008705Y008340D03*
X010905Y008340D03*
X011575Y008340D03*
X011575Y007340D03*
X010905Y007340D03*
X008375Y010240D03*
X007705Y010240D03*
X007075Y010240D03*
X006405Y010240D03*
X006405Y011240D03*
X007075Y011240D03*
X007705Y011240D03*
X008375Y011240D03*
X008375Y012240D03*
X007705Y012240D03*
X007075Y012240D03*
X006405Y012240D03*
X006405Y013240D03*
X007075Y013240D03*
X007705Y013240D03*
X008375Y013240D03*
X014005Y017440D03*
X014675Y017440D03*
X015305Y017440D03*
X015975Y017440D03*
X015975Y018440D03*
X015305Y018440D03*
X014675Y018440D03*
X014005Y018440D03*
X015305Y019340D03*
X015975Y019340D03*
X015975Y020240D03*
X015305Y020240D03*
X014575Y020240D03*
X013905Y020240D03*
X013175Y020240D03*
X012505Y020240D03*
X011775Y020240D03*
X011105Y020240D03*
X010275Y020240D03*
X009605Y020240D03*
X018405Y015440D03*
X019075Y015440D03*
X019788Y015438D03*
X020457Y015438D03*
X021205Y015440D03*
X021875Y015440D03*
X025905Y015440D03*
X026575Y015440D03*
X027305Y015440D03*
X027975Y015440D03*
X028705Y015440D03*
X029375Y015440D03*
X031005Y014840D03*
X031675Y014840D03*
X031675Y013940D03*
X031005Y013940D03*
X031005Y013040D03*
X031675Y013040D03*
X032305Y013040D03*
X032975Y013040D03*
D12*
X029891Y007340D03*
X028789Y007340D03*
D13*
X029770Y012490D03*
X029770Y012990D03*
X029770Y013490D03*
X029770Y013990D03*
X027710Y013990D03*
X027710Y013490D03*
X027710Y012990D03*
X027710Y012490D03*
X015670Y014990D03*
X015670Y015490D03*
X015670Y015990D03*
X015670Y016490D03*
X013610Y016490D03*
X013610Y015990D03*
X013610Y015490D03*
X013610Y014990D03*
D14*
X019947Y006123D03*
X019947Y005926D03*
X019947Y005729D03*
X019947Y005532D03*
X019947Y005335D03*
X019947Y005138D03*
X019947Y004942D03*
X019947Y004745D03*
X019947Y004548D03*
X019947Y004351D03*
X019947Y004154D03*
X019947Y003957D03*
X023333Y003957D03*
X023333Y004154D03*
X023333Y004351D03*
X023333Y004548D03*
X023333Y004745D03*
X023333Y004942D03*
X023333Y005138D03*
X023333Y005335D03*
X023333Y005532D03*
X023333Y005729D03*
X023333Y005926D03*
X023333Y006123D03*
D15*
X022723Y006733D03*
X022526Y006733D03*
X022329Y006733D03*
X022132Y006733D03*
X021935Y006733D03*
X021738Y006733D03*
X021542Y006733D03*
X021345Y006733D03*
X021148Y006733D03*
X020951Y006733D03*
X020754Y006733D03*
X020557Y006733D03*
X020557Y003347D03*
X020754Y003347D03*
X020951Y003347D03*
X021148Y003347D03*
X021345Y003347D03*
X021542Y003347D03*
X021738Y003347D03*
X021935Y003347D03*
X022132Y003347D03*
X022329Y003347D03*
X022526Y003347D03*
X022723Y003347D03*
D16*
X013062Y017464D03*
X013062Y017720D03*
X013062Y017976D03*
X013062Y018232D03*
X013062Y018488D03*
X013062Y018744D03*
X013062Y018999D03*
X013062Y019255D03*
X010739Y019255D03*
X010739Y018999D03*
X010739Y018744D03*
X010739Y018488D03*
X010739Y018232D03*
X010739Y017976D03*
X010739Y017720D03*
X010739Y017464D03*
D17*
X006847Y006241D03*
X006592Y006241D03*
X006336Y006241D03*
X006080Y006241D03*
X005824Y006241D03*
X005568Y006241D03*
X005312Y006241D03*
X005056Y006241D03*
X004800Y006241D03*
X004544Y006241D03*
X004288Y006241D03*
X004033Y006241D03*
X004033Y003839D03*
X004288Y003839D03*
X004544Y003839D03*
X004800Y003839D03*
X005056Y003839D03*
X005312Y003839D03*
X005568Y003839D03*
X005824Y003839D03*
X006080Y003839D03*
X006336Y003839D03*
X006592Y003839D03*
X006847Y003839D03*
D18*
X008590Y004010D03*
X009090Y004010D03*
X009590Y004010D03*
X010090Y004010D03*
X010790Y004010D03*
X011290Y004010D03*
X011790Y004010D03*
X012290Y004010D03*
X012290Y006070D03*
X011790Y006070D03*
X011290Y006070D03*
X010790Y006070D03*
X010090Y006070D03*
X009590Y006070D03*
X009090Y006070D03*
X008590Y006070D03*
D19*
X004590Y008411D03*
X003470Y008411D03*
D20*
X008740Y002540D03*
X009340Y002540D03*
X009940Y002540D03*
D21*
X012640Y002775D03*
X012640Y002105D03*
X019440Y002105D03*
X019440Y002775D03*
X007640Y006805D03*
X007640Y007475D03*
X008540Y017605D03*
X009440Y017605D03*
X009440Y018275D03*
X008540Y018275D03*
D22*
X010740Y016594D03*
X010740Y015886D03*
X025540Y012594D03*
X025540Y011886D03*
D23*
X026208Y010440D03*
X029672Y010440D03*
X013772Y013240D03*
X010308Y013240D03*
D24*
X021208Y013740D03*
X024672Y013740D03*
X024672Y011440D03*
X021208Y011440D03*
D25*
X011094Y010240D03*
X010386Y010240D03*
D26*
X017040Y010011D03*
X017040Y013869D03*
X032840Y011169D03*
X032840Y007311D03*
D27*
X007640Y006226D03*
X007640Y005714D03*
X007640Y004416D03*
X007640Y003904D03*
D28*
X014140Y003340D03*
X017940Y003340D03*
D29*
X035886Y010044D03*
X037460Y010044D03*
X037460Y012721D03*
X035886Y012721D03*
D30*
X013942Y010240D03*
X011738Y010240D03*
M02*
