G75*
G70*
%OFA0B0*%
%FSLAX24Y24*%
%IPPOS*%
%LPD*%
%AMOC8*
5,1,8,0,0,1.08239X$1,22.5*
%
%ADD10C,0.0000*%
%ADD11R,0.0630X0.0710*%
%ADD12R,0.0394X0.0433*%
%ADD13R,0.0240X0.0870*%
%ADD14R,0.0433X0.0394*%
%ADD15C,0.0520*%
%ADD16C,0.0650*%
%ADD17R,0.0650X0.0650*%
%ADD18R,0.0515X0.0515*%
%ADD19C,0.0515*%
%ADD20R,0.0472X0.0315*%
%ADD21OC8,0.0850*%
%ADD22C,0.1700*%
%ADD23R,0.1102X0.1654*%
%ADD24R,0.0354X0.0315*%
%ADD25C,0.0740*%
%ADD26OC8,0.0630*%
%ADD27C,0.0630*%
%ADD28C,0.0574*%
%ADD29C,0.1306*%
%ADD30R,0.0315X0.0236*%
%ADD31R,0.0315X0.0315*%
%ADD32C,0.1181*%
%ADD33C,0.0080*%
%ADD34C,0.0277*%
%ADD35C,0.0472*%
%ADD36C,0.0100*%
%ADD37C,0.0160*%
%ADD38C,0.0060*%
%ADD39C,0.0317*%
%ADD40C,0.0400*%
%ADD41C,0.0240*%
%ADD42C,0.0591*%
%ADD43C,0.0500*%
D10*
X001240Y001540D02*
X001240Y021225D01*
X040610Y021225D01*
X040610Y001540D01*
X001240Y001540D01*
D11*
X036780Y006740D03*
X037900Y006740D03*
D12*
X037940Y007705D03*
X037940Y008375D03*
X036840Y008375D03*
X036840Y007705D03*
X035840Y007705D03*
X035840Y008375D03*
X038940Y008375D03*
X038940Y007705D03*
X038940Y009505D03*
X038940Y010175D03*
X038940Y010705D03*
X038940Y011375D03*
X035940Y011405D03*
X035940Y012075D03*
X024240Y005175D03*
X024240Y004505D03*
X022840Y004775D03*
X022840Y004105D03*
X022840Y005405D03*
X022840Y006075D03*
X018840Y005475D03*
X018840Y004805D03*
X009240Y009805D03*
X009240Y010475D03*
X021440Y018305D03*
X021440Y018975D03*
X021440Y019705D03*
X021440Y020375D03*
X028640Y004075D03*
X028640Y003405D03*
X029640Y003405D03*
X029640Y004075D03*
X030640Y004075D03*
X030640Y003405D03*
X031640Y003405D03*
X031640Y004075D03*
X032640Y004075D03*
X032640Y003405D03*
X033640Y003405D03*
X033640Y004075D03*
X034640Y004075D03*
X034640Y003405D03*
X035640Y003405D03*
X035640Y004075D03*
X036640Y004075D03*
X036640Y003405D03*
X037640Y003405D03*
X037640Y004075D03*
D13*
X037690Y009510D03*
X037190Y009510D03*
X036690Y009510D03*
X038190Y009510D03*
X038190Y011570D03*
X037690Y011570D03*
X037190Y011570D03*
X036690Y011570D03*
D14*
X029675Y011940D03*
X029005Y011940D03*
X021875Y008740D03*
X021205Y008740D03*
X023905Y007540D03*
X024575Y007540D03*
X021975Y005640D03*
X021305Y005640D03*
X018875Y006440D03*
X018205Y006440D03*
X022005Y002940D03*
X022675Y002940D03*
X022675Y002140D03*
X022005Y002140D03*
D15*
X028640Y002280D02*
X028640Y002800D01*
X029640Y002800D02*
X029640Y002280D01*
X030640Y002280D02*
X030640Y002800D01*
X031640Y002800D02*
X031640Y002280D01*
X032640Y002280D02*
X032640Y002800D01*
X033640Y002800D02*
X033640Y002280D01*
X034640Y002280D02*
X034640Y002800D01*
X035640Y002800D02*
X035640Y002280D01*
X036640Y002280D02*
X036640Y002800D01*
X037640Y002800D02*
X037640Y002280D01*
X037640Y005280D02*
X037640Y005800D01*
X036640Y005800D02*
X036640Y005280D01*
X035640Y005280D02*
X035640Y005800D01*
X034640Y005800D02*
X034640Y005280D01*
X033640Y005280D02*
X033640Y005800D01*
X032640Y005800D02*
X032640Y005280D01*
X031640Y005280D02*
X031640Y005800D01*
X030640Y005800D02*
X030640Y005280D01*
X029640Y005280D02*
X029640Y005800D01*
X028640Y005800D02*
X028640Y005280D01*
D16*
X038840Y013940D03*
D17*
X038840Y014940D03*
D18*
X004883Y013276D03*
D19*
X004883Y012276D03*
X004883Y011276D03*
X004883Y010276D03*
D20*
X004940Y004494D03*
X004940Y003786D03*
D21*
X002040Y004427D03*
X002040Y005640D03*
X002040Y006840D03*
X002040Y008040D03*
X015340Y005040D03*
X025340Y007540D03*
X026340Y007540D03*
X016840Y019740D03*
D22*
X006240Y016894D03*
X003878Y016894D03*
X005059Y015044D03*
D23*
X007653Y019247D03*
X011118Y019247D03*
D24*
X019407Y018640D03*
X020234Y019014D03*
X020234Y019666D03*
X019407Y020040D03*
X020234Y020414D03*
X020234Y018266D03*
D25*
X025340Y005540D03*
X026340Y005540D03*
X027340Y005540D03*
D26*
X014140Y006840D03*
X008450Y015549D03*
D27*
X009850Y015549D03*
X014140Y008240D03*
D28*
X018760Y016403D02*
X018760Y016977D01*
X019744Y016977D02*
X019744Y016403D01*
X020531Y016403D02*
X020531Y016977D01*
X021516Y016977D02*
X021516Y016403D01*
X026240Y016403D02*
X026240Y016977D01*
X027224Y016977D02*
X027224Y016403D01*
X028012Y016403D02*
X028012Y016977D01*
X028996Y016977D02*
X028996Y016403D01*
X033720Y016403D02*
X033720Y016977D01*
X034705Y016977D02*
X034705Y016403D01*
X035492Y016403D02*
X035492Y016977D01*
X036476Y016977D02*
X036476Y016403D01*
D29*
X037685Y017757D03*
X032512Y017757D03*
X030205Y017757D03*
X025031Y017757D03*
X022724Y017757D03*
X017551Y017757D03*
D30*
X010814Y010396D03*
X010814Y009884D03*
X010066Y009884D03*
D31*
X010066Y010376D03*
D32*
X002815Y003115D03*
X002815Y019650D03*
X039035Y019650D03*
X039035Y003115D03*
D33*
X039716Y002639D02*
X040470Y002639D01*
X040470Y002561D02*
X039638Y002561D01*
X039710Y002625D02*
X039851Y002941D01*
X039851Y003288D01*
X039710Y003605D01*
X039452Y003837D01*
X039122Y003944D01*
X038778Y003908D01*
X038477Y003734D01*
X038274Y003454D01*
X038202Y003115D01*
X038274Y002776D01*
X038477Y002495D01*
X038778Y002322D01*
X039122Y002286D01*
X039452Y002393D01*
X039710Y002625D01*
X039751Y002718D02*
X040470Y002718D01*
X040470Y002796D02*
X039786Y002796D01*
X039821Y002875D02*
X040470Y002875D01*
X040470Y002953D02*
X039851Y002953D01*
X039851Y003032D02*
X040470Y003032D01*
X040470Y003110D02*
X039851Y003110D01*
X039851Y003189D02*
X040470Y003189D01*
X040470Y003267D02*
X039851Y003267D01*
X039825Y003346D02*
X040470Y003346D01*
X040470Y003424D02*
X039790Y003424D01*
X039755Y003503D02*
X040470Y003503D01*
X040470Y003581D02*
X039720Y003581D01*
X039649Y003660D02*
X040470Y003660D01*
X040470Y003738D02*
X039562Y003738D01*
X039475Y003817D02*
X040470Y003817D01*
X040470Y003895D02*
X039273Y003895D01*
X038756Y003895D02*
X038050Y003895D01*
X038049Y003895D02*
X038155Y004000D01*
X038715Y004560D01*
X038820Y004665D01*
X038820Y006190D01*
X040470Y006190D01*
X040470Y001680D01*
X001380Y001680D01*
X001380Y021085D01*
X040470Y021085D01*
X040470Y019390D01*
X040439Y019390D01*
X039812Y019390D01*
X039851Y019477D01*
X039851Y019824D01*
X039710Y020140D01*
X039452Y020372D01*
X039122Y020479D01*
X038778Y020443D01*
X038477Y020270D01*
X038274Y019989D01*
X038202Y019650D01*
X038257Y019390D01*
X024128Y019390D01*
X024179Y019441D01*
X024179Y019639D01*
X024039Y019779D01*
X023841Y019779D01*
X023701Y019639D01*
X023701Y019625D01*
X023662Y019625D01*
X023779Y019741D01*
X023779Y019939D01*
X023639Y020079D01*
X023513Y020079D01*
X023067Y020525D01*
X021737Y020525D01*
X021737Y020633D01*
X021678Y020691D01*
X021202Y020691D01*
X021143Y020633D01*
X021143Y020564D01*
X020511Y020564D01*
X020511Y020613D01*
X020452Y020671D01*
X020015Y020671D01*
X019957Y020613D01*
X019957Y020215D01*
X020015Y020157D01*
X020452Y020157D01*
X020511Y020215D01*
X020511Y020264D01*
X021143Y020264D01*
X021143Y020117D01*
X021202Y020058D01*
X021211Y020058D01*
X021189Y020052D01*
X021157Y020034D01*
X021131Y020008D01*
X021113Y019976D01*
X021103Y019940D01*
X021103Y019745D01*
X021400Y019745D01*
X021400Y019665D01*
X021480Y019665D01*
X021480Y019349D01*
X021655Y019349D01*
X021691Y019358D01*
X021723Y019377D01*
X021749Y019403D01*
X021767Y019435D01*
X021777Y019470D01*
X021777Y019665D01*
X021480Y019665D01*
X021480Y019745D01*
X021777Y019745D01*
X021777Y019940D01*
X021767Y019976D01*
X021749Y020008D01*
X021723Y020034D01*
X021691Y020052D01*
X021669Y020058D01*
X021678Y020058D01*
X021737Y020117D01*
X021737Y020225D01*
X022943Y020225D01*
X023301Y019867D01*
X023301Y019741D01*
X023418Y019625D01*
X022613Y019625D01*
X022113Y019125D01*
X021737Y019125D01*
X021737Y019233D01*
X021678Y019291D01*
X021202Y019291D01*
X021143Y019233D01*
X021143Y019164D01*
X020511Y019164D01*
X020511Y019213D01*
X020452Y019271D01*
X020015Y019271D01*
X019957Y019213D01*
X019957Y018815D01*
X020015Y018757D01*
X020452Y018757D01*
X020511Y018815D01*
X020511Y018864D01*
X021143Y018864D01*
X021143Y018717D01*
X021202Y018658D01*
X021211Y018658D01*
X021189Y018652D01*
X021157Y018634D01*
X021131Y018608D01*
X021113Y018576D01*
X021103Y018540D01*
X021103Y018345D01*
X021400Y018345D01*
X021400Y018265D01*
X021480Y018265D01*
X021480Y017949D01*
X021655Y017949D01*
X021691Y017958D01*
X021723Y017977D01*
X021749Y018003D01*
X021767Y018035D01*
X021777Y018070D01*
X021777Y018265D01*
X021480Y018265D01*
X021480Y018345D01*
X021777Y018345D01*
X021777Y018540D01*
X021767Y018576D01*
X021749Y018608D01*
X021723Y018634D01*
X021691Y018652D01*
X021669Y018658D01*
X021678Y018658D01*
X021737Y018717D01*
X021737Y018825D01*
X022237Y018825D01*
X022325Y018913D01*
X022737Y019325D01*
X023713Y019325D01*
X023690Y019302D01*
X023190Y018802D01*
X023190Y018355D01*
X023151Y018395D01*
X022874Y018509D01*
X022575Y018509D01*
X022298Y018395D01*
X022086Y018183D01*
X021971Y017906D01*
X021971Y017607D01*
X022061Y017390D01*
X021178Y017390D01*
X021090Y017302D01*
X021090Y016278D01*
X021178Y016190D01*
X021185Y016190D01*
X021188Y016183D01*
X021296Y016075D01*
X021439Y016016D01*
X021593Y016016D01*
X021735Y016075D01*
X021844Y016183D01*
X021846Y016190D01*
X023802Y016190D01*
X023890Y016278D01*
X024490Y016878D01*
X024490Y017233D01*
X024605Y017118D01*
X024882Y017004D01*
X025181Y017004D01*
X025458Y017118D01*
X025669Y017330D01*
X025784Y017607D01*
X025784Y017906D01*
X025749Y017990D01*
X028278Y017990D01*
X028590Y017678D01*
X028590Y016878D01*
X028609Y016859D01*
X028609Y016326D01*
X028668Y016183D01*
X028777Y016075D01*
X028919Y016016D01*
X029073Y016016D01*
X029215Y016075D01*
X029324Y016183D01*
X029383Y016326D01*
X029383Y016871D01*
X029390Y016878D01*
X029390Y017678D01*
X029452Y017740D01*
X029452Y017607D01*
X029566Y017330D01*
X029778Y017118D01*
X030055Y017004D01*
X030354Y017004D01*
X030631Y017118D01*
X030843Y017330D01*
X030957Y017607D01*
X030957Y017906D01*
X030923Y017990D01*
X031794Y017990D01*
X031759Y017906D01*
X031759Y017607D01*
X031873Y017330D01*
X032085Y017118D01*
X032362Y017004D01*
X032661Y017004D01*
X032938Y017118D01*
X033150Y017330D01*
X033264Y017607D01*
X033264Y017906D01*
X033230Y017990D01*
X036078Y017990D01*
X036390Y017678D01*
X036390Y017360D01*
X036257Y017305D01*
X036148Y017196D01*
X036089Y017054D01*
X036089Y016326D01*
X036148Y016183D01*
X036257Y016075D01*
X036390Y016019D01*
X036390Y015578D01*
X037390Y014578D01*
X037478Y014490D01*
X038978Y014490D01*
X039290Y014178D01*
X039290Y014060D01*
X039271Y014118D01*
X039238Y014184D01*
X039195Y014243D01*
X039143Y014295D01*
X039084Y014338D01*
X039018Y014371D01*
X038949Y014394D01*
X038877Y014405D01*
X038869Y014405D01*
X038869Y013969D01*
X038811Y013969D01*
X038811Y014405D01*
X038803Y014405D01*
X038731Y014394D01*
X038662Y014371D01*
X038596Y014338D01*
X038537Y014295D01*
X038485Y014243D01*
X038442Y014184D01*
X038409Y014118D01*
X038386Y014049D01*
X038375Y013977D01*
X038375Y013969D01*
X038811Y013969D01*
X038811Y013911D01*
X038869Y013911D01*
X038869Y013475D01*
X038877Y013475D01*
X038949Y013486D01*
X039018Y013509D01*
X039084Y013542D01*
X039143Y013585D01*
X039195Y013637D01*
X039238Y013696D01*
X039271Y013762D01*
X039290Y013820D01*
X039290Y007702D01*
X039237Y007649D01*
X039237Y007963D01*
X039178Y008022D01*
X038702Y008022D01*
X038686Y008006D01*
X038237Y008455D01*
X038237Y008633D01*
X038178Y008691D01*
X037840Y008691D01*
X037840Y008975D01*
X037851Y008975D01*
X037910Y009034D01*
X037910Y009986D01*
X037851Y010045D01*
X037529Y010045D01*
X037470Y009986D01*
X037470Y009034D01*
X037529Y008975D01*
X037540Y008975D01*
X037540Y008563D01*
X037643Y008459D01*
X037643Y008117D01*
X037702Y008058D01*
X038178Y008058D01*
X038194Y008074D01*
X038590Y007678D01*
X038643Y007625D01*
X038643Y007490D01*
X038378Y007490D01*
X038178Y007290D01*
X038080Y007290D01*
X038080Y007389D01*
X038178Y007389D01*
X038237Y007447D01*
X038237Y007963D01*
X038178Y008022D01*
X037702Y008022D01*
X037643Y007963D01*
X037643Y007447D01*
X037702Y007389D01*
X037800Y007389D01*
X037800Y007290D01*
X037578Y007290D01*
X037490Y007202D01*
X037490Y007141D01*
X037485Y007136D01*
X037485Y006344D01*
X037490Y006339D01*
X037490Y006278D01*
X037578Y006190D01*
X038460Y006190D01*
X038460Y004815D01*
X037937Y004291D01*
X037937Y004333D01*
X037878Y004391D01*
X037402Y004391D01*
X037343Y004333D01*
X037343Y004255D01*
X036937Y004255D01*
X036937Y004333D01*
X036878Y004391D01*
X036703Y004391D01*
X037362Y005049D01*
X037436Y004975D01*
X037568Y004920D01*
X037712Y004920D01*
X037844Y004975D01*
X037945Y005076D01*
X038000Y005208D01*
X038000Y005872D01*
X037945Y006004D01*
X037844Y006105D01*
X037712Y006160D01*
X037568Y006160D01*
X037436Y006105D01*
X037335Y006004D01*
X037280Y005872D01*
X037280Y005392D01*
X036478Y004590D01*
X032202Y004590D01*
X032543Y004931D01*
X032568Y004920D01*
X032712Y004920D01*
X032844Y004975D01*
X032945Y005076D01*
X033000Y005208D01*
X033000Y005872D01*
X032945Y006004D01*
X032859Y006090D01*
X032878Y006090D01*
X033280Y005688D01*
X033280Y005208D01*
X033335Y005076D01*
X033436Y004975D01*
X033568Y004920D01*
X033712Y004920D01*
X033844Y004975D01*
X033945Y005076D01*
X034000Y005208D01*
X034000Y005872D01*
X033945Y006004D01*
X033844Y006105D01*
X033712Y006160D01*
X033568Y006160D01*
X033436Y006105D01*
X033362Y006031D01*
X033202Y006190D01*
X033778Y006190D01*
X034280Y005688D01*
X034280Y005208D01*
X034335Y005076D01*
X034436Y004975D01*
X034568Y004920D01*
X034712Y004920D01*
X034844Y004975D01*
X034945Y005076D01*
X035000Y005208D01*
X035000Y005872D01*
X034945Y006004D01*
X034844Y006105D01*
X034712Y006160D01*
X034568Y006160D01*
X034436Y006105D01*
X034362Y006031D01*
X034202Y006190D01*
X037102Y006190D01*
X037190Y006278D01*
X037190Y006339D01*
X037195Y006344D01*
X037195Y007136D01*
X037190Y007141D01*
X037190Y007202D01*
X037102Y007290D01*
X036990Y007290D01*
X036990Y007389D01*
X037078Y007389D01*
X037137Y007447D01*
X037137Y007963D01*
X037078Y008022D01*
X036602Y008022D01*
X036543Y007963D01*
X036543Y007447D01*
X036602Y007389D01*
X036690Y007389D01*
X036690Y007290D01*
X036502Y007290D01*
X036302Y007490D01*
X036137Y007490D01*
X036137Y007625D01*
X036190Y007678D01*
X036586Y008074D01*
X036602Y008058D01*
X037078Y008058D01*
X037137Y008117D01*
X037137Y008402D01*
X037238Y008475D01*
X037252Y008475D01*
X037287Y008510D01*
X037328Y008539D01*
X037330Y008553D01*
X037340Y008563D01*
X037340Y008612D01*
X037348Y008661D01*
X037340Y008673D01*
X037340Y008975D01*
X037351Y008975D01*
X037410Y009034D01*
X037410Y009986D01*
X037351Y010045D01*
X037029Y010045D01*
X036970Y009986D01*
X036970Y009034D01*
X037029Y008975D01*
X037040Y008975D01*
X037040Y008702D01*
X037025Y008691D01*
X036602Y008691D01*
X036543Y008633D01*
X036543Y008455D01*
X036094Y008006D01*
X036078Y008022D01*
X036069Y008022D01*
X036091Y008028D01*
X036123Y008046D01*
X036149Y008072D01*
X036167Y008104D01*
X036177Y008140D01*
X036177Y008335D01*
X035880Y008335D01*
X035880Y008415D01*
X035800Y008415D01*
X035800Y008731D01*
X035625Y008731D01*
X035589Y008722D01*
X035557Y008703D01*
X035531Y008677D01*
X035513Y008645D01*
X035503Y008610D01*
X035503Y008415D01*
X035800Y008415D01*
X035800Y008335D01*
X035503Y008335D01*
X035503Y008140D01*
X035513Y008104D01*
X035531Y008072D01*
X035557Y008046D01*
X035589Y008028D01*
X035611Y008022D01*
X035602Y008022D01*
X035543Y007963D01*
X035543Y007490D01*
X034702Y007490D01*
X034391Y007801D01*
X034539Y007801D01*
X034679Y007941D01*
X034679Y008139D01*
X034539Y008279D01*
X034413Y008279D01*
X034391Y008301D01*
X034539Y008301D01*
X034679Y008441D01*
X034679Y008639D01*
X034539Y008779D01*
X034341Y008779D01*
X034254Y008692D01*
X022429Y008788D01*
X022339Y008879D01*
X022191Y008879D01*
X022191Y008978D01*
X022179Y008990D01*
X023652Y008990D01*
X023741Y008901D01*
X023939Y008901D01*
X024079Y009041D01*
X024079Y009239D01*
X023939Y009379D01*
X023741Y009379D01*
X023652Y009290D01*
X020578Y009290D01*
X018878Y007590D01*
X017378Y007590D01*
X017290Y007502D01*
X016778Y006990D01*
X014978Y006990D01*
X014890Y006902D01*
X014478Y006490D01*
X014433Y006490D01*
X014595Y006652D01*
X014595Y006800D01*
X014180Y006800D01*
X014180Y006880D01*
X014100Y006880D01*
X014100Y007295D01*
X013952Y007295D01*
X013685Y007028D01*
X013685Y006880D01*
X014100Y006880D01*
X014100Y006800D01*
X013685Y006800D01*
X013685Y006652D01*
X013847Y006490D01*
X013402Y006490D01*
X010964Y008928D01*
X010964Y009666D01*
X011013Y009666D01*
X011071Y009725D01*
X011071Y010044D01*
X011013Y010102D01*
X010615Y010102D01*
X010557Y010044D01*
X010557Y009725D01*
X010615Y009666D01*
X010664Y009666D01*
X010664Y008804D01*
X013190Y006278D01*
X013278Y006190D01*
X014602Y006190D01*
X015102Y006690D01*
X016902Y006690D01*
X017502Y007290D01*
X019002Y007290D01*
X020702Y008990D01*
X020901Y008990D01*
X020889Y008978D01*
X020889Y008879D01*
X020741Y008879D01*
X020601Y008739D01*
X020601Y008541D01*
X020741Y008401D01*
X020939Y008401D01*
X020981Y008443D01*
X021463Y008443D01*
X021522Y008502D01*
X021522Y008978D01*
X021510Y008990D01*
X021570Y008990D01*
X021558Y008978D01*
X021558Y008502D01*
X021617Y008443D01*
X022099Y008443D01*
X022141Y008401D01*
X022339Y008401D01*
X022426Y008488D01*
X022674Y008486D01*
X022634Y008446D01*
X022591Y008403D01*
X022367Y008179D01*
X022241Y008179D01*
X022101Y008039D01*
X022101Y007841D01*
X022152Y007790D01*
X020178Y007790D01*
X019478Y007090D01*
X017828Y007090D01*
X017739Y007179D01*
X017541Y007179D01*
X017401Y007039D01*
X017401Y006841D01*
X017541Y006701D01*
X017739Y006701D01*
X017828Y006790D01*
X019602Y006790D01*
X020302Y007490D01*
X023378Y007490D01*
X023390Y007478D01*
X023478Y007390D01*
X023589Y007390D01*
X023589Y007302D01*
X023647Y007243D01*
X024163Y007243D01*
X024222Y007302D01*
X024222Y007778D01*
X024163Y007837D01*
X023647Y007837D01*
X023589Y007778D01*
X023589Y007703D01*
X023502Y007790D01*
X022528Y007790D01*
X022579Y007841D01*
X022579Y007967D01*
X022802Y008189D01*
X029420Y008132D01*
X029390Y008102D01*
X029390Y006390D01*
X027902Y006390D01*
X027302Y006990D01*
X023802Y006990D01*
X023390Y007402D01*
X023302Y007490D01*
X022128Y007490D01*
X022040Y007402D01*
X021017Y006379D01*
X020841Y006379D01*
X020701Y006239D01*
X020701Y006041D01*
X020841Y005901D01*
X021012Y005901D01*
X020989Y005878D01*
X020989Y005648D01*
X020265Y004925D01*
X019137Y004925D01*
X019137Y005063D01*
X019078Y005122D01*
X019069Y005122D01*
X019091Y005128D01*
X019123Y005146D01*
X019149Y005172D01*
X019167Y005204D01*
X019177Y005240D01*
X019177Y005435D01*
X018880Y005435D01*
X018880Y005515D01*
X019177Y005515D01*
X019177Y005710D01*
X019167Y005745D01*
X019149Y005777D01*
X019123Y005803D01*
X019091Y005822D01*
X019055Y005831D01*
X018969Y005831D01*
X019079Y005941D01*
X019079Y006139D01*
X019074Y006143D01*
X019133Y006143D01*
X019191Y006202D01*
X019191Y006678D01*
X019133Y006737D01*
X018617Y006737D01*
X018558Y006678D01*
X018558Y006202D01*
X018611Y006149D01*
X018601Y006139D01*
X018601Y005941D01*
X018711Y005831D01*
X018625Y005831D01*
X018589Y005822D01*
X018557Y005803D01*
X018531Y005777D01*
X018513Y005745D01*
X018503Y005710D01*
X018503Y005515D01*
X018800Y005515D01*
X018800Y005435D01*
X018503Y005435D01*
X018503Y005240D01*
X018513Y005204D01*
X018531Y005172D01*
X018557Y005146D01*
X018589Y005128D01*
X018611Y005122D01*
X018602Y005122D01*
X018543Y005063D01*
X018543Y004991D01*
X018385Y005149D01*
X018385Y006143D01*
X018463Y006143D01*
X018522Y006202D01*
X018522Y006678D01*
X018463Y006737D01*
X017947Y006737D01*
X017889Y006678D01*
X017889Y006620D01*
X015065Y006620D01*
X014565Y006120D01*
X013215Y006120D01*
X009645Y009690D01*
X009843Y009690D01*
X009867Y009666D01*
X010265Y009666D01*
X010323Y009725D01*
X010323Y010044D01*
X010278Y010089D01*
X010309Y010107D01*
X010335Y010133D01*
X010354Y010165D01*
X010363Y010200D01*
X010363Y010337D01*
X010105Y010337D01*
X010105Y010415D01*
X010363Y010415D01*
X010363Y010552D01*
X010354Y010588D01*
X010335Y010620D01*
X010309Y010646D01*
X036822Y010646D01*
X036900Y010568D02*
X011059Y010568D01*
X011071Y010555D02*
X011013Y010614D01*
X010615Y010614D01*
X010557Y010555D01*
X010557Y010236D01*
X010615Y010178D01*
X011013Y010178D01*
X011071Y010236D01*
X011071Y010555D01*
X011071Y010489D02*
X036979Y010489D01*
X037057Y010411D02*
X011071Y010411D01*
X011071Y010332D02*
X037136Y010332D01*
X037190Y010278D02*
X037278Y010190D01*
X037778Y010190D01*
X037976Y009992D01*
X037970Y009986D01*
X037970Y009034D01*
X038029Y008975D01*
X038351Y008975D01*
X038372Y008996D01*
X038689Y008679D01*
X038643Y008633D01*
X038643Y008117D01*
X038702Y008058D01*
X039178Y008058D01*
X039237Y008117D01*
X039237Y008633D01*
X039178Y008691D01*
X039090Y008691D01*
X039090Y008702D01*
X039002Y008790D01*
X038410Y009382D01*
X038410Y009986D01*
X038351Y010045D01*
X038340Y010045D01*
X038340Y010052D01*
X038252Y010140D01*
X037902Y010490D01*
X037402Y010490D01*
X036854Y011038D01*
X036910Y011094D01*
X036910Y012046D01*
X036851Y012105D01*
X036529Y012105D01*
X036470Y012046D01*
X036470Y011094D01*
X036529Y011035D01*
X036540Y011035D01*
X036540Y010928D01*
X037190Y010278D01*
X037214Y010254D02*
X011071Y010254D01*
X011019Y010097D02*
X037871Y010097D01*
X037878Y010018D02*
X037950Y010018D01*
X037970Y009940D02*
X037910Y009940D01*
X037910Y009861D02*
X037970Y009861D01*
X037970Y009783D02*
X037910Y009783D01*
X037910Y009704D02*
X037970Y009704D01*
X037970Y009626D02*
X037910Y009626D01*
X037910Y009547D02*
X037970Y009547D01*
X037970Y009469D02*
X037910Y009469D01*
X037910Y009390D02*
X037970Y009390D01*
X037970Y009312D02*
X037910Y009312D01*
X037910Y009233D02*
X037970Y009233D01*
X037970Y009155D02*
X037910Y009155D01*
X037910Y009076D02*
X037970Y009076D01*
X038006Y008998D02*
X037874Y008998D01*
X037840Y008919D02*
X038449Y008919D01*
X038527Y008841D02*
X037840Y008841D01*
X037840Y008762D02*
X038606Y008762D01*
X038684Y008684D02*
X038186Y008684D01*
X038237Y008605D02*
X038643Y008605D01*
X038643Y008527D02*
X038237Y008527D01*
X038244Y008448D02*
X038643Y008448D01*
X038643Y008370D02*
X038323Y008370D01*
X038401Y008291D02*
X038643Y008291D01*
X038643Y008213D02*
X038480Y008213D01*
X038558Y008134D02*
X038643Y008134D01*
X038637Y008056D02*
X039290Y008056D01*
X039290Y008134D02*
X039237Y008134D01*
X039237Y008213D02*
X039290Y008213D01*
X039290Y008291D02*
X039237Y008291D01*
X039237Y008370D02*
X039290Y008370D01*
X039290Y008448D02*
X039237Y008448D01*
X039237Y008527D02*
X039290Y008527D01*
X039290Y008605D02*
X039237Y008605D01*
X039186Y008684D02*
X039290Y008684D01*
X039290Y008762D02*
X039030Y008762D01*
X038952Y008841D02*
X039290Y008841D01*
X039290Y008919D02*
X038873Y008919D01*
X038795Y008998D02*
X039290Y008998D01*
X039290Y009076D02*
X038716Y009076D01*
X038725Y009149D02*
X038900Y009149D01*
X038900Y009465D01*
X038980Y009465D01*
X038980Y009149D01*
X039155Y009149D01*
X039191Y009158D01*
X039223Y009177D01*
X039249Y009203D01*
X039267Y009235D01*
X039277Y009270D01*
X039277Y009465D01*
X038980Y009465D01*
X038980Y009545D01*
X039277Y009545D01*
X039277Y009740D01*
X039267Y009776D01*
X039249Y009808D01*
X039223Y009834D01*
X039191Y009852D01*
X039169Y009858D01*
X039178Y009858D01*
X039237Y009917D01*
X039237Y010433D01*
X039229Y010440D01*
X039237Y010447D01*
X039237Y010963D01*
X039178Y011022D01*
X039070Y011022D01*
X039034Y011058D01*
X039178Y011058D01*
X039237Y011117D01*
X039290Y011117D01*
X039237Y011117D02*
X039237Y011633D01*
X039178Y011691D01*
X039090Y011691D01*
X039090Y011902D01*
X039290Y011902D01*
X039290Y011824D02*
X039090Y011824D01*
X039090Y011902D02*
X038102Y012890D01*
X035202Y012890D01*
X033002Y015090D01*
X024628Y015090D01*
X024539Y015179D01*
X024341Y015179D01*
X024201Y015039D01*
X024201Y014841D01*
X024341Y014701D01*
X024539Y014701D01*
X024628Y014790D01*
X032878Y014790D01*
X034990Y012678D01*
X035078Y012590D01*
X037978Y012590D01*
X038790Y011778D01*
X038790Y011691D01*
X038702Y011691D01*
X038643Y011633D01*
X038643Y011355D01*
X038410Y011122D01*
X038410Y012046D01*
X038351Y012105D01*
X038340Y012105D01*
X038340Y012152D01*
X038252Y012240D01*
X038002Y012490D01*
X035002Y012490D01*
X032902Y014590D01*
X027978Y014590D01*
X027967Y014579D01*
X027841Y014579D01*
X027701Y014439D01*
X027701Y014241D01*
X027841Y014101D01*
X028039Y014101D01*
X028179Y014241D01*
X028179Y014290D01*
X032778Y014290D01*
X034790Y012278D01*
X034878Y012190D01*
X035643Y012190D01*
X035643Y011817D01*
X035702Y011758D01*
X035711Y011758D01*
X035689Y011752D01*
X035657Y011734D01*
X035631Y011708D01*
X035613Y011676D01*
X035603Y011640D01*
X035603Y011445D01*
X035900Y011445D01*
X035900Y011365D01*
X035980Y011365D01*
X035980Y011049D01*
X036155Y011049D01*
X036191Y011058D01*
X036223Y011077D01*
X036249Y011103D01*
X036267Y011135D01*
X036277Y011170D01*
X036277Y011365D01*
X035980Y011365D01*
X035980Y011445D01*
X036277Y011445D01*
X036277Y011640D01*
X036267Y011676D01*
X036249Y011708D01*
X036223Y011734D01*
X036191Y011752D01*
X036169Y011758D01*
X036178Y011758D01*
X036237Y011817D01*
X036237Y012190D01*
X037878Y012190D01*
X037996Y012072D01*
X037970Y012046D01*
X037970Y011122D01*
X037910Y011182D01*
X037910Y012046D01*
X037851Y012105D01*
X037529Y012105D01*
X037470Y012046D01*
X037470Y011094D01*
X037529Y011035D01*
X037633Y011035D01*
X037790Y010878D01*
X037790Y010878D01*
X037813Y010855D01*
X037637Y010855D01*
X037404Y011088D01*
X037410Y011094D01*
X037410Y012046D01*
X037351Y012105D01*
X037029Y012105D01*
X036970Y012046D01*
X036970Y011094D01*
X037029Y011035D01*
X037040Y011035D01*
X037040Y011028D01*
X037425Y010643D01*
X037513Y010555D01*
X038643Y010555D01*
X038643Y010447D01*
X038651Y010440D01*
X038643Y010433D01*
X038643Y009917D01*
X038702Y009858D01*
X038711Y009858D01*
X038689Y009852D01*
X038657Y009834D01*
X038631Y009808D01*
X038613Y009776D01*
X038603Y009740D01*
X038603Y009545D01*
X038900Y009545D01*
X038900Y009465D01*
X038603Y009465D01*
X038603Y009270D01*
X038613Y009235D01*
X038631Y009203D01*
X038657Y009177D01*
X038689Y009158D01*
X038725Y009149D01*
X038703Y009155D02*
X038638Y009155D01*
X038614Y009233D02*
X038559Y009233D01*
X038603Y009312D02*
X038481Y009312D01*
X038410Y009390D02*
X038603Y009390D01*
X038603Y009547D02*
X038410Y009547D01*
X038410Y009469D02*
X038900Y009469D01*
X038900Y009390D02*
X038980Y009390D01*
X038980Y009312D02*
X038900Y009312D01*
X038900Y009233D02*
X038980Y009233D01*
X038980Y009155D02*
X038900Y009155D01*
X039177Y009155D02*
X039290Y009155D01*
X039290Y009233D02*
X039266Y009233D01*
X039277Y009312D02*
X039290Y009312D01*
X039290Y009390D02*
X039277Y009390D01*
X039290Y009469D02*
X038980Y009469D01*
X039277Y009547D02*
X039290Y009547D01*
X039290Y009626D02*
X039277Y009626D01*
X039277Y009704D02*
X039290Y009704D01*
X039290Y009783D02*
X039263Y009783D01*
X039290Y009861D02*
X039181Y009861D01*
X039237Y009940D02*
X039290Y009940D01*
X039290Y010018D02*
X039237Y010018D01*
X039237Y010097D02*
X039290Y010097D01*
X039290Y010175D02*
X039237Y010175D01*
X039237Y010254D02*
X039290Y010254D01*
X039290Y010332D02*
X039237Y010332D01*
X039237Y010411D02*
X039290Y010411D01*
X039290Y010489D02*
X039237Y010489D01*
X039237Y010568D02*
X039290Y010568D01*
X039290Y010646D02*
X039237Y010646D01*
X039237Y010725D02*
X039290Y010725D01*
X039290Y010803D02*
X039237Y010803D01*
X039237Y010882D02*
X039290Y010882D01*
X039290Y010960D02*
X039237Y010960D01*
X039290Y011039D02*
X039054Y011039D01*
X039237Y011196D02*
X039290Y011196D01*
X039290Y011274D02*
X039237Y011274D01*
X039237Y011353D02*
X039290Y011353D01*
X039290Y011431D02*
X039237Y011431D01*
X039237Y011510D02*
X039290Y011510D01*
X039290Y011588D02*
X039237Y011588D01*
X039203Y011667D02*
X039290Y011667D01*
X039290Y011745D02*
X039090Y011745D01*
X039012Y011981D02*
X039290Y011981D01*
X039290Y012059D02*
X038933Y012059D01*
X038855Y012138D02*
X039290Y012138D01*
X039290Y012216D02*
X038776Y012216D01*
X038698Y012295D02*
X039290Y012295D01*
X039290Y012373D02*
X038619Y012373D01*
X038541Y012452D02*
X039290Y012452D01*
X039290Y012530D02*
X038462Y012530D01*
X038384Y012609D02*
X039290Y012609D01*
X039290Y012687D02*
X038305Y012687D01*
X038227Y012766D02*
X039290Y012766D01*
X039290Y012844D02*
X038148Y012844D01*
X038038Y012530D02*
X034962Y012530D01*
X034884Y012609D02*
X035059Y012609D01*
X034981Y012687D02*
X034805Y012687D01*
X034727Y012766D02*
X034902Y012766D01*
X034824Y012844D02*
X034648Y012844D01*
X034570Y012923D02*
X034745Y012923D01*
X034667Y013001D02*
X034491Y013001D01*
X034413Y013080D02*
X034588Y013080D01*
X034510Y013158D02*
X034334Y013158D01*
X034256Y013237D02*
X034431Y013237D01*
X034353Y013315D02*
X034177Y013315D01*
X034099Y013394D02*
X034274Y013394D01*
X034196Y013472D02*
X034020Y013472D01*
X033942Y013551D02*
X034117Y013551D01*
X034039Y013629D02*
X033863Y013629D01*
X033785Y013708D02*
X033960Y013708D01*
X033882Y013786D02*
X033706Y013786D01*
X033628Y013865D02*
X033803Y013865D01*
X033725Y013943D02*
X033549Y013943D01*
X033471Y014022D02*
X033646Y014022D01*
X033568Y014100D02*
X033392Y014100D01*
X033314Y014179D02*
X033489Y014179D01*
X033411Y014257D02*
X033235Y014257D01*
X033157Y014336D02*
X033332Y014336D01*
X033254Y014414D02*
X033078Y014414D01*
X033000Y014493D02*
X033175Y014493D01*
X033097Y014571D02*
X032921Y014571D01*
X033018Y014650D02*
X020281Y014650D01*
X020275Y014664D02*
X020164Y014775D01*
X020019Y014835D01*
X019861Y014835D01*
X019752Y014790D01*
X018585Y014790D01*
X014390Y018985D01*
X014390Y020210D01*
X014337Y020338D01*
X013837Y020838D01*
X013738Y020937D01*
X013610Y020990D01*
X008770Y020990D01*
X008642Y020937D01*
X007895Y020190D01*
X005478Y020190D01*
X005390Y020102D01*
X005390Y017325D01*
X005290Y017083D01*
X004850Y017083D01*
X004855Y017060D02*
X004831Y017169D01*
X004794Y017274D01*
X004746Y017374D01*
X004686Y017468D01*
X004617Y017555D01*
X004539Y017634D01*
X004452Y017703D01*
X004357Y017762D01*
X004257Y017810D01*
X004152Y017847D01*
X004044Y017872D01*
X003933Y017884D01*
X003918Y017884D01*
X003918Y016934D01*
X004868Y016934D01*
X004868Y016950D01*
X004855Y017060D01*
X004862Y017005D02*
X005290Y017005D01*
X005290Y017083D02*
X005290Y016705D01*
X005435Y016356D01*
X005702Y016089D01*
X006051Y015944D01*
X006429Y015944D01*
X006778Y016089D01*
X007045Y016356D01*
X007190Y016705D01*
X007190Y016790D01*
X008202Y016790D01*
X008290Y016878D01*
X008290Y018364D01*
X008305Y018379D01*
X008305Y019610D01*
X008985Y020290D01*
X013395Y020290D01*
X013690Y019995D01*
X013690Y018770D01*
X013743Y018642D01*
X013842Y018543D01*
X018242Y014143D01*
X018370Y014090D01*
X019752Y014090D01*
X019861Y014045D01*
X020019Y014045D01*
X020164Y014105D01*
X020275Y014216D01*
X020335Y014361D01*
X020335Y014519D01*
X020275Y014664D01*
X020211Y014728D02*
X024314Y014728D01*
X024236Y014807D02*
X020088Y014807D01*
X019792Y014807D02*
X018568Y014807D01*
X018490Y014885D02*
X024201Y014885D01*
X024201Y014964D02*
X018411Y014964D01*
X018333Y015042D02*
X024204Y015042D01*
X024283Y015121D02*
X018254Y015121D01*
X018176Y015199D02*
X036769Y015199D01*
X036847Y015121D02*
X024597Y015121D01*
X024566Y014728D02*
X032940Y014728D01*
X033129Y014964D02*
X037004Y014964D01*
X036926Y015042D02*
X033050Y015042D01*
X033207Y014885D02*
X037083Y014885D01*
X037161Y014807D02*
X033286Y014807D01*
X033364Y014728D02*
X037240Y014728D01*
X037318Y014650D02*
X033443Y014650D01*
X033521Y014571D02*
X037397Y014571D01*
X037475Y014493D02*
X033600Y014493D01*
X033678Y014414D02*
X039054Y014414D01*
X039087Y014336D02*
X039132Y014336D01*
X039181Y014257D02*
X039211Y014257D01*
X039240Y014179D02*
X039289Y014179D01*
X039277Y014100D02*
X039290Y014100D01*
X039279Y013786D02*
X039290Y013786D01*
X039290Y013708D02*
X039243Y013708D01*
X039290Y013629D02*
X039187Y013629D01*
X039095Y013551D02*
X039290Y013551D01*
X039290Y013472D02*
X034620Y013472D01*
X034542Y013551D02*
X038585Y013551D01*
X038596Y013542D02*
X038662Y013509D01*
X038731Y013486D01*
X038803Y013475D01*
X038811Y013475D01*
X038811Y013911D01*
X038375Y013911D01*
X038375Y013903D01*
X038386Y013831D01*
X038409Y013762D01*
X038442Y013696D01*
X038485Y013637D01*
X038537Y013585D01*
X038596Y013542D01*
X038493Y013629D02*
X034463Y013629D01*
X034385Y013708D02*
X038437Y013708D01*
X038401Y013786D02*
X034306Y013786D01*
X034228Y013865D02*
X038381Y013865D01*
X038382Y014022D02*
X034071Y014022D01*
X033992Y014100D02*
X038403Y014100D01*
X038440Y014179D02*
X033914Y014179D01*
X033835Y014257D02*
X038499Y014257D01*
X038593Y014336D02*
X033757Y014336D01*
X034149Y013943D02*
X038811Y013943D01*
X038811Y013865D02*
X038869Y013865D01*
X038869Y013786D02*
X038811Y013786D01*
X038811Y013708D02*
X038869Y013708D01*
X038869Y013629D02*
X038811Y013629D01*
X038811Y013551D02*
X038869Y013551D01*
X039290Y013394D02*
X034699Y013394D01*
X034777Y013315D02*
X039290Y013315D01*
X039290Y013237D02*
X034856Y013237D01*
X034934Y013158D02*
X039290Y013158D01*
X039290Y013080D02*
X035013Y013080D01*
X035091Y013001D02*
X039290Y013001D01*
X039290Y012923D02*
X035170Y012923D01*
X034695Y012373D02*
X027190Y012373D01*
X027190Y012295D02*
X034773Y012295D01*
X034852Y012216D02*
X029953Y012216D01*
X029933Y012237D02*
X029991Y012179D01*
X030139Y012179D01*
X030279Y012039D01*
X030279Y011841D01*
X030139Y011701D01*
X029991Y011701D01*
X029933Y011643D01*
X029417Y011643D01*
X029358Y011702D01*
X029358Y012178D01*
X029417Y012237D01*
X029933Y012237D01*
X030180Y012138D02*
X035643Y012138D01*
X035643Y012059D02*
X030259Y012059D01*
X030279Y011981D02*
X035643Y011981D01*
X035643Y011902D02*
X030279Y011902D01*
X030261Y011824D02*
X035643Y011824D01*
X035676Y011745D02*
X030183Y011745D01*
X029956Y011667D02*
X035610Y011667D01*
X035603Y011588D02*
X005065Y011588D01*
X005086Y011579D02*
X004954Y011634D01*
X004812Y011634D01*
X004681Y011579D01*
X004580Y011479D01*
X004526Y011347D01*
X004526Y011205D01*
X004580Y011074D01*
X004681Y010973D01*
X004812Y010919D01*
X004954Y010919D01*
X005086Y010973D01*
X005186Y011074D01*
X005241Y011205D01*
X005241Y011347D01*
X005186Y011479D01*
X005086Y011579D01*
X005156Y011510D02*
X035603Y011510D01*
X035603Y011365D02*
X035603Y011170D01*
X035613Y011135D01*
X035631Y011103D01*
X035657Y011077D01*
X035689Y011058D01*
X035725Y011049D01*
X035900Y011049D01*
X035900Y011365D01*
X035603Y011365D01*
X035603Y011353D02*
X005239Y011353D01*
X005241Y011274D02*
X035603Y011274D01*
X035603Y011196D02*
X005237Y011196D01*
X005204Y011117D02*
X035623Y011117D01*
X035900Y011117D02*
X035980Y011117D01*
X035980Y011196D02*
X035900Y011196D01*
X035900Y011274D02*
X035980Y011274D01*
X035980Y011353D02*
X035900Y011353D01*
X035900Y011431D02*
X005206Y011431D01*
X005151Y011039D02*
X036525Y011039D01*
X036540Y010960D02*
X005054Y010960D01*
X004954Y010634D02*
X004812Y010634D01*
X004681Y010579D01*
X004580Y010479D01*
X004526Y010347D01*
X004526Y010205D01*
X004580Y010074D01*
X004681Y009973D01*
X004812Y009919D01*
X004954Y009919D01*
X005086Y009973D01*
X005186Y010074D01*
X005241Y010205D01*
X005241Y010347D01*
X005186Y010479D01*
X005086Y010579D01*
X004954Y010634D01*
X005098Y010568D02*
X008903Y010568D01*
X008903Y010515D02*
X008903Y010710D01*
X008913Y010745D01*
X008931Y010777D01*
X008957Y010803D01*
X001380Y010803D01*
X001380Y010725D02*
X008907Y010725D01*
X008903Y010646D02*
X001380Y010646D01*
X001380Y010568D02*
X004669Y010568D01*
X004591Y010489D02*
X001380Y010489D01*
X001380Y010411D02*
X004552Y010411D01*
X004526Y010332D02*
X001380Y010332D01*
X001380Y010254D02*
X004526Y010254D01*
X004538Y010175D02*
X001380Y010175D01*
X001380Y010097D02*
X004571Y010097D01*
X004636Y010018D02*
X001380Y010018D01*
X001380Y009940D02*
X004762Y009940D01*
X005005Y009940D02*
X008943Y009940D01*
X008943Y010018D02*
X005131Y010018D01*
X005196Y010097D02*
X008976Y010097D01*
X008989Y010128D02*
X009011Y010122D01*
X009002Y010122D01*
X008943Y010063D01*
X008943Y009763D01*
X008800Y009620D01*
X007365Y009620D01*
X007260Y009515D01*
X005765Y008020D01*
X004265Y008020D01*
X004160Y007915D01*
X003990Y007745D01*
X003990Y008502D01*
X003902Y008590D01*
X001678Y008590D01*
X001590Y008502D01*
X001590Y008332D01*
X001515Y008257D01*
X001515Y007823D01*
X001590Y007748D01*
X001590Y007578D01*
X001678Y007490D01*
X002790Y007490D01*
X002790Y004278D01*
X002878Y004190D01*
X004802Y004190D01*
X004849Y004237D01*
X005178Y004237D01*
X005194Y004221D01*
X005289Y004182D01*
X005391Y004182D01*
X005486Y004221D01*
X005559Y004294D01*
X005598Y004389D01*
X005598Y004491D01*
X005559Y004586D01*
X005486Y004659D01*
X005391Y004698D01*
X005289Y004698D01*
X005276Y004693D01*
X005218Y004752D01*
X005120Y004752D01*
X005120Y005715D01*
X005015Y005820D01*
X005015Y005820D01*
X004220Y006615D01*
X004220Y007465D01*
X004415Y007660D01*
X005915Y007660D01*
X007515Y009260D01*
X008949Y009260D01*
X009178Y009489D01*
X009337Y009489D01*
X011635Y007190D01*
X004902Y007190D01*
X004779Y007313D01*
X004779Y007339D01*
X004639Y007479D01*
X004441Y007479D01*
X004301Y007339D01*
X004301Y007141D01*
X004402Y007040D01*
X004301Y006939D01*
X004301Y006741D01*
X004441Y006601D01*
X004567Y006601D01*
X004578Y006590D01*
X008002Y006590D01*
X007901Y006489D01*
X007901Y006313D01*
X006178Y004590D01*
X006028Y004590D01*
X005939Y004679D01*
X005741Y004679D01*
X005601Y004539D01*
X005601Y004341D01*
X005741Y004201D01*
X005939Y004201D01*
X006028Y004290D01*
X006302Y004290D01*
X008163Y006151D01*
X008239Y006151D01*
X008379Y006291D01*
X008379Y006489D01*
X008278Y006590D01*
X011578Y006590D01*
X012790Y005378D01*
X012790Y005378D01*
X012878Y005290D01*
X014848Y005290D01*
X014815Y005257D01*
X014815Y004823D01*
X015123Y004515D01*
X015557Y004515D01*
X015865Y004823D01*
X015865Y005257D01*
X015632Y005490D01*
X016678Y005490D01*
X016701Y005467D01*
X016701Y005441D01*
X016841Y005301D01*
X017039Y005301D01*
X017179Y005441D01*
X017179Y005639D01*
X017039Y005779D01*
X016841Y005779D01*
X016827Y005765D01*
X016802Y005790D01*
X015102Y005790D01*
X015102Y005790D01*
X017452Y005790D01*
X017541Y005701D01*
X017739Y005701D01*
X017879Y005841D01*
X017879Y006039D01*
X017739Y006179D01*
X017541Y006179D01*
X017452Y006090D01*
X015045Y006090D01*
X015215Y006260D01*
X017889Y006260D01*
X017889Y006202D01*
X017947Y006143D01*
X018025Y006143D01*
X018025Y005000D01*
X018400Y004625D01*
X018543Y004625D01*
X018543Y004547D01*
X018601Y004489D01*
X018601Y004341D01*
X018741Y004201D01*
X018939Y004201D01*
X019028Y004290D01*
X019378Y004290D01*
X019890Y003778D01*
X019978Y003690D01*
X021978Y003690D01*
X022431Y003237D01*
X022417Y003237D01*
X022358Y003178D01*
X022358Y002702D01*
X022417Y002643D01*
X022525Y002643D01*
X022525Y002437D01*
X022417Y002437D01*
X022358Y002378D01*
X022358Y001902D01*
X022417Y001843D01*
X022933Y001843D01*
X022991Y001902D01*
X022991Y002378D01*
X022933Y002437D01*
X022825Y002437D01*
X022825Y002643D01*
X022933Y002643D01*
X022991Y002702D01*
X022991Y003178D01*
X022933Y003237D01*
X022825Y003237D01*
X022825Y003267D01*
X026475Y003267D01*
X026541Y003201D02*
X026739Y003201D01*
X026828Y003290D01*
X027902Y003290D01*
X028113Y003501D01*
X028239Y003501D01*
X028343Y003606D01*
X028343Y003147D01*
X028402Y003089D01*
X028420Y003089D01*
X028335Y003004D01*
X028280Y002872D01*
X028280Y002208D01*
X028335Y002076D01*
X028436Y001975D01*
X028568Y001920D01*
X028712Y001920D01*
X028844Y001975D01*
X028945Y002076D01*
X029000Y002208D01*
X029000Y002872D01*
X028945Y003004D01*
X028860Y003089D01*
X028878Y003089D01*
X028937Y003147D01*
X028937Y003663D01*
X028878Y003722D01*
X028402Y003722D01*
X028379Y003699D01*
X028379Y003781D01*
X028402Y003758D01*
X028878Y003758D01*
X028937Y003817D01*
X028937Y003895D01*
X029343Y003895D01*
X029343Y003817D01*
X029402Y003758D01*
X029878Y003758D01*
X029937Y003817D01*
X029937Y003895D01*
X030343Y003895D01*
X030343Y003817D01*
X030402Y003758D01*
X030878Y003758D01*
X030937Y003817D01*
X030937Y003895D01*
X031343Y003895D01*
X031343Y003817D01*
X031402Y003758D01*
X031878Y003758D01*
X031937Y003817D01*
X031937Y003895D01*
X032343Y003895D01*
X032343Y003817D01*
X032402Y003758D01*
X032878Y003758D01*
X032937Y003817D01*
X032937Y003895D01*
X033343Y003895D01*
X033343Y003817D01*
X033402Y003758D01*
X033878Y003758D01*
X033937Y003817D01*
X033937Y003895D01*
X034343Y003895D01*
X034343Y003817D01*
X034402Y003758D01*
X034878Y003758D01*
X034937Y003817D01*
X034937Y003895D01*
X035343Y003895D01*
X035343Y003817D01*
X035402Y003758D01*
X035878Y003758D01*
X035937Y003817D01*
X035937Y003895D01*
X036343Y003895D01*
X036343Y003817D01*
X036402Y003758D01*
X036878Y003758D01*
X036937Y003817D01*
X036937Y003895D01*
X037343Y003895D01*
X037343Y003817D01*
X037402Y003758D01*
X037878Y003758D01*
X037937Y003817D01*
X037937Y003895D01*
X038049Y003895D01*
X038128Y003974D02*
X040470Y003974D01*
X040470Y004052D02*
X038207Y004052D01*
X038155Y004000D02*
X038155Y004000D01*
X038285Y004131D02*
X040470Y004131D01*
X040470Y004209D02*
X038364Y004209D01*
X038442Y004288D02*
X040470Y004288D01*
X040470Y004366D02*
X038521Y004366D01*
X038599Y004445D02*
X040470Y004445D01*
X040470Y004523D02*
X038678Y004523D01*
X038756Y004602D02*
X040470Y004602D01*
X040470Y004680D02*
X038820Y004680D01*
X038820Y004759D02*
X040470Y004759D01*
X040470Y004837D02*
X038820Y004837D01*
X038820Y004916D02*
X040470Y004916D01*
X040470Y004994D02*
X038820Y004994D01*
X038820Y005073D02*
X040470Y005073D01*
X040470Y005151D02*
X038820Y005151D01*
X038820Y005230D02*
X040470Y005230D01*
X040470Y005308D02*
X038820Y005308D01*
X038820Y005387D02*
X040470Y005387D01*
X040470Y005465D02*
X038820Y005465D01*
X038820Y005544D02*
X040470Y005544D01*
X040470Y005622D02*
X038820Y005622D01*
X038820Y005701D02*
X040470Y005701D01*
X040470Y005779D02*
X038820Y005779D01*
X038820Y005858D02*
X040470Y005858D01*
X040470Y005936D02*
X038820Y005936D01*
X038820Y006015D02*
X040470Y006015D01*
X040470Y006093D02*
X038820Y006093D01*
X038820Y006172D02*
X040470Y006172D01*
X038460Y006172D02*
X034221Y006172D01*
X034299Y006093D02*
X034424Y006093D01*
X034110Y005858D02*
X034000Y005858D01*
X034000Y005779D02*
X034189Y005779D01*
X034267Y005701D02*
X034000Y005701D01*
X034000Y005622D02*
X034280Y005622D01*
X034280Y005544D02*
X034000Y005544D01*
X034000Y005465D02*
X034280Y005465D01*
X034280Y005387D02*
X034000Y005387D01*
X034000Y005308D02*
X034280Y005308D01*
X034280Y005230D02*
X034000Y005230D01*
X033976Y005151D02*
X034304Y005151D01*
X034338Y005073D02*
X033942Y005073D01*
X033863Y004994D02*
X034417Y004994D01*
X034863Y004994D02*
X035417Y004994D01*
X035436Y004975D02*
X035568Y004920D01*
X035712Y004920D01*
X035844Y004975D01*
X035945Y005076D01*
X036000Y005208D01*
X036000Y005872D01*
X035945Y006004D01*
X035844Y006105D01*
X035712Y006160D01*
X035568Y006160D01*
X035436Y006105D01*
X035335Y006004D01*
X035280Y005872D01*
X035280Y005208D01*
X035335Y005076D01*
X035436Y004975D01*
X035338Y005073D02*
X034942Y005073D01*
X034976Y005151D02*
X035304Y005151D01*
X035280Y005230D02*
X035000Y005230D01*
X035000Y005308D02*
X035280Y005308D01*
X035280Y005387D02*
X035000Y005387D01*
X035000Y005465D02*
X035280Y005465D01*
X035280Y005544D02*
X035000Y005544D01*
X035000Y005622D02*
X035280Y005622D01*
X035280Y005701D02*
X035000Y005701D01*
X035000Y005779D02*
X035280Y005779D01*
X035280Y005858D02*
X035000Y005858D01*
X034973Y005936D02*
X035307Y005936D01*
X035345Y006015D02*
X034935Y006015D01*
X034856Y006093D02*
X035424Y006093D01*
X035856Y006093D02*
X036424Y006093D01*
X036436Y006105D02*
X036335Y006004D01*
X036280Y005872D01*
X036280Y005208D01*
X036335Y005076D01*
X036436Y004975D01*
X036568Y004920D01*
X036712Y004920D01*
X036844Y004975D01*
X036945Y005076D01*
X037000Y005208D01*
X037000Y005872D01*
X036945Y006004D01*
X036844Y006105D01*
X036712Y006160D01*
X036568Y006160D01*
X036436Y006105D01*
X036345Y006015D02*
X035935Y006015D01*
X035973Y005936D02*
X036307Y005936D01*
X036280Y005858D02*
X036000Y005858D01*
X036000Y005779D02*
X036280Y005779D01*
X036280Y005701D02*
X036000Y005701D01*
X036000Y005622D02*
X036280Y005622D01*
X036280Y005544D02*
X036000Y005544D01*
X036000Y005465D02*
X036280Y005465D01*
X036280Y005387D02*
X036000Y005387D01*
X036000Y005308D02*
X036280Y005308D01*
X036280Y005230D02*
X036000Y005230D01*
X035976Y005151D02*
X036304Y005151D01*
X036338Y005073D02*
X035942Y005073D01*
X035863Y004994D02*
X036417Y004994D01*
X036646Y004759D02*
X032371Y004759D01*
X032449Y004837D02*
X036725Y004837D01*
X036803Y004916D02*
X032528Y004916D01*
X032292Y004680D02*
X036568Y004680D01*
X036489Y004602D02*
X032214Y004602D01*
X032863Y004994D02*
X033417Y004994D01*
X033338Y005073D02*
X032942Y005073D01*
X032976Y005151D02*
X033304Y005151D01*
X033280Y005230D02*
X033000Y005230D01*
X033000Y005308D02*
X033280Y005308D01*
X033280Y005387D02*
X033000Y005387D01*
X033000Y005465D02*
X033280Y005465D01*
X033280Y005544D02*
X033000Y005544D01*
X033000Y005622D02*
X033280Y005622D01*
X033267Y005701D02*
X033000Y005701D01*
X033000Y005779D02*
X033189Y005779D01*
X033110Y005858D02*
X033000Y005858D01*
X032973Y005936D02*
X033032Y005936D01*
X032953Y006015D02*
X032935Y006015D01*
X033221Y006172D02*
X033796Y006172D01*
X033856Y006093D02*
X033875Y006093D01*
X033935Y006015D02*
X033953Y006015D01*
X033973Y005936D02*
X034032Y005936D01*
X033424Y006093D02*
X033299Y006093D01*
X034686Y007506D02*
X035543Y007506D01*
X035543Y007585D02*
X034608Y007585D01*
X034529Y007663D02*
X035543Y007663D01*
X035543Y007742D02*
X034451Y007742D01*
X034558Y007820D02*
X035543Y007820D01*
X035543Y007899D02*
X034636Y007899D01*
X034679Y007977D02*
X035557Y007977D01*
X035548Y008056D02*
X034679Y008056D01*
X034679Y008134D02*
X035505Y008134D01*
X035503Y008213D02*
X034605Y008213D01*
X034607Y008370D02*
X035800Y008370D01*
X035800Y008448D02*
X035880Y008448D01*
X035880Y008415D02*
X035880Y008731D01*
X036055Y008731D01*
X036091Y008722D01*
X036123Y008703D01*
X036149Y008677D01*
X036167Y008645D01*
X036177Y008610D01*
X036177Y008415D01*
X035880Y008415D01*
X035880Y008370D02*
X036457Y008370D01*
X036536Y008448D02*
X036177Y008448D01*
X036177Y008527D02*
X036543Y008527D01*
X036543Y008605D02*
X036177Y008605D01*
X036142Y008684D02*
X036594Y008684D01*
X036552Y008935D02*
X036670Y008935D01*
X036670Y009490D01*
X036430Y009490D01*
X036430Y009057D01*
X036440Y009021D01*
X036458Y008989D01*
X036484Y008963D01*
X036516Y008945D01*
X036552Y008935D01*
X036453Y008998D02*
X024035Y008998D01*
X024079Y009076D02*
X036430Y009076D01*
X036430Y009155D02*
X024079Y009155D01*
X024079Y009233D02*
X036430Y009233D01*
X036430Y009312D02*
X024006Y009312D01*
X023674Y009312D02*
X010964Y009312D01*
X010964Y009390D02*
X036430Y009390D01*
X036430Y009469D02*
X010964Y009469D01*
X010964Y009547D02*
X036430Y009547D01*
X036430Y009530D02*
X036670Y009530D01*
X036670Y010085D01*
X036552Y010085D01*
X036516Y010075D01*
X036484Y010057D01*
X036458Y010031D01*
X036440Y009999D01*
X036430Y009963D01*
X036430Y009530D01*
X036430Y009626D02*
X010964Y009626D01*
X011051Y009704D02*
X036430Y009704D01*
X036430Y009783D02*
X011071Y009783D01*
X011071Y009861D02*
X036430Y009861D01*
X036430Y009940D02*
X011071Y009940D01*
X011071Y010018D02*
X036451Y010018D01*
X036670Y010018D02*
X036710Y010018D01*
X036710Y010085D02*
X036710Y009530D01*
X036670Y009530D01*
X036670Y009490D01*
X036710Y009490D01*
X036710Y009530D01*
X036950Y009530D01*
X036950Y009963D01*
X036940Y009999D01*
X036922Y010031D01*
X036896Y010057D01*
X036864Y010075D01*
X036828Y010085D01*
X036710Y010085D01*
X036710Y009940D02*
X036670Y009940D01*
X036670Y009861D02*
X036710Y009861D01*
X036710Y009783D02*
X036670Y009783D01*
X036670Y009704D02*
X036710Y009704D01*
X036710Y009626D02*
X036670Y009626D01*
X036670Y009547D02*
X036710Y009547D01*
X036710Y009490D02*
X036950Y009490D01*
X036950Y009057D01*
X036940Y009021D01*
X036922Y008989D01*
X036896Y008963D01*
X036864Y008945D01*
X036828Y008935D01*
X036710Y008935D01*
X036710Y009490D01*
X036710Y009469D02*
X036670Y009469D01*
X036670Y009390D02*
X036710Y009390D01*
X036710Y009312D02*
X036670Y009312D01*
X036670Y009233D02*
X036710Y009233D01*
X036710Y009155D02*
X036670Y009155D01*
X036670Y009076D02*
X036710Y009076D01*
X036710Y008998D02*
X036670Y008998D01*
X036927Y008998D02*
X037006Y008998D01*
X036970Y009076D02*
X036950Y009076D01*
X036950Y009155D02*
X036970Y009155D01*
X036970Y009233D02*
X036950Y009233D01*
X036950Y009312D02*
X036970Y009312D01*
X036970Y009390D02*
X036950Y009390D01*
X036950Y009469D02*
X036970Y009469D01*
X036970Y009547D02*
X036950Y009547D01*
X036950Y009626D02*
X036970Y009626D01*
X036970Y009704D02*
X036950Y009704D01*
X036950Y009783D02*
X036970Y009783D01*
X036970Y009861D02*
X036950Y009861D01*
X036950Y009940D02*
X036970Y009940D01*
X037002Y010018D02*
X036929Y010018D01*
X037378Y010018D02*
X037502Y010018D01*
X037470Y009940D02*
X037410Y009940D01*
X037410Y009861D02*
X037470Y009861D01*
X037470Y009783D02*
X037410Y009783D01*
X037410Y009704D02*
X037470Y009704D01*
X037470Y009626D02*
X037410Y009626D01*
X037410Y009547D02*
X037470Y009547D01*
X037470Y009469D02*
X037410Y009469D01*
X037410Y009390D02*
X037470Y009390D01*
X037470Y009312D02*
X037410Y009312D01*
X037410Y009233D02*
X037470Y009233D01*
X037470Y009155D02*
X037410Y009155D01*
X037410Y009076D02*
X037470Y009076D01*
X037506Y008998D02*
X037374Y008998D01*
X037340Y008919D02*
X037540Y008919D01*
X037540Y008841D02*
X037340Y008841D01*
X037340Y008762D02*
X037540Y008762D01*
X037540Y008684D02*
X037340Y008684D01*
X037340Y008605D02*
X037540Y008605D01*
X037576Y008527D02*
X037311Y008527D01*
X037201Y008448D02*
X037643Y008448D01*
X037643Y008370D02*
X037137Y008370D01*
X037137Y008291D02*
X037643Y008291D01*
X037643Y008213D02*
X037137Y008213D01*
X037137Y008134D02*
X037643Y008134D01*
X037657Y007977D02*
X037123Y007977D01*
X037137Y007899D02*
X037643Y007899D01*
X037643Y007820D02*
X037137Y007820D01*
X037137Y007742D02*
X037643Y007742D01*
X037643Y007663D02*
X037137Y007663D01*
X037137Y007585D02*
X037643Y007585D01*
X037643Y007506D02*
X037137Y007506D01*
X037117Y007428D02*
X037663Y007428D01*
X037800Y007349D02*
X036990Y007349D01*
X037122Y007271D02*
X037558Y007271D01*
X037490Y007192D02*
X037190Y007192D01*
X037195Y007114D02*
X037485Y007114D01*
X037485Y007035D02*
X037195Y007035D01*
X037195Y006957D02*
X037485Y006957D01*
X037485Y006878D02*
X037195Y006878D01*
X037195Y006800D02*
X037485Y006800D01*
X037485Y006721D02*
X037195Y006721D01*
X037195Y006643D02*
X037485Y006643D01*
X037485Y006564D02*
X037195Y006564D01*
X037195Y006486D02*
X037485Y006486D01*
X037485Y006407D02*
X037195Y006407D01*
X037190Y006329D02*
X037490Y006329D01*
X037518Y006250D02*
X037162Y006250D01*
X037345Y006015D02*
X036935Y006015D01*
X036973Y005936D02*
X037307Y005936D01*
X037280Y005858D02*
X037000Y005858D01*
X037000Y005779D02*
X037280Y005779D01*
X037280Y005701D02*
X037000Y005701D01*
X037000Y005622D02*
X037280Y005622D01*
X037280Y005544D02*
X037000Y005544D01*
X037000Y005465D02*
X037280Y005465D01*
X037274Y005387D02*
X037000Y005387D01*
X037000Y005308D02*
X037196Y005308D01*
X037117Y005230D02*
X037000Y005230D01*
X036976Y005151D02*
X037039Y005151D01*
X036960Y005073D02*
X036942Y005073D01*
X036882Y004994D02*
X036863Y004994D01*
X037071Y004759D02*
X038404Y004759D01*
X038460Y004837D02*
X037149Y004837D01*
X037228Y004916D02*
X038460Y004916D01*
X038460Y004994D02*
X037863Y004994D01*
X037942Y005073D02*
X038460Y005073D01*
X038460Y005151D02*
X037976Y005151D01*
X038000Y005230D02*
X038460Y005230D01*
X038460Y005308D02*
X038000Y005308D01*
X038000Y005387D02*
X038460Y005387D01*
X038460Y005465D02*
X038000Y005465D01*
X038000Y005544D02*
X038460Y005544D01*
X038460Y005622D02*
X038000Y005622D01*
X038000Y005701D02*
X038460Y005701D01*
X038460Y005779D02*
X038000Y005779D01*
X038000Y005858D02*
X038460Y005858D01*
X038460Y005936D02*
X037973Y005936D01*
X037935Y006015D02*
X038460Y006015D01*
X038460Y006093D02*
X037856Y006093D01*
X037424Y006093D02*
X036856Y006093D01*
X037900Y006740D02*
X037940Y006740D01*
X037940Y007705D01*
X038237Y007742D02*
X038526Y007742D01*
X038448Y007820D02*
X038237Y007820D01*
X038237Y007899D02*
X038369Y007899D01*
X038291Y007977D02*
X038223Y007977D01*
X038212Y008056D02*
X036568Y008056D01*
X036557Y007977D02*
X036489Y007977D01*
X036543Y007899D02*
X036411Y007899D01*
X036332Y007820D02*
X036543Y007820D01*
X036543Y007742D02*
X036254Y007742D01*
X036175Y007663D02*
X036543Y007663D01*
X036543Y007585D02*
X036137Y007585D01*
X036137Y007506D02*
X036543Y007506D01*
X036563Y007428D02*
X036365Y007428D01*
X036443Y007349D02*
X036690Y007349D01*
X036143Y008056D02*
X036132Y008056D01*
X036175Y008134D02*
X036222Y008134D01*
X036177Y008213D02*
X036300Y008213D01*
X036379Y008291D02*
X036177Y008291D01*
X035880Y008527D02*
X035800Y008527D01*
X035800Y008605D02*
X035880Y008605D01*
X035880Y008684D02*
X035800Y008684D01*
X035538Y008684D02*
X034634Y008684D01*
X034679Y008605D02*
X035503Y008605D01*
X035503Y008527D02*
X034679Y008527D01*
X034679Y008448D02*
X035503Y008448D01*
X035503Y008291D02*
X034401Y008291D01*
X034324Y008762D02*
X025654Y008762D01*
X025557Y008065D02*
X025123Y008065D01*
X024863Y007806D01*
X024833Y007837D01*
X024317Y007837D01*
X024258Y007778D01*
X024258Y007302D01*
X024317Y007243D01*
X024833Y007243D01*
X024863Y007274D01*
X025123Y007015D01*
X025557Y007015D01*
X025840Y007298D01*
X026123Y007015D01*
X026557Y007015D01*
X026865Y007323D01*
X026865Y007757D01*
X026557Y008065D01*
X026123Y008065D01*
X025840Y007782D01*
X025557Y008065D01*
X025567Y008056D02*
X026113Y008056D01*
X026035Y007977D02*
X025645Y007977D01*
X025724Y007899D02*
X025956Y007899D01*
X025878Y007820D02*
X025802Y007820D01*
X025113Y008056D02*
X022668Y008056D01*
X022746Y008134D02*
X029177Y008134D01*
X029390Y008056D02*
X026567Y008056D01*
X026645Y007977D02*
X029390Y007977D01*
X029390Y007899D02*
X026724Y007899D01*
X026802Y007820D02*
X029390Y007820D01*
X029390Y007742D02*
X026865Y007742D01*
X026865Y007663D02*
X029390Y007663D01*
X029390Y007585D02*
X026865Y007585D01*
X026865Y007506D02*
X029390Y007506D01*
X029390Y007428D02*
X026865Y007428D01*
X026865Y007349D02*
X029390Y007349D01*
X029390Y007271D02*
X026813Y007271D01*
X026734Y007192D02*
X029390Y007192D01*
X029390Y007114D02*
X026656Y007114D01*
X026577Y007035D02*
X029390Y007035D01*
X029390Y006957D02*
X027336Y006957D01*
X027414Y006878D02*
X029390Y006878D01*
X029390Y006800D02*
X027493Y006800D01*
X027571Y006721D02*
X029390Y006721D01*
X029390Y006643D02*
X027650Y006643D01*
X027728Y006564D02*
X029390Y006564D01*
X029390Y006486D02*
X027807Y006486D01*
X027885Y006407D02*
X029390Y006407D01*
X028421Y006090D02*
X028335Y006004D01*
X028280Y005872D01*
X028280Y005392D01*
X028078Y005190D01*
X027711Y005190D01*
X027729Y005208D01*
X027776Y005273D01*
X027813Y005344D01*
X027837Y005421D01*
X027850Y005500D01*
X027380Y005500D01*
X027380Y005580D01*
X027300Y005580D01*
X027300Y006050D01*
X027300Y006050D01*
X027221Y006037D01*
X027144Y006013D01*
X027073Y005976D01*
X027008Y005929D01*
X026951Y005872D01*
X026904Y005807D01*
X026867Y005736D01*
X026843Y005659D01*
X026830Y005580D01*
X027300Y005580D01*
X027300Y005500D01*
X026830Y005500D01*
X026830Y005500D01*
X026843Y005421D01*
X026867Y005344D01*
X026904Y005273D01*
X026951Y005208D01*
X026969Y005190D01*
X026655Y005190D01*
X026738Y005274D01*
X026810Y005447D01*
X026810Y005633D01*
X026738Y005806D01*
X026606Y005938D01*
X026433Y006010D01*
X026247Y006010D01*
X026074Y005938D01*
X025942Y005806D01*
X025870Y005633D01*
X025870Y005447D01*
X025942Y005274D01*
X026025Y005190D01*
X025655Y005190D01*
X025738Y005274D01*
X025810Y005447D01*
X025810Y005633D01*
X025738Y005806D01*
X025606Y005938D01*
X025433Y006010D01*
X025247Y006010D01*
X025201Y005991D01*
X024502Y006690D01*
X027178Y006690D01*
X027778Y006090D01*
X028421Y006090D01*
X028345Y006015D02*
X027530Y006015D01*
X027536Y006013D02*
X027459Y006037D01*
X027380Y006050D01*
X027380Y005580D01*
X027850Y005580D01*
X027850Y005580D01*
X027837Y005659D01*
X027813Y005736D01*
X027776Y005807D01*
X027729Y005872D01*
X027672Y005929D01*
X027607Y005976D01*
X027536Y006013D01*
X027663Y005936D02*
X028307Y005936D01*
X028280Y005858D02*
X027740Y005858D01*
X027791Y005779D02*
X028280Y005779D01*
X028280Y005701D02*
X027824Y005701D01*
X027843Y005622D02*
X028280Y005622D01*
X028280Y005544D02*
X027380Y005544D01*
X027380Y005622D02*
X027300Y005622D01*
X027300Y005544D02*
X026810Y005544D01*
X026830Y005580D02*
X026830Y005580D01*
X026837Y005622D02*
X026810Y005622D01*
X026782Y005701D02*
X026856Y005701D01*
X026889Y005779D02*
X026750Y005779D01*
X026687Y005858D02*
X026940Y005858D01*
X027017Y005936D02*
X026609Y005936D01*
X026071Y005936D02*
X025609Y005936D01*
X025687Y005858D02*
X025993Y005858D01*
X025930Y005779D02*
X025750Y005779D01*
X025782Y005701D02*
X025898Y005701D01*
X025870Y005622D02*
X025810Y005622D01*
X025810Y005544D02*
X025870Y005544D01*
X025870Y005465D02*
X025810Y005465D01*
X025785Y005387D02*
X025895Y005387D01*
X025927Y005308D02*
X025753Y005308D01*
X025694Y005230D02*
X025986Y005230D01*
X026694Y005230D02*
X026935Y005230D01*
X026886Y005308D02*
X026753Y005308D01*
X026785Y005387D02*
X026854Y005387D01*
X026836Y005465D02*
X026810Y005465D01*
X027300Y005701D02*
X027380Y005701D01*
X027380Y005779D02*
X027300Y005779D01*
X027300Y005858D02*
X027380Y005858D01*
X027380Y005936D02*
X027300Y005936D01*
X027300Y006015D02*
X027380Y006015D01*
X027380Y006050D02*
X027380Y006050D01*
X027150Y006015D02*
X025178Y006015D01*
X025099Y006093D02*
X027775Y006093D01*
X027696Y006172D02*
X025021Y006172D01*
X024942Y006250D02*
X027618Y006250D01*
X027539Y006329D02*
X024864Y006329D01*
X024785Y006407D02*
X027461Y006407D01*
X027382Y006486D02*
X024707Y006486D01*
X024628Y006564D02*
X027304Y006564D01*
X027225Y006643D02*
X024550Y006643D01*
X025024Y007114D02*
X023679Y007114D01*
X023600Y007192D02*
X024946Y007192D01*
X024867Y007271D02*
X024860Y007271D01*
X025103Y007035D02*
X023757Y007035D01*
X023620Y007271D02*
X023522Y007271D01*
X023589Y007349D02*
X023443Y007349D01*
X023440Y007428D02*
X023365Y007428D01*
X023551Y007742D02*
X023589Y007742D01*
X023631Y007820D02*
X022558Y007820D01*
X022579Y007899D02*
X024956Y007899D01*
X025035Y007977D02*
X022589Y007977D01*
X022400Y008213D02*
X019925Y008213D01*
X020003Y008291D02*
X022479Y008291D01*
X022557Y008370D02*
X020082Y008370D01*
X020160Y008448D02*
X020694Y008448D01*
X020616Y008527D02*
X020239Y008527D01*
X020317Y008605D02*
X020601Y008605D01*
X020601Y008684D02*
X020396Y008684D01*
X020474Y008762D02*
X020624Y008762D01*
X020553Y008841D02*
X020703Y008841D01*
X020631Y008919D02*
X020889Y008919D01*
X020521Y009233D02*
X010964Y009233D01*
X010964Y009155D02*
X020442Y009155D01*
X020364Y009076D02*
X010964Y009076D01*
X010964Y008998D02*
X020285Y008998D01*
X020207Y008919D02*
X010973Y008919D01*
X011052Y008841D02*
X020128Y008841D01*
X020050Y008762D02*
X011130Y008762D01*
X011209Y008684D02*
X019971Y008684D01*
X019893Y008605D02*
X014343Y008605D01*
X014375Y008592D02*
X014223Y008655D01*
X014057Y008655D01*
X013905Y008592D01*
X013788Y008475D01*
X013725Y008323D01*
X013725Y008157D01*
X013788Y008005D01*
X013905Y007888D01*
X014057Y007825D01*
X014223Y007825D01*
X014375Y007888D01*
X014492Y008005D01*
X014555Y008157D01*
X014555Y008323D01*
X014492Y008475D01*
X014375Y008592D01*
X014440Y008527D02*
X019814Y008527D01*
X019736Y008448D02*
X014503Y008448D01*
X014536Y008370D02*
X019657Y008370D01*
X019579Y008291D02*
X014555Y008291D01*
X014555Y008213D02*
X019500Y008213D01*
X019422Y008134D02*
X014545Y008134D01*
X014513Y008056D02*
X019343Y008056D01*
X019265Y007977D02*
X014464Y007977D01*
X014385Y007899D02*
X019186Y007899D01*
X019108Y007820D02*
X012072Y007820D01*
X011994Y007899D02*
X013895Y007899D01*
X013816Y007977D02*
X011915Y007977D01*
X011837Y008056D02*
X013767Y008056D01*
X013735Y008134D02*
X011758Y008134D01*
X011680Y008213D02*
X013725Y008213D01*
X013725Y008291D02*
X011601Y008291D01*
X011523Y008370D02*
X013744Y008370D01*
X013777Y008448D02*
X011444Y008448D01*
X011366Y008527D02*
X013840Y008527D01*
X013937Y008605D02*
X011287Y008605D01*
X011098Y008370D02*
X010965Y008370D01*
X011020Y008448D02*
X010887Y008448D01*
X010941Y008527D02*
X010808Y008527D01*
X010863Y008605D02*
X010730Y008605D01*
X010784Y008684D02*
X010651Y008684D01*
X010706Y008762D02*
X010573Y008762D01*
X010494Y008841D02*
X010664Y008841D01*
X010664Y008919D02*
X010416Y008919D01*
X010337Y008998D02*
X010664Y008998D01*
X010664Y009076D02*
X010259Y009076D01*
X010180Y009155D02*
X010664Y009155D01*
X010664Y009233D02*
X010102Y009233D01*
X010023Y009312D02*
X010664Y009312D01*
X010664Y009390D02*
X009945Y009390D01*
X009866Y009469D02*
X010664Y009469D01*
X010664Y009547D02*
X009788Y009547D01*
X009709Y009626D02*
X010664Y009626D01*
X010577Y009704D02*
X010303Y009704D01*
X010323Y009783D02*
X010557Y009783D01*
X010557Y009861D02*
X010323Y009861D01*
X010323Y009940D02*
X010557Y009940D01*
X010557Y010018D02*
X010323Y010018D01*
X010292Y010097D02*
X010609Y010097D01*
X010557Y010254D02*
X010363Y010254D01*
X010363Y010332D02*
X010557Y010332D01*
X010557Y010411D02*
X010105Y010411D01*
X010105Y010415D02*
X010027Y010415D01*
X010027Y010337D01*
X009769Y010337D01*
X009769Y010200D01*
X009778Y010165D01*
X009796Y010133D01*
X009823Y010107D01*
X009854Y010089D01*
X009809Y010044D01*
X009809Y009990D01*
X009537Y009990D01*
X009537Y010063D01*
X009478Y010122D01*
X009469Y010122D01*
X009491Y010128D01*
X009523Y010146D01*
X009549Y010172D01*
X009567Y010204D01*
X009577Y010240D01*
X009577Y010435D01*
X009280Y010435D01*
X009280Y010515D01*
X009200Y010515D01*
X009200Y010831D01*
X009025Y010831D01*
X008989Y010822D01*
X008957Y010803D01*
X009200Y010803D02*
X009280Y010803D01*
X009280Y010831D02*
X009280Y010515D01*
X009577Y010515D01*
X009577Y010710D01*
X009567Y010745D01*
X009549Y010777D01*
X009523Y010803D01*
X036665Y010803D01*
X036743Y010725D02*
X009573Y010725D01*
X009577Y010646D02*
X009823Y010646D01*
X009796Y010620D01*
X009778Y010588D01*
X009769Y010552D01*
X009769Y010415D01*
X010027Y010415D01*
X010027Y010674D01*
X009890Y010674D01*
X009854Y010664D01*
X009823Y010646D01*
X009773Y010568D02*
X009577Y010568D01*
X009577Y010411D02*
X010027Y010411D01*
X010105Y010415D02*
X010105Y010674D01*
X010242Y010674D01*
X010278Y010664D01*
X010309Y010646D01*
X010359Y010568D02*
X010569Y010568D01*
X010557Y010489D02*
X010363Y010489D01*
X010105Y010489D02*
X010027Y010489D01*
X010027Y010568D02*
X010105Y010568D01*
X010105Y010646D02*
X010027Y010646D01*
X009769Y010489D02*
X009280Y010489D01*
X009280Y010568D02*
X009200Y010568D01*
X009200Y010515D02*
X008903Y010515D01*
X008903Y010435D02*
X008903Y010240D01*
X008913Y010204D01*
X008931Y010172D01*
X008957Y010146D01*
X008989Y010128D01*
X008929Y010175D02*
X005228Y010175D01*
X005241Y010254D02*
X008903Y010254D01*
X008903Y010332D02*
X005241Y010332D01*
X005215Y010411D02*
X008903Y010411D01*
X008903Y010435D02*
X009200Y010435D01*
X009200Y010515D01*
X009200Y010489D02*
X005176Y010489D01*
X004713Y010960D02*
X001380Y010960D01*
X001380Y010882D02*
X036586Y010882D01*
X036470Y011117D02*
X036257Y011117D01*
X036277Y011196D02*
X036470Y011196D01*
X036470Y011274D02*
X036277Y011274D01*
X036277Y011353D02*
X036470Y011353D01*
X036470Y011431D02*
X035980Y011431D01*
X036277Y011510D02*
X036470Y011510D01*
X036470Y011588D02*
X036277Y011588D01*
X036270Y011667D02*
X036470Y011667D01*
X036470Y011745D02*
X036204Y011745D01*
X036237Y011824D02*
X036470Y011824D01*
X036470Y011902D02*
X036237Y011902D01*
X036237Y011981D02*
X036470Y011981D01*
X036483Y012059D02*
X036237Y012059D01*
X036237Y012138D02*
X037930Y012138D01*
X037897Y012059D02*
X037983Y012059D01*
X037970Y011981D02*
X037910Y011981D01*
X037910Y011902D02*
X037970Y011902D01*
X037970Y011824D02*
X037910Y011824D01*
X037910Y011745D02*
X037970Y011745D01*
X037970Y011667D02*
X037910Y011667D01*
X037910Y011588D02*
X037970Y011588D01*
X037970Y011510D02*
X037910Y011510D01*
X037910Y011431D02*
X037970Y011431D01*
X037970Y011353D02*
X037910Y011353D01*
X037910Y011274D02*
X037970Y011274D01*
X037970Y011196D02*
X037910Y011196D01*
X037708Y010960D02*
X037532Y010960D01*
X037525Y011039D02*
X037454Y011039D01*
X037470Y011117D02*
X037410Y011117D01*
X037410Y011196D02*
X037470Y011196D01*
X037470Y011274D02*
X037410Y011274D01*
X037410Y011353D02*
X037470Y011353D01*
X037470Y011431D02*
X037410Y011431D01*
X037410Y011510D02*
X037470Y011510D01*
X037470Y011588D02*
X037410Y011588D01*
X037410Y011667D02*
X037470Y011667D01*
X037470Y011745D02*
X037410Y011745D01*
X037410Y011824D02*
X037470Y011824D01*
X037470Y011902D02*
X037410Y011902D01*
X037410Y011981D02*
X037470Y011981D01*
X037483Y012059D02*
X037397Y012059D01*
X036983Y012059D02*
X036897Y012059D01*
X036910Y011981D02*
X036970Y011981D01*
X036970Y011902D02*
X036910Y011902D01*
X036910Y011824D02*
X036970Y011824D01*
X036970Y011745D02*
X036910Y011745D01*
X036910Y011667D02*
X036970Y011667D01*
X036970Y011588D02*
X036910Y011588D01*
X036910Y011510D02*
X036970Y011510D01*
X036970Y011431D02*
X036910Y011431D01*
X036910Y011353D02*
X036970Y011353D01*
X036970Y011274D02*
X036910Y011274D01*
X036910Y011196D02*
X036970Y011196D01*
X036970Y011117D02*
X036910Y011117D01*
X036855Y011039D02*
X037025Y011039D01*
X037108Y010960D02*
X036932Y010960D01*
X037011Y010882D02*
X037186Y010882D01*
X037265Y010803D02*
X037089Y010803D01*
X037168Y010725D02*
X037343Y010725D01*
X037422Y010646D02*
X037246Y010646D01*
X037325Y010568D02*
X037500Y010568D01*
X037611Y010882D02*
X037786Y010882D01*
X038410Y011196D02*
X038483Y011196D01*
X038410Y011274D02*
X038562Y011274D01*
X038640Y011353D02*
X038410Y011353D01*
X038410Y011431D02*
X038643Y011431D01*
X038643Y011510D02*
X038410Y011510D01*
X038410Y011588D02*
X038643Y011588D01*
X038677Y011667D02*
X038410Y011667D01*
X038410Y011745D02*
X038790Y011745D01*
X038744Y011824D02*
X038410Y011824D01*
X038410Y011902D02*
X038666Y011902D01*
X038587Y011981D02*
X038410Y011981D01*
X038397Y012059D02*
X038509Y012059D01*
X038430Y012138D02*
X038340Y012138D01*
X038352Y012216D02*
X038276Y012216D01*
X038273Y012295D02*
X038198Y012295D01*
X038195Y012373D02*
X038119Y012373D01*
X038116Y012452D02*
X038041Y012452D01*
X038811Y014022D02*
X038869Y014022D01*
X038869Y014100D02*
X038811Y014100D01*
X038811Y014179D02*
X038869Y014179D01*
X038869Y014257D02*
X038811Y014257D01*
X038811Y014336D02*
X038869Y014336D01*
X036690Y015278D02*
X018097Y015278D01*
X018019Y015356D02*
X036612Y015356D01*
X036533Y015435D02*
X017940Y015435D01*
X017862Y015513D02*
X036455Y015513D01*
X036390Y015592D02*
X017783Y015592D01*
X017705Y015670D02*
X036390Y015670D01*
X036390Y015749D02*
X017626Y015749D01*
X017548Y015827D02*
X036390Y015827D01*
X036390Y015906D02*
X017469Y015906D01*
X017391Y015984D02*
X018673Y015984D01*
X018660Y015986D02*
X018596Y016007D01*
X018536Y016037D01*
X018482Y016077D01*
X018434Y016124D01*
X018394Y016179D01*
X018364Y016239D01*
X018343Y016303D01*
X018333Y016369D01*
X018333Y016650D01*
X018720Y016650D01*
X018720Y016730D01*
X018720Y017403D01*
X018660Y017393D01*
X018596Y017372D01*
X018536Y017342D01*
X018482Y017302D01*
X018434Y017255D01*
X018394Y017200D01*
X018364Y017141D01*
X018343Y017077D01*
X018333Y017010D01*
X018333Y016730D01*
X018720Y016730D01*
X018800Y016730D01*
X018800Y017403D01*
X018860Y017393D01*
X018924Y017372D01*
X018983Y017342D01*
X019038Y017302D01*
X019085Y017255D01*
X019125Y017200D01*
X019155Y017141D01*
X019176Y017077D01*
X019187Y017010D01*
X019187Y016730D01*
X018800Y016730D01*
X018800Y016650D01*
X019187Y016650D01*
X019187Y016369D01*
X019176Y016303D01*
X019155Y016239D01*
X019125Y016179D01*
X019085Y016124D01*
X019038Y016077D01*
X018983Y016037D01*
X018924Y016007D01*
X018860Y015986D01*
X018800Y015977D01*
X018800Y016650D01*
X018720Y016650D01*
X018720Y015977D01*
X018660Y015986D01*
X018720Y015984D02*
X018800Y015984D01*
X018847Y015984D02*
X026153Y015984D01*
X026140Y015986D02*
X026076Y016007D01*
X026016Y016037D01*
X025962Y016077D01*
X025914Y016124D01*
X025875Y016179D01*
X025844Y016239D01*
X025824Y016303D01*
X025813Y016369D01*
X025813Y016650D01*
X026200Y016650D01*
X026200Y016730D01*
X026200Y017403D01*
X026140Y017393D01*
X026076Y017372D01*
X026016Y017342D01*
X025962Y017302D01*
X025914Y017255D01*
X025875Y017200D01*
X025844Y017141D01*
X025824Y017077D01*
X025813Y017010D01*
X025813Y016730D01*
X026200Y016730D01*
X026280Y016730D01*
X026280Y017403D01*
X026340Y017393D01*
X026404Y017372D01*
X026464Y017342D01*
X026518Y017302D01*
X026566Y017255D01*
X026605Y017200D01*
X026636Y017141D01*
X026656Y017077D01*
X026667Y017010D01*
X026667Y016730D01*
X026280Y016730D01*
X026280Y016650D01*
X026667Y016650D01*
X026667Y016369D01*
X026656Y016303D01*
X026636Y016239D01*
X026605Y016179D01*
X026566Y016124D01*
X026518Y016077D01*
X026464Y016037D01*
X026404Y016007D01*
X026340Y015986D01*
X026280Y015977D01*
X026280Y016650D01*
X026200Y016650D01*
X026200Y015977D01*
X026140Y015986D01*
X026200Y015984D02*
X026280Y015984D01*
X026327Y015984D02*
X033633Y015984D01*
X033620Y015986D02*
X033556Y016007D01*
X033497Y016037D01*
X033442Y016077D01*
X033395Y016124D01*
X033355Y016179D01*
X033325Y016239D01*
X033304Y016303D01*
X033293Y016369D01*
X033293Y016650D01*
X033680Y016650D01*
X033680Y016730D01*
X033680Y017403D01*
X033620Y017393D01*
X033556Y017372D01*
X033497Y017342D01*
X033442Y017302D01*
X033395Y017255D01*
X033355Y017200D01*
X033325Y017141D01*
X033304Y017077D01*
X033293Y017010D01*
X033293Y016730D01*
X033680Y016730D01*
X033760Y016730D01*
X033760Y017403D01*
X033820Y017393D01*
X033884Y017372D01*
X033944Y017342D01*
X033998Y017302D01*
X034046Y017255D01*
X034086Y017200D01*
X034116Y017141D01*
X034137Y017077D01*
X034147Y017010D01*
X034147Y016730D01*
X033760Y016730D01*
X033760Y016650D01*
X034147Y016650D01*
X034147Y016369D01*
X034137Y016303D01*
X034116Y016239D01*
X034086Y016179D01*
X034046Y016124D01*
X033998Y016077D01*
X033944Y016037D01*
X033884Y016007D01*
X033820Y015986D01*
X033760Y015977D01*
X033760Y016650D01*
X033680Y016650D01*
X033680Y015977D01*
X033620Y015986D01*
X033680Y015984D02*
X033760Y015984D01*
X033807Y015984D02*
X036390Y015984D01*
X036286Y016063D02*
X035682Y016063D01*
X035711Y016075D02*
X035569Y016016D01*
X035415Y016016D01*
X035273Y016075D01*
X035164Y016183D01*
X035105Y016326D01*
X035105Y017054D01*
X035164Y017196D01*
X035273Y017305D01*
X035415Y017364D01*
X035569Y017364D01*
X035711Y017305D01*
X035820Y017196D01*
X035879Y017054D01*
X035879Y016326D01*
X035820Y016183D01*
X035711Y016075D01*
X035778Y016141D02*
X036190Y016141D01*
X036133Y016220D02*
X035835Y016220D01*
X035868Y016298D02*
X036101Y016298D01*
X036089Y016377D02*
X035879Y016377D01*
X035879Y016455D02*
X036089Y016455D01*
X036089Y016534D02*
X035879Y016534D01*
X035879Y016612D02*
X036089Y016612D01*
X036089Y016691D02*
X035879Y016691D01*
X035879Y016769D02*
X036089Y016769D01*
X036089Y016848D02*
X035879Y016848D01*
X035879Y016926D02*
X036089Y016926D01*
X036089Y017005D02*
X035879Y017005D01*
X035867Y017083D02*
X036101Y017083D01*
X036134Y017162D02*
X035834Y017162D01*
X035776Y017240D02*
X036192Y017240D01*
X036290Y017319D02*
X035678Y017319D01*
X035306Y017319D02*
X034890Y017319D01*
X034924Y017305D02*
X034782Y017364D01*
X034628Y017364D01*
X034485Y017305D01*
X034376Y017196D01*
X034318Y017054D01*
X034318Y016326D01*
X034376Y016183D01*
X034485Y016075D01*
X034628Y016016D01*
X034782Y016016D01*
X034924Y016075D01*
X035033Y016183D01*
X035092Y016326D01*
X035092Y017054D01*
X035033Y017196D01*
X034924Y017305D01*
X034988Y017240D02*
X035208Y017240D01*
X035150Y017162D02*
X035047Y017162D01*
X035079Y017083D02*
X035117Y017083D01*
X035105Y017005D02*
X035092Y017005D01*
X035092Y016926D02*
X035105Y016926D01*
X035105Y016848D02*
X035092Y016848D01*
X035092Y016769D02*
X035105Y016769D01*
X035105Y016691D02*
X035092Y016691D01*
X035092Y016612D02*
X035105Y016612D01*
X035105Y016534D02*
X035092Y016534D01*
X035092Y016455D02*
X035105Y016455D01*
X035105Y016377D02*
X035092Y016377D01*
X035080Y016298D02*
X035116Y016298D01*
X035149Y016220D02*
X035048Y016220D01*
X034990Y016141D02*
X035206Y016141D01*
X035302Y016063D02*
X034895Y016063D01*
X034514Y016063D02*
X033979Y016063D01*
X034058Y016141D02*
X034419Y016141D01*
X034361Y016220D02*
X034106Y016220D01*
X034135Y016298D02*
X034329Y016298D01*
X034318Y016377D02*
X034147Y016377D01*
X034147Y016455D02*
X034318Y016455D01*
X034318Y016534D02*
X034147Y016534D01*
X034147Y016612D02*
X034318Y016612D01*
X034318Y016691D02*
X033760Y016691D01*
X033760Y016769D02*
X033680Y016769D01*
X033680Y016691D02*
X029383Y016691D01*
X029383Y016769D02*
X033293Y016769D01*
X033293Y016848D02*
X029383Y016848D01*
X029390Y016926D02*
X033293Y016926D01*
X033293Y017005D02*
X032663Y017005D01*
X032853Y017083D02*
X033306Y017083D01*
X033335Y017162D02*
X032981Y017162D01*
X033060Y017240D02*
X033384Y017240D01*
X033464Y017319D02*
X033138Y017319D01*
X033178Y017397D02*
X033645Y017397D01*
X033680Y017397D02*
X033760Y017397D01*
X033795Y017397D02*
X036390Y017397D01*
X036390Y017476D02*
X033210Y017476D01*
X033243Y017554D02*
X036390Y017554D01*
X036390Y017633D02*
X033264Y017633D01*
X033264Y017711D02*
X036357Y017711D01*
X036278Y017790D02*
X033264Y017790D01*
X033264Y017868D02*
X036200Y017868D01*
X036121Y017947D02*
X033248Y017947D01*
X033680Y017319D02*
X033760Y017319D01*
X033760Y017240D02*
X033680Y017240D01*
X033680Y017162D02*
X033760Y017162D01*
X033760Y017083D02*
X033680Y017083D01*
X033680Y017005D02*
X033760Y017005D01*
X033760Y016926D02*
X033680Y016926D01*
X033680Y016848D02*
X033760Y016848D01*
X033760Y016612D02*
X033680Y016612D01*
X033680Y016534D02*
X033760Y016534D01*
X033760Y016455D02*
X033680Y016455D01*
X033680Y016377D02*
X033760Y016377D01*
X033760Y016298D02*
X033680Y016298D01*
X033680Y016220D02*
X033760Y016220D01*
X033760Y016141D02*
X033680Y016141D01*
X033680Y016063D02*
X033760Y016063D01*
X033462Y016063D02*
X029186Y016063D01*
X029282Y016141D02*
X033383Y016141D01*
X033334Y016220D02*
X029339Y016220D01*
X029371Y016298D02*
X033305Y016298D01*
X033293Y016377D02*
X029383Y016377D01*
X029383Y016455D02*
X033293Y016455D01*
X033293Y016534D02*
X029383Y016534D01*
X029383Y016612D02*
X033293Y016612D01*
X034147Y016769D02*
X034318Y016769D01*
X034318Y016848D02*
X034147Y016848D01*
X034147Y016926D02*
X034318Y016926D01*
X034318Y017005D02*
X034147Y017005D01*
X034135Y017083D02*
X034330Y017083D01*
X034362Y017162D02*
X034105Y017162D01*
X034057Y017240D02*
X034421Y017240D01*
X034519Y017319D02*
X033976Y017319D01*
X032360Y017005D02*
X030356Y017005D01*
X030546Y017083D02*
X032171Y017083D01*
X032042Y017162D02*
X030674Y017162D01*
X030753Y017240D02*
X031964Y017240D01*
X031885Y017319D02*
X030831Y017319D01*
X030870Y017397D02*
X031846Y017397D01*
X031813Y017476D02*
X030903Y017476D01*
X030935Y017554D02*
X031781Y017554D01*
X031759Y017633D02*
X030957Y017633D01*
X030957Y017711D02*
X031759Y017711D01*
X031759Y017790D02*
X030957Y017790D01*
X030957Y017868D02*
X031759Y017868D01*
X031776Y017947D02*
X030941Y017947D01*
X029863Y017083D02*
X029390Y017083D01*
X029390Y017005D02*
X030053Y017005D01*
X029735Y017162D02*
X029390Y017162D01*
X029390Y017240D02*
X029656Y017240D01*
X029578Y017319D02*
X029390Y017319D01*
X029390Y017397D02*
X029539Y017397D01*
X029506Y017476D02*
X029390Y017476D01*
X029390Y017554D02*
X029474Y017554D01*
X029452Y017633D02*
X029390Y017633D01*
X029423Y017711D02*
X029452Y017711D01*
X028590Y017633D02*
X025784Y017633D01*
X025784Y017711D02*
X028557Y017711D01*
X028478Y017790D02*
X025784Y017790D01*
X025784Y017868D02*
X028400Y017868D01*
X028321Y017947D02*
X025767Y017947D01*
X025762Y017554D02*
X028590Y017554D01*
X028590Y017476D02*
X025730Y017476D01*
X025697Y017397D02*
X026165Y017397D01*
X026200Y017397D02*
X026280Y017397D01*
X026315Y017397D02*
X028590Y017397D01*
X028590Y017319D02*
X028197Y017319D01*
X028231Y017305D02*
X028089Y017364D01*
X027935Y017364D01*
X027792Y017305D01*
X027684Y017196D01*
X027625Y017054D01*
X027625Y016326D01*
X027684Y016183D01*
X027792Y016075D01*
X027935Y016016D01*
X028089Y016016D01*
X028231Y016075D01*
X028340Y016183D01*
X028399Y016326D01*
X028399Y017054D01*
X028340Y017196D01*
X028231Y017305D01*
X028296Y017240D02*
X028590Y017240D01*
X028590Y017162D02*
X028354Y017162D01*
X028386Y017083D02*
X028590Y017083D01*
X028590Y017005D02*
X028399Y017005D01*
X028399Y016926D02*
X028590Y016926D01*
X028609Y016848D02*
X028399Y016848D01*
X028399Y016769D02*
X028609Y016769D01*
X028609Y016691D02*
X028399Y016691D01*
X028399Y016612D02*
X028609Y016612D01*
X028609Y016534D02*
X028399Y016534D01*
X028399Y016455D02*
X028609Y016455D01*
X028609Y016377D02*
X028399Y016377D01*
X028387Y016298D02*
X028620Y016298D01*
X028653Y016220D02*
X028355Y016220D01*
X028297Y016141D02*
X028710Y016141D01*
X028806Y016063D02*
X028202Y016063D01*
X027821Y016063D02*
X027415Y016063D01*
X027443Y016075D02*
X027301Y016016D01*
X027147Y016016D01*
X027005Y016075D01*
X026896Y016183D01*
X026837Y016326D01*
X026837Y017054D01*
X026896Y017196D01*
X027005Y017305D01*
X027147Y017364D01*
X027301Y017364D01*
X027443Y017305D01*
X027552Y017196D01*
X027611Y017054D01*
X027611Y016326D01*
X027552Y016183D01*
X027443Y016075D01*
X027510Y016141D02*
X027726Y016141D01*
X027669Y016220D02*
X027567Y016220D01*
X027600Y016298D02*
X027636Y016298D01*
X027625Y016377D02*
X027611Y016377D01*
X027611Y016455D02*
X027625Y016455D01*
X027625Y016534D02*
X027611Y016534D01*
X027611Y016612D02*
X027625Y016612D01*
X027625Y016691D02*
X027611Y016691D01*
X027611Y016769D02*
X027625Y016769D01*
X027625Y016848D02*
X027611Y016848D01*
X027611Y016926D02*
X027625Y016926D01*
X027625Y017005D02*
X027611Y017005D01*
X027599Y017083D02*
X027637Y017083D01*
X027669Y017162D02*
X027567Y017162D01*
X027508Y017240D02*
X027728Y017240D01*
X027826Y017319D02*
X027410Y017319D01*
X027038Y017319D02*
X026496Y017319D01*
X026576Y017240D02*
X026940Y017240D01*
X026882Y017162D02*
X026625Y017162D01*
X026654Y017083D02*
X026849Y017083D01*
X026837Y017005D02*
X026667Y017005D01*
X026667Y016926D02*
X026837Y016926D01*
X026837Y016848D02*
X026667Y016848D01*
X026667Y016769D02*
X026837Y016769D01*
X026837Y016691D02*
X026280Y016691D01*
X026280Y016769D02*
X026200Y016769D01*
X026200Y016691D02*
X024303Y016691D01*
X024381Y016769D02*
X025813Y016769D01*
X025813Y016848D02*
X024460Y016848D01*
X024490Y016926D02*
X025813Y016926D01*
X025813Y017005D02*
X025183Y017005D01*
X025372Y017083D02*
X025826Y017083D01*
X025855Y017162D02*
X025501Y017162D01*
X025579Y017240D02*
X025904Y017240D01*
X025984Y017319D02*
X025658Y017319D01*
X026200Y017319D02*
X026280Y017319D01*
X026280Y017240D02*
X026200Y017240D01*
X026200Y017162D02*
X026280Y017162D01*
X026280Y017083D02*
X026200Y017083D01*
X026200Y017005D02*
X026280Y017005D01*
X026280Y016926D02*
X026200Y016926D01*
X026200Y016848D02*
X026280Y016848D01*
X026280Y016612D02*
X026200Y016612D01*
X026200Y016534D02*
X026280Y016534D01*
X026280Y016455D02*
X026200Y016455D01*
X026200Y016377D02*
X026280Y016377D01*
X026280Y016298D02*
X026200Y016298D01*
X026200Y016220D02*
X026280Y016220D01*
X026280Y016141D02*
X026200Y016141D01*
X026200Y016063D02*
X026280Y016063D01*
X026498Y016063D02*
X027034Y016063D01*
X026938Y016141D02*
X026578Y016141D01*
X026626Y016220D02*
X026881Y016220D01*
X026849Y016298D02*
X026655Y016298D01*
X026667Y016377D02*
X026837Y016377D01*
X026837Y016455D02*
X026667Y016455D01*
X026667Y016534D02*
X026837Y016534D01*
X026837Y016612D02*
X026667Y016612D01*
X025813Y016612D02*
X024224Y016612D01*
X024146Y016534D02*
X025813Y016534D01*
X025813Y016455D02*
X024067Y016455D01*
X023989Y016377D02*
X025813Y016377D01*
X025825Y016298D02*
X023910Y016298D01*
X023890Y016278D02*
X023890Y016278D01*
X023832Y016220D02*
X025854Y016220D01*
X025902Y016141D02*
X021801Y016141D01*
X021706Y016063D02*
X025982Y016063D01*
X024880Y017005D02*
X024490Y017005D01*
X024490Y017083D02*
X024690Y017083D01*
X024562Y017162D02*
X024490Y017162D01*
X023190Y018418D02*
X023095Y018418D01*
X023190Y018496D02*
X022906Y018496D01*
X023190Y018575D02*
X021768Y018575D01*
X021777Y018496D02*
X022543Y018496D01*
X022353Y018418D02*
X021777Y018418D01*
X021777Y018261D02*
X022164Y018261D01*
X022242Y018339D02*
X021480Y018339D01*
X021480Y018261D02*
X021400Y018261D01*
X021400Y018265D02*
X021400Y017949D01*
X021225Y017949D01*
X021189Y017958D01*
X021157Y017977D01*
X021131Y018003D01*
X021113Y018035D01*
X021103Y018070D01*
X021103Y018265D01*
X021400Y018265D01*
X021400Y018339D02*
X020551Y018339D01*
X020551Y018305D02*
X020551Y018442D01*
X020541Y018478D01*
X020523Y018509D01*
X020497Y018535D01*
X020465Y018554D01*
X020429Y018563D01*
X020272Y018563D01*
X020272Y018305D01*
X020195Y018305D01*
X020195Y018563D01*
X020038Y018563D01*
X020002Y018554D01*
X019971Y018535D01*
X019945Y018509D01*
X019926Y018478D01*
X019917Y018442D01*
X019917Y018305D01*
X020195Y018305D01*
X020195Y018227D01*
X020272Y018227D01*
X020272Y017969D01*
X020429Y017969D01*
X020465Y017978D01*
X020497Y017996D01*
X020523Y018023D01*
X020541Y018054D01*
X020551Y018090D01*
X020551Y018227D01*
X020272Y018227D01*
X020272Y018305D01*
X020551Y018305D01*
X020551Y018418D02*
X021103Y018418D01*
X021103Y018496D02*
X020531Y018496D01*
X020272Y018496D02*
X020195Y018496D01*
X020195Y018418D02*
X020272Y018418D01*
X020272Y018339D02*
X020195Y018339D01*
X020195Y018261D02*
X018112Y018261D01*
X018189Y018183D02*
X017977Y018395D01*
X017701Y018509D01*
X017401Y018509D01*
X017125Y018395D01*
X016913Y018183D01*
X016798Y017906D01*
X016798Y017607D01*
X016913Y017330D01*
X017125Y017118D01*
X017401Y017004D01*
X017701Y017004D01*
X017977Y017118D01*
X018189Y017330D01*
X018304Y017607D01*
X018304Y017906D01*
X018189Y018183D01*
X018190Y018182D02*
X019917Y018182D01*
X019917Y018227D02*
X019917Y018090D01*
X019926Y018054D01*
X019945Y018023D01*
X019971Y017996D01*
X020002Y017978D01*
X020038Y017969D01*
X020195Y017969D01*
X020195Y018227D01*
X019917Y018227D01*
X019917Y018339D02*
X018033Y018339D01*
X017922Y018418D02*
X019153Y018418D01*
X019130Y018441D02*
X019188Y018383D01*
X019626Y018383D01*
X019684Y018441D01*
X019684Y018839D01*
X019626Y018897D01*
X019188Y018897D01*
X019130Y018839D01*
X019130Y018790D01*
X018002Y018790D01*
X017317Y019475D01*
X017365Y019523D01*
X017365Y019957D01*
X017057Y020265D01*
X016623Y020265D01*
X016315Y019957D01*
X016315Y019523D01*
X016623Y019215D01*
X017057Y019215D01*
X017105Y019263D01*
X017878Y018490D01*
X019130Y018490D01*
X019130Y018441D01*
X019661Y018418D02*
X019917Y018418D01*
X019937Y018496D02*
X019684Y018496D01*
X019684Y018575D02*
X021112Y018575D01*
X021192Y018653D02*
X019684Y018653D01*
X019684Y018732D02*
X021143Y018732D01*
X021143Y018810D02*
X020506Y018810D01*
X020440Y018990D02*
X020234Y019014D01*
X019957Y019046D02*
X017747Y019046D01*
X017668Y019124D02*
X019957Y019124D01*
X019957Y019203D02*
X017590Y019203D01*
X017511Y019281D02*
X021192Y019281D01*
X021225Y019349D02*
X021400Y019349D01*
X021400Y019665D01*
X021103Y019665D01*
X021103Y019470D01*
X021113Y019435D01*
X021131Y019403D01*
X021157Y019377D01*
X021189Y019358D01*
X021225Y019349D01*
X021187Y019360D02*
X017433Y019360D01*
X017354Y019438D02*
X019936Y019438D01*
X019945Y019423D02*
X019926Y019454D01*
X019917Y019490D01*
X019917Y019627D01*
X020195Y019627D01*
X020272Y019627D01*
X020272Y019369D01*
X020429Y019369D01*
X020465Y019378D01*
X020497Y019396D01*
X020523Y019423D01*
X020541Y019454D01*
X020551Y019490D01*
X020551Y019627D01*
X020272Y019627D01*
X020272Y019705D01*
X020195Y019705D01*
X020195Y019963D01*
X020038Y019963D01*
X020002Y019954D01*
X019971Y019935D01*
X019945Y019909D01*
X019926Y019878D01*
X019917Y019842D01*
X019917Y019705D01*
X020195Y019705D01*
X020195Y019627D01*
X020195Y019369D01*
X020038Y019369D01*
X020002Y019378D01*
X019971Y019396D01*
X019945Y019423D01*
X019917Y019517D02*
X017359Y019517D01*
X017365Y019595D02*
X019917Y019595D01*
X019917Y019752D02*
X017365Y019752D01*
X017365Y019674D02*
X020195Y019674D01*
X020272Y019674D02*
X021400Y019674D01*
X021400Y019595D02*
X021480Y019595D01*
X021480Y019517D02*
X021400Y019517D01*
X021400Y019438D02*
X021480Y019438D01*
X021480Y019360D02*
X021400Y019360D01*
X021693Y019360D02*
X022347Y019360D01*
X022426Y019438D02*
X021768Y019438D01*
X021777Y019517D02*
X022504Y019517D01*
X022583Y019595D02*
X021777Y019595D01*
X021777Y019752D02*
X023301Y019752D01*
X023301Y019831D02*
X021777Y019831D01*
X021777Y019909D02*
X023259Y019909D01*
X023180Y019988D02*
X021761Y019988D01*
X021686Y020066D02*
X023102Y020066D01*
X023023Y020145D02*
X021737Y020145D01*
X021737Y020223D02*
X022945Y020223D01*
X023134Y020459D02*
X038924Y020459D01*
X039186Y020459D02*
X040470Y020459D01*
X040470Y020537D02*
X021737Y020537D01*
X021737Y020616D02*
X040470Y020616D01*
X040470Y020694D02*
X016624Y020694D01*
X016628Y020690D02*
X016539Y020779D01*
X016341Y020779D01*
X016201Y020639D01*
X016201Y020441D01*
X016341Y020301D01*
X016539Y020301D01*
X016628Y020390D01*
X017178Y020390D01*
X017590Y019978D01*
X017678Y019890D01*
X019130Y019890D01*
X019130Y019841D01*
X019188Y019783D01*
X019626Y019783D01*
X019684Y019841D01*
X019684Y020239D01*
X019626Y020297D01*
X019188Y020297D01*
X019130Y020239D01*
X019130Y020190D01*
X017802Y020190D01*
X017302Y020690D01*
X016628Y020690D01*
X016545Y020773D02*
X040470Y020773D01*
X040470Y020851D02*
X013824Y020851D01*
X013902Y020773D02*
X016335Y020773D01*
X016256Y020694D02*
X013981Y020694D01*
X014059Y020616D02*
X016201Y020616D01*
X016201Y020537D02*
X014138Y020537D01*
X014216Y020459D02*
X016201Y020459D01*
X016262Y020380D02*
X014295Y020380D01*
X014352Y020302D02*
X016341Y020302D01*
X016539Y020302D02*
X017266Y020302D01*
X017188Y020380D02*
X016618Y020380D01*
X016581Y020223D02*
X014384Y020223D01*
X014390Y020145D02*
X016502Y020145D01*
X016424Y020066D02*
X014390Y020066D01*
X014390Y019988D02*
X016345Y019988D01*
X016315Y019909D02*
X014390Y019909D01*
X014390Y019831D02*
X016315Y019831D01*
X016315Y019752D02*
X014390Y019752D01*
X014390Y019674D02*
X016315Y019674D01*
X016315Y019595D02*
X014390Y019595D01*
X014390Y019517D02*
X016321Y019517D01*
X016399Y019438D02*
X014390Y019438D01*
X014390Y019360D02*
X016478Y019360D01*
X016556Y019281D02*
X014390Y019281D01*
X014390Y019203D02*
X017165Y019203D01*
X017244Y019124D02*
X014390Y019124D01*
X014390Y019046D02*
X017322Y019046D01*
X017401Y018967D02*
X014408Y018967D01*
X014486Y018889D02*
X017479Y018889D01*
X017558Y018810D02*
X014565Y018810D01*
X014643Y018732D02*
X017636Y018732D01*
X017715Y018653D02*
X014722Y018653D01*
X014800Y018575D02*
X017793Y018575D01*
X017733Y018496D02*
X017872Y018496D01*
X017982Y018810D02*
X019130Y018810D01*
X019179Y018889D02*
X017904Y018889D01*
X017825Y018967D02*
X019957Y018967D01*
X019957Y018889D02*
X019634Y018889D01*
X019684Y018810D02*
X019962Y018810D01*
X020272Y018261D02*
X021103Y018261D01*
X021103Y018182D02*
X020551Y018182D01*
X020551Y018104D02*
X021103Y018104D01*
X021118Y018025D02*
X020524Y018025D01*
X020272Y018025D02*
X020195Y018025D01*
X020195Y018104D02*
X020272Y018104D01*
X020272Y018182D02*
X020195Y018182D01*
X019917Y018104D02*
X018222Y018104D01*
X018255Y018025D02*
X019943Y018025D01*
X019821Y017364D02*
X019667Y017364D01*
X019525Y017305D01*
X019416Y017196D01*
X019357Y017054D01*
X019357Y016326D01*
X019416Y016183D01*
X019525Y016075D01*
X019667Y016016D01*
X019821Y016016D01*
X019963Y016075D01*
X020072Y016183D01*
X020131Y016326D01*
X020131Y017054D01*
X020072Y017196D01*
X019963Y017305D01*
X019821Y017364D01*
X019930Y017319D02*
X020346Y017319D01*
X020312Y017305D02*
X020203Y017196D01*
X020144Y017054D01*
X020144Y016326D01*
X020203Y016183D01*
X020312Y016075D01*
X020454Y016016D01*
X020608Y016016D01*
X020751Y016075D01*
X020859Y016183D01*
X020918Y016326D01*
X020918Y017054D01*
X020859Y017196D01*
X020751Y017305D01*
X020608Y017364D01*
X020454Y017364D01*
X020312Y017305D01*
X020247Y017240D02*
X020028Y017240D01*
X020086Y017162D02*
X020189Y017162D01*
X020157Y017083D02*
X020119Y017083D01*
X020131Y017005D02*
X020144Y017005D01*
X020144Y016926D02*
X020131Y016926D01*
X020131Y016848D02*
X020144Y016848D01*
X020144Y016769D02*
X020131Y016769D01*
X020131Y016691D02*
X020144Y016691D01*
X020144Y016612D02*
X020131Y016612D01*
X020131Y016534D02*
X020144Y016534D01*
X020144Y016455D02*
X020131Y016455D01*
X020131Y016377D02*
X020144Y016377D01*
X020156Y016298D02*
X020120Y016298D01*
X020087Y016220D02*
X020188Y016220D01*
X020246Y016141D02*
X020030Y016141D01*
X019934Y016063D02*
X020341Y016063D01*
X020722Y016063D02*
X021325Y016063D01*
X021230Y016141D02*
X020817Y016141D01*
X020874Y016220D02*
X021148Y016220D01*
X021090Y016298D02*
X020907Y016298D01*
X020918Y016377D02*
X021090Y016377D01*
X021090Y016455D02*
X020918Y016455D01*
X020918Y016534D02*
X021090Y016534D01*
X021090Y016612D02*
X020918Y016612D01*
X020918Y016691D02*
X021090Y016691D01*
X021090Y016769D02*
X020918Y016769D01*
X020918Y016848D02*
X021090Y016848D01*
X021090Y016926D02*
X020918Y016926D01*
X020918Y017005D02*
X021090Y017005D01*
X021090Y017083D02*
X020906Y017083D01*
X020874Y017162D02*
X021090Y017162D01*
X021090Y017240D02*
X020815Y017240D01*
X020717Y017319D02*
X021106Y017319D01*
X021993Y017554D02*
X018282Y017554D01*
X018304Y017633D02*
X021971Y017633D01*
X021971Y017711D02*
X018304Y017711D01*
X018304Y017790D02*
X021971Y017790D01*
X021971Y017868D02*
X018304Y017868D01*
X018287Y017947D02*
X021988Y017947D01*
X022021Y018025D02*
X021762Y018025D01*
X021777Y018104D02*
X022053Y018104D01*
X022086Y018182D02*
X021777Y018182D01*
X021480Y018182D02*
X021400Y018182D01*
X021400Y018104D02*
X021480Y018104D01*
X021480Y018025D02*
X021400Y018025D01*
X021688Y018653D02*
X023190Y018653D01*
X023190Y018732D02*
X021737Y018732D01*
X021737Y018810D02*
X023198Y018810D01*
X023276Y018889D02*
X022301Y018889D01*
X022379Y018967D02*
X023355Y018967D01*
X023433Y019046D02*
X022458Y019046D01*
X022536Y019124D02*
X023512Y019124D01*
X023590Y019203D02*
X022615Y019203D01*
X022693Y019281D02*
X023669Y019281D01*
X024176Y019438D02*
X038247Y019438D01*
X038230Y019517D02*
X024179Y019517D01*
X024179Y019595D02*
X038213Y019595D01*
X038207Y019674D02*
X024144Y019674D01*
X024066Y019752D02*
X038223Y019752D01*
X038240Y019831D02*
X023779Y019831D01*
X023779Y019909D02*
X038257Y019909D01*
X038273Y019988D02*
X023730Y019988D01*
X023652Y020066D02*
X038329Y020066D01*
X038386Y020145D02*
X023448Y020145D01*
X023369Y020223D02*
X038443Y020223D01*
X038532Y020302D02*
X023291Y020302D01*
X023212Y020380D02*
X038668Y020380D01*
X039428Y020380D02*
X040470Y020380D01*
X040470Y020302D02*
X039531Y020302D01*
X039618Y020223D02*
X040470Y020223D01*
X040470Y020145D02*
X039705Y020145D01*
X039743Y020066D02*
X040470Y020066D01*
X040470Y019988D02*
X039778Y019988D01*
X039813Y019909D02*
X040470Y019909D01*
X040470Y019831D02*
X039848Y019831D01*
X039851Y019752D02*
X040470Y019752D01*
X040470Y019674D02*
X039851Y019674D01*
X039851Y019595D02*
X040470Y019595D01*
X040470Y019517D02*
X039851Y019517D01*
X039833Y019438D02*
X040470Y019438D01*
X040470Y020930D02*
X013745Y020930D01*
X013462Y020223D02*
X008918Y020223D01*
X008840Y020145D02*
X010232Y020145D01*
X010190Y020102D02*
X010278Y020190D01*
X013402Y020190D01*
X013490Y020102D01*
X013490Y015078D01*
X013402Y014990D01*
X010278Y014990D01*
X010190Y015078D01*
X010190Y015249D01*
X010137Y015249D01*
X010085Y015197D01*
X009933Y015134D01*
X009768Y015134D01*
X009615Y015197D01*
X009498Y015314D01*
X009435Y015466D01*
X009435Y015631D01*
X009498Y015784D01*
X009615Y015900D01*
X009768Y015964D01*
X009933Y015964D01*
X010085Y015900D01*
X010137Y015849D01*
X010190Y015849D01*
X010190Y016882D01*
X010089Y016882D01*
X009994Y016921D01*
X009921Y016994D01*
X009882Y017089D01*
X009882Y017191D01*
X009921Y017286D01*
X009994Y017359D01*
X010089Y017398D01*
X010190Y017398D01*
X010190Y020102D01*
X010190Y020066D02*
X008761Y020066D01*
X008683Y019988D02*
X010190Y019988D01*
X010190Y019909D02*
X008604Y019909D01*
X008526Y019831D02*
X010190Y019831D01*
X010190Y019752D02*
X008447Y019752D01*
X008369Y019674D02*
X010190Y019674D01*
X010190Y019595D02*
X008305Y019595D01*
X008305Y019517D02*
X010190Y019517D01*
X010190Y019438D02*
X008305Y019438D01*
X008305Y019360D02*
X009422Y019360D01*
X009441Y019379D02*
X009301Y019239D01*
X009301Y019113D01*
X008978Y018790D01*
X008890Y018702D01*
X008890Y015752D01*
X008639Y016004D01*
X008490Y016004D01*
X008490Y015589D01*
X008410Y015589D01*
X008410Y016004D01*
X008262Y016004D01*
X007995Y015737D01*
X007995Y015589D01*
X008410Y015589D01*
X008410Y015509D01*
X007995Y015509D01*
X007995Y015360D01*
X008262Y015094D01*
X008410Y015094D01*
X008410Y015509D01*
X008490Y015509D01*
X008490Y015094D01*
X008639Y015094D01*
X008890Y015345D01*
X008890Y013578D01*
X008978Y013490D01*
X010501Y011967D01*
X010501Y011841D01*
X010641Y011701D01*
X010839Y011701D01*
X010979Y011841D01*
X010979Y011989D01*
X011001Y011967D01*
X011001Y011841D01*
X011141Y011701D01*
X011339Y011701D01*
X011479Y011841D01*
X011479Y012039D01*
X011339Y012179D01*
X011213Y012179D01*
X010902Y012490D01*
X010702Y012490D01*
X009390Y013802D01*
X009390Y018078D01*
X009913Y018601D01*
X010039Y018601D01*
X010179Y018741D01*
X010179Y018939D01*
X010039Y019079D01*
X009841Y019079D01*
X009701Y018939D01*
X009701Y018813D01*
X009190Y018302D01*
X009190Y018578D01*
X009513Y018901D01*
X009639Y018901D01*
X009779Y019041D01*
X009779Y019239D01*
X009639Y019379D01*
X009441Y019379D01*
X009343Y019281D02*
X008305Y019281D01*
X008305Y019203D02*
X009301Y019203D01*
X009301Y019124D02*
X008305Y019124D01*
X008305Y019046D02*
X009233Y019046D01*
X009155Y018967D02*
X008305Y018967D01*
X008305Y018889D02*
X009076Y018889D01*
X008998Y018810D02*
X008305Y018810D01*
X008305Y018732D02*
X008919Y018732D01*
X008890Y018653D02*
X008305Y018653D01*
X008305Y018575D02*
X008890Y018575D01*
X008890Y018496D02*
X008305Y018496D01*
X008305Y018418D02*
X008890Y018418D01*
X008890Y018339D02*
X008290Y018339D01*
X008290Y018261D02*
X008890Y018261D01*
X008890Y018182D02*
X008290Y018182D01*
X008290Y018104D02*
X008890Y018104D01*
X008890Y018025D02*
X008290Y018025D01*
X008290Y017947D02*
X008890Y017947D01*
X008890Y017868D02*
X008290Y017868D01*
X008290Y017790D02*
X008890Y017790D01*
X008890Y017711D02*
X008290Y017711D01*
X008290Y017633D02*
X008890Y017633D01*
X008890Y017554D02*
X008290Y017554D01*
X008290Y017476D02*
X008890Y017476D01*
X008890Y017397D02*
X008290Y017397D01*
X008290Y017319D02*
X008890Y017319D01*
X008890Y017240D02*
X008290Y017240D01*
X008290Y017162D02*
X008890Y017162D01*
X008890Y017083D02*
X008290Y017083D01*
X008290Y017005D02*
X008890Y017005D01*
X008890Y016926D02*
X008290Y016926D01*
X008260Y016848D02*
X008890Y016848D01*
X008890Y016769D02*
X007190Y016769D01*
X007184Y016691D02*
X008890Y016691D01*
X008890Y016612D02*
X007151Y016612D01*
X007119Y016534D02*
X008890Y016534D01*
X008890Y016455D02*
X007086Y016455D01*
X007054Y016377D02*
X008890Y016377D01*
X008890Y016298D02*
X006987Y016298D01*
X006909Y016220D02*
X008890Y016220D01*
X008890Y016141D02*
X006830Y016141D01*
X006714Y016063D02*
X008890Y016063D01*
X008890Y015984D02*
X008658Y015984D01*
X008737Y015906D02*
X008890Y015906D01*
X008890Y015827D02*
X008815Y015827D01*
X008490Y015827D02*
X008410Y015827D01*
X008410Y015749D02*
X008490Y015749D01*
X008490Y015670D02*
X008410Y015670D01*
X008410Y015592D02*
X008490Y015592D01*
X008410Y015513D02*
X005932Y015513D01*
X005927Y015524D02*
X005868Y015618D01*
X005798Y015705D01*
X005720Y015783D01*
X005633Y015853D01*
X005539Y015912D01*
X005438Y015960D01*
X005333Y015997D01*
X005225Y016021D01*
X005114Y016034D01*
X005099Y016034D01*
X005099Y015084D01*
X006049Y015084D01*
X006049Y015100D01*
X006036Y015210D01*
X006012Y015318D01*
X005975Y015423D01*
X005927Y015524D01*
X005884Y015592D02*
X007995Y015592D01*
X007995Y015670D02*
X005826Y015670D01*
X005754Y015749D02*
X008007Y015749D01*
X008085Y015827D02*
X005665Y015827D01*
X005548Y015906D02*
X008164Y015906D01*
X008242Y015984D02*
X006525Y015984D01*
X005955Y015984D02*
X005370Y015984D01*
X005099Y015984D02*
X005019Y015984D01*
X005019Y016034D02*
X005003Y016034D01*
X004893Y016021D01*
X004784Y015997D01*
X004679Y015960D01*
X004579Y015912D01*
X004485Y015853D01*
X004398Y015783D01*
X004320Y015705D01*
X004250Y015618D01*
X004191Y015524D01*
X004143Y015423D01*
X004106Y015318D01*
X004081Y015210D01*
X004069Y015100D01*
X004069Y015084D01*
X005019Y015084D01*
X005019Y016034D01*
X005019Y015906D02*
X005099Y015906D01*
X005099Y015827D02*
X005019Y015827D01*
X005019Y015749D02*
X005099Y015749D01*
X005099Y015670D02*
X005019Y015670D01*
X005019Y015592D02*
X005099Y015592D01*
X005099Y015513D02*
X005019Y015513D01*
X005019Y015435D02*
X005099Y015435D01*
X005099Y015356D02*
X005019Y015356D01*
X005019Y015278D02*
X005099Y015278D01*
X005099Y015199D02*
X005019Y015199D01*
X005019Y015121D02*
X005099Y015121D01*
X005099Y015084D02*
X005019Y015084D01*
X005019Y015004D01*
X005099Y015004D01*
X005099Y015084D01*
X005099Y015042D02*
X008890Y015042D01*
X008890Y014964D02*
X006046Y014964D01*
X006049Y014988D02*
X006049Y015004D01*
X005099Y015004D01*
X005099Y014054D01*
X005114Y014054D01*
X005225Y014066D01*
X005333Y014091D01*
X005438Y014128D01*
X005539Y014176D01*
X005633Y014235D01*
X005720Y014305D01*
X005798Y014383D01*
X005868Y014470D01*
X005927Y014564D01*
X005975Y014664D01*
X006012Y014769D01*
X006036Y014878D01*
X006049Y014988D01*
X006037Y014885D02*
X008890Y014885D01*
X008890Y014807D02*
X006020Y014807D01*
X005997Y014728D02*
X008890Y014728D01*
X008890Y014650D02*
X005968Y014650D01*
X005930Y014571D02*
X008890Y014571D01*
X008890Y014493D02*
X005882Y014493D01*
X005823Y014414D02*
X008890Y014414D01*
X008890Y014336D02*
X005751Y014336D01*
X005660Y014257D02*
X008890Y014257D01*
X008890Y014179D02*
X005542Y014179D01*
X005359Y014100D02*
X008890Y014100D01*
X008890Y014022D02*
X001380Y014022D01*
X001380Y014100D02*
X004759Y014100D01*
X004784Y014091D02*
X004893Y014066D01*
X005003Y014054D01*
X005019Y014054D01*
X005019Y015004D01*
X004069Y015004D01*
X004069Y014988D01*
X004081Y014878D01*
X004106Y014769D01*
X004143Y014664D01*
X004191Y014564D01*
X004250Y014470D01*
X004320Y014383D01*
X004398Y014305D01*
X004485Y014235D01*
X004579Y014176D01*
X004679Y014128D01*
X004784Y014091D01*
X004575Y014179D02*
X001380Y014179D01*
X001380Y014257D02*
X004458Y014257D01*
X004367Y014336D02*
X001380Y014336D01*
X001380Y014414D02*
X004295Y014414D01*
X004236Y014493D02*
X001380Y014493D01*
X001380Y014571D02*
X004188Y014571D01*
X004150Y014650D02*
X001380Y014650D01*
X001380Y014728D02*
X004121Y014728D01*
X004098Y014807D02*
X001380Y014807D01*
X001380Y014885D02*
X004081Y014885D01*
X004072Y014964D02*
X001380Y014964D01*
X001380Y015042D02*
X005019Y015042D01*
X005019Y014964D02*
X005099Y014964D01*
X005099Y014885D02*
X005019Y014885D01*
X005019Y014807D02*
X005099Y014807D01*
X005099Y014728D02*
X005019Y014728D01*
X005019Y014650D02*
X005099Y014650D01*
X005099Y014571D02*
X005019Y014571D01*
X005019Y014493D02*
X005099Y014493D01*
X005099Y014414D02*
X005019Y014414D01*
X005019Y014336D02*
X005099Y014336D01*
X005099Y014257D02*
X005019Y014257D01*
X005019Y014179D02*
X005099Y014179D01*
X005099Y014100D02*
X005019Y014100D01*
X005182Y013634D02*
X004584Y013634D01*
X004526Y013575D01*
X004526Y012977D01*
X004584Y012919D01*
X005182Y012919D01*
X005241Y012977D01*
X005241Y013575D01*
X005182Y013634D01*
X005187Y013629D02*
X008890Y013629D01*
X008890Y013708D02*
X001380Y013708D01*
X001380Y013786D02*
X008890Y013786D01*
X008890Y013865D02*
X001380Y013865D01*
X001380Y013943D02*
X008890Y013943D01*
X009390Y013943D02*
X033125Y013943D01*
X033203Y013865D02*
X009390Y013865D01*
X009406Y013786D02*
X033282Y013786D01*
X033360Y013708D02*
X009485Y013708D01*
X009563Y013629D02*
X033439Y013629D01*
X033517Y013551D02*
X009642Y013551D01*
X009720Y013472D02*
X033596Y013472D01*
X033674Y013394D02*
X009799Y013394D01*
X009877Y013315D02*
X033753Y013315D01*
X033831Y013237D02*
X009956Y013237D01*
X010034Y013158D02*
X033910Y013158D01*
X033988Y013080D02*
X010113Y013080D01*
X010191Y013001D02*
X034067Y013001D01*
X034145Y012923D02*
X027195Y012923D01*
X027139Y012979D02*
X026941Y012979D01*
X026840Y012878D01*
X026739Y012979D01*
X026541Y012979D01*
X026401Y012839D01*
X026401Y012790D01*
X024328Y012790D01*
X024239Y012879D01*
X024041Y012879D01*
X023901Y012739D01*
X023901Y012541D01*
X024041Y012401D01*
X024239Y012401D01*
X024328Y012490D01*
X026602Y012490D01*
X026613Y012501D01*
X026739Y012501D01*
X026840Y012602D01*
X026890Y012552D01*
X026890Y012078D01*
X026978Y011990D01*
X027178Y011790D01*
X028689Y011790D01*
X028689Y011702D01*
X028747Y011643D01*
X029263Y011643D01*
X029322Y011702D01*
X029322Y012178D01*
X029263Y012237D01*
X028747Y012237D01*
X028689Y012178D01*
X028689Y012090D01*
X027302Y012090D01*
X027190Y012202D01*
X027190Y012552D01*
X027279Y012641D01*
X027279Y012839D01*
X027139Y012979D01*
X027274Y012844D02*
X034224Y012844D01*
X034302Y012766D02*
X027279Y012766D01*
X027279Y012687D02*
X034381Y012687D01*
X034459Y012609D02*
X027246Y012609D01*
X027190Y012530D02*
X034538Y012530D01*
X034616Y012452D02*
X027190Y012452D01*
X027190Y012216D02*
X028727Y012216D01*
X028689Y012138D02*
X027255Y012138D01*
X027066Y011902D02*
X011479Y011902D01*
X011479Y011981D02*
X026987Y011981D01*
X026909Y012059D02*
X011459Y012059D01*
X011380Y012138D02*
X026890Y012138D01*
X026890Y012216D02*
X011176Y012216D01*
X011098Y012295D02*
X026890Y012295D01*
X026890Y012373D02*
X011019Y012373D01*
X010941Y012452D02*
X023991Y012452D01*
X023912Y012530D02*
X010662Y012530D01*
X010584Y012609D02*
X023901Y012609D01*
X023901Y012687D02*
X010505Y012687D01*
X010427Y012766D02*
X023928Y012766D01*
X024006Y012844D02*
X010348Y012844D01*
X010270Y012923D02*
X026485Y012923D01*
X026406Y012844D02*
X024274Y012844D01*
X024289Y012452D02*
X026890Y012452D01*
X026890Y012530D02*
X026768Y012530D01*
X026795Y012923D02*
X026885Y012923D01*
X027144Y011824D02*
X011461Y011824D01*
X011383Y011745D02*
X028689Y011745D01*
X028724Y011667D02*
X001380Y011667D01*
X001380Y011745D02*
X010597Y011745D01*
X010519Y011824D02*
X001380Y011824D01*
X001380Y011902D02*
X010501Y011902D01*
X010487Y011981D02*
X005093Y011981D01*
X005086Y011973D02*
X005186Y012074D01*
X005241Y012205D01*
X005241Y012347D01*
X005186Y012479D01*
X005086Y012579D01*
X004954Y012634D01*
X004812Y012634D01*
X004681Y012579D01*
X004580Y012479D01*
X004526Y012347D01*
X004526Y012205D01*
X004580Y012074D01*
X004681Y011973D01*
X004812Y011919D01*
X004954Y011919D01*
X005086Y011973D01*
X005172Y012059D02*
X010409Y012059D01*
X010330Y012138D02*
X005213Y012138D01*
X005241Y012216D02*
X010252Y012216D01*
X010173Y012295D02*
X005241Y012295D01*
X005230Y012373D02*
X010095Y012373D01*
X010016Y012452D02*
X005198Y012452D01*
X005135Y012530D02*
X009938Y012530D01*
X009859Y012609D02*
X005015Y012609D01*
X004751Y012609D02*
X001380Y012609D01*
X001380Y012687D02*
X009781Y012687D01*
X009702Y012766D02*
X001380Y012766D01*
X001380Y012844D02*
X009624Y012844D01*
X009545Y012923D02*
X005186Y012923D01*
X005241Y013001D02*
X009467Y013001D01*
X009388Y013080D02*
X005241Y013080D01*
X005241Y013158D02*
X009310Y013158D01*
X009231Y013237D02*
X005241Y013237D01*
X005241Y013315D02*
X009153Y013315D01*
X009074Y013394D02*
X005241Y013394D01*
X005241Y013472D02*
X008996Y013472D01*
X008917Y013551D02*
X005241Y013551D01*
X004580Y013629D02*
X001380Y013629D01*
X001380Y013551D02*
X004526Y013551D01*
X004526Y013472D02*
X001380Y013472D01*
X001380Y013394D02*
X004526Y013394D01*
X004526Y013315D02*
X001380Y013315D01*
X001380Y013237D02*
X004526Y013237D01*
X004526Y013158D02*
X001380Y013158D01*
X001380Y013080D02*
X004526Y013080D01*
X004526Y013001D02*
X001380Y013001D01*
X001380Y012923D02*
X004581Y012923D01*
X004632Y012530D02*
X001380Y012530D01*
X001380Y012452D02*
X004569Y012452D01*
X004536Y012373D02*
X001380Y012373D01*
X001380Y012295D02*
X004526Y012295D01*
X004526Y012216D02*
X001380Y012216D01*
X001380Y012138D02*
X004554Y012138D01*
X004595Y012059D02*
X001380Y012059D01*
X001380Y011981D02*
X004673Y011981D01*
X004702Y011588D02*
X001380Y011588D01*
X001380Y011510D02*
X004611Y011510D01*
X004560Y011431D02*
X001380Y011431D01*
X001380Y011353D02*
X004528Y011353D01*
X004526Y011274D02*
X001380Y011274D01*
X001380Y011196D02*
X004530Y011196D01*
X004562Y011117D02*
X001380Y011117D01*
X001380Y011039D02*
X004615Y011039D01*
X007135Y009390D02*
X001380Y009390D01*
X001380Y009312D02*
X007057Y009312D01*
X006978Y009233D02*
X001380Y009233D01*
X001380Y009155D02*
X006900Y009155D01*
X006821Y009076D02*
X001380Y009076D01*
X001380Y008998D02*
X006743Y008998D01*
X006664Y008919D02*
X001380Y008919D01*
X001380Y008841D02*
X006586Y008841D01*
X006507Y008762D02*
X001380Y008762D01*
X001380Y008684D02*
X006429Y008684D01*
X006350Y008605D02*
X001380Y008605D01*
X001380Y008527D02*
X001614Y008527D01*
X001590Y008448D02*
X001380Y008448D01*
X001380Y008370D02*
X001590Y008370D01*
X001549Y008291D02*
X001380Y008291D01*
X001380Y008213D02*
X001515Y008213D01*
X001515Y008134D02*
X001380Y008134D01*
X001380Y008056D02*
X001515Y008056D01*
X001515Y007977D02*
X001380Y007977D01*
X001380Y007899D02*
X001515Y007899D01*
X001518Y007820D02*
X001380Y007820D01*
X001380Y007742D02*
X001590Y007742D01*
X001590Y007663D02*
X001380Y007663D01*
X001380Y007585D02*
X001590Y007585D01*
X001662Y007506D02*
X001380Y007506D01*
X001380Y007428D02*
X002790Y007428D01*
X002790Y007349D02*
X002273Y007349D01*
X002257Y007365D02*
X001823Y007365D01*
X001515Y007057D01*
X001515Y006623D01*
X001823Y006315D01*
X002257Y006315D01*
X002565Y006623D01*
X002565Y007057D01*
X002257Y007365D01*
X002352Y007271D02*
X002790Y007271D01*
X002790Y007192D02*
X002430Y007192D01*
X002509Y007114D02*
X002790Y007114D01*
X002790Y007035D02*
X002565Y007035D01*
X002565Y006957D02*
X002790Y006957D01*
X002790Y006878D02*
X002565Y006878D01*
X002565Y006800D02*
X002790Y006800D01*
X002790Y006721D02*
X002565Y006721D01*
X002565Y006643D02*
X002790Y006643D01*
X002790Y006564D02*
X002506Y006564D01*
X002428Y006486D02*
X002790Y006486D01*
X002790Y006407D02*
X002349Y006407D01*
X002271Y006329D02*
X002790Y006329D01*
X002790Y006250D02*
X001380Y006250D01*
X001380Y006172D02*
X002790Y006172D01*
X002790Y006093D02*
X002329Y006093D01*
X002257Y006165D02*
X001823Y006165D01*
X001515Y005857D01*
X001515Y005423D01*
X001823Y005115D01*
X002257Y005115D01*
X002565Y005423D01*
X002565Y005857D01*
X002257Y006165D01*
X002408Y006015D02*
X002790Y006015D01*
X002790Y005936D02*
X002486Y005936D01*
X002565Y005858D02*
X002790Y005858D01*
X002790Y005779D02*
X002565Y005779D01*
X002565Y005701D02*
X002790Y005701D01*
X002790Y005622D02*
X002565Y005622D01*
X002565Y005544D02*
X002790Y005544D01*
X002790Y005465D02*
X002565Y005465D01*
X002529Y005387D02*
X002790Y005387D01*
X002790Y005308D02*
X002450Y005308D01*
X002372Y005230D02*
X002790Y005230D01*
X002790Y005151D02*
X002293Y005151D01*
X002257Y004952D02*
X001823Y004952D01*
X001515Y004645D01*
X001515Y004210D01*
X001823Y003902D01*
X002257Y003902D01*
X002565Y004210D01*
X002565Y004645D01*
X002257Y004952D01*
X002294Y004916D02*
X002790Y004916D01*
X002790Y004994D02*
X001380Y004994D01*
X001380Y004916D02*
X001786Y004916D01*
X001707Y004837D02*
X001380Y004837D01*
X001380Y004759D02*
X001629Y004759D01*
X001550Y004680D02*
X001380Y004680D01*
X001380Y004602D02*
X001515Y004602D01*
X001515Y004523D02*
X001380Y004523D01*
X001380Y004445D02*
X001515Y004445D01*
X001515Y004366D02*
X001380Y004366D01*
X001380Y004288D02*
X001515Y004288D01*
X001516Y004209D02*
X001380Y004209D01*
X001380Y004131D02*
X001594Y004131D01*
X001673Y004052D02*
X001380Y004052D01*
X001380Y003974D02*
X001751Y003974D01*
X001380Y003895D02*
X002535Y003895D01*
X002557Y003908D02*
X002257Y003734D01*
X002053Y003454D01*
X001981Y003115D01*
X002053Y002776D01*
X002257Y002495D01*
X002557Y002322D01*
X002902Y002286D01*
X003232Y002393D01*
X003489Y002625D01*
X003630Y002941D01*
X003630Y003288D01*
X003489Y003605D01*
X003232Y003837D01*
X002902Y003944D01*
X002557Y003908D01*
X002399Y003817D02*
X001380Y003817D01*
X001380Y003738D02*
X002263Y003738D01*
X002203Y003660D02*
X001380Y003660D01*
X001380Y003581D02*
X002146Y003581D01*
X002088Y003503D02*
X001380Y003503D01*
X001380Y003424D02*
X002047Y003424D01*
X002030Y003346D02*
X001380Y003346D01*
X001380Y003267D02*
X002013Y003267D01*
X001997Y003189D02*
X001380Y003189D01*
X001380Y003110D02*
X001982Y003110D01*
X001999Y003032D02*
X001380Y003032D01*
X001380Y002953D02*
X002015Y002953D01*
X002032Y002875D02*
X001380Y002875D01*
X001380Y002796D02*
X002049Y002796D01*
X002095Y002718D02*
X001380Y002718D01*
X001380Y002639D02*
X002152Y002639D01*
X002210Y002561D02*
X001380Y002561D01*
X001380Y002482D02*
X002280Y002482D01*
X002416Y002404D02*
X001380Y002404D01*
X001380Y002325D02*
X002552Y002325D01*
X003023Y002325D02*
X004643Y002325D01*
X004721Y002247D02*
X001380Y002247D01*
X001380Y002168D02*
X004800Y002168D01*
X004878Y002090D02*
X001380Y002090D01*
X001380Y002011D02*
X004957Y002011D01*
X005035Y001933D02*
X001380Y001933D01*
X001380Y001854D02*
X005114Y001854D01*
X005090Y001878D02*
X005178Y001790D01*
X020402Y001790D01*
X020490Y001878D01*
X020602Y001990D01*
X021689Y001990D01*
X021689Y001902D01*
X021747Y001843D01*
X022263Y001843D01*
X022322Y001902D01*
X022322Y002378D01*
X022263Y002437D01*
X021747Y002437D01*
X021689Y002378D01*
X021689Y002290D01*
X020990Y002290D01*
X020990Y002552D01*
X021040Y002602D01*
X021141Y002501D01*
X021339Y002501D01*
X021428Y002590D01*
X021802Y002590D01*
X021855Y002643D01*
X022263Y002643D01*
X022322Y002702D01*
X022322Y003178D01*
X022263Y003237D01*
X021747Y003237D01*
X021689Y003178D01*
X021689Y002901D01*
X021678Y002890D01*
X021428Y002890D01*
X021339Y002979D01*
X021313Y002979D01*
X021102Y003190D01*
X020578Y003190D01*
X020490Y003102D01*
X020290Y002902D01*
X020290Y002402D01*
X020178Y002290D01*
X018402Y002290D01*
X019313Y003201D01*
X019439Y003201D01*
X019579Y003341D01*
X019579Y003539D01*
X019439Y003679D01*
X019241Y003679D01*
X019101Y003539D01*
X019101Y003413D01*
X018178Y002490D01*
X005702Y002490D01*
X005065Y003127D01*
X005079Y003141D01*
X005079Y003339D01*
X004939Y003479D01*
X004741Y003479D01*
X004601Y003339D01*
X004601Y003191D01*
X004579Y003213D01*
X004579Y003339D01*
X004439Y003479D01*
X004241Y003479D01*
X004140Y003378D01*
X004039Y003479D01*
X003841Y003479D01*
X003701Y003339D01*
X003701Y003141D01*
X003841Y003001D01*
X003967Y003001D01*
X005090Y001878D01*
X004564Y002404D02*
X003244Y002404D01*
X003331Y002482D02*
X004486Y002482D01*
X004407Y002561D02*
X003418Y002561D01*
X003496Y002639D02*
X004329Y002639D01*
X004250Y002718D02*
X003531Y002718D01*
X003566Y002796D02*
X004172Y002796D01*
X004093Y002875D02*
X003600Y002875D01*
X003630Y002953D02*
X004015Y002953D01*
X003811Y003032D02*
X003630Y003032D01*
X003630Y003110D02*
X003732Y003110D01*
X003701Y003189D02*
X003630Y003189D01*
X003630Y003267D02*
X003701Y003267D01*
X003708Y003346D02*
X003605Y003346D01*
X003570Y003424D02*
X003786Y003424D01*
X003535Y003503D02*
X004641Y003503D01*
X004650Y003498D02*
X004685Y003488D01*
X004901Y003488D01*
X004901Y003747D01*
X004564Y003747D01*
X004564Y003610D01*
X004573Y003574D01*
X004592Y003542D01*
X004618Y003516D01*
X004650Y003498D01*
X004686Y003424D02*
X004494Y003424D01*
X004572Y003346D02*
X004608Y003346D01*
X004601Y003267D02*
X004579Y003267D01*
X004571Y003581D02*
X003500Y003581D01*
X003429Y003660D02*
X004564Y003660D01*
X004564Y003738D02*
X003341Y003738D01*
X003254Y003817D02*
X004901Y003817D01*
X004901Y003824D02*
X004901Y003747D01*
X004979Y003747D01*
X004979Y003824D01*
X005316Y003824D01*
X005316Y003962D01*
X005307Y003997D01*
X005288Y004029D01*
X005262Y004055D01*
X005230Y004074D01*
X005195Y004083D01*
X004979Y004083D01*
X004979Y003824D01*
X004901Y003824D01*
X004564Y003824D01*
X004564Y003962D01*
X004573Y003997D01*
X004592Y004029D01*
X004618Y004055D01*
X004650Y004074D01*
X004685Y004083D01*
X004901Y004083D01*
X004901Y003824D01*
X004901Y003895D02*
X004979Y003895D01*
X004979Y003817D02*
X019851Y003817D01*
X019773Y003895D02*
X005316Y003895D01*
X005313Y003974D02*
X019694Y003974D01*
X019616Y004052D02*
X005265Y004052D01*
X005222Y004209D02*
X004821Y004209D01*
X004901Y004052D02*
X004979Y004052D01*
X004979Y003974D02*
X004901Y003974D01*
X004901Y003738D02*
X004979Y003738D01*
X004979Y003747D02*
X004979Y003488D01*
X005195Y003488D01*
X005230Y003498D01*
X005262Y003516D01*
X005288Y003542D01*
X005307Y003574D01*
X005316Y003610D01*
X005316Y003747D01*
X004979Y003747D01*
X004979Y003660D02*
X004901Y003660D01*
X004901Y003581D02*
X004979Y003581D01*
X004979Y003503D02*
X004901Y003503D01*
X004994Y003424D02*
X019101Y003424D01*
X019101Y003503D02*
X005239Y003503D01*
X005309Y003581D02*
X019143Y003581D01*
X019222Y003660D02*
X005316Y003660D01*
X005316Y003738D02*
X019930Y003738D01*
X020102Y003990D02*
X019527Y004565D01*
X020415Y004565D01*
X020520Y004670D01*
X021193Y005343D01*
X021563Y005343D01*
X021622Y005402D01*
X021622Y005411D01*
X021628Y005389D01*
X021646Y005357D01*
X021672Y005331D01*
X021704Y005313D01*
X021740Y005303D01*
X021935Y005303D01*
X021935Y005600D01*
X022015Y005600D01*
X022015Y005303D01*
X022210Y005303D01*
X022245Y005313D01*
X022277Y005331D01*
X022303Y005357D01*
X022322Y005389D01*
X022331Y005425D01*
X022331Y005511D01*
X022341Y005501D01*
X022539Y005501D01*
X022543Y005506D01*
X022543Y005147D01*
X022601Y005090D01*
X022589Y005079D01*
X022441Y005079D01*
X022301Y004939D01*
X022301Y004741D01*
X022441Y004601D01*
X022543Y004601D01*
X022543Y004517D01*
X022602Y004458D01*
X022611Y004458D01*
X022589Y004452D01*
X022557Y004434D01*
X022531Y004408D01*
X022513Y004376D01*
X022503Y004340D01*
X022503Y004145D01*
X022800Y004145D01*
X022800Y004065D01*
X022880Y004065D01*
X022880Y003749D01*
X023055Y003749D01*
X023091Y003758D01*
X023123Y003777D01*
X023149Y003803D01*
X023167Y003835D01*
X023177Y003870D01*
X023177Y004065D01*
X022880Y004065D01*
X022880Y004145D01*
X023177Y004145D01*
X023177Y004340D01*
X023167Y004376D01*
X023149Y004408D01*
X023123Y004434D01*
X023091Y004452D01*
X023069Y004458D01*
X023078Y004458D01*
X023137Y004517D01*
X023137Y005033D01*
X023079Y005090D01*
X023137Y005147D01*
X023137Y005590D01*
X024001Y005590D01*
X024001Y005491D01*
X023943Y005433D01*
X023943Y004917D01*
X024002Y004858D01*
X024011Y004858D01*
X023989Y004852D01*
X023957Y004834D01*
X023931Y004808D01*
X023913Y004776D01*
X023903Y004740D01*
X023903Y004545D01*
X024200Y004545D01*
X024200Y004465D01*
X024280Y004465D01*
X024280Y004149D01*
X024455Y004149D01*
X024491Y004158D01*
X024523Y004177D01*
X024549Y004203D01*
X024567Y004235D01*
X024577Y004270D01*
X024577Y004465D01*
X024280Y004465D01*
X024280Y004545D01*
X024577Y004545D01*
X024577Y004740D01*
X024567Y004776D01*
X024549Y004808D01*
X024523Y004834D01*
X024491Y004852D01*
X024469Y004858D01*
X024478Y004858D01*
X024537Y004917D01*
X024537Y005433D01*
X024479Y005491D01*
X024479Y005589D01*
X024590Y005478D01*
X024590Y005278D01*
X024890Y004978D01*
X024978Y004890D01*
X027478Y004890D01*
X027267Y004679D01*
X027141Y004679D01*
X027001Y004539D01*
X027001Y004341D01*
X027064Y004279D01*
X026941Y004279D01*
X026801Y004139D01*
X026801Y003941D01*
X026941Y003801D01*
X027139Y003801D01*
X027228Y003890D01*
X027802Y003890D01*
X028202Y004290D01*
X028343Y004290D01*
X028343Y003874D01*
X028239Y003979D01*
X028041Y003979D01*
X027901Y003839D01*
X027901Y003713D01*
X027778Y003590D01*
X026828Y003590D01*
X026739Y003679D01*
X026541Y003679D01*
X026401Y003539D01*
X026401Y003341D01*
X026541Y003201D01*
X026401Y003346D02*
X022747Y003346D01*
X022825Y003267D02*
X022102Y003990D01*
X020102Y003990D01*
X020040Y004052D02*
X022503Y004052D01*
X022503Y004065D02*
X022503Y003870D01*
X022513Y003835D01*
X022531Y003803D01*
X022557Y003777D01*
X022589Y003758D01*
X022625Y003749D01*
X022800Y003749D01*
X022800Y004065D01*
X022503Y004065D01*
X022503Y003974D02*
X022119Y003974D01*
X022197Y003895D02*
X022503Y003895D01*
X022523Y003817D02*
X022276Y003817D01*
X022354Y003738D02*
X027901Y003738D01*
X027901Y003817D02*
X027154Y003817D01*
X026926Y003817D02*
X023157Y003817D01*
X023177Y003895D02*
X026847Y003895D01*
X026801Y003974D02*
X023177Y003974D01*
X023177Y004052D02*
X026801Y004052D01*
X026801Y004131D02*
X022880Y004131D01*
X022880Y004052D02*
X022800Y004052D01*
X022800Y003974D02*
X022880Y003974D01*
X022880Y003895D02*
X022800Y003895D01*
X022800Y003817D02*
X022880Y003817D01*
X022590Y003503D02*
X026401Y003503D01*
X026401Y003424D02*
X022668Y003424D01*
X022511Y003581D02*
X026443Y003581D01*
X026522Y003660D02*
X022433Y003660D01*
X022244Y003424D02*
X019579Y003424D01*
X019579Y003346D02*
X022322Y003346D01*
X022401Y003267D02*
X019505Y003267D01*
X019301Y003189D02*
X020576Y003189D01*
X020498Y003110D02*
X019222Y003110D01*
X019144Y003032D02*
X020419Y003032D01*
X020341Y002953D02*
X019065Y002953D01*
X018987Y002875D02*
X020290Y002875D01*
X020290Y002796D02*
X018908Y002796D01*
X018830Y002718D02*
X020290Y002718D01*
X020290Y002639D02*
X018751Y002639D01*
X018673Y002561D02*
X020290Y002561D01*
X020290Y002482D02*
X018594Y002482D01*
X018516Y002404D02*
X020290Y002404D01*
X020213Y002325D02*
X018437Y002325D01*
X018248Y002561D02*
X005632Y002561D01*
X005553Y002639D02*
X018327Y002639D01*
X018405Y002718D02*
X005475Y002718D01*
X005396Y002796D02*
X018484Y002796D01*
X018562Y002875D02*
X005318Y002875D01*
X005239Y002953D02*
X018641Y002953D01*
X018719Y003032D02*
X005161Y003032D01*
X005082Y003110D02*
X018798Y003110D01*
X018876Y003189D02*
X005079Y003189D01*
X005079Y003267D02*
X018955Y003267D01*
X019033Y003346D02*
X005072Y003346D01*
X004186Y003424D02*
X004094Y003424D01*
X004564Y003895D02*
X003053Y003895D01*
X002859Y004209D02*
X002564Y004209D01*
X002565Y004288D02*
X002790Y004288D01*
X002790Y004366D02*
X002565Y004366D01*
X002565Y004445D02*
X002790Y004445D01*
X002790Y004523D02*
X002565Y004523D01*
X002565Y004602D02*
X002790Y004602D01*
X002790Y004680D02*
X002530Y004680D01*
X002451Y004759D02*
X002790Y004759D01*
X002790Y004837D02*
X002373Y004837D01*
X002790Y005073D02*
X001380Y005073D01*
X001380Y005151D02*
X001787Y005151D01*
X001708Y005230D02*
X001380Y005230D01*
X001380Y005308D02*
X001630Y005308D01*
X001551Y005387D02*
X001380Y005387D01*
X001380Y005465D02*
X001515Y005465D01*
X001515Y005544D02*
X001380Y005544D01*
X001380Y005622D02*
X001515Y005622D01*
X001515Y005701D02*
X001380Y005701D01*
X001380Y005779D02*
X001515Y005779D01*
X001515Y005858D02*
X001380Y005858D01*
X001380Y005936D02*
X001594Y005936D01*
X001672Y006015D02*
X001380Y006015D01*
X001380Y006093D02*
X001751Y006093D01*
X001809Y006329D02*
X001380Y006329D01*
X001380Y006407D02*
X001731Y006407D01*
X001652Y006486D02*
X001380Y006486D01*
X001380Y006564D02*
X001574Y006564D01*
X001515Y006643D02*
X001380Y006643D01*
X001380Y006721D02*
X001515Y006721D01*
X001515Y006800D02*
X001380Y006800D01*
X001380Y006878D02*
X001515Y006878D01*
X001515Y006957D02*
X001380Y006957D01*
X001380Y007035D02*
X001515Y007035D01*
X001571Y007114D02*
X001380Y007114D01*
X001380Y007192D02*
X001650Y007192D01*
X001728Y007271D02*
X001380Y007271D01*
X001380Y007349D02*
X001807Y007349D01*
X003990Y007820D02*
X004065Y007820D01*
X003990Y007899D02*
X004144Y007899D01*
X004222Y007977D02*
X003990Y007977D01*
X003990Y008056D02*
X005801Y008056D01*
X005879Y008134D02*
X003990Y008134D01*
X003990Y008213D02*
X005958Y008213D01*
X006036Y008291D02*
X003990Y008291D01*
X003990Y008370D02*
X006115Y008370D01*
X006193Y008448D02*
X003990Y008448D01*
X003966Y008527D02*
X006272Y008527D01*
X006546Y008291D02*
X010534Y008291D01*
X010456Y008370D02*
X006624Y008370D01*
X006703Y008448D02*
X010377Y008448D01*
X010299Y008527D02*
X006781Y008527D01*
X006860Y008605D02*
X010220Y008605D01*
X010142Y008684D02*
X006938Y008684D01*
X007017Y008762D02*
X010063Y008762D01*
X009985Y008841D02*
X007095Y008841D01*
X007174Y008919D02*
X009906Y008919D01*
X009828Y008998D02*
X007252Y008998D01*
X007331Y009076D02*
X009749Y009076D01*
X009671Y009155D02*
X007409Y009155D01*
X007488Y009233D02*
X009592Y009233D01*
X009514Y009312D02*
X009001Y009312D01*
X009079Y009390D02*
X009435Y009390D01*
X009357Y009469D02*
X009158Y009469D01*
X009240Y009790D02*
X009240Y009805D01*
X009240Y009840D01*
X008943Y009861D02*
X001380Y009861D01*
X001380Y009783D02*
X008943Y009783D01*
X008884Y009704D02*
X001380Y009704D01*
X001380Y009626D02*
X008806Y009626D01*
X009537Y010018D02*
X009809Y010018D01*
X009840Y010097D02*
X009504Y010097D01*
X009551Y010175D02*
X009775Y010175D01*
X009769Y010254D02*
X009577Y010254D01*
X009577Y010332D02*
X009769Y010332D01*
X009280Y010646D02*
X009200Y010646D01*
X009200Y010725D02*
X009280Y010725D01*
X009280Y010831D02*
X009455Y010831D01*
X009491Y010822D01*
X009523Y010803D01*
X010357Y010175D02*
X037793Y010175D01*
X037982Y010411D02*
X038643Y010411D01*
X038643Y010489D02*
X037903Y010489D01*
X038060Y010332D02*
X038643Y010332D01*
X038643Y010254D02*
X038139Y010254D01*
X038217Y010175D02*
X038643Y010175D01*
X038643Y010097D02*
X038296Y010097D01*
X038378Y010018D02*
X038643Y010018D01*
X038643Y009940D02*
X038410Y009940D01*
X038410Y009861D02*
X038699Y009861D01*
X038617Y009783D02*
X038410Y009783D01*
X038410Y009704D02*
X038603Y009704D01*
X038603Y009626D02*
X038410Y009626D01*
X037040Y008919D02*
X023957Y008919D01*
X023723Y008919D02*
X022191Y008919D01*
X022377Y008841D02*
X037040Y008841D01*
X037040Y008762D02*
X034556Y008762D01*
X038080Y007349D02*
X038237Y007349D01*
X038217Y007428D02*
X038315Y007428D01*
X038237Y007506D02*
X038643Y007506D01*
X038643Y007585D02*
X038237Y007585D01*
X038237Y007663D02*
X038605Y007663D01*
X039237Y007663D02*
X039251Y007663D01*
X039237Y007742D02*
X039290Y007742D01*
X039290Y007820D02*
X039237Y007820D01*
X039237Y007899D02*
X039290Y007899D01*
X039290Y007977D02*
X039223Y007977D01*
X037417Y004994D02*
X037306Y004994D01*
X036992Y004680D02*
X038325Y004680D01*
X038247Y004602D02*
X036914Y004602D01*
X036835Y004523D02*
X038168Y004523D01*
X038090Y004445D02*
X036757Y004445D01*
X036903Y004366D02*
X037377Y004366D01*
X037343Y004288D02*
X036937Y004288D01*
X036937Y003817D02*
X037343Y003817D01*
X037402Y003722D02*
X037343Y003663D01*
X037343Y003147D01*
X037402Y003089D01*
X037420Y003089D01*
X037335Y003004D01*
X037280Y002872D01*
X037280Y002208D01*
X037335Y002076D01*
X037436Y001975D01*
X037568Y001920D01*
X037712Y001920D01*
X037844Y001975D01*
X037945Y002076D01*
X038000Y002208D01*
X038000Y002872D01*
X037945Y003004D01*
X037860Y003089D01*
X037878Y003089D01*
X037937Y003147D01*
X037937Y003663D01*
X037878Y003722D01*
X037402Y003722D01*
X037343Y003660D02*
X036937Y003660D01*
X036937Y003663D02*
X036878Y003722D01*
X036402Y003722D01*
X036343Y003663D01*
X036343Y003147D01*
X036402Y003089D01*
X036420Y003089D01*
X036335Y003004D01*
X036280Y002872D01*
X036280Y002208D01*
X036335Y002076D01*
X036436Y001975D01*
X036568Y001920D01*
X036712Y001920D01*
X036844Y001975D01*
X036945Y002076D01*
X037000Y002208D01*
X037000Y002872D01*
X036945Y003004D01*
X036860Y003089D01*
X036878Y003089D01*
X036937Y003147D01*
X036937Y003663D01*
X036937Y003581D02*
X037343Y003581D01*
X037343Y003503D02*
X036937Y003503D01*
X036937Y003424D02*
X037343Y003424D01*
X037343Y003346D02*
X036937Y003346D01*
X036937Y003267D02*
X037343Y003267D01*
X037343Y003189D02*
X036937Y003189D01*
X036899Y003110D02*
X037381Y003110D01*
X037362Y003032D02*
X036918Y003032D01*
X036966Y002953D02*
X037314Y002953D01*
X037281Y002875D02*
X036999Y002875D01*
X037000Y002796D02*
X037280Y002796D01*
X037280Y002718D02*
X037000Y002718D01*
X037000Y002639D02*
X037280Y002639D01*
X037280Y002561D02*
X037000Y002561D01*
X037000Y002482D02*
X037280Y002482D01*
X037280Y002404D02*
X037000Y002404D01*
X037000Y002325D02*
X037280Y002325D01*
X037280Y002247D02*
X037000Y002247D01*
X036983Y002168D02*
X037297Y002168D01*
X037329Y002090D02*
X036951Y002090D01*
X036880Y002011D02*
X037400Y002011D01*
X037538Y001933D02*
X036742Y001933D01*
X036538Y001933D02*
X035742Y001933D01*
X035712Y001920D02*
X035844Y001975D01*
X035945Y002076D01*
X036000Y002208D01*
X036000Y002872D01*
X035945Y003004D01*
X035860Y003089D01*
X035878Y003089D01*
X035937Y003147D01*
X035937Y003663D01*
X035878Y003722D01*
X035402Y003722D01*
X035343Y003663D01*
X035343Y003147D01*
X035402Y003089D01*
X035420Y003089D01*
X035335Y003004D01*
X035280Y002872D01*
X035280Y002208D01*
X035335Y002076D01*
X035436Y001975D01*
X035568Y001920D01*
X035712Y001920D01*
X035538Y001933D02*
X034742Y001933D01*
X034712Y001920D02*
X034844Y001975D01*
X034945Y002076D01*
X035000Y002208D01*
X035000Y002872D01*
X034945Y003004D01*
X034860Y003089D01*
X034878Y003089D01*
X034937Y003147D01*
X034937Y003663D01*
X034878Y003722D01*
X034402Y003722D01*
X034343Y003663D01*
X034343Y003147D01*
X034402Y003089D01*
X034420Y003089D01*
X034335Y003004D01*
X034280Y002872D01*
X034280Y002208D01*
X034335Y002076D01*
X034436Y001975D01*
X034568Y001920D01*
X034712Y001920D01*
X034538Y001933D02*
X033742Y001933D01*
X033712Y001920D02*
X033844Y001975D01*
X033945Y002076D01*
X034000Y002208D01*
X034000Y002872D01*
X033945Y003004D01*
X033860Y003089D01*
X033878Y003089D01*
X033937Y003147D01*
X033937Y003663D01*
X033878Y003722D01*
X033402Y003722D01*
X033343Y003663D01*
X033343Y003147D01*
X033402Y003089D01*
X033420Y003089D01*
X033335Y003004D01*
X033280Y002872D01*
X033280Y002208D01*
X033335Y002076D01*
X033436Y001975D01*
X033568Y001920D01*
X033712Y001920D01*
X033538Y001933D02*
X032742Y001933D01*
X032712Y001920D02*
X032844Y001975D01*
X032945Y002076D01*
X033000Y002208D01*
X033000Y002872D01*
X032945Y003004D01*
X032860Y003089D01*
X032878Y003089D01*
X032937Y003147D01*
X032937Y003663D01*
X032878Y003722D01*
X032402Y003722D01*
X032343Y003663D01*
X032343Y003147D01*
X032402Y003089D01*
X032420Y003089D01*
X032335Y003004D01*
X032280Y002872D01*
X032280Y002208D01*
X032335Y002076D01*
X032436Y001975D01*
X032568Y001920D01*
X032712Y001920D01*
X032538Y001933D02*
X031742Y001933D01*
X031712Y001920D02*
X031844Y001975D01*
X031945Y002076D01*
X032000Y002208D01*
X032000Y002872D01*
X031945Y003004D01*
X031860Y003089D01*
X031878Y003089D01*
X031937Y003147D01*
X031937Y003663D01*
X031878Y003722D01*
X031402Y003722D01*
X031343Y003663D01*
X031343Y003147D01*
X031402Y003089D01*
X031420Y003089D01*
X031335Y003004D01*
X031280Y002872D01*
X031280Y002208D01*
X031335Y002076D01*
X031436Y001975D01*
X031568Y001920D01*
X031712Y001920D01*
X031538Y001933D02*
X030742Y001933D01*
X030712Y001920D02*
X030844Y001975D01*
X030945Y002076D01*
X031000Y002208D01*
X031000Y002872D01*
X030945Y003004D01*
X030860Y003089D01*
X030878Y003089D01*
X030937Y003147D01*
X030937Y003663D01*
X030878Y003722D01*
X030402Y003722D01*
X030343Y003663D01*
X030343Y003147D01*
X030402Y003089D01*
X030420Y003089D01*
X030335Y003004D01*
X030280Y002872D01*
X030280Y002208D01*
X030335Y002076D01*
X030436Y001975D01*
X030568Y001920D01*
X030712Y001920D01*
X030538Y001933D02*
X029742Y001933D01*
X029712Y001920D02*
X029844Y001975D01*
X029945Y002076D01*
X030000Y002208D01*
X030000Y002872D01*
X029945Y003004D01*
X029860Y003089D01*
X029878Y003089D01*
X029937Y003147D01*
X029937Y003663D01*
X029878Y003722D01*
X029402Y003722D01*
X029343Y003663D01*
X029343Y003147D01*
X029402Y003089D01*
X029420Y003089D01*
X029335Y003004D01*
X029280Y002872D01*
X029280Y002208D01*
X029335Y002076D01*
X029436Y001975D01*
X029568Y001920D01*
X029712Y001920D01*
X029538Y001933D02*
X028742Y001933D01*
X028880Y002011D02*
X029400Y002011D01*
X029329Y002090D02*
X028951Y002090D01*
X028983Y002168D02*
X029297Y002168D01*
X029280Y002247D02*
X029000Y002247D01*
X029000Y002325D02*
X029280Y002325D01*
X029280Y002404D02*
X029000Y002404D01*
X029000Y002482D02*
X029280Y002482D01*
X029280Y002561D02*
X029000Y002561D01*
X029000Y002639D02*
X029280Y002639D01*
X029280Y002718D02*
X029000Y002718D01*
X029000Y002796D02*
X029280Y002796D01*
X029281Y002875D02*
X028999Y002875D01*
X028966Y002953D02*
X029314Y002953D01*
X029362Y003032D02*
X028918Y003032D01*
X028899Y003110D02*
X029381Y003110D01*
X029343Y003189D02*
X028937Y003189D01*
X028937Y003267D02*
X029343Y003267D01*
X029343Y003346D02*
X028937Y003346D01*
X028937Y003424D02*
X029343Y003424D01*
X029343Y003503D02*
X028937Y003503D01*
X028937Y003581D02*
X029343Y003581D01*
X029343Y003660D02*
X028937Y003660D01*
X028937Y003817D02*
X029343Y003817D01*
X029937Y003817D02*
X030343Y003817D01*
X030343Y003660D02*
X029937Y003660D01*
X029937Y003581D02*
X030343Y003581D01*
X030343Y003503D02*
X029937Y003503D01*
X029937Y003424D02*
X030343Y003424D01*
X030343Y003346D02*
X029937Y003346D01*
X029937Y003267D02*
X030343Y003267D01*
X030343Y003189D02*
X029937Y003189D01*
X029899Y003110D02*
X030381Y003110D01*
X030362Y003032D02*
X029918Y003032D01*
X029966Y002953D02*
X030314Y002953D01*
X030281Y002875D02*
X029999Y002875D01*
X030000Y002796D02*
X030280Y002796D01*
X030280Y002718D02*
X030000Y002718D01*
X030000Y002639D02*
X030280Y002639D01*
X030280Y002561D02*
X030000Y002561D01*
X030000Y002482D02*
X030280Y002482D01*
X030280Y002404D02*
X030000Y002404D01*
X030000Y002325D02*
X030280Y002325D01*
X030280Y002247D02*
X030000Y002247D01*
X029983Y002168D02*
X030297Y002168D01*
X030329Y002090D02*
X029951Y002090D01*
X029880Y002011D02*
X030400Y002011D01*
X030880Y002011D02*
X031400Y002011D01*
X031329Y002090D02*
X030951Y002090D01*
X030983Y002168D02*
X031297Y002168D01*
X031280Y002247D02*
X031000Y002247D01*
X031000Y002325D02*
X031280Y002325D01*
X031280Y002404D02*
X031000Y002404D01*
X031000Y002482D02*
X031280Y002482D01*
X031280Y002561D02*
X031000Y002561D01*
X031000Y002639D02*
X031280Y002639D01*
X031280Y002718D02*
X031000Y002718D01*
X031000Y002796D02*
X031280Y002796D01*
X031281Y002875D02*
X030999Y002875D01*
X030966Y002953D02*
X031314Y002953D01*
X031362Y003032D02*
X030918Y003032D01*
X030899Y003110D02*
X031381Y003110D01*
X031343Y003189D02*
X030937Y003189D01*
X030937Y003267D02*
X031343Y003267D01*
X031343Y003346D02*
X030937Y003346D01*
X030937Y003424D02*
X031343Y003424D01*
X031343Y003503D02*
X030937Y003503D01*
X030937Y003581D02*
X031343Y003581D01*
X031343Y003660D02*
X030937Y003660D01*
X030937Y003817D02*
X031343Y003817D01*
X031937Y003817D02*
X032343Y003817D01*
X032343Y003660D02*
X031937Y003660D01*
X031937Y003581D02*
X032343Y003581D01*
X032343Y003503D02*
X031937Y003503D01*
X031937Y003424D02*
X032343Y003424D01*
X032343Y003346D02*
X031937Y003346D01*
X031937Y003267D02*
X032343Y003267D01*
X032343Y003189D02*
X031937Y003189D01*
X031899Y003110D02*
X032381Y003110D01*
X032362Y003032D02*
X031918Y003032D01*
X031966Y002953D02*
X032314Y002953D01*
X032281Y002875D02*
X031999Y002875D01*
X032000Y002796D02*
X032280Y002796D01*
X032280Y002718D02*
X032000Y002718D01*
X032000Y002639D02*
X032280Y002639D01*
X032280Y002561D02*
X032000Y002561D01*
X032000Y002482D02*
X032280Y002482D01*
X032280Y002404D02*
X032000Y002404D01*
X032000Y002325D02*
X032280Y002325D01*
X032280Y002247D02*
X032000Y002247D01*
X031983Y002168D02*
X032297Y002168D01*
X032329Y002090D02*
X031951Y002090D01*
X031880Y002011D02*
X032400Y002011D01*
X032880Y002011D02*
X033400Y002011D01*
X033329Y002090D02*
X032951Y002090D01*
X032983Y002168D02*
X033297Y002168D01*
X033280Y002247D02*
X033000Y002247D01*
X033000Y002325D02*
X033280Y002325D01*
X033280Y002404D02*
X033000Y002404D01*
X033000Y002482D02*
X033280Y002482D01*
X033280Y002561D02*
X033000Y002561D01*
X033000Y002639D02*
X033280Y002639D01*
X033280Y002718D02*
X033000Y002718D01*
X033000Y002796D02*
X033280Y002796D01*
X033281Y002875D02*
X032999Y002875D01*
X032966Y002953D02*
X033314Y002953D01*
X033362Y003032D02*
X032918Y003032D01*
X032899Y003110D02*
X033381Y003110D01*
X033343Y003189D02*
X032937Y003189D01*
X032937Y003267D02*
X033343Y003267D01*
X033343Y003346D02*
X032937Y003346D01*
X032937Y003424D02*
X033343Y003424D01*
X033343Y003503D02*
X032937Y003503D01*
X032937Y003581D02*
X033343Y003581D01*
X033343Y003660D02*
X032937Y003660D01*
X032937Y003817D02*
X033343Y003817D01*
X033937Y003817D02*
X034343Y003817D01*
X034343Y003660D02*
X033937Y003660D01*
X033937Y003581D02*
X034343Y003581D01*
X034343Y003503D02*
X033937Y003503D01*
X033937Y003424D02*
X034343Y003424D01*
X034343Y003346D02*
X033937Y003346D01*
X033937Y003267D02*
X034343Y003267D01*
X034343Y003189D02*
X033937Y003189D01*
X033899Y003110D02*
X034381Y003110D01*
X034362Y003032D02*
X033918Y003032D01*
X033966Y002953D02*
X034314Y002953D01*
X034281Y002875D02*
X033999Y002875D01*
X034000Y002796D02*
X034280Y002796D01*
X034280Y002718D02*
X034000Y002718D01*
X034000Y002639D02*
X034280Y002639D01*
X034280Y002561D02*
X034000Y002561D01*
X034000Y002482D02*
X034280Y002482D01*
X034280Y002404D02*
X034000Y002404D01*
X034000Y002325D02*
X034280Y002325D01*
X034280Y002247D02*
X034000Y002247D01*
X033983Y002168D02*
X034297Y002168D01*
X034329Y002090D02*
X033951Y002090D01*
X033880Y002011D02*
X034400Y002011D01*
X034880Y002011D02*
X035400Y002011D01*
X035329Y002090D02*
X034951Y002090D01*
X034983Y002168D02*
X035297Y002168D01*
X035280Y002247D02*
X035000Y002247D01*
X035000Y002325D02*
X035280Y002325D01*
X035280Y002404D02*
X035000Y002404D01*
X035000Y002482D02*
X035280Y002482D01*
X035280Y002561D02*
X035000Y002561D01*
X035000Y002639D02*
X035280Y002639D01*
X035280Y002718D02*
X035000Y002718D01*
X035000Y002796D02*
X035280Y002796D01*
X035281Y002875D02*
X034999Y002875D01*
X034966Y002953D02*
X035314Y002953D01*
X035362Y003032D02*
X034918Y003032D01*
X034899Y003110D02*
X035381Y003110D01*
X035343Y003189D02*
X034937Y003189D01*
X034937Y003267D02*
X035343Y003267D01*
X035343Y003346D02*
X034937Y003346D01*
X034937Y003424D02*
X035343Y003424D01*
X035343Y003503D02*
X034937Y003503D01*
X034937Y003581D02*
X035343Y003581D01*
X035343Y003660D02*
X034937Y003660D01*
X034937Y003817D02*
X035343Y003817D01*
X035937Y003817D02*
X036343Y003817D01*
X036343Y003660D02*
X035937Y003660D01*
X035937Y003581D02*
X036343Y003581D01*
X036343Y003503D02*
X035937Y003503D01*
X035937Y003424D02*
X036343Y003424D01*
X036343Y003346D02*
X035937Y003346D01*
X035937Y003267D02*
X036343Y003267D01*
X036343Y003189D02*
X035937Y003189D01*
X035899Y003110D02*
X036381Y003110D01*
X036362Y003032D02*
X035918Y003032D01*
X035966Y002953D02*
X036314Y002953D01*
X036281Y002875D02*
X035999Y002875D01*
X036000Y002796D02*
X036280Y002796D01*
X036280Y002718D02*
X036000Y002718D01*
X036000Y002639D02*
X036280Y002639D01*
X036280Y002561D02*
X036000Y002561D01*
X036000Y002482D02*
X036280Y002482D01*
X036280Y002404D02*
X036000Y002404D01*
X036000Y002325D02*
X036280Y002325D01*
X036280Y002247D02*
X036000Y002247D01*
X035983Y002168D02*
X036297Y002168D01*
X036329Y002090D02*
X035951Y002090D01*
X035880Y002011D02*
X036400Y002011D01*
X037742Y001933D02*
X040470Y001933D01*
X040470Y002011D02*
X037880Y002011D01*
X037951Y002090D02*
X040470Y002090D01*
X040470Y002168D02*
X037983Y002168D01*
X038000Y002247D02*
X040470Y002247D01*
X040470Y002325D02*
X039243Y002325D01*
X039464Y002404D02*
X040470Y002404D01*
X040470Y002482D02*
X039551Y002482D01*
X038772Y002325D02*
X038000Y002325D01*
X038000Y002404D02*
X038636Y002404D01*
X038500Y002482D02*
X038000Y002482D01*
X038000Y002561D02*
X038430Y002561D01*
X038373Y002639D02*
X038000Y002639D01*
X038000Y002718D02*
X038316Y002718D01*
X038269Y002796D02*
X038000Y002796D01*
X037999Y002875D02*
X038253Y002875D01*
X038236Y002953D02*
X037966Y002953D01*
X037918Y003032D02*
X038219Y003032D01*
X038203Y003110D02*
X037899Y003110D01*
X037937Y003189D02*
X038217Y003189D01*
X038234Y003267D02*
X037937Y003267D01*
X037937Y003346D02*
X038251Y003346D01*
X038267Y003424D02*
X037937Y003424D01*
X037937Y003503D02*
X038309Y003503D01*
X038366Y003581D02*
X037937Y003581D01*
X037937Y003660D02*
X038423Y003660D01*
X038484Y003738D02*
X028379Y003738D01*
X028343Y003581D02*
X028319Y003581D01*
X028343Y003503D02*
X028240Y003503D01*
X028343Y003424D02*
X028036Y003424D01*
X027958Y003346D02*
X028343Y003346D01*
X028343Y003267D02*
X026805Y003267D01*
X026758Y003660D02*
X027847Y003660D01*
X027807Y003895D02*
X027957Y003895D01*
X027886Y003974D02*
X028036Y003974D01*
X027964Y004052D02*
X028343Y004052D01*
X028343Y003974D02*
X028244Y003974D01*
X028323Y003895D02*
X028343Y003895D01*
X028343Y004131D02*
X028043Y004131D01*
X028121Y004209D02*
X028343Y004209D01*
X028343Y004288D02*
X028200Y004288D01*
X027346Y004759D02*
X024572Y004759D01*
X024577Y004680D02*
X027268Y004680D01*
X027064Y004602D02*
X024577Y004602D01*
X024577Y004445D02*
X027001Y004445D01*
X027001Y004523D02*
X024280Y004523D01*
X024280Y004445D02*
X024200Y004445D01*
X024200Y004465D02*
X024200Y004149D01*
X024025Y004149D01*
X023989Y004158D01*
X023957Y004177D01*
X023931Y004203D01*
X023913Y004235D01*
X023903Y004270D01*
X023903Y004465D01*
X024200Y004465D01*
X024200Y004523D02*
X023137Y004523D01*
X023137Y004602D02*
X023903Y004602D01*
X023903Y004680D02*
X023137Y004680D01*
X023137Y004759D02*
X023908Y004759D01*
X023963Y004837D02*
X023137Y004837D01*
X023137Y004916D02*
X023944Y004916D01*
X023943Y004994D02*
X023137Y004994D01*
X023097Y005073D02*
X023943Y005073D01*
X023943Y005151D02*
X023137Y005151D01*
X023137Y005230D02*
X023943Y005230D01*
X023943Y005308D02*
X023137Y005308D01*
X023137Y005387D02*
X023943Y005387D01*
X023976Y005465D02*
X023137Y005465D01*
X023137Y005544D02*
X024001Y005544D01*
X024479Y005544D02*
X024524Y005544D01*
X024504Y005465D02*
X024590Y005465D01*
X024590Y005387D02*
X024537Y005387D01*
X024537Y005308D02*
X024590Y005308D01*
X024638Y005230D02*
X024537Y005230D01*
X024537Y005151D02*
X024717Y005151D01*
X024795Y005073D02*
X024537Y005073D01*
X024537Y004994D02*
X024874Y004994D01*
X024952Y004916D02*
X024536Y004916D01*
X024517Y004837D02*
X027425Y004837D01*
X027745Y005230D02*
X028117Y005230D01*
X028196Y005308D02*
X027794Y005308D01*
X027826Y005387D02*
X028274Y005387D01*
X028280Y005465D02*
X027844Y005465D01*
X027850Y005500D02*
X027850Y005500D01*
X027001Y004366D02*
X024577Y004366D01*
X024577Y004288D02*
X027055Y004288D01*
X026871Y004209D02*
X024552Y004209D01*
X024280Y004209D02*
X024200Y004209D01*
X024200Y004288D02*
X024280Y004288D01*
X024280Y004366D02*
X024200Y004366D01*
X023903Y004366D02*
X023170Y004366D01*
X023177Y004288D02*
X023903Y004288D01*
X023928Y004209D02*
X023177Y004209D01*
X023104Y004445D02*
X023903Y004445D01*
X022800Y004131D02*
X019962Y004131D01*
X019883Y004209D02*
X022503Y004209D01*
X022503Y004288D02*
X019805Y004288D01*
X019726Y004366D02*
X022510Y004366D01*
X022576Y004445D02*
X019648Y004445D01*
X019569Y004523D02*
X022543Y004523D01*
X022441Y004602D02*
X020451Y004602D01*
X020530Y004680D02*
X022362Y004680D01*
X022301Y004759D02*
X020608Y004759D01*
X020687Y004837D02*
X022301Y004837D01*
X022301Y004916D02*
X020765Y004916D01*
X020844Y004994D02*
X022356Y004994D01*
X022435Y005073D02*
X020922Y005073D01*
X021001Y005151D02*
X022543Y005151D01*
X022543Y005230D02*
X021079Y005230D01*
X021158Y005308D02*
X021722Y005308D01*
X021629Y005387D02*
X021607Y005387D01*
X021935Y005387D02*
X022015Y005387D01*
X022015Y005465D02*
X021935Y005465D01*
X021935Y005544D02*
X022015Y005544D01*
X022015Y005680D02*
X021935Y005680D01*
X021935Y005977D01*
X021740Y005977D01*
X021704Y005967D01*
X021672Y005949D01*
X021646Y005923D01*
X021628Y005891D01*
X021622Y005869D01*
X021622Y005878D01*
X021569Y005931D01*
X021579Y005941D01*
X021579Y006139D01*
X021439Y006279D01*
X021341Y006279D01*
X022252Y007190D01*
X022852Y007190D01*
X022801Y007139D01*
X022801Y007113D01*
X022790Y007102D01*
X022678Y006990D01*
X022678Y006990D01*
X022590Y006902D01*
X022590Y006379D01*
X022543Y006333D01*
X022543Y005974D01*
X022539Y005979D01*
X022341Y005979D01*
X022294Y005932D01*
X022277Y005949D01*
X022245Y005967D01*
X022210Y005977D01*
X022015Y005977D01*
X022015Y005680D01*
X022015Y005701D02*
X021935Y005701D01*
X021935Y005779D02*
X022015Y005779D01*
X022015Y005858D02*
X021935Y005858D01*
X021935Y005936D02*
X022015Y005936D01*
X022290Y005936D02*
X022298Y005936D01*
X022543Y006015D02*
X021579Y006015D01*
X021579Y006093D02*
X022543Y006093D01*
X022543Y006172D02*
X021546Y006172D01*
X021468Y006250D02*
X022543Y006250D01*
X022543Y006329D02*
X021391Y006329D01*
X021469Y006407D02*
X022590Y006407D01*
X022590Y006486D02*
X021548Y006486D01*
X021626Y006564D02*
X022590Y006564D01*
X022590Y006643D02*
X021705Y006643D01*
X021783Y006721D02*
X022590Y006721D01*
X022590Y006800D02*
X021862Y006800D01*
X021940Y006878D02*
X022590Y006878D01*
X022644Y006957D02*
X022019Y006957D01*
X022097Y007035D02*
X022723Y007035D01*
X022790Y007102D02*
X022790Y007102D01*
X022801Y007114D02*
X022176Y007114D01*
X021987Y007349D02*
X020161Y007349D01*
X020083Y007271D02*
X021908Y007271D01*
X021830Y007192D02*
X020004Y007192D01*
X019926Y007114D02*
X021751Y007114D01*
X021673Y007035D02*
X019847Y007035D01*
X019769Y006957D02*
X021594Y006957D01*
X021516Y006878D02*
X019690Y006878D01*
X019612Y006800D02*
X021437Y006800D01*
X021359Y006721D02*
X019148Y006721D01*
X019191Y006643D02*
X021280Y006643D01*
X021202Y006564D02*
X019191Y006564D01*
X019191Y006486D02*
X021123Y006486D01*
X021045Y006407D02*
X019191Y006407D01*
X019191Y006329D02*
X020791Y006329D01*
X020712Y006250D02*
X019191Y006250D01*
X019161Y006172D02*
X020701Y006172D01*
X020701Y006093D02*
X019079Y006093D01*
X019079Y006015D02*
X020728Y006015D01*
X020806Y005936D02*
X019074Y005936D01*
X018995Y005858D02*
X020989Y005858D01*
X020989Y005779D02*
X019147Y005779D01*
X019177Y005701D02*
X020989Y005701D01*
X020963Y005622D02*
X019177Y005622D01*
X019177Y005544D02*
X020884Y005544D01*
X020806Y005465D02*
X018880Y005465D01*
X018800Y005465D02*
X018385Y005465D01*
X018385Y005387D02*
X018503Y005387D01*
X018503Y005308D02*
X018385Y005308D01*
X018385Y005230D02*
X018506Y005230D01*
X018552Y005151D02*
X018385Y005151D01*
X018462Y005073D02*
X018552Y005073D01*
X018541Y004994D02*
X018543Y004994D01*
X018267Y004759D02*
X015801Y004759D01*
X015865Y004837D02*
X018188Y004837D01*
X018110Y004916D02*
X015865Y004916D01*
X015865Y004994D02*
X018031Y004994D01*
X018025Y005073D02*
X015865Y005073D01*
X015865Y005151D02*
X018025Y005151D01*
X018025Y005230D02*
X015865Y005230D01*
X015814Y005308D02*
X016834Y005308D01*
X016756Y005387D02*
X015736Y005387D01*
X015657Y005465D02*
X016701Y005465D01*
X017046Y005308D02*
X018025Y005308D01*
X018025Y005387D02*
X017124Y005387D01*
X017179Y005465D02*
X018025Y005465D01*
X018025Y005544D02*
X017179Y005544D01*
X017179Y005622D02*
X018025Y005622D01*
X018025Y005701D02*
X017117Y005701D01*
X016813Y005779D02*
X017463Y005779D01*
X017455Y006093D02*
X015048Y006093D01*
X015126Y006172D02*
X017534Y006172D01*
X017746Y006172D02*
X017919Y006172D01*
X017889Y006250D02*
X015205Y006250D01*
X014931Y006486D02*
X014898Y006486D01*
X014852Y006407D02*
X014819Y006407D01*
X014774Y006329D02*
X014741Y006329D01*
X014695Y006250D02*
X014662Y006250D01*
X014617Y006172D02*
X013163Y006172D01*
X013218Y006250D02*
X013085Y006250D01*
X013139Y006329D02*
X013006Y006329D01*
X013061Y006407D02*
X012928Y006407D01*
X012982Y006486D02*
X012849Y006486D01*
X012904Y006564D02*
X012771Y006564D01*
X012825Y006643D02*
X012692Y006643D01*
X012747Y006721D02*
X012614Y006721D01*
X012668Y006800D02*
X012535Y006800D01*
X012590Y006878D02*
X012457Y006878D01*
X012511Y006957D02*
X012378Y006957D01*
X012433Y007035D02*
X012300Y007035D01*
X012354Y007114D02*
X012221Y007114D01*
X012276Y007192D02*
X012143Y007192D01*
X012197Y007271D02*
X012064Y007271D01*
X012119Y007349D02*
X011986Y007349D01*
X012040Y007428D02*
X011907Y007428D01*
X011962Y007506D02*
X011829Y007506D01*
X011883Y007585D02*
X011750Y007585D01*
X011805Y007663D02*
X011672Y007663D01*
X011726Y007742D02*
X011593Y007742D01*
X011648Y007820D02*
X011515Y007820D01*
X011569Y007899D02*
X011436Y007899D01*
X011491Y007977D02*
X011358Y007977D01*
X011412Y008056D02*
X011279Y008056D01*
X011334Y008134D02*
X011201Y008134D01*
X011255Y008213D02*
X011122Y008213D01*
X011177Y008291D02*
X011044Y008291D01*
X010770Y008056D02*
X006310Y008056D01*
X006389Y008134D02*
X010691Y008134D01*
X010613Y008213D02*
X006467Y008213D01*
X006232Y007977D02*
X010848Y007977D01*
X010927Y007899D02*
X006153Y007899D01*
X006075Y007820D02*
X011005Y007820D01*
X011084Y007742D02*
X005996Y007742D01*
X005918Y007663D02*
X011162Y007663D01*
X011241Y007585D02*
X004339Y007585D01*
X004261Y007506D02*
X011319Y007506D01*
X011398Y007428D02*
X004690Y007428D01*
X004769Y007349D02*
X011476Y007349D01*
X011555Y007271D02*
X004822Y007271D01*
X004900Y007192D02*
X011633Y007192D01*
X011604Y006564D02*
X008304Y006564D01*
X008379Y006486D02*
X011682Y006486D01*
X011761Y006407D02*
X008379Y006407D01*
X008379Y006329D02*
X011839Y006329D01*
X011918Y006250D02*
X008338Y006250D01*
X008259Y006172D02*
X011996Y006172D01*
X012075Y006093D02*
X008105Y006093D01*
X008027Y006015D02*
X012153Y006015D01*
X012232Y005936D02*
X007948Y005936D01*
X007870Y005858D02*
X012310Y005858D01*
X012389Y005779D02*
X007791Y005779D01*
X007713Y005701D02*
X012467Y005701D01*
X012546Y005622D02*
X007634Y005622D01*
X007556Y005544D02*
X012624Y005544D01*
X012703Y005465D02*
X007477Y005465D01*
X007399Y005387D02*
X012781Y005387D01*
X012860Y005308D02*
X007320Y005308D01*
X007242Y005230D02*
X014815Y005230D01*
X014815Y005151D02*
X007163Y005151D01*
X007085Y005073D02*
X014815Y005073D01*
X014815Y004994D02*
X007006Y004994D01*
X006928Y004916D02*
X014815Y004916D01*
X014815Y004837D02*
X006849Y004837D01*
X006771Y004759D02*
X014879Y004759D01*
X014958Y004680D02*
X006692Y004680D01*
X006614Y004602D02*
X015036Y004602D01*
X015115Y004523D02*
X006535Y004523D01*
X006457Y004445D02*
X018601Y004445D01*
X018601Y004366D02*
X006378Y004366D01*
X006189Y004602D02*
X006016Y004602D01*
X006268Y004680D02*
X005436Y004680D01*
X005544Y004602D02*
X005664Y004602D01*
X005601Y004523D02*
X005585Y004523D01*
X005598Y004445D02*
X005601Y004445D01*
X005589Y004366D02*
X005601Y004366D01*
X005553Y004288D02*
X005655Y004288D01*
X005733Y004209D02*
X005458Y004209D01*
X005947Y004209D02*
X018733Y004209D01*
X018655Y004288D02*
X006025Y004288D01*
X006346Y004759D02*
X005120Y004759D01*
X005120Y004837D02*
X006425Y004837D01*
X006503Y004916D02*
X005120Y004916D01*
X005120Y004994D02*
X006582Y004994D01*
X006660Y005073D02*
X005120Y005073D01*
X005120Y005151D02*
X006739Y005151D01*
X006817Y005230D02*
X005120Y005230D01*
X005120Y005308D02*
X006896Y005308D01*
X006974Y005387D02*
X005120Y005387D01*
X005120Y005465D02*
X007053Y005465D01*
X007131Y005544D02*
X005120Y005544D01*
X005120Y005622D02*
X007210Y005622D01*
X007288Y005701D02*
X005120Y005701D01*
X005056Y005779D02*
X007367Y005779D01*
X007445Y005858D02*
X004977Y005858D01*
X004899Y005936D02*
X007524Y005936D01*
X007602Y006015D02*
X004820Y006015D01*
X004742Y006093D02*
X007681Y006093D01*
X007759Y006172D02*
X004663Y006172D01*
X004585Y006250D02*
X007838Y006250D01*
X007901Y006329D02*
X004506Y006329D01*
X004428Y006407D02*
X007901Y006407D01*
X007901Y006486D02*
X004349Y006486D01*
X004271Y006564D02*
X007976Y006564D01*
X004400Y006643D02*
X004220Y006643D01*
X004220Y006721D02*
X004321Y006721D01*
X004301Y006800D02*
X004220Y006800D01*
X004220Y006878D02*
X004301Y006878D01*
X004319Y006957D02*
X004220Y006957D01*
X004220Y007035D02*
X004397Y007035D01*
X004329Y007114D02*
X004220Y007114D01*
X004220Y007192D02*
X004301Y007192D01*
X004301Y007271D02*
X004220Y007271D01*
X004220Y007349D02*
X004311Y007349D01*
X004390Y007428D02*
X004220Y007428D01*
X001380Y009469D02*
X007214Y009469D01*
X007292Y009547D02*
X001380Y009547D01*
X009390Y014022D02*
X033046Y014022D01*
X032968Y014100D02*
X020152Y014100D01*
X020238Y014179D02*
X027764Y014179D01*
X027701Y014257D02*
X020292Y014257D01*
X020325Y014336D02*
X027701Y014336D01*
X027701Y014414D02*
X020335Y014414D01*
X020335Y014493D02*
X027755Y014493D01*
X027833Y014571D02*
X020314Y014571D01*
X018346Y014100D02*
X009390Y014100D01*
X009390Y014179D02*
X018206Y014179D01*
X018128Y014257D02*
X009390Y014257D01*
X009390Y014336D02*
X018049Y014336D01*
X017971Y014414D02*
X009390Y014414D01*
X009390Y014493D02*
X017892Y014493D01*
X017814Y014571D02*
X009390Y014571D01*
X009390Y014650D02*
X017735Y014650D01*
X017657Y014728D02*
X009390Y014728D01*
X009390Y014807D02*
X017578Y014807D01*
X017500Y014885D02*
X009390Y014885D01*
X009390Y014964D02*
X017421Y014964D01*
X017343Y015042D02*
X013454Y015042D01*
X013490Y015121D02*
X017264Y015121D01*
X017186Y015199D02*
X013490Y015199D01*
X013490Y015278D02*
X017107Y015278D01*
X017029Y015356D02*
X013490Y015356D01*
X013490Y015435D02*
X016950Y015435D01*
X016872Y015513D02*
X013490Y015513D01*
X013490Y015592D02*
X016793Y015592D01*
X016715Y015670D02*
X013490Y015670D01*
X013490Y015749D02*
X016636Y015749D01*
X016558Y015827D02*
X013490Y015827D01*
X013490Y015906D02*
X016479Y015906D01*
X016401Y015984D02*
X013490Y015984D01*
X013490Y016063D02*
X016322Y016063D01*
X016244Y016141D02*
X013490Y016141D01*
X013490Y016220D02*
X016165Y016220D01*
X016087Y016298D02*
X013490Y016298D01*
X013490Y016377D02*
X016008Y016377D01*
X015930Y016455D02*
X013490Y016455D01*
X013490Y016534D02*
X015851Y016534D01*
X015773Y016612D02*
X013490Y016612D01*
X013490Y016691D02*
X015694Y016691D01*
X015616Y016769D02*
X013490Y016769D01*
X013490Y016848D02*
X015537Y016848D01*
X015459Y016926D02*
X013490Y016926D01*
X013490Y017005D02*
X015380Y017005D01*
X015302Y017083D02*
X013490Y017083D01*
X013490Y017162D02*
X015223Y017162D01*
X015145Y017240D02*
X013490Y017240D01*
X013490Y017319D02*
X015066Y017319D01*
X014988Y017397D02*
X013490Y017397D01*
X013490Y017476D02*
X014909Y017476D01*
X014831Y017554D02*
X013490Y017554D01*
X013490Y017633D02*
X014752Y017633D01*
X014674Y017711D02*
X013490Y017711D01*
X013490Y017790D02*
X014595Y017790D01*
X014517Y017868D02*
X013490Y017868D01*
X013490Y017947D02*
X014438Y017947D01*
X014360Y018025D02*
X013490Y018025D01*
X013490Y018104D02*
X014281Y018104D01*
X014203Y018182D02*
X013490Y018182D01*
X013490Y018261D02*
X014124Y018261D01*
X014046Y018339D02*
X013490Y018339D01*
X013490Y018418D02*
X013967Y018418D01*
X013889Y018496D02*
X013490Y018496D01*
X013490Y018575D02*
X013810Y018575D01*
X013739Y018653D02*
X013490Y018653D01*
X013490Y018732D02*
X013706Y018732D01*
X013690Y018810D02*
X013490Y018810D01*
X013490Y018889D02*
X013690Y018889D01*
X013690Y018967D02*
X013490Y018967D01*
X013490Y019046D02*
X013690Y019046D01*
X013690Y019124D02*
X013490Y019124D01*
X013490Y019203D02*
X013690Y019203D01*
X013690Y019281D02*
X013490Y019281D01*
X013490Y019360D02*
X013690Y019360D01*
X013690Y019438D02*
X013490Y019438D01*
X013490Y019517D02*
X013690Y019517D01*
X013690Y019595D02*
X013490Y019595D01*
X013490Y019674D02*
X013690Y019674D01*
X013690Y019752D02*
X013490Y019752D01*
X013490Y019831D02*
X013690Y019831D01*
X013690Y019909D02*
X013490Y019909D01*
X013490Y019988D02*
X013690Y019988D01*
X013619Y020066D02*
X013490Y020066D01*
X013448Y020145D02*
X013540Y020145D01*
X014879Y018496D02*
X017369Y018496D01*
X017180Y018418D02*
X014957Y018418D01*
X015036Y018339D02*
X017069Y018339D01*
X016990Y018261D02*
X015114Y018261D01*
X015193Y018182D02*
X016913Y018182D01*
X016880Y018104D02*
X015271Y018104D01*
X015350Y018025D02*
X016847Y018025D01*
X016815Y017947D02*
X015428Y017947D01*
X015507Y017868D02*
X016798Y017868D01*
X016798Y017790D02*
X015585Y017790D01*
X015664Y017711D02*
X016798Y017711D01*
X016798Y017633D02*
X015742Y017633D01*
X015821Y017554D02*
X016820Y017554D01*
X016853Y017476D02*
X015899Y017476D01*
X015978Y017397D02*
X016885Y017397D01*
X016924Y017319D02*
X016056Y017319D01*
X016135Y017240D02*
X017003Y017240D01*
X017081Y017162D02*
X016213Y017162D01*
X016292Y017083D02*
X017210Y017083D01*
X017399Y017005D02*
X016370Y017005D01*
X016449Y016926D02*
X018333Y016926D01*
X018333Y016848D02*
X016527Y016848D01*
X016606Y016769D02*
X018333Y016769D01*
X018333Y016612D02*
X016763Y016612D01*
X016841Y016534D02*
X018333Y016534D01*
X018333Y016455D02*
X016920Y016455D01*
X016998Y016377D02*
X018333Y016377D01*
X018345Y016298D02*
X017077Y016298D01*
X017155Y016220D02*
X018374Y016220D01*
X018422Y016141D02*
X017234Y016141D01*
X017312Y016063D02*
X018501Y016063D01*
X018720Y016063D02*
X018800Y016063D01*
X018800Y016141D02*
X018720Y016141D01*
X018720Y016220D02*
X018800Y016220D01*
X018800Y016298D02*
X018720Y016298D01*
X018720Y016377D02*
X018800Y016377D01*
X018800Y016455D02*
X018720Y016455D01*
X018720Y016534D02*
X018800Y016534D01*
X018800Y016612D02*
X018720Y016612D01*
X018720Y016691D02*
X016684Y016691D01*
X017703Y017005D02*
X018333Y017005D01*
X018345Y017083D02*
X017892Y017083D01*
X018021Y017162D02*
X018375Y017162D01*
X018423Y017240D02*
X018099Y017240D01*
X018178Y017319D02*
X018504Y017319D01*
X018685Y017397D02*
X018217Y017397D01*
X018249Y017476D02*
X022026Y017476D01*
X022058Y017397D02*
X018835Y017397D01*
X018800Y017397D02*
X018720Y017397D01*
X018720Y017319D02*
X018800Y017319D01*
X018800Y017240D02*
X018720Y017240D01*
X018720Y017162D02*
X018800Y017162D01*
X018800Y017083D02*
X018720Y017083D01*
X018720Y017005D02*
X018800Y017005D01*
X018800Y016926D02*
X018720Y016926D01*
X018720Y016848D02*
X018800Y016848D01*
X018800Y016769D02*
X018720Y016769D01*
X018800Y016691D02*
X019357Y016691D01*
X019357Y016769D02*
X019187Y016769D01*
X019187Y016848D02*
X019357Y016848D01*
X019357Y016926D02*
X019187Y016926D01*
X019187Y017005D02*
X019357Y017005D01*
X019369Y017083D02*
X019174Y017083D01*
X019145Y017162D02*
X019402Y017162D01*
X019460Y017240D02*
X019096Y017240D01*
X019016Y017319D02*
X019558Y017319D01*
X019357Y016612D02*
X019187Y016612D01*
X019187Y016534D02*
X019357Y016534D01*
X019357Y016455D02*
X019187Y016455D01*
X019187Y016377D02*
X019357Y016377D01*
X019368Y016298D02*
X019175Y016298D01*
X019146Y016220D02*
X019401Y016220D01*
X019458Y016141D02*
X019097Y016141D01*
X019018Y016063D02*
X019554Y016063D01*
X021440Y018975D02*
X021540Y018990D01*
X021737Y019203D02*
X022190Y019203D01*
X022269Y019281D02*
X021688Y019281D01*
X021480Y019674D02*
X023369Y019674D01*
X023711Y019674D02*
X023736Y019674D01*
X023779Y019752D02*
X023814Y019752D01*
X021194Y020066D02*
X019684Y020066D01*
X019684Y019988D02*
X021119Y019988D01*
X021103Y019909D02*
X020523Y019909D01*
X020497Y019935D01*
X020465Y019954D01*
X020429Y019963D01*
X020272Y019963D01*
X020272Y019705D01*
X020551Y019705D01*
X020551Y019842D01*
X020541Y019878D01*
X020523Y019909D01*
X020551Y019831D02*
X021103Y019831D01*
X021103Y019752D02*
X020551Y019752D01*
X020551Y019595D02*
X021103Y019595D01*
X021103Y019517D02*
X020551Y019517D01*
X020532Y019438D02*
X021112Y019438D01*
X021143Y019203D02*
X020511Y019203D01*
X020272Y019438D02*
X020195Y019438D01*
X020195Y019517D02*
X020272Y019517D01*
X020272Y019595D02*
X020195Y019595D01*
X020195Y019752D02*
X020272Y019752D01*
X020272Y019831D02*
X020195Y019831D01*
X020195Y019909D02*
X020272Y019909D01*
X019944Y019909D02*
X019684Y019909D01*
X019674Y019831D02*
X019917Y019831D01*
X019684Y020145D02*
X021143Y020145D01*
X021143Y020223D02*
X020511Y020223D01*
X020508Y020616D02*
X021143Y020616D01*
X019959Y020616D02*
X017377Y020616D01*
X017455Y020537D02*
X019957Y020537D01*
X019957Y020459D02*
X017534Y020459D01*
X017612Y020380D02*
X019957Y020380D01*
X019957Y020302D02*
X017691Y020302D01*
X017769Y020223D02*
X019130Y020223D01*
X019684Y020223D02*
X019957Y020223D01*
X019140Y019831D02*
X017365Y019831D01*
X017365Y019909D02*
X017659Y019909D01*
X017580Y019988D02*
X017335Y019988D01*
X017256Y020066D02*
X017502Y020066D01*
X017423Y020145D02*
X017178Y020145D01*
X017099Y020223D02*
X017345Y020223D01*
X010190Y019360D02*
X009658Y019360D01*
X009737Y019281D02*
X010190Y019281D01*
X010190Y019203D02*
X009779Y019203D01*
X009779Y019124D02*
X010190Y019124D01*
X010190Y019046D02*
X010072Y019046D01*
X010151Y018967D02*
X010190Y018967D01*
X010179Y018889D02*
X010190Y018889D01*
X010179Y018810D02*
X010190Y018810D01*
X010190Y018732D02*
X010169Y018732D01*
X010190Y018653D02*
X010091Y018653D01*
X010190Y018575D02*
X009887Y018575D01*
X009808Y018496D02*
X010190Y018496D01*
X010190Y018418D02*
X009730Y018418D01*
X009651Y018339D02*
X010190Y018339D01*
X010190Y018261D02*
X009573Y018261D01*
X009494Y018182D02*
X010190Y018182D01*
X010190Y018104D02*
X009416Y018104D01*
X009390Y018025D02*
X010190Y018025D01*
X010190Y017947D02*
X009390Y017947D01*
X009390Y017868D02*
X010190Y017868D01*
X010190Y017790D02*
X009390Y017790D01*
X009390Y017711D02*
X010190Y017711D01*
X010190Y017633D02*
X009390Y017633D01*
X009390Y017554D02*
X010190Y017554D01*
X010190Y017476D02*
X009390Y017476D01*
X009390Y017397D02*
X010085Y017397D01*
X009953Y017319D02*
X009390Y017319D01*
X009390Y017240D02*
X009902Y017240D01*
X009882Y017162D02*
X009390Y017162D01*
X009390Y017083D02*
X009884Y017083D01*
X009916Y017005D02*
X009390Y017005D01*
X009390Y016926D02*
X009988Y016926D01*
X010190Y016848D02*
X009390Y016848D01*
X009390Y016769D02*
X010190Y016769D01*
X010190Y016691D02*
X009390Y016691D01*
X009390Y016612D02*
X010190Y016612D01*
X010190Y016534D02*
X009390Y016534D01*
X009390Y016455D02*
X010190Y016455D01*
X010190Y016377D02*
X009390Y016377D01*
X009390Y016298D02*
X010190Y016298D01*
X010190Y016220D02*
X009390Y016220D01*
X009390Y016141D02*
X010190Y016141D01*
X010190Y016063D02*
X009390Y016063D01*
X009390Y015984D02*
X010190Y015984D01*
X010190Y015906D02*
X010073Y015906D01*
X009627Y015906D02*
X009390Y015906D01*
X009390Y015827D02*
X009542Y015827D01*
X009484Y015749D02*
X009390Y015749D01*
X009390Y015670D02*
X009451Y015670D01*
X009435Y015592D02*
X009390Y015592D01*
X009390Y015513D02*
X009435Y015513D01*
X009448Y015435D02*
X009390Y015435D01*
X009390Y015356D02*
X009481Y015356D01*
X009534Y015278D02*
X009390Y015278D01*
X009390Y015199D02*
X009613Y015199D01*
X009390Y015121D02*
X010190Y015121D01*
X010190Y015199D02*
X010088Y015199D01*
X010226Y015042D02*
X009390Y015042D01*
X008890Y015121D02*
X008666Y015121D01*
X008744Y015199D02*
X008890Y015199D01*
X008890Y015278D02*
X008823Y015278D01*
X008490Y015278D02*
X008410Y015278D01*
X008410Y015356D02*
X008490Y015356D01*
X008490Y015435D02*
X008410Y015435D01*
X008410Y015199D02*
X008490Y015199D01*
X008490Y015121D02*
X008410Y015121D01*
X008235Y015121D02*
X006047Y015121D01*
X006038Y015199D02*
X008156Y015199D01*
X008078Y015278D02*
X006021Y015278D01*
X005999Y015356D02*
X007999Y015356D01*
X007995Y015435D02*
X005970Y015435D01*
X005766Y016063D02*
X004415Y016063D01*
X004452Y016086D02*
X004357Y016026D01*
X004257Y015978D01*
X004152Y015942D01*
X004044Y015917D01*
X003933Y015904D01*
X003918Y015904D01*
X003918Y016854D01*
X003838Y016854D01*
X003838Y015904D01*
X003822Y015904D01*
X003712Y015917D01*
X003603Y015942D01*
X003498Y015978D01*
X003398Y016026D01*
X003304Y016086D01*
X003217Y016155D01*
X003138Y016234D01*
X003069Y016321D01*
X003010Y016415D01*
X002962Y016515D01*
X002925Y016620D01*
X002900Y016728D01*
X002888Y016839D01*
X002888Y016854D01*
X003838Y016854D01*
X003838Y016934D01*
X002888Y016934D01*
X002888Y016950D01*
X002900Y017060D01*
X002925Y017169D01*
X002962Y017274D01*
X003010Y017374D01*
X003069Y017468D01*
X003138Y017555D01*
X003217Y017634D01*
X003304Y017703D01*
X003398Y017762D01*
X003498Y017810D01*
X003603Y017847D01*
X003712Y017872D01*
X003822Y017884D01*
X003838Y017884D01*
X003838Y016934D01*
X003918Y016934D01*
X003918Y016854D01*
X004868Y016854D01*
X004868Y016839D01*
X004855Y016728D01*
X004831Y016620D01*
X004794Y016515D01*
X004746Y016415D01*
X004686Y016321D01*
X004617Y016234D01*
X004539Y016155D01*
X004452Y016086D01*
X004521Y016141D02*
X005650Y016141D01*
X005571Y016220D02*
X004603Y016220D01*
X004669Y016298D02*
X005493Y016298D01*
X005426Y016377D02*
X004722Y016377D01*
X004765Y016455D02*
X005394Y016455D01*
X005361Y016534D02*
X004800Y016534D01*
X004828Y016612D02*
X005329Y016612D01*
X005296Y016691D02*
X004847Y016691D01*
X004860Y016769D02*
X005290Y016769D01*
X005290Y016848D02*
X004868Y016848D01*
X004832Y017162D02*
X005322Y017162D01*
X005355Y017240D02*
X004806Y017240D01*
X004772Y017319D02*
X005387Y017319D01*
X005390Y017397D02*
X004731Y017397D01*
X004681Y017476D02*
X005390Y017476D01*
X005390Y017554D02*
X004618Y017554D01*
X004540Y017633D02*
X005390Y017633D01*
X005390Y017711D02*
X004439Y017711D01*
X004301Y017790D02*
X005390Y017790D01*
X005390Y017868D02*
X004061Y017868D01*
X003918Y017868D02*
X003838Y017868D01*
X003838Y017790D02*
X003918Y017790D01*
X003918Y017711D02*
X003838Y017711D01*
X003838Y017633D02*
X003918Y017633D01*
X003918Y017554D02*
X003838Y017554D01*
X003838Y017476D02*
X003918Y017476D01*
X003918Y017397D02*
X003838Y017397D01*
X003838Y017319D02*
X003918Y017319D01*
X003918Y017240D02*
X003838Y017240D01*
X003838Y017162D02*
X003918Y017162D01*
X003918Y017083D02*
X003838Y017083D01*
X003838Y017005D02*
X003918Y017005D01*
X003918Y016926D02*
X005290Y016926D01*
X003918Y016848D02*
X003838Y016848D01*
X003838Y016926D02*
X001380Y016926D01*
X001380Y016848D02*
X002888Y016848D01*
X002896Y016769D02*
X001380Y016769D01*
X001380Y016691D02*
X002909Y016691D01*
X002928Y016612D02*
X001380Y016612D01*
X001380Y016534D02*
X002955Y016534D01*
X002991Y016455D02*
X001380Y016455D01*
X001380Y016377D02*
X003034Y016377D01*
X003087Y016298D02*
X001380Y016298D01*
X001380Y016220D02*
X003153Y016220D01*
X003235Y016141D02*
X001380Y016141D01*
X001380Y016063D02*
X003341Y016063D01*
X003486Y015984D02*
X001380Y015984D01*
X001380Y015906D02*
X003811Y015906D01*
X003838Y015906D02*
X003918Y015906D01*
X003944Y015906D02*
X004569Y015906D01*
X004453Y015827D02*
X001380Y015827D01*
X001380Y015749D02*
X004363Y015749D01*
X004292Y015670D02*
X001380Y015670D01*
X001380Y015592D02*
X004234Y015592D01*
X004186Y015513D02*
X001380Y015513D01*
X001380Y015435D02*
X004148Y015435D01*
X004119Y015356D02*
X001380Y015356D01*
X001380Y015278D02*
X004097Y015278D01*
X004080Y015199D02*
X001380Y015199D01*
X001380Y015121D02*
X004071Y015121D01*
X003918Y015984D02*
X003838Y015984D01*
X003838Y016063D02*
X003918Y016063D01*
X003918Y016141D02*
X003838Y016141D01*
X003838Y016220D02*
X003918Y016220D01*
X003918Y016298D02*
X003838Y016298D01*
X003838Y016377D02*
X003918Y016377D01*
X003918Y016455D02*
X003838Y016455D01*
X003838Y016534D02*
X003918Y016534D01*
X003918Y016612D02*
X003838Y016612D01*
X003838Y016691D02*
X003918Y016691D01*
X003918Y016769D02*
X003838Y016769D01*
X002894Y017005D02*
X001380Y017005D01*
X001380Y017083D02*
X002905Y017083D01*
X002923Y017162D02*
X001380Y017162D01*
X001380Y017240D02*
X002950Y017240D01*
X002983Y017319D02*
X001380Y017319D01*
X001380Y017397D02*
X003024Y017397D01*
X003075Y017476D02*
X001380Y017476D01*
X001380Y017554D02*
X003138Y017554D01*
X003216Y017633D02*
X001380Y017633D01*
X001380Y017711D02*
X003317Y017711D01*
X003455Y017790D02*
X001380Y017790D01*
X001380Y017868D02*
X003695Y017868D01*
X003232Y018928D02*
X002902Y018821D01*
X002557Y018857D01*
X002257Y019031D01*
X002053Y019311D01*
X001981Y019650D01*
X002053Y019989D01*
X002257Y020270D01*
X002557Y020443D01*
X002902Y020479D01*
X003232Y020372D01*
X003489Y020140D01*
X003630Y019824D01*
X003630Y019477D01*
X003489Y019160D01*
X003232Y018928D01*
X003275Y018967D02*
X005390Y018967D01*
X005390Y018889D02*
X003110Y018889D01*
X003362Y019046D02*
X005390Y019046D01*
X005390Y019124D02*
X003449Y019124D01*
X003508Y019203D02*
X005390Y019203D01*
X005390Y019281D02*
X003543Y019281D01*
X003578Y019360D02*
X005390Y019360D01*
X005390Y019438D02*
X003613Y019438D01*
X003630Y019517D02*
X005390Y019517D01*
X005390Y019595D02*
X003630Y019595D01*
X003630Y019674D02*
X005390Y019674D01*
X005390Y019752D02*
X003630Y019752D01*
X003627Y019831D02*
X005390Y019831D01*
X005390Y019909D02*
X003592Y019909D01*
X003557Y019988D02*
X005390Y019988D01*
X005390Y020066D02*
X003522Y020066D01*
X003485Y020145D02*
X005432Y020145D01*
X003397Y020223D02*
X007928Y020223D01*
X008007Y020302D02*
X003310Y020302D01*
X003208Y020380D02*
X008085Y020380D01*
X008164Y020459D02*
X002966Y020459D01*
X002704Y020459D02*
X001380Y020459D01*
X001380Y020537D02*
X008242Y020537D01*
X008321Y020616D02*
X001380Y020616D01*
X001380Y020694D02*
X008399Y020694D01*
X008478Y020773D02*
X001380Y020773D01*
X001380Y020851D02*
X008556Y020851D01*
X008635Y020930D02*
X001380Y020930D01*
X001380Y021008D02*
X040470Y021008D01*
X032889Y014179D02*
X028116Y014179D01*
X028179Y014257D02*
X032811Y014257D01*
X029396Y012216D02*
X029284Y012216D01*
X029322Y012138D02*
X029358Y012138D01*
X029358Y012059D02*
X029322Y012059D01*
X029322Y011981D02*
X029358Y011981D01*
X029358Y011902D02*
X029322Y011902D01*
X029322Y011824D02*
X029358Y011824D01*
X029358Y011745D02*
X029322Y011745D01*
X029287Y011667D02*
X029393Y011667D01*
X029675Y011940D02*
X030040Y011940D01*
X024878Y007820D02*
X024849Y007820D01*
X024300Y007820D02*
X024180Y007820D01*
X024222Y007742D02*
X024258Y007742D01*
X024258Y007663D02*
X024222Y007663D01*
X024222Y007585D02*
X024258Y007585D01*
X024258Y007506D02*
X024222Y007506D01*
X024222Y007428D02*
X024258Y007428D01*
X024258Y007349D02*
X024222Y007349D01*
X024191Y007271D02*
X024289Y007271D01*
X025577Y007035D02*
X026103Y007035D01*
X026024Y007114D02*
X025656Y007114D01*
X025734Y007192D02*
X025946Y007192D01*
X025867Y007271D02*
X025813Y007271D01*
X022636Y008448D02*
X022386Y008448D01*
X022591Y008403D02*
X022591Y008403D01*
X022196Y008134D02*
X019846Y008134D01*
X019768Y008056D02*
X022118Y008056D01*
X022101Y007977D02*
X019689Y007977D01*
X019611Y007899D02*
X022101Y007899D01*
X022122Y007820D02*
X019532Y007820D01*
X019454Y007742D02*
X020129Y007742D01*
X020051Y007663D02*
X019375Y007663D01*
X019297Y007585D02*
X019972Y007585D01*
X019894Y007506D02*
X019218Y007506D01*
X019140Y007428D02*
X019815Y007428D01*
X019737Y007349D02*
X019061Y007349D01*
X018951Y007663D02*
X012229Y007663D01*
X012151Y007742D02*
X019029Y007742D01*
X019658Y007271D02*
X017483Y007271D01*
X017404Y007192D02*
X019580Y007192D01*
X019501Y007114D02*
X017804Y007114D01*
X017476Y007114D02*
X017326Y007114D01*
X017401Y007035D02*
X017247Y007035D01*
X017169Y006957D02*
X017401Y006957D01*
X017401Y006878D02*
X017090Y006878D01*
X017012Y006800D02*
X017443Y006800D01*
X017521Y006721D02*
X016933Y006721D01*
X016823Y007035D02*
X014588Y007035D01*
X014595Y007028D02*
X014328Y007295D01*
X014180Y007295D01*
X014180Y006880D01*
X014595Y006880D01*
X014595Y007028D01*
X014595Y006957D02*
X014944Y006957D01*
X014866Y006878D02*
X014180Y006878D01*
X014180Y006957D02*
X014100Y006957D01*
X014100Y007035D02*
X014180Y007035D01*
X014180Y007114D02*
X014100Y007114D01*
X014100Y007192D02*
X014180Y007192D01*
X014180Y007271D02*
X014100Y007271D01*
X013927Y007271D02*
X012622Y007271D01*
X012543Y007349D02*
X017137Y007349D01*
X017215Y007428D02*
X012465Y007428D01*
X012386Y007506D02*
X017294Y007506D01*
X017372Y007585D02*
X012308Y007585D01*
X012700Y007192D02*
X013849Y007192D01*
X013770Y007114D02*
X012779Y007114D01*
X012857Y007035D02*
X013692Y007035D01*
X013685Y006957D02*
X012936Y006957D01*
X013014Y006878D02*
X014100Y006878D01*
X013685Y006800D02*
X013093Y006800D01*
X013171Y006721D02*
X013685Y006721D01*
X013694Y006643D02*
X013250Y006643D01*
X013328Y006564D02*
X013773Y006564D01*
X014507Y006564D02*
X014552Y006564D01*
X014586Y006643D02*
X014630Y006643D01*
X014595Y006721D02*
X014709Y006721D01*
X014787Y006800D02*
X014595Y006800D01*
X014510Y007114D02*
X016901Y007114D01*
X016980Y007192D02*
X014431Y007192D01*
X014353Y007271D02*
X017058Y007271D01*
X017759Y006721D02*
X017932Y006721D01*
X017889Y006643D02*
X015055Y006643D01*
X015009Y006564D02*
X014976Y006564D01*
X017825Y006093D02*
X018025Y006093D01*
X018025Y006015D02*
X017879Y006015D01*
X017879Y005936D02*
X018025Y005936D01*
X018025Y005858D02*
X017879Y005858D01*
X017817Y005779D02*
X018025Y005779D01*
X018385Y005779D02*
X018533Y005779D01*
X018503Y005701D02*
X018385Y005701D01*
X018385Y005622D02*
X018503Y005622D01*
X018503Y005544D02*
X018385Y005544D01*
X018385Y005858D02*
X018685Y005858D01*
X018606Y005936D02*
X018385Y005936D01*
X018385Y006015D02*
X018601Y006015D01*
X018601Y006093D02*
X018385Y006093D01*
X018492Y006172D02*
X018588Y006172D01*
X018558Y006250D02*
X018522Y006250D01*
X018522Y006329D02*
X018558Y006329D01*
X018558Y006407D02*
X018522Y006407D01*
X018522Y006486D02*
X018558Y006486D01*
X018558Y006564D02*
X018522Y006564D01*
X018522Y006643D02*
X018558Y006643D01*
X018601Y006721D02*
X018479Y006721D01*
X020240Y007428D02*
X022065Y007428D01*
X022040Y007402D02*
X022040Y007402D01*
X021612Y008448D02*
X021468Y008448D01*
X021522Y008527D02*
X021558Y008527D01*
X021558Y008605D02*
X021522Y008605D01*
X021522Y008684D02*
X021558Y008684D01*
X021558Y008762D02*
X021522Y008762D01*
X021522Y008841D02*
X021558Y008841D01*
X021558Y008919D02*
X021522Y008919D01*
X021574Y005936D02*
X021659Y005936D01*
X021935Y005308D02*
X022015Y005308D01*
X022228Y005308D02*
X022543Y005308D01*
X022543Y005387D02*
X022320Y005387D01*
X022331Y005465D02*
X022543Y005465D01*
X020727Y005387D02*
X019177Y005387D01*
X019177Y005308D02*
X020649Y005308D01*
X020570Y005230D02*
X019174Y005230D01*
X019128Y005151D02*
X020492Y005151D01*
X020413Y005073D02*
X019128Y005073D01*
X019137Y004994D02*
X020335Y004994D01*
X019537Y004131D02*
X002486Y004131D01*
X002407Y004052D02*
X004615Y004052D01*
X004567Y003974D02*
X002329Y003974D01*
X001380Y001776D02*
X040470Y001776D01*
X040470Y001854D02*
X022943Y001854D01*
X022991Y001933D02*
X028538Y001933D01*
X028400Y002011D02*
X022991Y002011D01*
X022991Y002090D02*
X028329Y002090D01*
X028297Y002168D02*
X022991Y002168D01*
X022991Y002247D02*
X028280Y002247D01*
X028280Y002325D02*
X022991Y002325D01*
X022966Y002404D02*
X028280Y002404D01*
X028280Y002482D02*
X022825Y002482D01*
X022825Y002561D02*
X028280Y002561D01*
X028280Y002639D02*
X022825Y002639D01*
X022991Y002718D02*
X028280Y002718D01*
X028280Y002796D02*
X022991Y002796D01*
X022991Y002875D02*
X028281Y002875D01*
X028314Y002953D02*
X022991Y002953D01*
X022991Y003032D02*
X028362Y003032D01*
X028381Y003110D02*
X022991Y003110D01*
X022981Y003189D02*
X028343Y003189D01*
X022525Y002639D02*
X021851Y002639D01*
X021714Y002404D02*
X020990Y002404D01*
X020990Y002482D02*
X022525Y002482D01*
X022525Y002561D02*
X021398Y002561D01*
X021082Y002561D02*
X020998Y002561D01*
X020990Y002325D02*
X021689Y002325D01*
X021689Y001933D02*
X020545Y001933D01*
X020466Y001854D02*
X021737Y001854D01*
X022274Y001854D02*
X022406Y001854D01*
X022358Y001933D02*
X022322Y001933D01*
X022322Y002011D02*
X022358Y002011D01*
X022358Y002090D02*
X022322Y002090D01*
X022322Y002168D02*
X022358Y002168D01*
X022358Y002247D02*
X022322Y002247D01*
X022322Y002325D02*
X022358Y002325D01*
X022383Y002404D02*
X022297Y002404D01*
X022322Y002718D02*
X022358Y002718D01*
X022358Y002796D02*
X022322Y002796D01*
X022322Y002875D02*
X022358Y002875D01*
X022358Y002953D02*
X022322Y002953D01*
X022322Y003032D02*
X022358Y003032D01*
X022358Y003110D02*
X022322Y003110D01*
X022312Y003189D02*
X022368Y003189D01*
X022165Y003503D02*
X019579Y003503D01*
X019537Y003581D02*
X022087Y003581D01*
X022008Y003660D02*
X019458Y003660D01*
X019459Y004209D02*
X018947Y004209D01*
X019025Y004288D02*
X019380Y004288D01*
X018568Y004523D02*
X015565Y004523D01*
X015644Y004602D02*
X018543Y004602D01*
X018345Y004680D02*
X015722Y004680D01*
X021104Y003189D02*
X021699Y003189D01*
X021689Y003110D02*
X021182Y003110D01*
X021261Y003032D02*
X021689Y003032D01*
X021689Y002953D02*
X021365Y002953D01*
X010040Y009840D02*
X010066Y009884D01*
X010883Y011745D02*
X011097Y011745D01*
X011019Y011824D02*
X010961Y011824D01*
X010979Y011902D02*
X011001Y011902D01*
X010987Y011981D02*
X010979Y011981D01*
X008490Y015906D02*
X008410Y015906D01*
X008410Y015984D02*
X008490Y015984D01*
X005390Y017947D02*
X001380Y017947D01*
X001380Y018025D02*
X005390Y018025D01*
X005390Y018104D02*
X001380Y018104D01*
X001380Y018182D02*
X005390Y018182D01*
X005390Y018261D02*
X001380Y018261D01*
X001380Y018339D02*
X005390Y018339D01*
X005390Y018418D02*
X001380Y018418D01*
X001380Y018496D02*
X005390Y018496D01*
X005390Y018575D02*
X001380Y018575D01*
X001380Y018653D02*
X005390Y018653D01*
X005390Y018732D02*
X001380Y018732D01*
X001380Y018810D02*
X005390Y018810D01*
X002503Y018889D02*
X001380Y018889D01*
X001380Y018967D02*
X002367Y018967D01*
X002246Y019046D02*
X001380Y019046D01*
X001380Y019124D02*
X002189Y019124D01*
X002132Y019203D02*
X001380Y019203D01*
X001380Y019281D02*
X002075Y019281D01*
X002043Y019360D02*
X001380Y019360D01*
X001380Y019438D02*
X002026Y019438D01*
X002010Y019517D02*
X001380Y019517D01*
X001380Y019595D02*
X001993Y019595D01*
X001986Y019674D02*
X001380Y019674D01*
X001380Y019752D02*
X002003Y019752D01*
X002019Y019831D02*
X001380Y019831D01*
X001380Y019909D02*
X002036Y019909D01*
X002053Y019988D02*
X001380Y019988D01*
X001380Y020066D02*
X002109Y020066D01*
X002166Y020145D02*
X001380Y020145D01*
X001380Y020223D02*
X002223Y020223D01*
X002312Y020302D02*
X001380Y020302D01*
X001380Y020380D02*
X002448Y020380D01*
X009190Y018575D02*
X009462Y018575D01*
X009541Y018653D02*
X009265Y018653D01*
X009344Y018732D02*
X009619Y018732D01*
X009698Y018810D02*
X009422Y018810D01*
X009501Y018889D02*
X009701Y018889D01*
X009705Y018967D02*
X009729Y018967D01*
X009779Y019046D02*
X009808Y019046D01*
X009384Y018496D02*
X009190Y018496D01*
X009190Y018418D02*
X009305Y018418D01*
X009227Y018339D02*
X009190Y018339D01*
X004748Y015984D02*
X004269Y015984D01*
X001380Y001697D02*
X040470Y001697D01*
X038620Y003817D02*
X037937Y003817D01*
X037903Y004366D02*
X038011Y004366D01*
D34*
X034440Y008040D03*
X034440Y008540D03*
X030040Y011940D03*
X029040Y012540D03*
X029040Y013040D03*
X029040Y013440D03*
X029040Y013940D03*
X028440Y013940D03*
X027940Y014340D03*
X028440Y013440D03*
X028440Y013040D03*
X028440Y012540D03*
X027040Y012740D03*
X026640Y012740D03*
X024140Y012640D03*
X024440Y014940D03*
X018240Y012040D03*
X015840Y012040D03*
X011240Y011940D03*
X010740Y011940D03*
X008840Y012240D03*
X008840Y011240D03*
X008040Y009740D03*
X004540Y007240D03*
X004540Y006840D03*
X008140Y006390D03*
X005840Y004440D03*
X004840Y003240D03*
X004340Y003240D03*
X003940Y003240D03*
X016940Y005540D03*
X017640Y005940D03*
X018840Y006040D03*
X017640Y006940D03*
X020540Y005440D03*
X020940Y006140D03*
X021340Y006040D03*
X021940Y006140D03*
X022440Y005740D03*
X022540Y004840D03*
X024240Y005540D03*
X023040Y006640D03*
X023040Y007040D03*
X022340Y007940D03*
X022240Y008640D03*
X020840Y008640D03*
X023840Y009140D03*
X027240Y004440D03*
X027640Y004440D03*
X027040Y004040D03*
X026640Y003440D03*
X028140Y003740D03*
X021240Y002740D03*
X020840Y002740D03*
X019340Y003440D03*
X018840Y004440D03*
X009940Y018840D03*
X009540Y019140D03*
X016440Y020540D03*
X023540Y019840D03*
X023940Y019540D03*
D35*
X012840Y016340D03*
X012040Y016340D03*
X012040Y015540D03*
X012840Y015540D03*
X012440Y013640D03*
X011640Y013640D03*
X011640Y012740D03*
X012440Y012740D03*
X003940Y009840D03*
X003240Y009840D03*
X003240Y009140D03*
X003940Y009140D03*
X004040Y005240D03*
X004040Y004640D03*
X003340Y004640D03*
X003340Y005240D03*
X027540Y010040D03*
X028340Y010040D03*
X028340Y010840D03*
X027540Y010840D03*
X030640Y007740D03*
X031440Y007740D03*
X031440Y006940D03*
X030640Y006940D03*
D36*
X029540Y006958D02*
X037040Y006958D01*
X037040Y007056D02*
X029540Y007056D01*
X029540Y007155D02*
X036425Y007155D01*
X036440Y007140D02*
X037040Y007140D01*
X037040Y006340D01*
X034066Y006340D01*
X033900Y006506D01*
X033806Y006600D01*
X032274Y006600D01*
X032074Y006400D01*
X029540Y006400D01*
X029540Y008040D01*
X033940Y008040D01*
X034640Y007340D01*
X036240Y007340D01*
X036440Y007140D01*
X036327Y007253D02*
X029540Y007253D01*
X029540Y007352D02*
X034628Y007352D01*
X034530Y007450D02*
X029540Y007450D01*
X029540Y007549D02*
X034431Y007549D01*
X034333Y007647D02*
X029540Y007647D01*
X029540Y007746D02*
X034234Y007746D01*
X034136Y007844D02*
X029540Y007844D01*
X029540Y007943D02*
X034037Y007943D01*
X034240Y008240D02*
X034440Y008040D01*
X034240Y008240D02*
X022740Y008340D01*
X022340Y007940D01*
X022190Y007340D02*
X020990Y006140D01*
X020940Y006140D01*
X021305Y005640D02*
X021340Y005640D01*
X022440Y005740D02*
X024040Y005740D01*
X024140Y005840D01*
X024440Y005840D01*
X024740Y005540D01*
X024740Y005340D01*
X025040Y005040D01*
X028140Y005040D01*
X028640Y005540D01*
X027840Y006240D02*
X032140Y006240D01*
X032340Y006440D01*
X033740Y006440D01*
X034640Y005540D01*
X033640Y005540D02*
X032940Y006240D01*
X032440Y006240D01*
X032140Y005940D01*
X032140Y005140D01*
X031840Y004840D01*
X027640Y004840D01*
X027240Y004440D01*
X027640Y004440D02*
X027840Y004640D01*
X032040Y004640D01*
X032640Y005240D01*
X032640Y005540D01*
X032139Y006465D02*
X029540Y006465D01*
X029540Y006564D02*
X032237Y006564D01*
X033843Y006564D02*
X037040Y006564D01*
X037040Y006662D02*
X029540Y006662D01*
X029540Y006761D02*
X037040Y006761D01*
X037040Y006859D02*
X029540Y006859D01*
X027840Y006240D02*
X027240Y006840D01*
X023740Y006840D01*
X023240Y007340D01*
X022190Y007340D01*
X022740Y006840D02*
X022740Y006275D01*
X022840Y006075D01*
X023040Y006640D02*
X024340Y006640D01*
X025340Y005640D01*
X025340Y005540D01*
X024240Y005540D02*
X024240Y005175D01*
X022840Y005405D02*
X022840Y004775D01*
X022775Y004740D01*
X022740Y004740D02*
X022640Y004840D01*
X022540Y004840D01*
X022040Y003840D02*
X020040Y003840D01*
X019440Y004440D01*
X018840Y004440D01*
X018840Y004805D01*
X018901Y004745D01*
X016940Y005540D02*
X016840Y005540D01*
X016740Y005640D01*
X015040Y005640D01*
X014840Y005440D01*
X012940Y005440D01*
X011640Y006740D01*
X004640Y006740D01*
X004540Y006840D01*
X004840Y007040D02*
X011640Y007040D01*
X013040Y005640D01*
X014740Y005640D01*
X015040Y005940D01*
X017640Y005940D01*
X018840Y006040D02*
X018840Y006405D01*
X018875Y006440D01*
X019540Y006940D02*
X020240Y007640D01*
X023440Y007640D01*
X023540Y007540D01*
X023840Y007540D01*
X024575Y007540D02*
X025340Y007540D01*
X023040Y007040D02*
X022940Y007040D01*
X022740Y006840D01*
X019540Y006940D02*
X017640Y006940D01*
X017440Y007440D02*
X016840Y006840D01*
X015040Y006840D01*
X014540Y006340D01*
X013340Y006340D01*
X010814Y008866D01*
X010814Y009884D01*
X010040Y009840D02*
X009240Y009840D01*
X010740Y011940D02*
X009040Y013640D01*
X009040Y018640D01*
X009540Y019140D01*
X009940Y018840D02*
X009240Y018140D01*
X009240Y013740D01*
X010640Y012340D01*
X010840Y012340D01*
X011240Y011940D01*
X010340Y015140D02*
X013340Y015140D01*
X013340Y020040D01*
X010340Y020040D01*
X010340Y015140D01*
X010340Y015232D02*
X013340Y015232D01*
X013340Y015330D02*
X010340Y015330D01*
X010340Y015429D02*
X013340Y015429D01*
X013340Y015527D02*
X010340Y015527D01*
X010340Y015626D02*
X013340Y015626D01*
X013340Y015724D02*
X010340Y015724D01*
X010340Y015823D02*
X013340Y015823D01*
X013340Y015921D02*
X010340Y015921D01*
X010340Y016020D02*
X013340Y016020D01*
X013340Y016118D02*
X010340Y016118D01*
X010340Y016217D02*
X013340Y016217D01*
X013340Y016315D02*
X010340Y016315D01*
X010340Y016414D02*
X013340Y016414D01*
X013340Y016512D02*
X010340Y016512D01*
X010340Y016611D02*
X013340Y016611D01*
X013340Y016709D02*
X010340Y016709D01*
X010340Y016808D02*
X013340Y016808D01*
X013340Y016906D02*
X010340Y016906D01*
X010340Y017005D02*
X013340Y017005D01*
X013340Y017103D02*
X010340Y017103D01*
X010340Y017202D02*
X013340Y017202D01*
X013340Y017300D02*
X010340Y017300D01*
X010340Y017399D02*
X013340Y017399D01*
X013340Y017497D02*
X010340Y017497D01*
X010340Y017596D02*
X013340Y017596D01*
X013340Y017694D02*
X010340Y017694D01*
X010340Y017793D02*
X013340Y017793D01*
X013340Y017891D02*
X010340Y017891D01*
X010340Y017990D02*
X013340Y017990D01*
X013340Y018088D02*
X010340Y018088D01*
X010340Y018187D02*
X013340Y018187D01*
X013340Y018285D02*
X010340Y018285D01*
X010340Y018384D02*
X013340Y018384D01*
X013340Y018482D02*
X010340Y018482D01*
X010340Y018581D02*
X013340Y018581D01*
X013340Y018679D02*
X010340Y018679D01*
X010340Y018778D02*
X013340Y018778D01*
X013340Y018876D02*
X010340Y018876D01*
X010340Y018975D02*
X013340Y018975D01*
X013340Y019073D02*
X010340Y019073D01*
X010340Y019172D02*
X013340Y019172D01*
X013340Y019270D02*
X010340Y019270D01*
X010340Y019369D02*
X013340Y019369D01*
X013340Y019467D02*
X010340Y019467D01*
X010340Y019566D02*
X013340Y019566D01*
X013340Y019664D02*
X010340Y019664D01*
X010340Y019763D02*
X013340Y019763D01*
X013340Y019861D02*
X010340Y019861D01*
X010340Y019960D02*
X013340Y019960D01*
X016440Y020540D02*
X017240Y020540D01*
X017740Y020040D01*
X019407Y020040D01*
X020234Y020414D02*
X021514Y020414D01*
X021540Y020388D01*
X021440Y020375D01*
X023005Y020375D01*
X023540Y019840D01*
X023940Y019540D02*
X023905Y019475D01*
X022675Y019475D01*
X022175Y018975D01*
X021440Y018975D01*
X021501Y019014D01*
X020234Y019014D01*
X019407Y018640D02*
X017940Y018640D01*
X016840Y019740D01*
X021514Y020414D02*
X021540Y020440D01*
X023340Y018740D02*
X023840Y019240D01*
X036540Y019240D01*
X036540Y017740D01*
X036140Y018140D01*
X033178Y018140D01*
X033158Y018189D01*
X032944Y018403D01*
X032663Y018519D01*
X032360Y018519D01*
X032080Y018403D01*
X031865Y018189D01*
X031845Y018140D01*
X030871Y018140D01*
X030851Y018189D01*
X030637Y018403D01*
X030356Y018519D01*
X030053Y018519D01*
X029773Y018403D01*
X029558Y018189D01*
X029466Y017966D01*
X029240Y017740D01*
X029240Y016940D01*
X028740Y016940D01*
X028740Y017740D01*
X028340Y018140D01*
X025698Y018140D01*
X025678Y018189D01*
X025463Y018403D01*
X025183Y018519D01*
X024880Y018519D01*
X024599Y018403D01*
X024385Y018189D01*
X024269Y017908D01*
X024269Y017605D01*
X024340Y017432D01*
X024340Y016940D01*
X023740Y016340D01*
X021240Y016340D01*
X021240Y017240D01*
X022162Y017240D01*
X022292Y017110D01*
X022573Y016994D01*
X022876Y016994D01*
X023156Y017110D01*
X023371Y017324D01*
X023487Y017605D01*
X023487Y017908D01*
X023371Y018189D01*
X023340Y018219D01*
X023340Y018740D01*
X023378Y018778D02*
X036540Y018778D01*
X040444Y018778D01*
X040443Y018876D02*
X039323Y018876D01*
X039457Y018920D02*
X039718Y019154D01*
X039756Y019240D01*
X040440Y019240D01*
X040460Y016650D01*
X040460Y006340D01*
X037640Y006340D01*
X037640Y007140D01*
X038240Y007140D01*
X038440Y007340D01*
X039140Y007340D01*
X039179Y007379D01*
X039182Y007379D01*
X039247Y007443D01*
X039247Y007447D01*
X039440Y007640D01*
X039440Y014240D01*
X039040Y014640D01*
X037540Y014640D01*
X036540Y015640D01*
X036540Y019240D01*
X038313Y019240D01*
X038471Y019023D01*
X038775Y018848D01*
X039123Y018811D01*
X039457Y018920D01*
X039518Y018975D02*
X040442Y018975D01*
X040441Y019073D02*
X039628Y019073D01*
X039726Y019172D02*
X040441Y019172D01*
X040444Y018679D02*
X036540Y018679D01*
X023340Y018679D01*
X023340Y018581D02*
X036540Y018581D01*
X040445Y018581D01*
X040446Y018482D02*
X037927Y018482D01*
X037837Y018519D02*
X037533Y018519D01*
X037253Y018403D01*
X037038Y018189D01*
X036922Y017908D01*
X036922Y017605D01*
X037038Y017324D01*
X037253Y017110D01*
X037533Y016994D01*
X037837Y016994D01*
X038117Y017110D01*
X038332Y017324D01*
X038448Y017605D01*
X038448Y017908D01*
X038332Y018189D01*
X038117Y018403D01*
X037837Y018519D01*
X038137Y018384D02*
X040447Y018384D01*
X040447Y018285D02*
X038235Y018285D01*
X038332Y018187D02*
X040448Y018187D01*
X040449Y018088D02*
X038373Y018088D01*
X038414Y017990D02*
X040450Y017990D01*
X040450Y017891D02*
X038448Y017891D01*
X038448Y017793D02*
X040451Y017793D01*
X040452Y017694D02*
X038448Y017694D01*
X038444Y017596D02*
X040453Y017596D01*
X040454Y017497D02*
X038403Y017497D01*
X038362Y017399D02*
X040454Y017399D01*
X040455Y017300D02*
X038307Y017300D01*
X038209Y017202D02*
X040456Y017202D01*
X040457Y017103D02*
X038100Y017103D01*
X037863Y017005D02*
X040457Y017005D01*
X040458Y016906D02*
X036540Y016906D01*
X036540Y016808D02*
X040459Y016808D01*
X040460Y016709D02*
X036540Y016709D01*
X036540Y016611D02*
X040460Y016611D01*
X040460Y016512D02*
X036540Y016512D01*
X036540Y016414D02*
X040460Y016414D01*
X040460Y016315D02*
X036540Y016315D01*
X036540Y016217D02*
X040460Y016217D01*
X040460Y016118D02*
X036540Y016118D01*
X036540Y016020D02*
X040460Y016020D01*
X040460Y015921D02*
X036540Y015921D01*
X036540Y015823D02*
X040460Y015823D01*
X040460Y015724D02*
X036540Y015724D01*
X036554Y015626D02*
X040460Y015626D01*
X040460Y015527D02*
X036653Y015527D01*
X036751Y015429D02*
X040460Y015429D01*
X040460Y015330D02*
X036850Y015330D01*
X036948Y015232D02*
X040460Y015232D01*
X040460Y015133D02*
X037047Y015133D01*
X037145Y015035D02*
X040460Y015035D01*
X040460Y014936D02*
X037244Y014936D01*
X037342Y014838D02*
X040460Y014838D01*
X040460Y014739D02*
X037441Y014739D01*
X037539Y014641D02*
X040460Y014641D01*
X040460Y014542D02*
X039138Y014542D01*
X039236Y014444D02*
X040460Y014444D01*
X040460Y014345D02*
X039335Y014345D01*
X039433Y014247D02*
X040460Y014247D01*
X040460Y014148D02*
X039440Y014148D01*
X039440Y014050D02*
X040460Y014050D01*
X040460Y013951D02*
X039440Y013951D01*
X039440Y013853D02*
X040460Y013853D01*
X040460Y013754D02*
X039440Y013754D01*
X039440Y013656D02*
X040460Y013656D01*
X040460Y013557D02*
X039440Y013557D01*
X039440Y013459D02*
X040460Y013459D01*
X040460Y013360D02*
X039440Y013360D01*
X039440Y013262D02*
X040460Y013262D01*
X040460Y013163D02*
X039440Y013163D01*
X039440Y013065D02*
X040460Y013065D01*
X040460Y012966D02*
X039440Y012966D01*
X039440Y012868D02*
X040460Y012868D01*
X040460Y012769D02*
X039440Y012769D01*
X039440Y012671D02*
X040460Y012671D01*
X040460Y012572D02*
X039440Y012572D01*
X039440Y012474D02*
X040460Y012474D01*
X040460Y012375D02*
X039440Y012375D01*
X039440Y012277D02*
X040460Y012277D01*
X040460Y012178D02*
X039440Y012178D01*
X039440Y012080D02*
X040460Y012080D01*
X040460Y011981D02*
X039440Y011981D01*
X039440Y011883D02*
X040460Y011883D01*
X040460Y011784D02*
X039440Y011784D01*
X039440Y011686D02*
X040460Y011686D01*
X040460Y011587D02*
X039440Y011587D01*
X039440Y011489D02*
X040460Y011489D01*
X040460Y011390D02*
X039440Y011390D01*
X039440Y011292D02*
X040460Y011292D01*
X040460Y011193D02*
X039440Y011193D01*
X039440Y011095D02*
X040460Y011095D01*
X040460Y010996D02*
X039440Y010996D01*
X039440Y010898D02*
X040460Y010898D01*
X040460Y010799D02*
X039440Y010799D01*
X039440Y010701D02*
X040460Y010701D01*
X040460Y010602D02*
X039440Y010602D01*
X039440Y010504D02*
X040460Y010504D01*
X040460Y010405D02*
X039440Y010405D01*
X039440Y010307D02*
X040460Y010307D01*
X040460Y010208D02*
X039440Y010208D01*
X039440Y010110D02*
X040460Y010110D01*
X040460Y010011D02*
X039440Y010011D01*
X039440Y009913D02*
X040460Y009913D01*
X040460Y009814D02*
X039440Y009814D01*
X039440Y009716D02*
X040460Y009716D01*
X040460Y009617D02*
X039440Y009617D01*
X039440Y009519D02*
X040460Y009519D01*
X040460Y009420D02*
X039440Y009420D01*
X039440Y009322D02*
X040460Y009322D01*
X040460Y009223D02*
X039440Y009223D01*
X039440Y009125D02*
X040460Y009125D01*
X040460Y009026D02*
X039440Y009026D01*
X039440Y008928D02*
X040460Y008928D01*
X040460Y008829D02*
X039440Y008829D01*
X039440Y008731D02*
X040460Y008731D01*
X040460Y008632D02*
X039440Y008632D01*
X039440Y008534D02*
X040460Y008534D01*
X040460Y008435D02*
X039440Y008435D01*
X039440Y008337D02*
X040460Y008337D01*
X040460Y008238D02*
X039440Y008238D01*
X039440Y008140D02*
X040460Y008140D01*
X040460Y008041D02*
X039440Y008041D01*
X039440Y007943D02*
X040460Y007943D01*
X040460Y007844D02*
X039440Y007844D01*
X039440Y007746D02*
X040460Y007746D01*
X040460Y007647D02*
X039440Y007647D01*
X039349Y007549D02*
X040460Y007549D01*
X040460Y007450D02*
X039250Y007450D01*
X039152Y007352D02*
X040460Y007352D01*
X040460Y007253D02*
X038353Y007253D01*
X038255Y007155D02*
X040460Y007155D01*
X040460Y007056D02*
X037640Y007056D01*
X037640Y006958D02*
X040460Y006958D01*
X040460Y006859D02*
X037640Y006859D01*
X037640Y006761D02*
X040460Y006761D01*
X040460Y006662D02*
X037640Y006662D01*
X037640Y006564D02*
X040460Y006564D01*
X040460Y006465D02*
X037640Y006465D01*
X037640Y006367D02*
X040460Y006367D01*
X039005Y007740D02*
X038740Y007740D01*
X038105Y008375D01*
X037940Y008375D01*
X037690Y008625D01*
X037690Y009510D01*
X037190Y009510D02*
X037190Y008625D01*
X036840Y008375D01*
X036675Y008375D01*
X036040Y007740D01*
X035775Y007740D01*
X035840Y007705D01*
X036840Y007705D02*
X036840Y006800D01*
X036780Y006740D01*
X037040Y006465D02*
X033941Y006465D01*
X034040Y006367D02*
X037040Y006367D01*
X037640Y005540D02*
X036540Y004440D01*
X028140Y004440D01*
X027740Y004040D01*
X027040Y004040D01*
X026640Y003440D02*
X027840Y003440D01*
X028140Y003740D01*
X028640Y003405D02*
X028640Y002540D01*
X029640Y002540D02*
X029640Y003405D01*
X030640Y003405D02*
X030640Y002540D01*
X031640Y002540D02*
X031640Y003405D01*
X032640Y003405D02*
X032640Y002540D01*
X033640Y002540D02*
X033640Y003405D01*
X034640Y003405D02*
X034640Y002540D01*
X035640Y002540D02*
X035640Y003405D01*
X036640Y003405D02*
X036640Y002540D01*
X037640Y002540D02*
X037640Y003405D01*
X038940Y007705D02*
X039005Y007740D01*
X038940Y008375D02*
X038940Y008640D01*
X038190Y009390D01*
X038190Y009510D01*
X038190Y009990D01*
X037840Y010340D01*
X037340Y010340D01*
X036690Y010990D01*
X036690Y011570D01*
X037190Y011570D02*
X037190Y011090D01*
X037575Y010705D01*
X038940Y010705D01*
X038940Y010940D01*
X038940Y010705D02*
X038940Y010175D01*
X038440Y010940D02*
X037940Y010940D01*
X037690Y011190D01*
X037690Y011570D01*
X038190Y011570D02*
X038190Y012090D01*
X037940Y012340D01*
X035940Y012340D01*
X034940Y012340D01*
X032840Y014440D01*
X028040Y014440D01*
X027940Y014340D01*
X027040Y012740D02*
X027040Y012140D01*
X027240Y011940D01*
X029005Y011940D01*
X026640Y012740D02*
X026540Y012640D01*
X024140Y012640D01*
X024440Y014940D02*
X032940Y014940D01*
X035140Y012740D01*
X038040Y012740D01*
X038940Y011840D01*
X038940Y011375D01*
X038875Y011375D01*
X038440Y010940D01*
X035940Y012075D02*
X035940Y012340D01*
X034440Y008540D02*
X022240Y008640D01*
X021975Y008640D01*
X021875Y008740D01*
X021240Y008740D02*
X021205Y008740D01*
X021140Y008740D01*
X021040Y008640D01*
X020840Y008640D01*
X020640Y009140D02*
X018940Y007440D01*
X017440Y007440D01*
X020640Y009140D02*
X023840Y009140D01*
X022040Y003840D02*
X022675Y003205D01*
X022675Y002940D01*
X022675Y002905D02*
X022640Y002940D01*
X022675Y002905D02*
X022675Y002140D01*
X022005Y002140D02*
X020840Y002140D01*
X020540Y002140D01*
X020340Y001940D01*
X005240Y001940D01*
X003940Y003240D01*
X004340Y003240D02*
X005440Y002140D01*
X020240Y002140D01*
X020440Y002340D01*
X020440Y002840D01*
X020640Y003040D01*
X021040Y003040D01*
X021240Y002840D01*
X021240Y002740D01*
X021740Y002740D01*
X021940Y002940D01*
X020840Y002740D02*
X020840Y002140D01*
X019340Y003440D02*
X018240Y002340D01*
X005640Y002340D01*
X004840Y003140D01*
X004840Y003240D01*
X004594Y004340D02*
X002940Y004340D01*
X002940Y007640D01*
X001740Y007640D01*
X001740Y008440D01*
X003840Y008440D01*
X003840Y006440D01*
X004740Y005540D01*
X004740Y004762D01*
X004658Y004762D01*
X004594Y004697D01*
X004594Y004340D01*
X004594Y004397D02*
X002940Y004397D01*
X002940Y004495D02*
X004594Y004495D01*
X004594Y004594D02*
X002940Y004594D01*
X002940Y004692D02*
X004594Y004692D01*
X004740Y004791D02*
X002940Y004791D01*
X002940Y004889D02*
X004740Y004889D01*
X004740Y004988D02*
X002940Y004988D01*
X002940Y005086D02*
X004740Y005086D01*
X004740Y005185D02*
X002940Y005185D01*
X002940Y005283D02*
X004740Y005283D01*
X004740Y005382D02*
X002940Y005382D01*
X002940Y005480D02*
X004740Y005480D01*
X004701Y005579D02*
X002940Y005579D01*
X002940Y005677D02*
X004603Y005677D01*
X004504Y005776D02*
X002940Y005776D01*
X002940Y005874D02*
X004406Y005874D01*
X004307Y005973D02*
X002940Y005973D01*
X002940Y006071D02*
X004209Y006071D01*
X004110Y006170D02*
X002940Y006170D01*
X002940Y006268D02*
X004012Y006268D01*
X003913Y006367D02*
X002940Y006367D01*
X002940Y006465D02*
X003840Y006465D01*
X003840Y006564D02*
X002940Y006564D01*
X002940Y006662D02*
X003840Y006662D01*
X003840Y006761D02*
X002940Y006761D01*
X002940Y006859D02*
X003840Y006859D01*
X003840Y006958D02*
X002940Y006958D01*
X002940Y007056D02*
X003840Y007056D01*
X003840Y007155D02*
X002940Y007155D01*
X002940Y007253D02*
X003840Y007253D01*
X003840Y007352D02*
X002940Y007352D01*
X002940Y007450D02*
X003840Y007450D01*
X003840Y007549D02*
X002940Y007549D01*
X003840Y007647D02*
X001740Y007647D01*
X001740Y007746D02*
X003840Y007746D01*
X003840Y007844D02*
X001740Y007844D01*
X001740Y007943D02*
X003840Y007943D01*
X003840Y008041D02*
X001740Y008041D01*
X001740Y008140D02*
X003840Y008140D01*
X003840Y008238D02*
X001740Y008238D01*
X001740Y008337D02*
X003840Y008337D01*
X003840Y008435D02*
X001740Y008435D01*
X004540Y007240D02*
X004640Y007240D01*
X004840Y007040D01*
X006240Y004440D02*
X008140Y006340D01*
X008140Y006390D01*
X006240Y004440D02*
X005840Y004440D01*
X021240Y016414D02*
X023814Y016414D01*
X023912Y016512D02*
X021240Y016512D01*
X021240Y016611D02*
X024011Y016611D01*
X024109Y016709D02*
X021240Y016709D01*
X021240Y016808D02*
X024208Y016808D01*
X024306Y016906D02*
X021240Y016906D01*
X021240Y017005D02*
X022547Y017005D01*
X022309Y017103D02*
X021240Y017103D01*
X021240Y017202D02*
X022201Y017202D01*
X022902Y017005D02*
X024340Y017005D01*
X024340Y017103D02*
X023140Y017103D01*
X023248Y017202D02*
X024340Y017202D01*
X024340Y017300D02*
X023346Y017300D01*
X023402Y017399D02*
X024340Y017399D01*
X024313Y017497D02*
X023442Y017497D01*
X023483Y017596D02*
X024272Y017596D01*
X024269Y017694D02*
X023487Y017694D01*
X023487Y017793D02*
X024269Y017793D01*
X024269Y017891D02*
X023487Y017891D01*
X023453Y017990D02*
X024302Y017990D01*
X024343Y018088D02*
X023413Y018088D01*
X023372Y018187D02*
X024384Y018187D01*
X024481Y018285D02*
X023340Y018285D01*
X023340Y018384D02*
X024580Y018384D01*
X024790Y018482D02*
X023340Y018482D01*
X023476Y018876D02*
X036540Y018876D01*
X038726Y018876D01*
X038555Y018975D02*
X036540Y018975D01*
X023575Y018975D01*
X023673Y019073D02*
X036540Y019073D01*
X038435Y019073D01*
X038363Y019172D02*
X036540Y019172D01*
X023772Y019172D01*
X025273Y018482D02*
X029963Y018482D01*
X029753Y018384D02*
X025483Y018384D01*
X025582Y018285D02*
X029654Y018285D01*
X029557Y018187D02*
X025679Y018187D01*
X028392Y018088D02*
X029516Y018088D01*
X029475Y017990D02*
X028490Y017990D01*
X028589Y017891D02*
X029391Y017891D01*
X029293Y017793D02*
X028687Y017793D01*
X028740Y017694D02*
X029240Y017694D01*
X029240Y017596D02*
X028740Y017596D01*
X028740Y017497D02*
X029240Y017497D01*
X029240Y017399D02*
X028740Y017399D01*
X028740Y017300D02*
X029240Y017300D01*
X029240Y017202D02*
X028740Y017202D01*
X028740Y017103D02*
X029240Y017103D01*
X029240Y017005D02*
X028740Y017005D01*
X030852Y018187D02*
X031864Y018187D01*
X031961Y018285D02*
X030755Y018285D01*
X030656Y018384D02*
X032060Y018384D01*
X032270Y018482D02*
X030446Y018482D01*
X032753Y018482D02*
X036540Y018482D01*
X037443Y018482D01*
X037233Y018384D02*
X036540Y018384D01*
X032963Y018384D01*
X033062Y018285D02*
X036540Y018285D01*
X037135Y018285D01*
X037037Y018187D02*
X036540Y018187D01*
X033159Y018187D01*
X036192Y018088D02*
X036540Y018088D01*
X036997Y018088D01*
X036956Y017990D02*
X036540Y017990D01*
X036290Y017990D01*
X036389Y017891D02*
X036540Y017891D01*
X036922Y017891D01*
X036922Y017793D02*
X036540Y017793D01*
X036487Y017793D01*
X036540Y017694D02*
X036922Y017694D01*
X036926Y017596D02*
X036540Y017596D01*
X036540Y017497D02*
X036967Y017497D01*
X037008Y017399D02*
X036540Y017399D01*
X036540Y017300D02*
X037063Y017300D01*
X037161Y017202D02*
X036540Y017202D01*
X036540Y017103D02*
X037269Y017103D01*
X037507Y017005D02*
X036540Y017005D01*
X008140Y017005D02*
X005540Y017005D01*
X005540Y016940D02*
X005540Y020040D01*
X008140Y020040D01*
X008140Y016940D01*
X005540Y016940D01*
X005540Y017103D02*
X008140Y017103D01*
X008140Y017202D02*
X005540Y017202D01*
X005540Y017300D02*
X008140Y017300D01*
X008140Y017399D02*
X005540Y017399D01*
X005540Y017497D02*
X008140Y017497D01*
X008140Y017596D02*
X005540Y017596D01*
X005540Y017694D02*
X008140Y017694D01*
X008140Y017793D02*
X005540Y017793D01*
X005540Y017891D02*
X008140Y017891D01*
X008140Y017990D02*
X005540Y017990D01*
X005540Y018088D02*
X008140Y018088D01*
X008140Y018187D02*
X005540Y018187D01*
X005540Y018285D02*
X008140Y018285D01*
X008140Y018384D02*
X005540Y018384D01*
X005540Y018482D02*
X008140Y018482D01*
X008140Y018581D02*
X005540Y018581D01*
X005540Y018679D02*
X008140Y018679D01*
X008140Y018778D02*
X005540Y018778D01*
X005540Y018876D02*
X008140Y018876D01*
X008140Y018975D02*
X005540Y018975D01*
X005540Y019073D02*
X008140Y019073D01*
X008140Y019172D02*
X005540Y019172D01*
X005540Y019270D02*
X008140Y019270D01*
X008140Y019369D02*
X005540Y019369D01*
X005540Y019467D02*
X008140Y019467D01*
X008140Y019566D02*
X005540Y019566D01*
X005540Y019664D02*
X008140Y019664D01*
X008140Y019763D02*
X005540Y019763D01*
X005540Y019861D02*
X008140Y019861D01*
X008140Y019960D02*
X005540Y019960D01*
D37*
X010140Y017140D02*
X010340Y017140D01*
X009240Y009840D02*
X013140Y005940D01*
X014640Y005940D01*
X015140Y006440D01*
X018205Y006440D01*
X018205Y005075D01*
X018475Y004805D01*
X018840Y004805D01*
X018901Y004745D02*
X020340Y004745D01*
X021235Y005640D01*
X021305Y005640D01*
X021340Y005640D02*
X021340Y006040D01*
X028640Y004075D02*
X029640Y004075D01*
X030640Y004075D01*
X031640Y004075D01*
X032640Y004075D01*
X033640Y004075D01*
X034640Y004075D01*
X035640Y004075D01*
X036640Y004075D01*
X037640Y004075D01*
X037975Y004075D01*
X038640Y004740D01*
X038640Y006440D01*
X009240Y009805D02*
X008875Y009440D01*
X007440Y009440D01*
X005840Y007840D01*
X004340Y007840D01*
X004040Y007540D01*
X004040Y006540D01*
X004940Y005640D01*
X004940Y004494D01*
X005340Y004494D01*
X005340Y004440D01*
D38*
X021940Y002940D02*
X022005Y002940D01*
X022675Y002940D02*
X022690Y002940D01*
X022675Y002905D01*
X022740Y004740D02*
X022840Y004775D01*
X023840Y007540D02*
X023905Y007540D01*
D39*
X010140Y017140D03*
X005340Y004440D03*
D40*
X009850Y015549D02*
X010331Y015549D01*
D41*
X010340Y015540D01*
D42*
X019940Y014440D03*
D43*
X018440Y014440D01*
X014040Y018840D01*
X014040Y020140D01*
X013540Y020640D01*
X008840Y020640D01*
X008040Y019840D01*
M02*
