G75*
G70*
%OFA0B0*%
%FSLAX24Y24*%
%IPPOS*%
%LPD*%
%AMOC8*
5,1,8,0,0,1.08239X$1,22.5*
%
%ADD10C,0.0000*%
%ADD11R,0.0473X0.0434*%
%ADD12R,0.0670X0.0749*%
%ADD13R,0.0910X0.0280*%
%ADD14C,0.0560*%
%ADD15C,0.0690*%
%ADD16R,0.0690X0.0690*%
%ADD17R,0.0555X0.0555*%
%ADD18C,0.0555*%
%ADD19R,0.0631X0.0138*%
%ADD20R,0.0138X0.0631*%
%ADD21R,0.0670X0.0197*%
%ADD22R,0.0197X0.0690*%
%ADD23R,0.0280X0.0910*%
%ADD24R,0.0670X0.0750*%
%ADD25R,0.0500X0.0670*%
%ADD26OC8,0.0890*%
%ADD27C,0.1740*%
%ADD28R,0.0434X0.0473*%
%ADD29R,0.0512X0.0355*%
%ADD30R,0.1142X0.1694*%
%ADD31R,0.0591X0.0867*%
%ADD32R,0.0355X0.0512*%
%ADD33R,0.2166X0.1615*%
%ADD34R,0.0540X0.0290*%
%ADD35R,0.0237X0.0316*%
%ADD36R,0.2140X0.0800*%
%ADD37C,0.0780*%
%ADD38R,0.0512X0.1300*%
%ADD39R,0.0749X0.1300*%
%ADD40OC8,0.0670*%
%ADD41C,0.0670*%
%ADD42C,0.0614*%
%ADD43C,0.1346*%
%ADD44C,0.1221*%
%ADD45C,0.0512*%
%ADD46C,0.0631*%
D10*
X001240Y001540D02*
X001240Y021225D01*
X040610Y021225D01*
X040610Y001540D01*
X001240Y001540D01*
D11*
X004005Y002440D03*
X004675Y002440D03*
X005505Y002440D03*
X006175Y002440D03*
X007005Y002440D03*
X007675Y002440D03*
X008705Y007340D03*
X009375Y007340D03*
X009375Y008340D03*
X008705Y008340D03*
X010905Y008340D03*
X011575Y008340D03*
X011575Y007340D03*
X010905Y007340D03*
X008375Y010240D03*
X007705Y010240D03*
X007075Y010240D03*
X006405Y010240D03*
X006405Y011240D03*
X007075Y011240D03*
X007705Y011240D03*
X008375Y011240D03*
X008375Y012240D03*
X007705Y012240D03*
X007075Y012240D03*
X006405Y012240D03*
X006405Y013240D03*
X007075Y013240D03*
X007705Y013240D03*
X008375Y013240D03*
X014005Y017440D03*
X014675Y017440D03*
X015305Y017440D03*
X015975Y017440D03*
X015975Y018440D03*
X015305Y018440D03*
X014675Y018440D03*
X014005Y018440D03*
X015305Y019340D03*
X015975Y019340D03*
X015975Y020240D03*
X015305Y020240D03*
X014575Y020240D03*
X013905Y020240D03*
X013175Y020240D03*
X012505Y020240D03*
X011775Y020240D03*
X011105Y020240D03*
X010275Y020240D03*
X009605Y020240D03*
X018405Y015440D03*
X019075Y015440D03*
X019788Y015438D03*
X020457Y015438D03*
X021205Y015440D03*
X021875Y015440D03*
X025905Y015440D03*
X026575Y015440D03*
X027305Y015440D03*
X027975Y015440D03*
X028705Y015440D03*
X029375Y015440D03*
X031005Y014840D03*
X031675Y014840D03*
X031675Y013940D03*
X031005Y013940D03*
X031005Y013040D03*
X031675Y013040D03*
X032305Y013040D03*
X032975Y013040D03*
D12*
X029891Y007340D03*
X028789Y007340D03*
D13*
X029770Y012490D03*
X029770Y012990D03*
X029770Y013490D03*
X029770Y013990D03*
X027710Y013990D03*
X027710Y013490D03*
X027710Y012990D03*
X027710Y012490D03*
X015670Y014990D03*
X015670Y015490D03*
X015670Y015990D03*
X015670Y016490D03*
X013610Y016490D03*
X013610Y015990D03*
X013610Y015490D03*
X013610Y014990D03*
D14*
X028640Y005800D02*
X028640Y005280D01*
X029640Y005280D02*
X029640Y005800D01*
X030640Y005800D02*
X030640Y005280D01*
X031640Y005280D02*
X031640Y005800D01*
X032640Y005800D02*
X032640Y005280D01*
X033640Y005280D02*
X033640Y005800D01*
X034640Y005800D02*
X034640Y005280D01*
X035640Y005280D02*
X035640Y005800D01*
X036640Y005800D02*
X036640Y005280D01*
X037640Y005280D02*
X037640Y005800D01*
X037640Y002800D02*
X037640Y002280D01*
X036640Y002280D02*
X036640Y002800D01*
X035640Y002800D02*
X035640Y002280D01*
X034640Y002280D02*
X034640Y002800D01*
X033640Y002800D02*
X033640Y002280D01*
X032640Y002280D02*
X032640Y002800D01*
X031640Y002800D02*
X031640Y002280D01*
X030640Y002280D02*
X030640Y002800D01*
X029640Y002800D02*
X029640Y002280D01*
X028640Y002280D02*
X028640Y002800D01*
D15*
X038840Y013940D03*
D16*
X038840Y014940D03*
D17*
X004883Y013276D03*
D18*
X004883Y012276D03*
X004883Y011276D03*
X004883Y010276D03*
D19*
X019947Y006123D03*
X019947Y005926D03*
X019947Y005729D03*
X019947Y005532D03*
X019947Y005335D03*
X019947Y005138D03*
X019947Y004942D03*
X019947Y004745D03*
X019947Y004548D03*
X019947Y004351D03*
X019947Y004154D03*
X019947Y003957D03*
X023333Y003957D03*
X023333Y004154D03*
X023333Y004351D03*
X023333Y004548D03*
X023333Y004745D03*
X023333Y004942D03*
X023333Y005138D03*
X023333Y005335D03*
X023333Y005532D03*
X023333Y005729D03*
X023333Y005926D03*
X023333Y006123D03*
D20*
X022723Y006733D03*
X022526Y006733D03*
X022329Y006733D03*
X022132Y006733D03*
X021935Y006733D03*
X021738Y006733D03*
X021542Y006733D03*
X021345Y006733D03*
X021148Y006733D03*
X020951Y006733D03*
X020754Y006733D03*
X020557Y006733D03*
X020557Y003347D03*
X020754Y003347D03*
X020951Y003347D03*
X021148Y003347D03*
X021345Y003347D03*
X021542Y003347D03*
X021738Y003347D03*
X021935Y003347D03*
X022132Y003347D03*
X022329Y003347D03*
X022526Y003347D03*
X022723Y003347D03*
D21*
X013062Y017464D03*
X013062Y017720D03*
X013062Y017976D03*
X013062Y018232D03*
X013062Y018488D03*
X013062Y018744D03*
X013062Y018999D03*
X013062Y019255D03*
X010739Y019255D03*
X010739Y018999D03*
X010739Y018744D03*
X010739Y018488D03*
X010739Y018232D03*
X010739Y017976D03*
X010739Y017720D03*
X010739Y017464D03*
D22*
X006847Y006241D03*
X006592Y006241D03*
X006336Y006241D03*
X006080Y006241D03*
X005824Y006241D03*
X005568Y006241D03*
X005312Y006241D03*
X005056Y006241D03*
X004800Y006241D03*
X004544Y006241D03*
X004288Y006241D03*
X004033Y006241D03*
X004033Y003839D03*
X004288Y003839D03*
X004544Y003839D03*
X004800Y003839D03*
X005056Y003839D03*
X005312Y003839D03*
X005568Y003839D03*
X005824Y003839D03*
X006080Y003839D03*
X006336Y003839D03*
X006592Y003839D03*
X006847Y003839D03*
D23*
X008590Y004010D03*
X009090Y004010D03*
X009590Y004010D03*
X010090Y004010D03*
X010790Y004010D03*
X011290Y004010D03*
X011790Y004010D03*
X012290Y004010D03*
X012290Y006070D03*
X011790Y006070D03*
X011290Y006070D03*
X010790Y006070D03*
X010090Y006070D03*
X009590Y006070D03*
X009090Y006070D03*
X008590Y006070D03*
D24*
X004590Y008411D03*
X003470Y008411D03*
D25*
X008740Y002540D03*
X009340Y002540D03*
X009940Y002540D03*
D26*
X015340Y005040D03*
X025340Y007540D03*
X026340Y007540D03*
X016840Y019740D03*
X002040Y008040D03*
X002040Y006840D03*
X002040Y005640D03*
X002040Y004427D03*
D27*
X005059Y015044D03*
X006240Y016894D03*
X003878Y016894D03*
D28*
X008540Y017605D03*
X009440Y017605D03*
X009440Y018275D03*
X008540Y018275D03*
X007640Y007475D03*
X007640Y006805D03*
X012640Y002775D03*
X012640Y002105D03*
X019440Y002105D03*
X019440Y002775D03*
D29*
X025540Y011886D03*
X025540Y012594D03*
X010740Y015886D03*
X010740Y016594D03*
D30*
X010308Y013240D03*
X013772Y013240D03*
X026208Y010440D03*
X029672Y010440D03*
D31*
X024672Y011440D03*
X021208Y011440D03*
X021208Y013740D03*
X024672Y013740D03*
D32*
X011094Y010240D03*
X010386Y010240D03*
D33*
X017040Y010011D03*
X017040Y013869D03*
X032840Y011169D03*
X032840Y007311D03*
D34*
X013540Y005917D03*
X013540Y005563D03*
D35*
X007640Y005714D03*
X007640Y006226D03*
X007640Y004416D03*
X007640Y003904D03*
D36*
X014140Y003340D03*
X017940Y003340D03*
D37*
X025340Y005540D03*
X026340Y005540D03*
X027340Y005540D03*
D38*
X035886Y010044D03*
X037460Y010044D03*
X037460Y012721D03*
X035886Y012721D03*
D39*
X013942Y010240D03*
X011738Y010240D03*
D40*
X014140Y006840D03*
X008450Y015549D03*
D41*
X009850Y015549D03*
X014140Y008240D03*
D42*
X018760Y016403D02*
X018760Y016977D01*
X019744Y016977D02*
X019744Y016403D01*
X020531Y016403D02*
X020531Y016977D01*
X021516Y016977D02*
X021516Y016403D01*
X026240Y016403D02*
X026240Y016977D01*
X027224Y016977D02*
X027224Y016403D01*
X028012Y016403D02*
X028012Y016977D01*
X028996Y016977D02*
X028996Y016403D01*
X033720Y016403D02*
X033720Y016977D01*
X034705Y016977D02*
X034705Y016403D01*
X035492Y016403D02*
X035492Y016977D01*
X036476Y016977D02*
X036476Y016403D01*
D43*
X037685Y017757D03*
X032512Y017757D03*
X030205Y017757D03*
X025031Y017757D03*
X022724Y017757D03*
X017551Y017757D03*
D44*
X002815Y019650D03*
X002815Y003115D03*
X039035Y003115D03*
X039035Y019650D03*
D45*
X028340Y010840D03*
X027540Y010840D03*
X027540Y010040D03*
X028340Y010040D03*
X030640Y007740D03*
X031440Y007740D03*
X031440Y006940D03*
X030640Y006940D03*
X012840Y015540D03*
X012040Y015540D03*
X012040Y016340D03*
X012840Y016340D03*
X012440Y013640D03*
X011640Y013640D03*
X011640Y012740D03*
X012440Y012740D03*
X003940Y009840D03*
X003240Y009840D03*
X003240Y009140D03*
X003940Y009140D03*
X004040Y005240D03*
X004040Y004640D03*
X003340Y004640D03*
X003340Y005240D03*
D46*
X019940Y014440D03*
M02*
