G75*
G70*
%OFA0B0*%
%FSLAX24Y24*%
%IPPOS*%
%LPD*%
%AMOC8*
5,1,8,0,0,1.08239X$1,22.5*
%
%ADD10C,0.0000*%
%ADD11C,0.0030*%
%ADD12C,0.0070*%
%ADD13R,0.0180X0.0300*%
%ADD14C,0.0220*%
%ADD15C,0.0060*%
%ADD16C,0.0080*%
%ADD17C,0.0050*%
%ADD18C,0.0160*%
%ADD19C,0.0157*%
%ADD20C,0.0020*%
%ADD21C,0.0040*%
%ADD22R,0.0305X0.0050*%
%ADD23C,0.0001*%
%ADD24C,0.0100*%
D10*
X001240Y001540D02*
X001240Y021225D01*
X040610Y021225D01*
X040610Y001540D01*
X001240Y001540D01*
D11*
X003821Y001835D02*
X003821Y002125D01*
X003966Y002125D01*
X004015Y002077D01*
X004015Y001980D01*
X003966Y001932D01*
X003821Y001932D01*
X003918Y001932D02*
X004015Y001835D01*
X004116Y001835D02*
X004309Y002028D01*
X004309Y002077D01*
X004261Y002125D01*
X004164Y002125D01*
X004116Y002077D01*
X004116Y001835D02*
X004309Y001835D01*
X004410Y001835D02*
X004604Y002028D01*
X004604Y002077D01*
X004555Y002125D01*
X004459Y002125D01*
X004410Y002077D01*
X004410Y001835D02*
X004604Y001835D01*
X005553Y002755D02*
X005650Y002755D01*
X005698Y002803D01*
X005800Y002755D02*
X005993Y002948D01*
X005993Y002997D01*
X005945Y003045D01*
X005848Y003045D01*
X005800Y002997D01*
X005698Y002997D02*
X005650Y003045D01*
X005553Y003045D01*
X005505Y002997D01*
X005505Y002803D01*
X005553Y002755D01*
X005800Y002755D02*
X005993Y002755D01*
X006094Y002803D02*
X006094Y002900D01*
X006239Y002900D01*
X006288Y002852D01*
X006288Y002803D01*
X006239Y002755D01*
X006143Y002755D01*
X006094Y002803D01*
X006094Y002900D02*
X006191Y002997D01*
X006288Y003045D01*
X007005Y003045D02*
X007005Y002755D01*
X007005Y002852D02*
X007150Y002852D01*
X007198Y002900D01*
X007198Y002997D01*
X007150Y003045D01*
X007005Y003045D01*
X007102Y002852D02*
X007198Y002755D01*
X007300Y002755D02*
X007493Y002755D01*
X007396Y002755D02*
X007396Y003045D01*
X007300Y002948D01*
X007594Y002900D02*
X007691Y002948D01*
X007739Y002948D01*
X007788Y002900D01*
X007788Y002803D01*
X007739Y002755D01*
X007643Y002755D01*
X007594Y002803D01*
X007594Y002900D02*
X007594Y003045D01*
X007788Y003045D01*
X007405Y003865D02*
X007115Y003865D01*
X007115Y004010D01*
X007163Y004058D01*
X007357Y004058D01*
X007405Y004010D01*
X007405Y003865D01*
X007357Y004160D02*
X007308Y004160D01*
X007260Y004208D01*
X007260Y004305D01*
X007308Y004353D01*
X007357Y004353D01*
X007405Y004305D01*
X007405Y004208D01*
X007357Y004160D01*
X007260Y004208D02*
X007212Y004160D01*
X007163Y004160D01*
X007115Y004208D01*
X007115Y004305D01*
X007163Y004353D01*
X007212Y004353D01*
X007260Y004305D01*
X008055Y004318D02*
X008345Y004318D01*
X008345Y004366D02*
X008345Y004269D01*
X008297Y004466D02*
X008103Y004466D01*
X008055Y004514D01*
X008055Y004611D01*
X008103Y004659D01*
X008200Y004760D02*
X008200Y004954D01*
X008345Y004905D02*
X008055Y004905D01*
X008200Y004760D01*
X008297Y004659D02*
X008345Y004611D01*
X008345Y004514D01*
X008297Y004466D01*
X008055Y004366D02*
X008055Y004269D01*
X007338Y005257D02*
X007387Y005305D01*
X007387Y005402D01*
X007338Y005451D01*
X007096Y005451D01*
X007145Y005552D02*
X007096Y005600D01*
X007096Y005697D01*
X007145Y005745D01*
X007193Y005745D01*
X007242Y005697D01*
X007290Y005745D01*
X007338Y005745D01*
X007387Y005697D01*
X007387Y005600D01*
X007338Y005552D01*
X007242Y005648D02*
X007242Y005697D01*
X007338Y005257D02*
X007096Y005257D01*
X007875Y005706D02*
X007875Y005851D01*
X007923Y005899D01*
X008117Y005899D01*
X008165Y005851D01*
X008165Y005706D01*
X007875Y005706D01*
X007875Y006000D02*
X007875Y006194D01*
X007923Y006194D01*
X008117Y006000D01*
X008165Y006000D01*
X008197Y006721D02*
X008245Y006769D01*
X008245Y006866D01*
X008197Y006915D01*
X008245Y007016D02*
X008052Y007209D01*
X008003Y007209D01*
X007955Y007161D01*
X007955Y007064D01*
X008003Y007016D01*
X008003Y006915D02*
X007955Y006866D01*
X007955Y006769D01*
X008003Y006721D01*
X008197Y006721D01*
X008245Y007016D02*
X008245Y007209D01*
X008197Y007310D02*
X008245Y007359D01*
X008245Y007455D01*
X008197Y007504D01*
X008100Y007504D01*
X008052Y007455D01*
X008052Y007407D01*
X008100Y007310D01*
X007955Y007310D01*
X007955Y007504D01*
X008621Y007635D02*
X008621Y007925D01*
X008766Y007925D01*
X008815Y007877D01*
X008815Y007780D01*
X008766Y007732D01*
X008621Y007732D01*
X008718Y007732D02*
X008815Y007635D01*
X008916Y007635D02*
X009109Y007635D01*
X009012Y007635D02*
X009012Y007925D01*
X008916Y007828D01*
X009210Y007828D02*
X009210Y007877D01*
X009259Y007925D01*
X009355Y007925D01*
X009404Y007877D01*
X009404Y007828D01*
X009355Y007780D01*
X009259Y007780D01*
X009210Y007828D01*
X009259Y007780D02*
X009210Y007732D01*
X009210Y007683D01*
X009259Y007635D01*
X009355Y007635D01*
X009404Y007683D01*
X009404Y007732D01*
X009355Y007780D01*
X009391Y008655D02*
X009391Y008945D01*
X009294Y008848D01*
X009193Y008848D02*
X009145Y008800D01*
X009193Y008752D01*
X009193Y008703D01*
X009145Y008655D01*
X009048Y008655D01*
X009000Y008703D01*
X008898Y008655D02*
X008802Y008752D01*
X008850Y008752D02*
X008705Y008752D01*
X008705Y008655D02*
X008705Y008945D01*
X008850Y008945D01*
X008898Y008897D01*
X008898Y008800D01*
X008850Y008752D01*
X009000Y008897D02*
X009048Y008945D01*
X009145Y008945D01*
X009193Y008897D01*
X009193Y008848D01*
X009145Y008800D02*
X009096Y008800D01*
X009294Y008655D02*
X009488Y008655D01*
X010266Y009458D02*
X010314Y009410D01*
X010411Y009410D01*
X010459Y009458D01*
X010560Y009458D02*
X010560Y009507D01*
X010609Y009555D01*
X010705Y009555D01*
X010754Y009507D01*
X010754Y009458D01*
X010705Y009410D01*
X010609Y009410D01*
X010560Y009458D01*
X010609Y009555D02*
X010560Y009603D01*
X010560Y009652D01*
X010609Y009700D01*
X010705Y009700D01*
X010754Y009652D01*
X010754Y009603D01*
X010705Y009555D01*
X010459Y009652D02*
X010411Y009700D01*
X010314Y009700D01*
X010266Y009652D01*
X010266Y009458D01*
X010821Y008925D02*
X010966Y008925D01*
X011015Y008877D01*
X011015Y008780D01*
X010966Y008732D01*
X010821Y008732D01*
X010918Y008732D02*
X011015Y008635D01*
X011116Y008683D02*
X011164Y008635D01*
X011261Y008635D01*
X011309Y008683D01*
X011309Y008732D01*
X011261Y008780D01*
X011212Y008780D01*
X011261Y008780D02*
X011309Y008828D01*
X011309Y008877D01*
X011261Y008925D01*
X011164Y008925D01*
X011116Y008877D01*
X011410Y008877D02*
X011410Y008683D01*
X011604Y008877D01*
X011604Y008683D01*
X011555Y008635D01*
X011459Y008635D01*
X011410Y008683D01*
X011410Y008877D02*
X011459Y008925D01*
X011555Y008925D01*
X011604Y008877D01*
X010821Y008925D02*
X010821Y008635D01*
X010921Y007925D02*
X011066Y007925D01*
X011115Y007877D01*
X011115Y007780D01*
X011066Y007732D01*
X010921Y007732D01*
X011018Y007732D02*
X011115Y007635D01*
X011216Y007635D02*
X011409Y007635D01*
X011312Y007635D02*
X011312Y007925D01*
X011216Y007828D01*
X011510Y007925D02*
X011704Y007925D01*
X011704Y007877D01*
X011510Y007683D01*
X011510Y007635D01*
X010921Y007635D02*
X010921Y007925D01*
X012921Y009185D02*
X012921Y009475D01*
X013066Y009475D01*
X013115Y009427D01*
X013115Y009330D01*
X013066Y009282D01*
X012921Y009282D01*
X013018Y009282D02*
X013115Y009185D01*
X013216Y009185D02*
X013409Y009185D01*
X013312Y009185D02*
X013312Y009475D01*
X013216Y009378D01*
X013510Y009378D02*
X013559Y009330D01*
X013704Y009330D01*
X013704Y009233D02*
X013704Y009427D01*
X013655Y009475D01*
X013559Y009475D01*
X013510Y009427D01*
X013510Y009378D01*
X013510Y009233D02*
X013559Y009185D01*
X013655Y009185D01*
X013704Y009233D01*
X014903Y007854D02*
X014952Y007854D01*
X015000Y007805D01*
X015048Y007854D01*
X015097Y007854D01*
X015145Y007805D01*
X015145Y007709D01*
X015097Y007660D01*
X015145Y007559D02*
X015145Y007366D01*
X014952Y007559D01*
X014903Y007559D01*
X014855Y007511D01*
X014855Y007414D01*
X014903Y007366D01*
X014903Y007265D02*
X014855Y007216D01*
X014855Y007119D01*
X014903Y007071D01*
X015097Y007071D01*
X015145Y007119D01*
X015145Y007216D01*
X015097Y007265D01*
X014903Y007660D02*
X014855Y007709D01*
X014855Y007805D01*
X014903Y007854D01*
X015000Y007805D02*
X015000Y007757D01*
X013763Y005125D02*
X013666Y005125D01*
X013618Y005077D01*
X013517Y005125D02*
X013420Y005125D01*
X013468Y005125D02*
X013468Y004883D01*
X013420Y004835D01*
X013372Y004835D01*
X013323Y004883D01*
X013222Y004883D02*
X013174Y004835D01*
X013077Y004835D01*
X013029Y004883D01*
X013077Y004980D02*
X013174Y004980D01*
X013222Y004932D01*
X013222Y004883D01*
X013077Y004980D02*
X013029Y005028D01*
X013029Y005077D01*
X013077Y005125D01*
X013174Y005125D01*
X013222Y005077D01*
X012845Y004905D02*
X012845Y004809D01*
X012797Y004760D01*
X012700Y004760D02*
X012652Y004857D01*
X012652Y004905D01*
X012700Y004954D01*
X012797Y004954D01*
X012845Y004905D01*
X012700Y004760D02*
X012555Y004760D01*
X012555Y004954D01*
X012603Y004659D02*
X012555Y004611D01*
X012555Y004514D01*
X012603Y004466D01*
X012797Y004466D01*
X012845Y004514D01*
X012845Y004611D01*
X012797Y004659D01*
X012845Y004366D02*
X012845Y004269D01*
X012845Y004318D02*
X012555Y004318D01*
X012555Y004366D02*
X012555Y004269D01*
X013618Y004835D02*
X013811Y005028D01*
X013811Y005077D01*
X013763Y005125D01*
X013811Y004835D02*
X013618Y004835D01*
X012197Y002604D02*
X012245Y002555D01*
X012245Y002459D01*
X012197Y002410D01*
X012148Y002410D01*
X012100Y002459D01*
X012100Y002555D01*
X012148Y002604D01*
X012197Y002604D01*
X012100Y002555D02*
X012052Y002604D01*
X012003Y002604D01*
X011955Y002555D01*
X011955Y002459D01*
X012003Y002410D01*
X012052Y002410D01*
X012100Y002459D01*
X012052Y002309D02*
X012003Y002309D01*
X011955Y002261D01*
X011955Y002164D01*
X012003Y002116D01*
X012003Y002015D02*
X011955Y001966D01*
X011955Y001869D01*
X012003Y001821D01*
X012197Y001821D01*
X012245Y001869D01*
X012245Y001966D01*
X012197Y002015D01*
X012245Y002116D02*
X012052Y002309D01*
X012245Y002309D02*
X012245Y002116D01*
X011188Y002155D02*
X010994Y002155D01*
X011091Y002155D02*
X011091Y002445D01*
X010994Y002348D01*
X010893Y002445D02*
X010796Y002445D01*
X010845Y002445D02*
X010845Y002203D01*
X010796Y002155D01*
X010748Y002155D01*
X010700Y002203D01*
X010598Y002203D02*
X010550Y002155D01*
X010453Y002155D01*
X010405Y002203D01*
X010453Y002300D02*
X010550Y002300D01*
X010598Y002252D01*
X010598Y002203D01*
X010453Y002300D02*
X010405Y002348D01*
X010405Y002397D01*
X010453Y002445D01*
X010550Y002445D01*
X010598Y002397D01*
X016255Y002045D02*
X016255Y001997D01*
X016352Y001900D01*
X016352Y001755D01*
X016352Y001900D02*
X016448Y001997D01*
X016448Y002045D01*
X016550Y001948D02*
X016646Y002045D01*
X016646Y001755D01*
X016550Y001755D02*
X016743Y001755D01*
X019755Y001969D02*
X019803Y001921D01*
X019997Y001921D01*
X020045Y001969D01*
X020045Y002066D01*
X019997Y002115D01*
X020045Y002216D02*
X019852Y002409D01*
X019803Y002409D01*
X019755Y002361D01*
X019755Y002264D01*
X019803Y002216D01*
X019803Y002115D02*
X019755Y002066D01*
X019755Y001969D01*
X020045Y002216D02*
X020045Y002409D01*
X020045Y002510D02*
X019997Y002510D01*
X019803Y002704D01*
X019755Y002704D01*
X019755Y002510D01*
X024755Y006203D02*
X024803Y006155D01*
X024900Y006155D01*
X024948Y006203D01*
X024948Y006252D01*
X024900Y006300D01*
X024803Y006300D01*
X024755Y006348D01*
X024755Y006397D01*
X024803Y006445D01*
X024900Y006445D01*
X024948Y006397D01*
X025050Y006445D02*
X025050Y006155D01*
X025146Y006252D01*
X025243Y006155D01*
X025243Y006445D01*
X025344Y006445D02*
X025489Y006445D01*
X025538Y006397D01*
X025538Y006203D01*
X025489Y006155D01*
X025344Y006155D01*
X025344Y006445D01*
X025503Y006655D02*
X025455Y006703D01*
X025503Y006655D02*
X025600Y006655D01*
X025648Y006703D01*
X025648Y006752D01*
X025600Y006800D01*
X025503Y006800D01*
X025455Y006848D01*
X025455Y006897D01*
X025503Y006945D01*
X025600Y006945D01*
X025648Y006897D01*
X025750Y006945D02*
X025750Y006655D01*
X025846Y006752D01*
X025943Y006655D01*
X025943Y006945D01*
X026044Y006945D02*
X026189Y006945D01*
X026238Y006897D01*
X026238Y006703D01*
X026189Y006655D01*
X026044Y006655D01*
X026044Y006945D01*
X026339Y006897D02*
X026339Y006703D01*
X026387Y006655D01*
X026484Y006655D01*
X026532Y006703D01*
X026634Y006655D02*
X026827Y006655D01*
X026928Y006655D02*
X026928Y006945D01*
X026977Y006800D02*
X027122Y006655D01*
X027150Y006445D02*
X027343Y006155D01*
X027343Y006445D01*
X027444Y006445D02*
X027589Y006445D01*
X027638Y006397D01*
X027638Y006203D01*
X027589Y006155D01*
X027444Y006155D01*
X027444Y006445D01*
X027150Y006445D02*
X027150Y006155D01*
X027048Y006203D02*
X027048Y006300D01*
X026952Y006300D01*
X027048Y006203D02*
X027000Y006155D01*
X026903Y006155D01*
X026855Y006203D01*
X026855Y006397D01*
X026903Y006445D01*
X027000Y006445D01*
X027048Y006397D01*
X026634Y006655D02*
X026634Y006945D01*
X026532Y006897D02*
X026484Y006945D01*
X026387Y006945D01*
X026339Y006897D01*
X025981Y006445D02*
X025884Y006445D01*
X025835Y006397D01*
X025835Y006203D01*
X025884Y006155D01*
X025981Y006155D01*
X026029Y006203D01*
X026029Y006397D01*
X025981Y006445D01*
X025736Y006445D02*
X025639Y006445D01*
X025687Y006445D02*
X025687Y006155D01*
X025639Y006155D02*
X025736Y006155D01*
X026928Y006752D02*
X027122Y006945D01*
X029266Y006827D02*
X029266Y006633D01*
X029314Y006585D01*
X029411Y006585D01*
X029459Y006633D01*
X029560Y006730D02*
X029754Y006730D01*
X029705Y006585D02*
X029705Y006875D01*
X029560Y006730D01*
X029459Y006827D02*
X029411Y006875D01*
X029314Y006875D01*
X029266Y006827D01*
X035455Y008955D02*
X035648Y008955D01*
X035750Y008955D02*
X035943Y009148D01*
X035943Y009197D01*
X035895Y009245D01*
X035798Y009245D01*
X035750Y009197D01*
X035750Y008955D02*
X035943Y008955D01*
X035455Y008955D02*
X035455Y009245D01*
X038048Y010300D02*
X038048Y010590D01*
X038193Y010590D01*
X038241Y010542D01*
X038241Y010493D01*
X038193Y010445D01*
X038048Y010445D01*
X038193Y010445D02*
X038241Y010397D01*
X038241Y010348D01*
X038193Y010300D01*
X038048Y010300D01*
X038342Y010300D02*
X038536Y010300D01*
X038439Y010300D02*
X038439Y010590D01*
X038342Y010493D01*
X032755Y013335D02*
X032755Y013625D01*
X032610Y013480D01*
X032804Y013480D01*
X032509Y013480D02*
X032461Y013432D01*
X032316Y013432D01*
X032412Y013432D02*
X032509Y013335D01*
X032509Y013480D02*
X032509Y013577D01*
X032461Y013625D01*
X032316Y013625D01*
X032316Y013335D01*
X031593Y013403D02*
X031593Y013452D01*
X031545Y013500D01*
X031400Y013500D01*
X031400Y013403D01*
X031448Y013355D01*
X031545Y013355D01*
X031593Y013403D01*
X031496Y013597D02*
X031400Y013500D01*
X031496Y013597D02*
X031593Y013645D01*
X031298Y013597D02*
X031250Y013645D01*
X031153Y013645D01*
X031105Y013597D01*
X031105Y013403D01*
X031153Y013355D01*
X031250Y013355D01*
X031298Y013403D01*
X031309Y014235D02*
X031212Y014332D01*
X031261Y014332D02*
X031116Y014332D01*
X031116Y014235D02*
X031116Y014525D01*
X031261Y014525D01*
X031309Y014477D01*
X031309Y014380D01*
X031261Y014332D01*
X031410Y014235D02*
X031604Y014428D01*
X031604Y014477D01*
X031555Y014525D01*
X031459Y014525D01*
X031410Y014477D01*
X031410Y014235D02*
X031604Y014235D01*
X031593Y015155D02*
X031400Y015155D01*
X031496Y015155D02*
X031496Y015445D01*
X031400Y015348D01*
X031298Y015300D02*
X031298Y015397D01*
X031250Y015445D01*
X031105Y015445D01*
X031105Y015155D01*
X031105Y015252D02*
X031250Y015252D01*
X031298Y015300D01*
X031202Y015252D02*
X031298Y015155D01*
X029404Y015783D02*
X029404Y015977D01*
X029355Y016025D01*
X029259Y016025D01*
X029210Y015977D01*
X029210Y015928D01*
X029259Y015880D01*
X029404Y015880D01*
X029404Y015783D02*
X029355Y015735D01*
X029259Y015735D01*
X029210Y015783D01*
X029109Y015735D02*
X028916Y015735D01*
X029109Y015928D01*
X029109Y015977D01*
X029061Y016025D01*
X028964Y016025D01*
X028916Y015977D01*
X028815Y015977D02*
X028815Y015880D01*
X028766Y015832D01*
X028621Y015832D01*
X028718Y015832D02*
X028815Y015735D01*
X028621Y015735D02*
X028621Y016025D01*
X028766Y016025D01*
X028815Y015977D01*
X028104Y015977D02*
X027910Y015783D01*
X027910Y015735D01*
X027761Y015735D02*
X027761Y016025D01*
X027616Y015880D01*
X027809Y015880D01*
X027910Y016025D02*
X028104Y016025D01*
X028104Y015977D01*
X027515Y015977D02*
X027515Y015880D01*
X027466Y015832D01*
X027321Y015832D01*
X027418Y015832D02*
X027515Y015735D01*
X027321Y015735D02*
X027321Y016025D01*
X027466Y016025D01*
X027515Y015977D01*
X026604Y015977D02*
X026604Y015928D01*
X026555Y015880D01*
X026459Y015880D01*
X026410Y015928D01*
X026410Y015977D01*
X026459Y016025D01*
X026555Y016025D01*
X026604Y015977D01*
X026555Y015880D02*
X026604Y015832D01*
X026604Y015783D01*
X026555Y015735D01*
X026459Y015735D01*
X026410Y015783D01*
X026410Y015832D01*
X026459Y015880D01*
X026309Y015880D02*
X026116Y015880D01*
X026261Y016025D01*
X026261Y015735D01*
X026015Y015735D02*
X025918Y015832D01*
X025966Y015832D02*
X025821Y015832D01*
X025821Y015735D02*
X025821Y016025D01*
X025966Y016025D01*
X026015Y015977D01*
X026015Y015880D01*
X025966Y015832D01*
X028355Y014645D02*
X028452Y014645D01*
X028403Y014645D02*
X028403Y014355D01*
X028355Y014355D02*
X028452Y014355D01*
X028551Y014403D02*
X028600Y014355D01*
X028697Y014355D01*
X028745Y014403D01*
X028846Y014355D02*
X029040Y014548D01*
X029040Y014597D01*
X028991Y014645D01*
X028894Y014645D01*
X028846Y014597D01*
X028745Y014597D02*
X028697Y014645D01*
X028600Y014645D01*
X028551Y014597D01*
X028551Y014403D01*
X028846Y014355D02*
X029040Y014355D01*
X027017Y012320D02*
X026872Y012175D01*
X027065Y012175D01*
X027017Y012030D02*
X027017Y012320D01*
X026771Y012272D02*
X026771Y012078D01*
X026722Y012030D01*
X026577Y012030D01*
X026577Y012320D01*
X026722Y012320D01*
X026771Y012272D01*
X026170Y012260D02*
X026170Y012454D01*
X026170Y012357D02*
X025880Y012357D01*
X025977Y012260D01*
X025928Y012159D02*
X025880Y012111D01*
X025880Y012014D01*
X025928Y011966D01*
X026122Y011966D01*
X026170Y012014D01*
X026170Y012111D01*
X026122Y012159D01*
X021165Y012133D02*
X021117Y012181D01*
X020972Y012181D01*
X020972Y012084D01*
X021020Y012036D01*
X021117Y012036D01*
X021165Y012084D01*
X021165Y012133D01*
X021068Y012278D02*
X020972Y012181D01*
X021068Y012278D02*
X021165Y012326D01*
X020871Y012278D02*
X020871Y012084D01*
X020822Y012036D01*
X020677Y012036D01*
X020677Y012326D01*
X020822Y012326D01*
X020871Y012278D01*
X020822Y012836D02*
X020677Y012836D01*
X020677Y013126D01*
X020822Y013126D01*
X020871Y013078D01*
X020871Y012884D01*
X020822Y012836D01*
X020972Y012884D02*
X021020Y012836D01*
X021117Y012836D01*
X021165Y012884D01*
X021165Y012981D01*
X021117Y013030D01*
X021068Y013030D01*
X020972Y012981D01*
X020972Y013126D01*
X021165Y013126D01*
X020046Y011645D02*
X020046Y011355D01*
X019950Y011355D02*
X020143Y011355D01*
X019950Y011548D02*
X020046Y011645D01*
X019848Y011355D02*
X019655Y011355D01*
X019655Y011645D01*
X014654Y014383D02*
X014654Y014432D01*
X014605Y014480D01*
X014460Y014480D01*
X014460Y014383D01*
X014509Y014335D01*
X014605Y014335D01*
X014654Y014383D01*
X014557Y014577D02*
X014460Y014480D01*
X014557Y014577D02*
X014654Y014625D01*
X014359Y014577D02*
X014311Y014625D01*
X014214Y014625D01*
X014166Y014577D01*
X014166Y014383D01*
X014214Y014335D01*
X014311Y014335D01*
X014359Y014383D01*
X014066Y014335D02*
X013969Y014335D01*
X014018Y014335D02*
X014018Y014625D01*
X014066Y014625D02*
X013969Y014625D01*
X011570Y015719D02*
X011570Y015816D01*
X011522Y015865D01*
X011570Y015966D02*
X011570Y016159D01*
X011570Y016062D02*
X011280Y016062D01*
X011377Y015966D01*
X011328Y015865D02*
X011280Y015816D01*
X011280Y015719D01*
X011328Y015671D01*
X011522Y015671D01*
X011570Y015719D01*
X011522Y016260D02*
X011473Y016260D01*
X011425Y016309D01*
X011425Y016405D01*
X011473Y016454D01*
X011522Y016454D01*
X011570Y016405D01*
X011570Y016309D01*
X011522Y016260D01*
X011425Y016309D02*
X011377Y016260D01*
X011328Y016260D01*
X011280Y016309D01*
X011280Y016405D01*
X011328Y016454D01*
X011377Y016454D01*
X011425Y016405D01*
X009125Y017653D02*
X009125Y017750D01*
X009077Y017798D01*
X009125Y017900D02*
X009125Y018093D01*
X009125Y017996D02*
X008835Y017996D01*
X008932Y017900D01*
X008883Y017798D02*
X008835Y017750D01*
X008835Y017653D01*
X008883Y017605D01*
X009077Y017605D01*
X009125Y017653D01*
X008980Y018194D02*
X008980Y018388D01*
X009125Y018339D02*
X008835Y018339D01*
X008980Y018194D01*
X008125Y018243D02*
X008077Y018194D01*
X008125Y018243D02*
X008125Y018339D01*
X008077Y018388D01*
X008028Y018388D01*
X007980Y018339D01*
X007980Y018291D01*
X007980Y018339D02*
X007932Y018388D01*
X007883Y018388D01*
X007835Y018339D01*
X007835Y018243D01*
X007883Y018194D01*
X007835Y017996D02*
X008125Y017996D01*
X008125Y017900D02*
X008125Y018093D01*
X007932Y017900D02*
X007835Y017996D01*
X007883Y017798D02*
X007835Y017750D01*
X007835Y017653D01*
X007883Y017605D01*
X008077Y017605D01*
X008125Y017653D01*
X008125Y017750D01*
X008077Y017798D01*
X006808Y018354D02*
X006615Y018354D01*
X006711Y018354D02*
X006711Y018644D01*
X006615Y018547D01*
X006514Y018644D02*
X006417Y018644D01*
X006465Y018644D02*
X006465Y018402D01*
X006417Y018354D01*
X006368Y018354D01*
X006320Y018402D01*
X009816Y020583D02*
X009864Y020535D01*
X009961Y020535D01*
X010009Y020583D01*
X010110Y020583D02*
X010159Y020535D01*
X010255Y020535D01*
X010304Y020583D01*
X010304Y020777D01*
X010255Y020825D01*
X010159Y020825D01*
X010110Y020777D01*
X010110Y020728D01*
X010159Y020680D01*
X010304Y020680D01*
X010009Y020777D02*
X009961Y020825D01*
X009864Y020825D01*
X009816Y020777D01*
X009816Y020583D01*
X011021Y020535D02*
X011021Y020825D01*
X011166Y020825D01*
X011215Y020777D01*
X011215Y020680D01*
X011166Y020632D01*
X011021Y020632D01*
X011118Y020632D02*
X011215Y020535D01*
X011316Y020535D02*
X011509Y020728D01*
X011509Y020777D01*
X011461Y020825D01*
X011364Y020825D01*
X011316Y020777D01*
X011316Y020535D02*
X011509Y020535D01*
X011610Y020583D02*
X011804Y020777D01*
X011804Y020583D01*
X011755Y020535D01*
X011659Y020535D01*
X011610Y020583D01*
X011610Y020777D01*
X011659Y020825D01*
X011755Y020825D01*
X011804Y020777D01*
X012421Y020825D02*
X012421Y020535D01*
X012421Y020632D02*
X012566Y020632D01*
X012615Y020680D01*
X012615Y020777D01*
X012566Y020825D01*
X012421Y020825D01*
X012518Y020632D02*
X012615Y020535D01*
X012716Y020535D02*
X012909Y020728D01*
X012909Y020777D01*
X012861Y020825D01*
X012764Y020825D01*
X012716Y020777D01*
X012716Y020535D02*
X012909Y020535D01*
X013010Y020583D02*
X013059Y020535D01*
X013155Y020535D01*
X013204Y020583D01*
X013204Y020632D01*
X013155Y020680D01*
X013107Y020680D01*
X013155Y020680D02*
X013204Y020728D01*
X013204Y020777D01*
X013155Y020825D01*
X013059Y020825D01*
X013010Y020777D01*
X013905Y020845D02*
X013905Y020555D01*
X013905Y020652D02*
X014050Y020652D01*
X014098Y020700D01*
X014098Y020797D01*
X014050Y020845D01*
X013905Y020845D01*
X014002Y020652D02*
X014098Y020555D01*
X014200Y020555D02*
X014393Y020748D01*
X014393Y020797D01*
X014345Y020845D01*
X014248Y020845D01*
X014200Y020797D01*
X014200Y020555D02*
X014393Y020555D01*
X014494Y020700D02*
X014688Y020700D01*
X014639Y020555D02*
X014639Y020845D01*
X014494Y020700D01*
X015305Y020652D02*
X015450Y020652D01*
X015498Y020700D01*
X015498Y020797D01*
X015450Y020845D01*
X015305Y020845D01*
X015305Y020555D01*
X015402Y020652D02*
X015498Y020555D01*
X015600Y020603D02*
X015648Y020555D01*
X015745Y020555D01*
X015793Y020603D01*
X015793Y020652D01*
X015745Y020700D01*
X015696Y020700D01*
X015745Y020700D02*
X015793Y020748D01*
X015793Y020797D01*
X015745Y020845D01*
X015648Y020845D01*
X015600Y020797D01*
X015894Y020797D02*
X015943Y020845D01*
X016039Y020845D01*
X016088Y020797D01*
X016088Y020748D01*
X015894Y020555D01*
X016088Y020555D01*
X015907Y019925D02*
X015907Y019635D01*
X015810Y019635D02*
X016004Y019635D01*
X015810Y019828D02*
X015907Y019925D01*
X015709Y019877D02*
X015661Y019925D01*
X015564Y019925D01*
X015516Y019877D01*
X015415Y019877D02*
X015366Y019925D01*
X015269Y019925D01*
X015221Y019877D01*
X015221Y019683D01*
X015269Y019635D01*
X015366Y019635D01*
X015415Y019683D01*
X015516Y019635D02*
X015709Y019828D01*
X015709Y019877D01*
X015709Y019635D02*
X015516Y019635D01*
X015548Y019045D02*
X015500Y018997D01*
X015548Y019045D02*
X015645Y019045D01*
X015693Y018997D01*
X015693Y018948D01*
X015500Y018755D01*
X015693Y018755D01*
X015794Y018803D02*
X015843Y018755D01*
X015939Y018755D01*
X015988Y018803D01*
X015988Y018900D01*
X015939Y018948D01*
X015891Y018948D01*
X015794Y018900D01*
X015794Y019045D01*
X015988Y019045D01*
X015398Y018997D02*
X015398Y018900D01*
X015350Y018852D01*
X015205Y018852D01*
X015302Y018852D02*
X015398Y018755D01*
X015205Y018755D02*
X015205Y019045D01*
X015350Y019045D01*
X015398Y018997D01*
X014788Y018997D02*
X014788Y018803D01*
X014739Y018755D01*
X014643Y018755D01*
X014594Y018803D01*
X014643Y018900D02*
X014788Y018900D01*
X014788Y018997D02*
X014739Y019045D01*
X014643Y019045D01*
X014594Y018997D01*
X014594Y018948D01*
X014643Y018900D01*
X014493Y018755D02*
X014300Y018755D01*
X014396Y018755D02*
X014396Y019045D01*
X014300Y018948D01*
X014198Y018997D02*
X014150Y019045D01*
X014053Y019045D01*
X014005Y018997D01*
X014005Y018803D01*
X014053Y018755D01*
X014150Y018755D01*
X014198Y018803D01*
X014248Y017145D02*
X014200Y017097D01*
X014248Y017145D02*
X014345Y017145D01*
X014393Y017097D01*
X014393Y017048D01*
X014200Y016855D01*
X014393Y016855D01*
X014494Y016903D02*
X014688Y017097D01*
X014688Y016903D01*
X014639Y016855D01*
X014543Y016855D01*
X014494Y016903D01*
X014494Y017097D01*
X014543Y017145D01*
X014639Y017145D01*
X014688Y017097D01*
X015305Y017097D02*
X015305Y016903D01*
X015353Y016855D01*
X015450Y016855D01*
X015498Y016903D01*
X015600Y016855D02*
X015793Y017048D01*
X015793Y017097D01*
X015745Y017145D01*
X015648Y017145D01*
X015600Y017097D01*
X015498Y017097D02*
X015450Y017145D01*
X015353Y017145D01*
X015305Y017097D01*
X015600Y016855D02*
X015793Y016855D01*
X015894Y017000D02*
X016088Y017000D01*
X016039Y016855D02*
X016039Y017145D01*
X015894Y017000D01*
X014098Y016903D02*
X014050Y016855D01*
X013953Y016855D01*
X013905Y016903D01*
X013905Y017097D01*
X013953Y017145D01*
X014050Y017145D01*
X014098Y017097D01*
X018221Y015125D02*
X018221Y014835D01*
X018221Y014932D02*
X018366Y014932D01*
X018415Y014980D01*
X018415Y015077D01*
X018366Y015125D01*
X018221Y015125D01*
X018318Y014932D02*
X018415Y014835D01*
X018516Y014835D02*
X018709Y015028D01*
X018709Y015077D01*
X018661Y015125D01*
X018564Y015125D01*
X018516Y015077D01*
X018516Y014835D02*
X018709Y014835D01*
X018810Y014883D02*
X018859Y014835D01*
X018955Y014835D01*
X019004Y014883D01*
X019004Y014932D01*
X018955Y014980D01*
X018859Y014980D01*
X018810Y015028D01*
X018810Y015077D01*
X018859Y015125D01*
X018955Y015125D01*
X019004Y015077D01*
X019004Y015028D01*
X018955Y014980D01*
X018859Y014980D02*
X018810Y014932D01*
X018810Y014883D01*
X019604Y014930D02*
X019749Y014930D01*
X019797Y014979D01*
X019797Y015075D01*
X019749Y015124D01*
X019604Y015124D01*
X019604Y014833D01*
X019700Y014930D02*
X019797Y014833D01*
X019898Y014833D02*
X020092Y015027D01*
X020092Y015075D01*
X020043Y015124D01*
X019947Y015124D01*
X019898Y015075D01*
X019898Y014833D02*
X020092Y014833D01*
X020193Y014833D02*
X020193Y014882D01*
X020387Y015075D01*
X020387Y015124D01*
X020193Y015124D01*
X021021Y015125D02*
X021021Y014835D01*
X021021Y014932D02*
X021166Y014932D01*
X021215Y014980D01*
X021215Y015077D01*
X021166Y015125D01*
X021021Y015125D01*
X021118Y014932D02*
X021215Y014835D01*
X021316Y014835D02*
X021509Y015028D01*
X021509Y015077D01*
X021461Y015125D01*
X021364Y015125D01*
X021316Y015077D01*
X021316Y014835D02*
X021509Y014835D01*
X021610Y014883D02*
X021659Y014835D01*
X021755Y014835D01*
X021804Y014883D01*
X021804Y014932D01*
X021755Y014980D01*
X021610Y014980D01*
X021610Y014883D01*
X021610Y014980D02*
X021707Y015077D01*
X021804Y015125D01*
X009464Y014786D02*
X009416Y014834D01*
X009319Y014834D01*
X009271Y014786D01*
X009169Y014786D02*
X009121Y014834D01*
X009024Y014834D01*
X008976Y014786D01*
X008875Y014786D02*
X008826Y014834D01*
X008730Y014834D01*
X008681Y014786D01*
X008681Y014592D01*
X008730Y014544D01*
X008826Y014544D01*
X008875Y014592D01*
X008976Y014544D02*
X009169Y014737D01*
X009169Y014786D01*
X009169Y014544D02*
X008976Y014544D01*
X009271Y014544D02*
X009464Y014737D01*
X009464Y014786D01*
X009464Y014544D02*
X009271Y014544D01*
X008404Y013825D02*
X008210Y013825D01*
X008210Y013680D01*
X008307Y013728D01*
X008355Y013728D01*
X008404Y013680D01*
X008404Y013583D01*
X008355Y013535D01*
X008259Y013535D01*
X008210Y013583D01*
X008109Y013535D02*
X007916Y013535D01*
X008012Y013535D02*
X008012Y013825D01*
X007916Y013728D01*
X007815Y013777D02*
X007766Y013825D01*
X007669Y013825D01*
X007621Y013777D01*
X007621Y013583D01*
X007669Y013535D01*
X007766Y013535D01*
X007815Y013583D01*
X007188Y013700D02*
X006994Y013700D01*
X007139Y013845D01*
X007139Y013555D01*
X006893Y013555D02*
X006700Y013555D01*
X006796Y013555D02*
X006796Y013845D01*
X006700Y013748D01*
X006598Y013700D02*
X006550Y013652D01*
X006405Y013652D01*
X006502Y013652D02*
X006598Y013555D01*
X006598Y013700D02*
X006598Y013797D01*
X006550Y013845D01*
X006405Y013845D01*
X006405Y013555D01*
X006405Y012845D02*
X006550Y012845D01*
X006598Y012797D01*
X006598Y012700D01*
X006550Y012652D01*
X006405Y012652D01*
X006502Y012652D02*
X006598Y012555D01*
X006700Y012555D02*
X006893Y012555D01*
X006796Y012555D02*
X006796Y012845D01*
X006700Y012748D01*
X006994Y012797D02*
X007043Y012845D01*
X007139Y012845D01*
X007188Y012797D01*
X007188Y012748D01*
X007139Y012700D01*
X007188Y012652D01*
X007188Y012603D01*
X007139Y012555D01*
X007043Y012555D01*
X006994Y012603D01*
X007091Y012700D02*
X007139Y012700D01*
X007621Y012777D02*
X007621Y012583D01*
X007669Y012535D01*
X007766Y012535D01*
X007815Y012583D01*
X007916Y012535D02*
X008109Y012535D01*
X008012Y012535D02*
X008012Y012825D01*
X007916Y012728D01*
X007815Y012777D02*
X007766Y012825D01*
X007669Y012825D01*
X007621Y012777D01*
X008210Y012777D02*
X008259Y012825D01*
X008355Y012825D01*
X008404Y012777D01*
X008404Y012728D01*
X008210Y012535D01*
X008404Y012535D01*
X008307Y011825D02*
X008307Y011535D01*
X008210Y011535D02*
X008404Y011535D01*
X008210Y011728D02*
X008307Y011825D01*
X008012Y011825D02*
X008012Y011535D01*
X007916Y011535D02*
X008109Y011535D01*
X007916Y011728D02*
X008012Y011825D01*
X007815Y011777D02*
X007766Y011825D01*
X007669Y011825D01*
X007621Y011777D01*
X007621Y011583D01*
X007669Y011535D01*
X007766Y011535D01*
X007815Y011583D01*
X007188Y011555D02*
X006994Y011555D01*
X007188Y011748D01*
X007188Y011797D01*
X007139Y011845D01*
X007043Y011845D01*
X006994Y011797D01*
X006796Y011845D02*
X006796Y011555D01*
X006700Y011555D02*
X006893Y011555D01*
X006700Y011748D02*
X006796Y011845D01*
X006598Y011797D02*
X006598Y011700D01*
X006550Y011652D01*
X006405Y011652D01*
X006502Y011652D02*
X006598Y011555D01*
X006405Y011555D02*
X006405Y011845D01*
X006550Y011845D01*
X006598Y011797D01*
X006405Y012555D02*
X006405Y012845D01*
X006405Y010845D02*
X006550Y010845D01*
X006598Y010797D01*
X006598Y010700D01*
X006550Y010652D01*
X006405Y010652D01*
X006502Y010652D02*
X006598Y010555D01*
X006700Y010603D02*
X006748Y010555D01*
X006845Y010555D01*
X006893Y010603D01*
X006893Y010652D01*
X006845Y010700D01*
X006700Y010700D01*
X006700Y010603D01*
X006700Y010700D02*
X006796Y010797D01*
X006893Y010845D01*
X006405Y010845D02*
X006405Y010555D01*
X007621Y010583D02*
X007669Y010535D01*
X007766Y010535D01*
X007815Y010583D01*
X007916Y010535D02*
X008109Y010535D01*
X008012Y010535D02*
X008012Y010825D01*
X007916Y010728D01*
X007815Y010777D02*
X007766Y010825D01*
X007669Y010825D01*
X007621Y010777D01*
X007621Y010583D01*
X008210Y010583D02*
X008259Y010535D01*
X008355Y010535D01*
X008404Y010583D01*
X008404Y010777D01*
X008210Y010583D01*
X008210Y010777D01*
X008259Y010825D01*
X008355Y010825D01*
X008404Y010777D01*
X007287Y009231D02*
X007384Y009134D01*
X007384Y008941D01*
X007384Y009086D02*
X007190Y009086D01*
X007190Y009134D02*
X007190Y008941D01*
X007089Y009086D02*
X006896Y009086D01*
X006794Y009086D02*
X006601Y009086D01*
X006601Y008941D02*
X006601Y009231D01*
X006500Y009231D02*
X006306Y008941D01*
X006205Y009086D02*
X006012Y009086D01*
X005911Y009134D02*
X005862Y009086D01*
X005717Y009086D01*
X005616Y009086D02*
X005422Y009086D01*
X005567Y009231D01*
X005567Y008941D01*
X005717Y008941D02*
X005717Y009231D01*
X005862Y009231D01*
X005911Y009182D01*
X005911Y009134D01*
X005862Y009086D02*
X005911Y009037D01*
X005911Y008989D01*
X005862Y008941D01*
X005717Y008941D01*
X005321Y008989D02*
X005273Y008941D01*
X005176Y008941D01*
X005128Y008989D01*
X005176Y009086D02*
X005273Y009086D01*
X005321Y009037D01*
X005321Y008989D01*
X005176Y009086D02*
X005128Y009134D01*
X005128Y009182D01*
X005176Y009231D01*
X005273Y009231D01*
X005321Y009182D01*
X005027Y009086D02*
X004833Y009086D01*
X004732Y009231D02*
X004538Y009231D01*
X004635Y009231D02*
X004635Y008941D01*
X004437Y008989D02*
X004389Y008941D01*
X004292Y008941D01*
X004244Y008989D01*
X004292Y009086D02*
X004389Y009086D01*
X004437Y009037D01*
X004437Y008989D01*
X004292Y009086D02*
X004244Y009134D01*
X004244Y009182D01*
X004292Y009231D01*
X004389Y009231D01*
X004437Y009182D01*
X006306Y009231D02*
X006500Y008941D01*
X006794Y008941D02*
X006794Y009231D01*
X007190Y009134D02*
X007287Y009231D01*
X004331Y007416D02*
X004234Y007319D01*
X004133Y007319D02*
X004133Y007368D01*
X004085Y007416D01*
X003988Y007416D01*
X003939Y007368D01*
X003838Y007368D02*
X003838Y007271D01*
X003790Y007223D01*
X003645Y007223D01*
X003742Y007223D02*
X003838Y007126D01*
X003939Y007126D02*
X004133Y007319D01*
X004133Y007126D02*
X003939Y007126D01*
X003838Y007368D02*
X003790Y007416D01*
X003645Y007416D01*
X003645Y007126D01*
X004234Y007126D02*
X004428Y007126D01*
X004331Y007126D02*
X004331Y007416D01*
X020455Y007703D02*
X020503Y007655D01*
X020600Y007655D01*
X020648Y007703D01*
X020648Y007945D01*
X020750Y007897D02*
X020798Y007945D01*
X020895Y007945D01*
X020943Y007897D01*
X020943Y007848D01*
X020750Y007655D01*
X020943Y007655D01*
X020455Y007703D02*
X020455Y007945D01*
X037885Y014203D02*
X037933Y014155D01*
X038127Y014155D01*
X038175Y014203D01*
X038175Y014300D01*
X038127Y014348D01*
X038127Y014450D02*
X038175Y014450D01*
X038127Y014450D02*
X037933Y014643D01*
X037885Y014643D01*
X037885Y014450D01*
X037933Y014348D02*
X037885Y014300D01*
X037885Y014203D01*
X038355Y005695D02*
X038500Y005695D01*
X038548Y005647D01*
X038548Y005453D01*
X038500Y005405D01*
X038355Y005405D01*
X038355Y005695D01*
X038650Y005598D02*
X038746Y005695D01*
X038746Y005405D01*
X038650Y005405D02*
X038843Y005405D01*
D12*
X039576Y005569D02*
X039674Y005569D01*
X039871Y005569D02*
X039871Y005471D01*
X039871Y005569D02*
X040265Y005569D01*
X040265Y005471D02*
X040265Y005668D01*
X040265Y005876D02*
X040265Y006073D01*
X040265Y005974D02*
X039674Y005974D01*
X039674Y005876D01*
X039970Y006281D02*
X039871Y006379D01*
X039871Y006576D01*
X039970Y006675D01*
X040068Y006675D01*
X040068Y006281D01*
X039970Y006281D02*
X040167Y006281D01*
X040265Y006379D01*
X040265Y006576D01*
X040167Y007497D02*
X039674Y007497D01*
X039674Y007890D02*
X040167Y007890D01*
X040265Y007792D01*
X040265Y007595D01*
X040167Y007497D01*
X040167Y008104D02*
X040265Y008203D01*
X040265Y008399D01*
X040167Y008498D01*
X040068Y008498D01*
X039970Y008399D01*
X039970Y008203D01*
X039871Y008104D01*
X039773Y008104D01*
X039674Y008203D01*
X039674Y008399D01*
X039773Y008498D01*
X039674Y008712D02*
X039674Y009007D01*
X039773Y009106D01*
X039871Y009106D01*
X039970Y009007D01*
X039970Y008712D01*
X040265Y008712D02*
X040265Y009007D01*
X040167Y009106D01*
X040068Y009106D01*
X039970Y009007D01*
X040265Y008712D02*
X039674Y008712D01*
X039674Y009927D02*
X039674Y010223D01*
X039773Y010321D01*
X039871Y010321D01*
X039970Y010223D01*
X039970Y009927D01*
X040265Y009927D02*
X040265Y010223D01*
X040167Y010321D01*
X040068Y010321D01*
X039970Y010223D01*
X040167Y010535D02*
X040068Y010634D01*
X040068Y010929D01*
X039970Y010929D02*
X040265Y010929D01*
X040265Y010634D01*
X040167Y010535D01*
X039871Y010634D02*
X039871Y010830D01*
X039970Y010929D01*
X039871Y011143D02*
X039871Y011340D01*
X039773Y011241D02*
X040167Y011241D01*
X040265Y011340D01*
X040167Y011646D02*
X039773Y011646D01*
X039871Y011548D02*
X039871Y011745D01*
X039970Y011953D02*
X039871Y012052D01*
X039871Y012248D01*
X039970Y012347D01*
X040068Y012347D01*
X040068Y011953D01*
X039970Y011953D02*
X040167Y011953D01*
X040265Y012052D01*
X040265Y012248D01*
X040265Y012561D02*
X039871Y012561D01*
X040068Y012561D02*
X039871Y012758D01*
X039871Y012856D01*
X039871Y013067D02*
X040167Y013067D01*
X040265Y013166D01*
X040265Y013461D01*
X040363Y013461D02*
X040462Y013363D01*
X040462Y013264D01*
X040363Y013461D02*
X039871Y013461D01*
X040265Y011745D02*
X040167Y011646D01*
X040265Y009927D02*
X039674Y009927D01*
X039970Y005257D02*
X039871Y005158D01*
X039871Y004863D01*
X039674Y004863D02*
X040265Y004863D01*
X040265Y005158D01*
X040167Y005257D01*
X039970Y005257D01*
X039970Y004649D02*
X039871Y004551D01*
X039871Y004354D01*
X039970Y004255D01*
X040167Y004255D01*
X040265Y004354D01*
X040265Y004551D01*
X040167Y004649D01*
X039970Y004649D01*
X040265Y004041D02*
X039674Y004041D01*
X039871Y003844D01*
X039674Y003648D01*
X040265Y003648D01*
X040207Y015475D02*
X039813Y015475D01*
X039714Y015573D01*
X039714Y015770D01*
X039813Y015869D01*
X040010Y015869D01*
X040108Y015770D01*
X039911Y015770D01*
X039911Y015573D01*
X040108Y015573D01*
X040108Y015770D01*
X040207Y015869D02*
X040305Y015770D01*
X040305Y015573D01*
X040207Y015475D01*
X040403Y016083D02*
X040403Y016476D01*
X040305Y016690D02*
X040305Y016986D01*
X040207Y017084D01*
X040108Y016986D01*
X040108Y016789D01*
X040010Y016690D01*
X039911Y016789D01*
X039911Y017084D01*
X039911Y017298D02*
X039911Y017495D01*
X039813Y017397D02*
X040207Y017397D01*
X040305Y017495D01*
X040305Y017703D02*
X039911Y017703D01*
X040108Y017703D02*
X039911Y017900D01*
X039911Y017999D01*
X040010Y018210D02*
X040207Y018210D01*
X040305Y018308D01*
X040305Y018505D01*
X040207Y018603D01*
X040010Y018603D01*
X039911Y018505D01*
X039911Y018308D01*
X040010Y018210D01*
X039911Y018817D02*
X039911Y019113D01*
X040010Y019211D01*
X040207Y019211D01*
X040305Y019113D01*
X040305Y018817D01*
X039714Y018817D01*
X040010Y019425D02*
X040207Y019425D01*
X040305Y019524D01*
X040305Y019720D01*
X040207Y019819D01*
X040010Y019819D01*
X039911Y019720D01*
X039911Y019524D01*
X040010Y019425D01*
X007061Y019915D02*
X006667Y019915D01*
X007061Y020309D01*
X007061Y020407D01*
X006963Y020506D01*
X006766Y020506D01*
X006667Y020407D01*
X006453Y020407D02*
X006453Y020309D01*
X006060Y019915D01*
X006453Y019915D01*
X005846Y019915D02*
X005452Y019915D01*
X005846Y020309D01*
X005846Y020407D01*
X005747Y020506D01*
X005550Y020506D01*
X005452Y020407D01*
X005238Y020407D02*
X004844Y020013D01*
X004943Y019915D01*
X005139Y019915D01*
X005238Y020013D01*
X005238Y020407D01*
X005139Y020506D01*
X004943Y020506D01*
X004844Y020407D01*
X004844Y020013D01*
X004630Y020013D02*
X004630Y020210D01*
X004532Y020309D01*
X004433Y020309D01*
X004236Y020210D01*
X004236Y020506D01*
X004630Y020506D01*
X004630Y020013D02*
X004532Y019915D01*
X004335Y019915D01*
X004236Y020013D01*
X006060Y020407D02*
X006158Y020506D01*
X006355Y020506D01*
X006453Y020407D01*
D13*
X011440Y020240D03*
X012840Y020240D03*
X014240Y020240D03*
X015640Y020240D03*
X015640Y018440D03*
X018740Y015440D03*
X020123Y015438D03*
X021540Y015440D03*
X026240Y015440D03*
X027640Y015440D03*
X029040Y015440D03*
X031340Y014840D03*
X031340Y013940D03*
X032640Y013040D03*
X011240Y008340D03*
X011240Y007340D03*
X009040Y007340D03*
X009040Y008340D03*
X006740Y010240D03*
X006740Y011240D03*
X006740Y012240D03*
X006740Y013240D03*
X007340Y002440D03*
X004340Y002440D03*
D14*
X005840Y002452D02*
X005840Y002428D01*
X012628Y002440D02*
X012652Y002440D01*
X019428Y002440D02*
X019452Y002440D01*
X007652Y007140D02*
X007628Y007140D01*
X008040Y010228D02*
X008040Y010252D01*
X008040Y011228D02*
X008040Y011252D01*
X008040Y012228D02*
X008040Y012252D01*
X008040Y013228D02*
X008040Y013252D01*
X014340Y017428D02*
X014340Y017452D01*
X015640Y017452D02*
X015640Y017428D01*
X014340Y018428D02*
X014340Y018452D01*
X015640Y019328D02*
X015640Y019352D01*
X009940Y020228D02*
X009940Y020252D01*
X009452Y017940D02*
X009428Y017940D01*
X008552Y017940D02*
X008528Y017940D01*
X031340Y013052D02*
X031340Y013028D01*
D15*
X029450Y012310D02*
X028030Y012310D01*
X025776Y012358D02*
X025776Y012122D01*
X025304Y012122D02*
X025304Y012358D01*
X028030Y014170D02*
X029450Y014170D01*
X029618Y018886D02*
X029118Y021190D01*
X028618Y021190D01*
X028118Y018886D01*
X027118Y018886D02*
X026618Y021190D01*
X026118Y021190D01*
X025618Y018886D01*
X022138Y018886D02*
X021638Y021190D01*
X021138Y021190D01*
X020638Y018886D01*
X019638Y018886D02*
X019138Y021190D01*
X018638Y021190D01*
X018138Y018886D01*
X015350Y016670D02*
X013930Y016670D01*
X010976Y016358D02*
X010976Y016122D01*
X010504Y016122D02*
X010504Y016358D01*
X007550Y015549D02*
X007552Y015629D01*
X007558Y015708D01*
X007568Y015787D01*
X007582Y015866D01*
X007599Y015944D01*
X007621Y016021D01*
X007646Y016096D01*
X007676Y016170D01*
X007708Y016243D01*
X007745Y016314D01*
X007785Y016383D01*
X007828Y016450D01*
X007875Y016515D01*
X007924Y016577D01*
X007977Y016637D01*
X008033Y016694D01*
X008091Y016749D01*
X008152Y016800D01*
X008216Y016848D01*
X008282Y016893D01*
X008350Y016935D01*
X008420Y016973D01*
X008492Y017007D01*
X008565Y017038D01*
X008640Y017066D01*
X008717Y017089D01*
X008794Y017109D01*
X008872Y017125D01*
X008951Y017137D01*
X009030Y017145D01*
X009110Y017149D01*
X009190Y017149D01*
X009270Y017145D01*
X009349Y017137D01*
X009428Y017125D01*
X009506Y017109D01*
X009583Y017089D01*
X009660Y017066D01*
X009735Y017038D01*
X009808Y017007D01*
X009880Y016973D01*
X009950Y016935D01*
X010018Y016893D01*
X010084Y016848D01*
X010148Y016800D01*
X010209Y016749D01*
X010267Y016694D01*
X010323Y016637D01*
X010376Y016577D01*
X010425Y016515D01*
X010472Y016450D01*
X010515Y016383D01*
X010555Y016314D01*
X010592Y016243D01*
X010624Y016170D01*
X010654Y016096D01*
X010679Y016021D01*
X010701Y015944D01*
X010718Y015866D01*
X010732Y015787D01*
X010742Y015708D01*
X010748Y015629D01*
X010750Y015549D01*
X010748Y015469D01*
X010742Y015390D01*
X010732Y015311D01*
X010718Y015232D01*
X010701Y015154D01*
X010679Y015077D01*
X010654Y015002D01*
X010624Y014928D01*
X010592Y014855D01*
X010555Y014784D01*
X010515Y014715D01*
X010472Y014648D01*
X010425Y014583D01*
X010376Y014521D01*
X010323Y014461D01*
X010267Y014404D01*
X010209Y014349D01*
X010148Y014298D01*
X010084Y014250D01*
X010018Y014205D01*
X009950Y014163D01*
X009880Y014125D01*
X009808Y014091D01*
X009735Y014060D01*
X009660Y014032D01*
X009583Y014009D01*
X009506Y013989D01*
X009428Y013973D01*
X009349Y013961D01*
X009270Y013953D01*
X009190Y013949D01*
X009110Y013949D01*
X009030Y013953D01*
X008951Y013961D01*
X008872Y013973D01*
X008794Y013989D01*
X008717Y014009D01*
X008640Y014032D01*
X008565Y014060D01*
X008492Y014091D01*
X008420Y014125D01*
X008350Y014163D01*
X008282Y014205D01*
X008216Y014250D01*
X008152Y014298D01*
X008091Y014349D01*
X008033Y014404D01*
X007977Y014461D01*
X007924Y014521D01*
X007875Y014583D01*
X007828Y014648D01*
X007785Y014715D01*
X007745Y014784D01*
X007708Y014855D01*
X007676Y014928D01*
X007646Y015002D01*
X007621Y015077D01*
X007599Y015154D01*
X007582Y015232D01*
X007568Y015311D01*
X007558Y015390D01*
X007552Y015469D01*
X007550Y015549D01*
X010200Y015099D02*
X010500Y015099D01*
X010350Y015249D02*
X010350Y014949D01*
X013930Y014810D02*
X015350Y014810D01*
X013420Y010820D02*
X012250Y010820D01*
X010858Y010476D02*
X010622Y010476D01*
X010622Y010004D02*
X010858Y010004D01*
X012250Y009660D02*
X013420Y009660D01*
X014590Y008890D02*
X014590Y008590D01*
X014440Y008740D02*
X014740Y008740D01*
X012540Y007540D02*
X012542Y007620D01*
X012548Y007699D01*
X012558Y007778D01*
X012572Y007857D01*
X012589Y007935D01*
X012611Y008012D01*
X012636Y008087D01*
X012666Y008161D01*
X012698Y008234D01*
X012735Y008305D01*
X012775Y008374D01*
X012818Y008441D01*
X012865Y008506D01*
X012914Y008568D01*
X012967Y008628D01*
X013023Y008685D01*
X013081Y008740D01*
X013142Y008791D01*
X013206Y008839D01*
X013272Y008884D01*
X013340Y008926D01*
X013410Y008964D01*
X013482Y008998D01*
X013555Y009029D01*
X013630Y009057D01*
X013707Y009080D01*
X013784Y009100D01*
X013862Y009116D01*
X013941Y009128D01*
X014020Y009136D01*
X014100Y009140D01*
X014180Y009140D01*
X014260Y009136D01*
X014339Y009128D01*
X014418Y009116D01*
X014496Y009100D01*
X014573Y009080D01*
X014650Y009057D01*
X014725Y009029D01*
X014798Y008998D01*
X014870Y008964D01*
X014940Y008926D01*
X015008Y008884D01*
X015074Y008839D01*
X015138Y008791D01*
X015199Y008740D01*
X015257Y008685D01*
X015313Y008628D01*
X015366Y008568D01*
X015415Y008506D01*
X015462Y008441D01*
X015505Y008374D01*
X015545Y008305D01*
X015582Y008234D01*
X015614Y008161D01*
X015644Y008087D01*
X015669Y008012D01*
X015691Y007935D01*
X015708Y007857D01*
X015722Y007778D01*
X015732Y007699D01*
X015738Y007620D01*
X015740Y007540D01*
X015738Y007460D01*
X015732Y007381D01*
X015722Y007302D01*
X015708Y007223D01*
X015691Y007145D01*
X015669Y007068D01*
X015644Y006993D01*
X015614Y006919D01*
X015582Y006846D01*
X015545Y006775D01*
X015505Y006706D01*
X015462Y006639D01*
X015415Y006574D01*
X015366Y006512D01*
X015313Y006452D01*
X015257Y006395D01*
X015199Y006340D01*
X015138Y006289D01*
X015074Y006241D01*
X015008Y006196D01*
X014940Y006154D01*
X014870Y006116D01*
X014798Y006082D01*
X014725Y006051D01*
X014650Y006023D01*
X014573Y006000D01*
X014496Y005980D01*
X014418Y005964D01*
X014339Y005952D01*
X014260Y005944D01*
X014180Y005940D01*
X014100Y005940D01*
X014020Y005944D01*
X013941Y005952D01*
X013862Y005964D01*
X013784Y005980D01*
X013707Y006000D01*
X013630Y006023D01*
X013555Y006051D01*
X013482Y006082D01*
X013410Y006116D01*
X013340Y006154D01*
X013272Y006196D01*
X013206Y006241D01*
X013142Y006289D01*
X013081Y006340D01*
X013023Y006395D01*
X012967Y006452D01*
X012914Y006512D01*
X012865Y006574D01*
X012818Y006639D01*
X012775Y006706D01*
X012735Y006775D01*
X012698Y006846D01*
X012666Y006919D01*
X012636Y006993D01*
X012611Y007068D01*
X012589Y007145D01*
X012572Y007223D01*
X012558Y007302D01*
X012548Y007381D01*
X012542Y007460D01*
X012540Y007540D01*
X012470Y005750D02*
X012470Y004330D01*
X013790Y004190D02*
X013790Y003790D01*
X013790Y004190D02*
X013792Y004207D01*
X013796Y004224D01*
X013803Y004240D01*
X013813Y004254D01*
X013826Y004267D01*
X013840Y004277D01*
X013856Y004284D01*
X013873Y004288D01*
X013890Y004290D01*
X018190Y004290D01*
X018207Y004288D01*
X018224Y004284D01*
X018240Y004277D01*
X018254Y004267D01*
X018267Y004254D01*
X018277Y004240D01*
X018284Y004224D01*
X018288Y004207D01*
X018290Y004190D01*
X018290Y003790D01*
X018290Y002890D02*
X018290Y002490D01*
X018288Y002473D01*
X018284Y002456D01*
X018277Y002440D01*
X018267Y002426D01*
X018254Y002413D01*
X018240Y002403D01*
X018224Y002396D01*
X018207Y002392D01*
X018190Y002390D01*
X013890Y002390D01*
X013873Y002392D01*
X013856Y002396D01*
X013840Y002403D01*
X013826Y002413D01*
X013813Y002426D01*
X013803Y002440D01*
X013796Y002456D01*
X013792Y002473D01*
X013790Y002490D01*
X013790Y002890D01*
X015790Y003090D02*
X015790Y003340D01*
X015790Y003590D01*
X015940Y003590D02*
X016140Y003590D01*
X016140Y003090D01*
X015940Y003090D01*
X015940Y003590D01*
X016290Y003590D02*
X016290Y003340D01*
X016290Y003090D01*
X010610Y004330D02*
X010610Y005750D01*
X010270Y005750D02*
X010270Y004330D01*
X008410Y004330D02*
X008410Y005750D01*
X008490Y002940D02*
X010190Y002940D01*
X010207Y002938D01*
X010224Y002934D01*
X010240Y002927D01*
X010254Y002917D01*
X010267Y002904D01*
X010277Y002890D01*
X010284Y002874D01*
X010288Y002857D01*
X010290Y002840D01*
X010290Y002240D01*
X010288Y002223D01*
X010284Y002206D01*
X010277Y002190D01*
X010267Y002176D01*
X010254Y002163D01*
X010240Y002153D01*
X010224Y002146D01*
X010207Y002142D01*
X010190Y002140D01*
X008490Y002140D01*
X008473Y002142D01*
X008456Y002146D01*
X008440Y002153D01*
X008426Y002163D01*
X008413Y002176D01*
X008403Y002190D01*
X008396Y002206D01*
X008392Y002223D01*
X008390Y002240D01*
X008390Y002840D01*
X008392Y002857D01*
X008396Y002874D01*
X008403Y002890D01*
X008413Y002904D01*
X008426Y002917D01*
X008440Y002927D01*
X008456Y002934D01*
X008473Y002938D01*
X008490Y002940D01*
X002126Y003115D02*
X002128Y003167D01*
X002134Y003219D01*
X002144Y003270D01*
X002157Y003320D01*
X002175Y003370D01*
X002196Y003417D01*
X002220Y003463D01*
X002249Y003507D01*
X002280Y003549D01*
X002314Y003588D01*
X002351Y003625D01*
X002391Y003658D01*
X002434Y003689D01*
X002478Y003716D01*
X002524Y003740D01*
X002573Y003760D01*
X002622Y003776D01*
X002673Y003789D01*
X002724Y003798D01*
X002776Y003803D01*
X002828Y003804D01*
X002880Y003801D01*
X002932Y003794D01*
X002983Y003783D01*
X003033Y003769D01*
X003082Y003750D01*
X003129Y003728D01*
X003174Y003703D01*
X003218Y003674D01*
X003259Y003642D01*
X003298Y003607D01*
X003333Y003569D01*
X003366Y003528D01*
X003396Y003486D01*
X003422Y003441D01*
X003445Y003394D01*
X003464Y003345D01*
X003480Y003295D01*
X003492Y003245D01*
X003500Y003193D01*
X003504Y003141D01*
X003504Y003089D01*
X003500Y003037D01*
X003492Y002985D01*
X003480Y002935D01*
X003464Y002885D01*
X003445Y002836D01*
X003422Y002789D01*
X003396Y002744D01*
X003366Y002702D01*
X003333Y002661D01*
X003298Y002623D01*
X003259Y002588D01*
X003218Y002556D01*
X003174Y002527D01*
X003129Y002502D01*
X003082Y002480D01*
X003033Y002461D01*
X002983Y002447D01*
X002932Y002436D01*
X002880Y002429D01*
X002828Y002426D01*
X002776Y002427D01*
X002724Y002432D01*
X002673Y002441D01*
X002622Y002454D01*
X002573Y002470D01*
X002524Y002490D01*
X002478Y002514D01*
X002434Y002541D01*
X002391Y002572D01*
X002351Y002605D01*
X002314Y002642D01*
X002280Y002681D01*
X002249Y002723D01*
X002220Y002767D01*
X002196Y002813D01*
X002175Y002860D01*
X002157Y002910D01*
X002144Y002960D01*
X002134Y003011D01*
X002128Y003063D01*
X002126Y003115D01*
X002126Y019650D02*
X002128Y019702D01*
X002134Y019754D01*
X002144Y019805D01*
X002157Y019855D01*
X002175Y019905D01*
X002196Y019952D01*
X002220Y019998D01*
X002249Y020042D01*
X002280Y020084D01*
X002314Y020123D01*
X002351Y020160D01*
X002391Y020193D01*
X002434Y020224D01*
X002478Y020251D01*
X002524Y020275D01*
X002573Y020295D01*
X002622Y020311D01*
X002673Y020324D01*
X002724Y020333D01*
X002776Y020338D01*
X002828Y020339D01*
X002880Y020336D01*
X002932Y020329D01*
X002983Y020318D01*
X003033Y020304D01*
X003082Y020285D01*
X003129Y020263D01*
X003174Y020238D01*
X003218Y020209D01*
X003259Y020177D01*
X003298Y020142D01*
X003333Y020104D01*
X003366Y020063D01*
X003396Y020021D01*
X003422Y019976D01*
X003445Y019929D01*
X003464Y019880D01*
X003480Y019830D01*
X003492Y019780D01*
X003500Y019728D01*
X003504Y019676D01*
X003504Y019624D01*
X003500Y019572D01*
X003492Y019520D01*
X003480Y019470D01*
X003464Y019420D01*
X003445Y019371D01*
X003422Y019324D01*
X003396Y019279D01*
X003366Y019237D01*
X003333Y019196D01*
X003298Y019158D01*
X003259Y019123D01*
X003218Y019091D01*
X003174Y019062D01*
X003129Y019037D01*
X003082Y019015D01*
X003033Y018996D01*
X002983Y018982D01*
X002932Y018971D01*
X002880Y018964D01*
X002828Y018961D01*
X002776Y018962D01*
X002724Y018967D01*
X002673Y018976D01*
X002622Y018989D01*
X002573Y019005D01*
X002524Y019025D01*
X002478Y019049D01*
X002434Y019076D01*
X002391Y019107D01*
X002351Y019140D01*
X002314Y019177D01*
X002280Y019216D01*
X002249Y019258D01*
X002220Y019302D01*
X002196Y019348D01*
X002175Y019395D01*
X002157Y019445D01*
X002144Y019495D01*
X002134Y019546D01*
X002128Y019598D01*
X002126Y019650D01*
X033098Y018886D02*
X033598Y021190D01*
X034098Y021190D01*
X034598Y018886D01*
X035598Y018886D02*
X036098Y021190D01*
X036598Y021190D01*
X037098Y018886D01*
X038346Y019650D02*
X038348Y019702D01*
X038354Y019754D01*
X038364Y019805D01*
X038377Y019855D01*
X038395Y019905D01*
X038416Y019952D01*
X038440Y019998D01*
X038469Y020042D01*
X038500Y020084D01*
X038534Y020123D01*
X038571Y020160D01*
X038611Y020193D01*
X038654Y020224D01*
X038698Y020251D01*
X038744Y020275D01*
X038793Y020295D01*
X038842Y020311D01*
X038893Y020324D01*
X038944Y020333D01*
X038996Y020338D01*
X039048Y020339D01*
X039100Y020336D01*
X039152Y020329D01*
X039203Y020318D01*
X039253Y020304D01*
X039302Y020285D01*
X039349Y020263D01*
X039394Y020238D01*
X039438Y020209D01*
X039479Y020177D01*
X039518Y020142D01*
X039553Y020104D01*
X039586Y020063D01*
X039616Y020021D01*
X039642Y019976D01*
X039665Y019929D01*
X039684Y019880D01*
X039700Y019830D01*
X039712Y019780D01*
X039720Y019728D01*
X039724Y019676D01*
X039724Y019624D01*
X039720Y019572D01*
X039712Y019520D01*
X039700Y019470D01*
X039684Y019420D01*
X039665Y019371D01*
X039642Y019324D01*
X039616Y019279D01*
X039586Y019237D01*
X039553Y019196D01*
X039518Y019158D01*
X039479Y019123D01*
X039438Y019091D01*
X039394Y019062D01*
X039349Y019037D01*
X039302Y019015D01*
X039253Y018996D01*
X039203Y018982D01*
X039152Y018971D01*
X039100Y018964D01*
X039048Y018961D01*
X038996Y018962D01*
X038944Y018967D01*
X038893Y018976D01*
X038842Y018989D01*
X038793Y019005D01*
X038744Y019025D01*
X038698Y019049D01*
X038654Y019076D01*
X038611Y019107D01*
X038571Y019140D01*
X038534Y019177D01*
X038500Y019216D01*
X038469Y019258D01*
X038440Y019302D01*
X038416Y019348D01*
X038395Y019395D01*
X038377Y019445D01*
X038364Y019495D01*
X038354Y019546D01*
X038348Y019598D01*
X038346Y019650D01*
X038346Y003115D02*
X038348Y003167D01*
X038354Y003219D01*
X038364Y003270D01*
X038377Y003320D01*
X038395Y003370D01*
X038416Y003417D01*
X038440Y003463D01*
X038469Y003507D01*
X038500Y003549D01*
X038534Y003588D01*
X038571Y003625D01*
X038611Y003658D01*
X038654Y003689D01*
X038698Y003716D01*
X038744Y003740D01*
X038793Y003760D01*
X038842Y003776D01*
X038893Y003789D01*
X038944Y003798D01*
X038996Y003803D01*
X039048Y003804D01*
X039100Y003801D01*
X039152Y003794D01*
X039203Y003783D01*
X039253Y003769D01*
X039302Y003750D01*
X039349Y003728D01*
X039394Y003703D01*
X039438Y003674D01*
X039479Y003642D01*
X039518Y003607D01*
X039553Y003569D01*
X039586Y003528D01*
X039616Y003486D01*
X039642Y003441D01*
X039665Y003394D01*
X039684Y003345D01*
X039700Y003295D01*
X039712Y003245D01*
X039720Y003193D01*
X039724Y003141D01*
X039724Y003089D01*
X039720Y003037D01*
X039712Y002985D01*
X039700Y002935D01*
X039684Y002885D01*
X039665Y002836D01*
X039642Y002789D01*
X039616Y002744D01*
X039586Y002702D01*
X039553Y002661D01*
X039518Y002623D01*
X039479Y002588D01*
X039438Y002556D01*
X039394Y002527D01*
X039349Y002502D01*
X039302Y002480D01*
X039253Y002461D01*
X039203Y002447D01*
X039152Y002436D01*
X039100Y002429D01*
X039048Y002426D01*
X038996Y002427D01*
X038944Y002432D01*
X038893Y002441D01*
X038842Y002454D01*
X038793Y002470D01*
X038744Y002490D01*
X038698Y002514D01*
X038654Y002541D01*
X038611Y002572D01*
X038571Y002605D01*
X038534Y002642D01*
X038500Y002681D01*
X038469Y002723D01*
X038440Y002767D01*
X038416Y002813D01*
X038395Y002860D01*
X038377Y002910D01*
X038364Y002960D01*
X038354Y003011D01*
X038348Y003063D01*
X038346Y003115D01*
D16*
X038140Y002040D02*
X038140Y006040D01*
X028140Y006040D01*
X028140Y003040D01*
X029140Y002040D01*
X038140Y002040D01*
X033390Y004290D02*
X032890Y004290D01*
X033140Y004915D02*
X033140Y003165D01*
X027840Y005290D02*
X027590Y005040D01*
X027090Y005040D01*
X026840Y005290D01*
X026590Y005040D01*
X026090Y005040D01*
X025840Y005290D01*
X025590Y005040D01*
X025090Y005040D01*
X024840Y005290D01*
X024840Y005790D01*
X025090Y006040D01*
X025590Y006040D01*
X025840Y005790D01*
X026090Y006040D01*
X026590Y006040D01*
X026840Y005790D01*
X027090Y006040D01*
X027590Y006040D01*
X027840Y005790D01*
X027840Y005290D01*
X030478Y006878D02*
X031462Y006878D01*
X030478Y006878D02*
X030478Y011602D01*
X031462Y011602D01*
X029594Y011424D02*
X029594Y011779D01*
X026286Y011779D01*
X026286Y011424D01*
X024436Y010889D02*
X024436Y010495D01*
X021444Y010495D01*
X021444Y010889D01*
X021444Y011991D02*
X021444Y012385D01*
X024436Y012385D01*
X024436Y011991D01*
X023924Y012031D02*
X023924Y010849D01*
X026286Y009456D02*
X026286Y009101D01*
X029594Y009101D01*
X029594Y009456D01*
X028727Y009653D02*
X028727Y011227D01*
X029073Y012530D02*
X029075Y012545D01*
X029081Y012558D01*
X029090Y012570D01*
X029101Y012579D01*
X029115Y012585D01*
X029130Y012587D01*
X029145Y012585D01*
X029158Y012579D01*
X029170Y012570D01*
X029179Y012559D01*
X029185Y012545D01*
X029187Y012530D01*
X029185Y012515D01*
X029179Y012502D01*
X029170Y012490D01*
X029159Y012481D01*
X029145Y012475D01*
X029130Y012473D01*
X029115Y012475D01*
X029102Y012481D01*
X029090Y012490D01*
X029081Y012501D01*
X029075Y012515D01*
X029073Y012530D01*
X024436Y012795D02*
X024436Y013189D01*
X023924Y013149D02*
X023924Y014331D01*
X024436Y014291D02*
X024436Y014685D01*
X021444Y014685D01*
X021444Y014291D01*
X021444Y013189D02*
X021444Y012795D01*
X024436Y012795D01*
X019402Y014302D02*
X018418Y014302D01*
X019402Y014302D02*
X019402Y009578D01*
X018418Y009578D01*
X015662Y009578D02*
X014678Y009578D01*
X014678Y014302D01*
X015662Y014302D01*
X013694Y014224D02*
X013694Y014579D01*
X010386Y014579D01*
X010386Y014224D01*
X012827Y014027D02*
X012827Y012453D01*
X013694Y012256D02*
X013694Y011901D01*
X010386Y011901D01*
X010386Y012256D01*
X006240Y015123D02*
X005964Y015123D01*
X006240Y015123D02*
X006240Y015949D01*
X004114Y015123D02*
X002027Y015123D01*
X002027Y018666D01*
X006240Y018666D01*
X006240Y017839D01*
X010916Y017238D02*
X010916Y017159D01*
X011743Y017159D01*
X011745Y017186D01*
X011750Y017212D01*
X011759Y017237D01*
X011772Y017261D01*
X011787Y017283D01*
X011806Y017303D01*
X011826Y017320D01*
X011849Y017334D01*
X011874Y017345D01*
X011900Y017352D01*
X011927Y017356D01*
X011953Y017356D01*
X011980Y017352D01*
X012006Y017345D01*
X012031Y017334D01*
X012054Y017320D01*
X012074Y017303D01*
X012093Y017283D01*
X012108Y017261D01*
X012121Y017237D01*
X012130Y017212D01*
X012135Y017186D01*
X012137Y017159D01*
X012885Y017159D01*
X012885Y017238D01*
X014193Y016450D02*
X014195Y016465D01*
X014201Y016478D01*
X014210Y016490D01*
X014221Y016499D01*
X014235Y016505D01*
X014250Y016507D01*
X014265Y016505D01*
X014278Y016499D01*
X014290Y016490D01*
X014299Y016479D01*
X014305Y016465D01*
X014307Y016450D01*
X014305Y016435D01*
X014299Y016422D01*
X014290Y016410D01*
X014279Y016401D01*
X014265Y016395D01*
X014250Y016393D01*
X014235Y016395D01*
X014222Y016401D01*
X014210Y016410D01*
X014201Y016421D01*
X014195Y016435D01*
X014193Y016450D01*
X012885Y019482D02*
X012885Y019560D01*
X010916Y019560D01*
X010916Y019482D01*
X034218Y011602D02*
X035202Y011602D01*
X035202Y006878D01*
X034218Y006878D01*
X022979Y006260D02*
X022979Y003820D01*
X022860Y003701D01*
X020420Y003701D01*
X020301Y003820D01*
X020301Y006260D01*
X020420Y006379D01*
X022860Y006379D01*
X022979Y006260D01*
X013934Y006055D02*
X013934Y005425D01*
X013933Y005425D02*
X013928Y005409D01*
X013920Y005393D01*
X013910Y005379D01*
X013898Y005367D01*
X013883Y005357D01*
X013867Y005350D01*
X013850Y005346D01*
X013833Y005345D01*
X013815Y005347D01*
X013265Y005347D02*
X013245Y005345D01*
X013226Y005347D01*
X013207Y005353D01*
X013190Y005362D01*
X013174Y005374D01*
X013162Y005389D01*
X013153Y005407D01*
X013147Y005425D01*
X013146Y005425D02*
X013146Y006055D01*
X013147Y006055D02*
X013153Y006073D01*
X013162Y006091D01*
X013174Y006106D01*
X013190Y006118D01*
X013207Y006127D01*
X013226Y006133D01*
X013245Y006135D01*
X013265Y006133D01*
X013815Y006133D02*
X013833Y006135D01*
X013850Y006134D01*
X013867Y006130D01*
X013883Y006123D01*
X013898Y006113D01*
X013910Y006101D01*
X013920Y006087D01*
X013928Y006071D01*
X013933Y006055D01*
X012193Y005430D02*
X012195Y005445D01*
X012201Y005458D01*
X012210Y005470D01*
X012221Y005479D01*
X012235Y005485D01*
X012250Y005487D01*
X012265Y005485D01*
X012278Y005479D01*
X012290Y005470D01*
X012299Y005459D01*
X012305Y005445D01*
X012307Y005430D01*
X012305Y005415D01*
X012299Y005402D01*
X012290Y005390D01*
X012279Y005381D01*
X012265Y005375D01*
X012250Y005373D01*
X012235Y005375D01*
X012222Y005381D01*
X012210Y005390D01*
X012201Y005401D01*
X012195Y005415D01*
X012193Y005430D01*
X009993Y005430D02*
X009995Y005445D01*
X010001Y005458D01*
X010010Y005470D01*
X010021Y005479D01*
X010035Y005485D01*
X010050Y005487D01*
X010065Y005485D01*
X010078Y005479D01*
X010090Y005470D01*
X010099Y005459D01*
X010105Y005445D01*
X010107Y005430D01*
X010105Y005415D01*
X010099Y005402D01*
X010090Y005390D01*
X010079Y005381D01*
X010065Y005375D01*
X010050Y005373D01*
X010035Y005375D01*
X010022Y005381D01*
X010010Y005390D01*
X010001Y005401D01*
X009995Y005415D01*
X009993Y005430D01*
X006975Y005827D02*
X006975Y004253D01*
X006595Y005583D02*
X006597Y005601D01*
X006603Y005619D01*
X006612Y005635D01*
X006624Y005648D01*
X006639Y005659D01*
X006656Y005667D01*
X006674Y005671D01*
X006692Y005671D01*
X006710Y005667D01*
X006727Y005659D01*
X006742Y005648D01*
X006754Y005635D01*
X006763Y005619D01*
X006769Y005601D01*
X006771Y005583D01*
X006769Y005565D01*
X006763Y005547D01*
X006754Y005531D01*
X006742Y005518D01*
X006727Y005507D01*
X006710Y005499D01*
X006692Y005495D01*
X006674Y005495D01*
X006656Y005499D01*
X006639Y005507D01*
X006624Y005518D01*
X006612Y005531D01*
X006603Y005547D01*
X006597Y005565D01*
X006595Y005583D01*
X003905Y005827D02*
X003905Y004253D01*
X038340Y013690D02*
X038340Y014190D01*
X037560Y014440D02*
X037562Y014511D01*
X037568Y014582D01*
X037578Y014653D01*
X037592Y014722D01*
X037609Y014791D01*
X037631Y014859D01*
X037656Y014926D01*
X037685Y014991D01*
X037717Y015054D01*
X037753Y015116D01*
X037792Y015175D01*
X037835Y015232D01*
X037880Y015287D01*
X037929Y015339D01*
X037980Y015388D01*
X038034Y015434D01*
X038091Y015478D01*
X038149Y015518D01*
X038210Y015554D01*
X038273Y015588D01*
X038338Y015617D01*
X038404Y015643D01*
X038472Y015666D01*
X038540Y015684D01*
X038610Y015699D01*
X038680Y015710D01*
X038751Y015717D01*
X038822Y015720D01*
X038893Y015719D01*
X038964Y015714D01*
X039035Y015705D01*
X039105Y015692D01*
X039174Y015676D01*
X039242Y015655D01*
X039309Y015631D01*
X039375Y015603D01*
X039438Y015571D01*
X039500Y015536D01*
X039560Y015498D01*
X039618Y015456D01*
X039673Y015412D01*
X039726Y015364D01*
X039776Y015313D01*
X039823Y015260D01*
X039867Y015204D01*
X039908Y015146D01*
X039946Y015085D01*
X039980Y015023D01*
X040010Y014958D01*
X040037Y014893D01*
X040061Y014825D01*
X040080Y014757D01*
X040096Y014688D01*
X040108Y014617D01*
X040116Y014547D01*
X040120Y014476D01*
X040120Y014404D01*
X040116Y014333D01*
X040108Y014263D01*
X040096Y014192D01*
X040080Y014123D01*
X040061Y014055D01*
X040037Y013987D01*
X040010Y013922D01*
X039980Y013857D01*
X039946Y013795D01*
X039908Y013734D01*
X039867Y013676D01*
X039823Y013620D01*
X039776Y013567D01*
X039726Y013516D01*
X039673Y013468D01*
X039618Y013424D01*
X039560Y013382D01*
X039500Y013344D01*
X039438Y013309D01*
X039375Y013277D01*
X039309Y013249D01*
X039242Y013225D01*
X039174Y013204D01*
X039105Y013188D01*
X039035Y013175D01*
X038964Y013166D01*
X038893Y013161D01*
X038822Y013160D01*
X038751Y013163D01*
X038680Y013170D01*
X038610Y013181D01*
X038540Y013196D01*
X038472Y013214D01*
X038404Y013237D01*
X038338Y013263D01*
X038273Y013292D01*
X038210Y013326D01*
X038149Y013362D01*
X038091Y013402D01*
X038034Y013446D01*
X037980Y013492D01*
X037929Y013541D01*
X037880Y013593D01*
X037835Y013648D01*
X037792Y013705D01*
X037753Y013764D01*
X037717Y013826D01*
X037685Y013889D01*
X037656Y013954D01*
X037631Y014021D01*
X037609Y014089D01*
X037592Y014158D01*
X037578Y014227D01*
X037568Y014298D01*
X037562Y014369D01*
X037560Y014440D01*
D17*
X037854Y012682D02*
X037854Y010083D01*
X037146Y010083D02*
X036201Y010083D01*
X035492Y010083D02*
X035492Y012682D01*
X036201Y012682D02*
X037146Y012682D01*
X036279Y011383D02*
X036281Y011422D01*
X036287Y011461D01*
X036297Y011499D01*
X036310Y011536D01*
X036327Y011571D01*
X036347Y011605D01*
X036371Y011636D01*
X036398Y011665D01*
X036427Y011691D01*
X036459Y011714D01*
X036493Y011734D01*
X036529Y011750D01*
X036566Y011762D01*
X036605Y011771D01*
X036644Y011776D01*
X036683Y011777D01*
X036722Y011774D01*
X036761Y011767D01*
X036798Y011756D01*
X036835Y011742D01*
X036870Y011724D01*
X036903Y011703D01*
X036934Y011678D01*
X036962Y011651D01*
X036987Y011621D01*
X037009Y011588D01*
X037028Y011554D01*
X037043Y011518D01*
X037055Y011480D01*
X037063Y011442D01*
X037067Y011403D01*
X037067Y011363D01*
X037063Y011324D01*
X037055Y011286D01*
X037043Y011248D01*
X037028Y011212D01*
X037009Y011178D01*
X036987Y011145D01*
X036962Y011115D01*
X036934Y011088D01*
X036903Y011063D01*
X036870Y011042D01*
X036835Y011024D01*
X036798Y011010D01*
X036761Y010999D01*
X036722Y010992D01*
X036683Y010989D01*
X036644Y010990D01*
X036605Y010995D01*
X036566Y011004D01*
X036529Y011016D01*
X036493Y011032D01*
X036459Y011052D01*
X036427Y011075D01*
X036398Y011101D01*
X036371Y011130D01*
X036347Y011161D01*
X036327Y011195D01*
X036310Y011230D01*
X036297Y011267D01*
X036287Y011305D01*
X036281Y011344D01*
X036279Y011383D01*
X036081Y011383D02*
X036083Y011431D01*
X036089Y011479D01*
X036099Y011526D01*
X036112Y011573D01*
X036130Y011618D01*
X036151Y011661D01*
X036175Y011703D01*
X036203Y011743D01*
X036234Y011780D01*
X036267Y011814D01*
X036304Y011846D01*
X036343Y011874D01*
X036384Y011900D01*
X036427Y011922D01*
X036472Y011940D01*
X036518Y011954D01*
X036565Y011965D01*
X036613Y011972D01*
X036661Y011975D01*
X036709Y011974D01*
X036757Y011969D01*
X036805Y011960D01*
X036851Y011947D01*
X036897Y011931D01*
X036941Y011911D01*
X036983Y011887D01*
X037023Y011861D01*
X037061Y011830D01*
X037096Y011797D01*
X037128Y011761D01*
X037158Y011723D01*
X037184Y011682D01*
X037206Y011640D01*
X037226Y011596D01*
X037241Y011550D01*
X037253Y011503D01*
X037261Y011455D01*
X037265Y011407D01*
X037265Y011359D01*
X037261Y011311D01*
X037253Y011263D01*
X037241Y011216D01*
X037226Y011170D01*
X037206Y011126D01*
X037184Y011084D01*
X037158Y011043D01*
X037128Y011005D01*
X037096Y010969D01*
X037061Y010936D01*
X037023Y010905D01*
X036983Y010879D01*
X036941Y010855D01*
X036897Y010835D01*
X036851Y010819D01*
X036805Y010806D01*
X036757Y010797D01*
X036709Y010792D01*
X036661Y010791D01*
X036613Y010794D01*
X036565Y010801D01*
X036518Y010812D01*
X036472Y010826D01*
X036427Y010844D01*
X036384Y010866D01*
X036343Y010892D01*
X036304Y010920D01*
X036267Y010952D01*
X036234Y010986D01*
X036203Y011023D01*
X036175Y011063D01*
X036151Y011105D01*
X036130Y011148D01*
X036112Y011193D01*
X036099Y011240D01*
X036089Y011287D01*
X036083Y011335D01*
X036081Y011383D01*
X027186Y008515D02*
X027036Y008440D01*
X026886Y008290D01*
X027111Y008290D01*
X027186Y008215D01*
X027186Y008140D01*
X027111Y008065D01*
X026961Y008065D01*
X026886Y008140D01*
X026886Y008290D01*
X026726Y008290D02*
X026726Y008440D01*
X026651Y008515D01*
X026425Y008515D01*
X026425Y008065D01*
X026425Y008215D02*
X026651Y008215D01*
X026726Y008290D01*
X026265Y008515D02*
X025965Y008515D01*
X026115Y008515D02*
X026115Y008065D01*
X025686Y008140D02*
X025686Y008290D01*
X025611Y008365D01*
X025536Y008365D01*
X025386Y008290D01*
X025386Y008515D01*
X025686Y008515D01*
X025226Y008440D02*
X025226Y008290D01*
X025151Y008215D01*
X024925Y008215D01*
X024925Y008065D02*
X024925Y008515D01*
X025151Y008515D01*
X025226Y008440D01*
X024765Y008515D02*
X024465Y008515D01*
X024615Y008515D02*
X024615Y008065D01*
X025386Y008140D02*
X025461Y008065D01*
X025611Y008065D01*
X025686Y008140D01*
X024560Y005135D02*
X024260Y005135D01*
X024185Y005060D01*
X024185Y004835D01*
X024635Y004835D01*
X024635Y005060D01*
X024560Y005135D01*
X024635Y004674D02*
X024185Y004674D01*
X024185Y004374D02*
X024635Y004374D01*
X024485Y004524D01*
X024635Y004674D01*
X024560Y004214D02*
X024635Y004139D01*
X024635Y003989D01*
X024560Y003914D01*
X024410Y003989D02*
X024410Y004139D01*
X024485Y004214D01*
X024560Y004214D01*
X024410Y003989D02*
X024335Y003914D01*
X024260Y003914D01*
X024185Y003989D01*
X024185Y004139D01*
X024260Y004214D01*
X032890Y003915D02*
X033140Y004290D01*
X033390Y003915D01*
X032890Y003915D01*
X032891Y003917D02*
X033389Y003917D01*
X033357Y003965D02*
X032923Y003965D01*
X032956Y004014D02*
X033324Y004014D01*
X033292Y004062D02*
X032988Y004062D01*
X033020Y004111D02*
X033260Y004111D01*
X033227Y004159D02*
X033053Y004159D01*
X033085Y004208D02*
X033195Y004208D01*
X033163Y004256D02*
X033117Y004256D01*
X014815Y004815D02*
X014365Y004815D01*
X014365Y004665D02*
X014365Y004965D01*
X014365Y005125D02*
X014365Y005351D01*
X014440Y005426D01*
X014590Y005426D01*
X014665Y005351D01*
X014665Y005125D01*
X014815Y005125D02*
X014365Y005125D01*
X014440Y005586D02*
X014515Y005586D01*
X014590Y005661D01*
X014590Y005811D01*
X014665Y005886D01*
X014740Y005886D01*
X014815Y005811D01*
X014815Y005661D01*
X014740Y005586D01*
X014665Y005586D01*
X014590Y005661D01*
X014590Y005811D02*
X014515Y005886D01*
X014440Y005886D01*
X014365Y005811D01*
X014365Y005661D01*
X014440Y005586D01*
X006222Y009312D02*
X003958Y009312D01*
X003958Y014241D01*
X006222Y014241D01*
X006222Y009312D01*
X005946Y009587D02*
X005383Y009587D01*
X005383Y013965D01*
X005946Y013965D01*
X005946Y009587D01*
X005383Y009587D02*
X004234Y009587D01*
X004234Y013965D01*
X005383Y013965D01*
X001915Y009605D02*
X001915Y009305D01*
X001915Y009455D02*
X001465Y009455D01*
X001615Y009305D01*
X001690Y009144D02*
X001765Y009069D01*
X001765Y008844D01*
X001915Y008844D02*
X001465Y008844D01*
X001465Y009069D01*
X001540Y009144D01*
X001690Y009144D01*
X001465Y008684D02*
X001465Y008384D01*
X001465Y008534D02*
X001915Y008534D01*
X002640Y007405D02*
X002565Y007330D01*
X002565Y007180D01*
X002640Y007105D01*
X002640Y006944D02*
X002565Y006869D01*
X002565Y006644D01*
X003015Y006644D01*
X002865Y006644D02*
X002865Y006869D01*
X002790Y006944D01*
X002640Y006944D01*
X003015Y007105D02*
X002715Y007405D01*
X002640Y007405D01*
X003015Y007405D02*
X003015Y007105D01*
X002565Y006484D02*
X002565Y006184D01*
X002565Y006334D02*
X003015Y006334D01*
X002940Y005905D02*
X003015Y005830D01*
X003015Y005680D01*
X002940Y005605D01*
X002790Y005755D02*
X002790Y005830D01*
X002865Y005905D01*
X002940Y005905D01*
X002790Y005830D02*
X002715Y005905D01*
X002640Y005905D01*
X002565Y005830D01*
X002565Y005680D01*
X002640Y005605D01*
X002640Y005444D02*
X002565Y005369D01*
X002565Y005144D01*
X003015Y005144D01*
X002865Y005144D02*
X002865Y005369D01*
X002790Y005444D01*
X002640Y005444D01*
X002565Y004984D02*
X002565Y004684D01*
X002565Y004834D02*
X003015Y004834D01*
X001915Y003717D02*
X001465Y003717D01*
X001690Y003492D01*
X001690Y003792D01*
X001690Y003332D02*
X001765Y003257D01*
X001765Y003032D01*
X001915Y003032D02*
X001465Y003032D01*
X001465Y003257D01*
X001540Y003332D01*
X001690Y003332D01*
X001465Y002871D02*
X001465Y002571D01*
X001465Y002721D02*
X001915Y002721D01*
X016365Y018165D02*
X016365Y018465D01*
X016365Y018315D02*
X016815Y018315D01*
X016815Y018625D02*
X016365Y018625D01*
X016365Y018851D01*
X016440Y018926D01*
X016590Y018926D01*
X016665Y018851D01*
X016665Y018625D01*
X016740Y019086D02*
X016815Y019086D01*
X016740Y019086D02*
X016440Y019386D01*
X016365Y019386D01*
X016365Y019086D01*
D18*
X019888Y006498D02*
X019890Y006513D01*
X019895Y006526D01*
X019904Y006538D01*
X019915Y006548D01*
X019929Y006554D01*
X019943Y006557D01*
X019958Y006556D01*
X019972Y006551D01*
X019985Y006543D01*
X019995Y006533D01*
X020002Y006520D01*
X020006Y006505D01*
X020006Y006491D01*
X020002Y006476D01*
X019995Y006463D01*
X019985Y006453D01*
X019972Y006445D01*
X019958Y006440D01*
X019943Y006439D01*
X019929Y006442D01*
X019915Y006448D01*
X019904Y006458D01*
X019895Y006470D01*
X019890Y006483D01*
X019888Y006498D01*
D19*
X020616Y005965D02*
X020618Y005983D01*
X020624Y005999D01*
X020633Y006014D01*
X020646Y006027D01*
X020661Y006036D01*
X020677Y006042D01*
X020695Y006044D01*
X020713Y006042D01*
X020729Y006036D01*
X020744Y006027D01*
X020757Y006014D01*
X020766Y005999D01*
X020772Y005983D01*
X020774Y005965D01*
X020772Y005947D01*
X020766Y005931D01*
X020757Y005916D01*
X020744Y005903D01*
X020729Y005894D01*
X020713Y005888D01*
X020695Y005886D01*
X020677Y005888D01*
X020661Y005894D01*
X020646Y005903D01*
X020633Y005916D01*
X020624Y005931D01*
X020618Y005947D01*
X020616Y005965D01*
D20*
X017390Y004140D02*
X014690Y004140D01*
X014690Y003840D02*
X017390Y003840D01*
X016440Y003340D02*
X016290Y003340D01*
X015790Y003340D02*
X015640Y003340D01*
X014690Y002840D02*
X017390Y002840D01*
X017390Y002540D02*
X014690Y002540D01*
X012939Y016810D02*
X012939Y017030D01*
X012829Y016920D01*
X012976Y016920D01*
X012755Y016847D02*
X012755Y017030D01*
X012608Y017030D02*
X012608Y016847D01*
X012645Y016810D01*
X012718Y016810D01*
X012755Y016847D01*
D21*
X012273Y011795D02*
X012349Y011718D01*
X012349Y011642D01*
X012273Y011565D01*
X012349Y011488D01*
X012349Y011412D01*
X012273Y011335D01*
X012119Y011335D01*
X012042Y011412D01*
X011889Y011412D02*
X011889Y011718D01*
X011812Y011795D01*
X011582Y011795D01*
X011582Y011335D01*
X011812Y011335D01*
X011889Y011412D01*
X012042Y011718D02*
X012119Y011795D01*
X012273Y011795D01*
X012273Y011565D02*
X012196Y011565D01*
X007797Y006222D02*
X007797Y005758D01*
X007483Y005758D02*
X007483Y006222D01*
X007483Y004372D02*
X007483Y003908D01*
X007797Y003908D02*
X007797Y004372D01*
X022276Y015453D02*
X022353Y015377D01*
X022507Y015377D01*
X022583Y015453D01*
X022737Y015377D02*
X022737Y015837D01*
X023044Y015377D01*
X023044Y015837D01*
X023197Y015683D02*
X023351Y015837D01*
X023351Y015377D01*
X023504Y015377D02*
X023197Y015377D01*
X022583Y015760D02*
X022507Y015837D01*
X022353Y015837D01*
X022276Y015760D01*
X022276Y015453D01*
X029757Y015453D02*
X029834Y015377D01*
X029987Y015377D01*
X030064Y015453D01*
X030217Y015377D02*
X030217Y015837D01*
X030524Y015377D01*
X030524Y015837D01*
X030678Y015760D02*
X030754Y015837D01*
X030908Y015837D01*
X030984Y015760D01*
X030984Y015683D01*
X030678Y015377D01*
X030984Y015377D01*
X030064Y015760D02*
X029987Y015837D01*
X029834Y015837D01*
X029757Y015760D01*
X029757Y015453D01*
X036537Y015453D02*
X036614Y015377D01*
X036767Y015377D01*
X036844Y015453D01*
X036997Y015377D02*
X036997Y015837D01*
X037304Y015377D01*
X037304Y015837D01*
X037458Y015760D02*
X037535Y015837D01*
X037688Y015837D01*
X037765Y015760D01*
X037765Y015683D01*
X037688Y015607D01*
X037765Y015530D01*
X037765Y015453D01*
X037688Y015377D01*
X037535Y015377D01*
X037458Y015453D01*
X037611Y015607D02*
X037688Y015607D01*
X036844Y015760D02*
X036767Y015837D01*
X036614Y015837D01*
X036537Y015760D01*
X036537Y015453D01*
D22*
X007638Y006020D03*
X007643Y004110D03*
D23*
X014021Y002884D02*
X014037Y002895D01*
X014036Y002895D02*
X014069Y002850D01*
X014104Y002808D01*
X014143Y002769D01*
X014183Y002732D01*
X014227Y002699D01*
X014272Y002668D01*
X014320Y002641D01*
X014369Y002617D01*
X014420Y002596D01*
X014473Y002579D01*
X014526Y002566D01*
X014580Y002557D01*
X014635Y002551D01*
X014690Y002549D01*
X014690Y002531D01*
X014690Y002530D01*
X014633Y002532D01*
X014577Y002538D01*
X014522Y002548D01*
X014467Y002561D01*
X014414Y002578D01*
X014362Y002599D01*
X014311Y002624D01*
X014262Y002652D01*
X014216Y002683D01*
X014171Y002718D01*
X014129Y002755D01*
X014090Y002796D01*
X014054Y002839D01*
X014021Y002884D01*
X014021Y002885D01*
X014055Y002839D01*
X014091Y002796D01*
X014130Y002756D01*
X014172Y002719D01*
X014216Y002684D01*
X014263Y002653D01*
X014312Y002625D01*
X014362Y002600D01*
X014414Y002579D01*
X014468Y002562D01*
X014522Y002549D01*
X014578Y002539D01*
X014633Y002533D01*
X014690Y002531D01*
X014690Y002532D01*
X014633Y002534D01*
X014578Y002540D01*
X014522Y002550D01*
X014468Y002563D01*
X014415Y002580D01*
X014363Y002601D01*
X014312Y002626D01*
X014263Y002654D01*
X014217Y002685D01*
X014173Y002719D01*
X014131Y002757D01*
X014092Y002797D01*
X014055Y002840D01*
X014022Y002885D01*
X014023Y002886D01*
X014056Y002840D01*
X014092Y002798D01*
X014131Y002758D01*
X014173Y002720D01*
X014217Y002686D01*
X014264Y002655D01*
X014313Y002627D01*
X014363Y002602D01*
X014415Y002581D01*
X014468Y002564D01*
X014523Y002551D01*
X014578Y002541D01*
X014634Y002535D01*
X014690Y002533D01*
X014690Y002534D01*
X014634Y002536D01*
X014578Y002542D01*
X014523Y002552D01*
X014469Y002565D01*
X014415Y002582D01*
X014363Y002603D01*
X014313Y002628D01*
X014265Y002655D01*
X014218Y002687D01*
X014174Y002721D01*
X014132Y002758D01*
X014093Y002798D01*
X014057Y002841D01*
X014024Y002886D01*
X014025Y002887D01*
X014058Y002842D01*
X014094Y002799D01*
X014133Y002759D01*
X014174Y002722D01*
X014219Y002687D01*
X014265Y002656D01*
X014314Y002628D01*
X014364Y002604D01*
X014416Y002583D01*
X014469Y002566D01*
X014523Y002553D01*
X014578Y002543D01*
X014634Y002537D01*
X014690Y002535D01*
X014690Y002536D01*
X014634Y002538D01*
X014578Y002544D01*
X014523Y002553D01*
X014469Y002567D01*
X014416Y002584D01*
X014364Y002605D01*
X014314Y002629D01*
X014266Y002657D01*
X014219Y002688D01*
X014175Y002722D01*
X014134Y002760D01*
X014095Y002800D01*
X014059Y002842D01*
X014026Y002887D01*
X014026Y002888D01*
X014059Y002843D01*
X014095Y002800D01*
X014134Y002760D01*
X014176Y002723D01*
X014220Y002689D01*
X014266Y002658D01*
X014314Y002630D01*
X014365Y002606D01*
X014416Y002585D01*
X014469Y002568D01*
X014523Y002554D01*
X014578Y002545D01*
X014634Y002539D01*
X014690Y002537D01*
X014690Y002538D01*
X014634Y002540D01*
X014578Y002546D01*
X014524Y002555D01*
X014470Y002569D01*
X014417Y002586D01*
X014365Y002607D01*
X014315Y002631D01*
X014267Y002659D01*
X014220Y002690D01*
X014176Y002724D01*
X014135Y002761D01*
X014096Y002801D01*
X014060Y002844D01*
X014027Y002888D01*
X014028Y002889D01*
X014061Y002844D01*
X014097Y002802D01*
X014136Y002762D01*
X014177Y002725D01*
X014221Y002691D01*
X014267Y002660D01*
X014315Y002632D01*
X014365Y002608D01*
X014417Y002587D01*
X014470Y002570D01*
X014524Y002556D01*
X014579Y002547D01*
X014634Y002541D01*
X014690Y002539D01*
X014690Y002540D01*
X014634Y002542D01*
X014579Y002548D01*
X014524Y002557D01*
X014470Y002571D01*
X014417Y002588D01*
X014366Y002609D01*
X014316Y002633D01*
X014268Y002661D01*
X014222Y002691D01*
X014178Y002726D01*
X014136Y002763D01*
X014098Y002802D01*
X014062Y002845D01*
X014029Y002890D01*
X014030Y002890D01*
X014062Y002845D01*
X014098Y002803D01*
X014137Y002763D01*
X014178Y002726D01*
X014222Y002692D01*
X014268Y002661D01*
X014316Y002634D01*
X014366Y002610D01*
X014418Y002589D01*
X014470Y002572D01*
X014524Y002558D01*
X014579Y002549D01*
X014634Y002543D01*
X014690Y002541D01*
X014690Y002542D01*
X014634Y002544D01*
X014579Y002550D01*
X014524Y002559D01*
X014471Y002573D01*
X014418Y002590D01*
X014367Y002610D01*
X014317Y002635D01*
X014269Y002662D01*
X014223Y002693D01*
X014179Y002727D01*
X014138Y002764D01*
X014099Y002804D01*
X014063Y002846D01*
X014030Y002891D01*
X014031Y002891D01*
X014064Y002847D01*
X014100Y002804D01*
X014138Y002765D01*
X014180Y002728D01*
X014223Y002694D01*
X014269Y002663D01*
X014317Y002636D01*
X014367Y002611D01*
X014418Y002591D01*
X014471Y002574D01*
X014525Y002560D01*
X014579Y002551D01*
X014634Y002545D01*
X014690Y002543D01*
X014690Y002544D01*
X014634Y002546D01*
X014579Y002552D01*
X014525Y002561D01*
X014471Y002575D01*
X014419Y002592D01*
X014367Y002612D01*
X014318Y002636D01*
X014270Y002664D01*
X014224Y002695D01*
X014180Y002729D01*
X014139Y002765D01*
X014101Y002805D01*
X014065Y002847D01*
X014032Y002892D01*
X014033Y002892D01*
X014066Y002848D01*
X014101Y002806D01*
X014140Y002766D01*
X014181Y002729D01*
X014224Y002696D01*
X014270Y002665D01*
X014318Y002637D01*
X014368Y002613D01*
X014419Y002593D01*
X014472Y002576D01*
X014525Y002562D01*
X014579Y002553D01*
X014634Y002547D01*
X014690Y002545D01*
X014690Y002546D01*
X014634Y002548D01*
X014580Y002554D01*
X014525Y002563D01*
X014472Y002577D01*
X014419Y002594D01*
X014368Y002614D01*
X014319Y002638D01*
X014271Y002666D01*
X014225Y002696D01*
X014182Y002730D01*
X014140Y002767D01*
X014102Y002806D01*
X014066Y002849D01*
X014034Y002893D01*
X014035Y002894D01*
X014067Y002849D01*
X014103Y002807D01*
X014141Y002768D01*
X014182Y002731D01*
X014226Y002697D01*
X014271Y002666D01*
X014319Y002639D01*
X014369Y002615D01*
X014420Y002594D01*
X014472Y002578D01*
X014526Y002564D01*
X014580Y002555D01*
X014634Y002549D01*
X014690Y002547D01*
X014690Y002548D01*
X014635Y002550D01*
X014580Y002556D01*
X014526Y002565D01*
X014472Y002578D01*
X014420Y002595D01*
X014369Y002616D01*
X014320Y002640D01*
X014272Y002667D01*
X014226Y002698D01*
X014183Y002732D01*
X014142Y002768D01*
X014103Y002808D01*
X014068Y002850D01*
X014035Y002894D01*
X014469Y002881D02*
X014477Y002898D01*
X014476Y002898D02*
X014510Y002883D01*
X014545Y002871D01*
X014580Y002861D01*
X014616Y002855D01*
X014653Y002850D01*
X014690Y002849D01*
X014690Y002831D01*
X014690Y002830D01*
X014651Y002831D01*
X014613Y002836D01*
X014576Y002843D01*
X014539Y002853D01*
X014503Y002865D01*
X014468Y002881D01*
X014469Y002882D01*
X014503Y002866D01*
X014539Y002854D01*
X014576Y002844D01*
X014614Y002837D01*
X014651Y002832D01*
X014690Y002831D01*
X014690Y002832D01*
X014652Y002833D01*
X014614Y002838D01*
X014576Y002845D01*
X014540Y002855D01*
X014504Y002867D01*
X014469Y002883D01*
X014504Y002868D01*
X014540Y002856D01*
X014577Y002846D01*
X014614Y002839D01*
X014652Y002834D01*
X014690Y002833D01*
X014690Y002834D01*
X014652Y002835D01*
X014614Y002840D01*
X014577Y002847D01*
X014540Y002857D01*
X014505Y002869D01*
X014470Y002884D01*
X014470Y002885D01*
X014505Y002870D01*
X014541Y002858D01*
X014577Y002848D01*
X014614Y002841D01*
X014652Y002836D01*
X014690Y002835D01*
X014690Y002836D01*
X014652Y002837D01*
X014614Y002842D01*
X014577Y002849D01*
X014541Y002859D01*
X014505Y002871D01*
X014471Y002886D01*
X014471Y002887D01*
X014506Y002872D01*
X014541Y002860D01*
X014578Y002850D01*
X014615Y002843D01*
X014652Y002838D01*
X014690Y002837D01*
X014690Y002838D01*
X014652Y002839D01*
X014615Y002844D01*
X014578Y002851D01*
X014541Y002860D01*
X014506Y002873D01*
X014472Y002888D01*
X014472Y002889D01*
X014506Y002874D01*
X014542Y002861D01*
X014578Y002852D01*
X014615Y002845D01*
X014652Y002840D01*
X014690Y002839D01*
X014690Y002840D01*
X014652Y002841D01*
X014615Y002846D01*
X014578Y002853D01*
X014542Y002862D01*
X014507Y002875D01*
X014473Y002890D01*
X014473Y002891D01*
X014507Y002876D01*
X014542Y002863D01*
X014578Y002854D01*
X014615Y002847D01*
X014652Y002842D01*
X014690Y002841D01*
X014690Y002842D01*
X014652Y002843D01*
X014615Y002848D01*
X014579Y002855D01*
X014543Y002864D01*
X014508Y002877D01*
X014473Y002892D01*
X014474Y002892D01*
X014508Y002878D01*
X014543Y002865D01*
X014579Y002856D01*
X014615Y002849D01*
X014652Y002844D01*
X014690Y002843D01*
X014690Y002844D01*
X014652Y002845D01*
X014616Y002850D01*
X014579Y002857D01*
X014543Y002866D01*
X014508Y002879D01*
X014474Y002893D01*
X014475Y002894D01*
X014509Y002879D01*
X014544Y002867D01*
X014579Y002858D01*
X014616Y002851D01*
X014652Y002846D01*
X014690Y002845D01*
X014690Y002846D01*
X014653Y002847D01*
X014616Y002852D01*
X014580Y002859D01*
X014544Y002868D01*
X014509Y002880D01*
X014475Y002895D01*
X014476Y002896D01*
X014509Y002881D01*
X014544Y002869D01*
X014580Y002859D01*
X014616Y002853D01*
X014653Y002848D01*
X014690Y002847D01*
X014690Y002848D01*
X014653Y002849D01*
X014616Y002854D01*
X014580Y002860D01*
X014544Y002870D01*
X014510Y002882D01*
X014476Y002897D01*
X014690Y003849D02*
X014690Y003830D01*
X014690Y003831D02*
X014653Y003830D01*
X014616Y003825D01*
X014580Y003819D01*
X014545Y003809D01*
X014510Y003797D01*
X014476Y003782D01*
X014469Y003799D01*
X014468Y003799D01*
X014503Y003815D01*
X014539Y003827D01*
X014576Y003837D01*
X014613Y003844D01*
X014651Y003849D01*
X014690Y003850D01*
X014690Y003849D01*
X014651Y003848D01*
X014614Y003843D01*
X014576Y003836D01*
X014539Y003826D01*
X014503Y003814D01*
X014469Y003798D01*
X014469Y003797D01*
X014504Y003813D01*
X014540Y003825D01*
X014576Y003835D01*
X014614Y003842D01*
X014652Y003847D01*
X014690Y003848D01*
X014690Y003847D01*
X014652Y003846D01*
X014614Y003841D01*
X014577Y003834D01*
X014540Y003824D01*
X014504Y003812D01*
X014469Y003797D01*
X014470Y003796D01*
X014505Y003811D01*
X014540Y003823D01*
X014577Y003833D01*
X014614Y003840D01*
X014652Y003845D01*
X014690Y003846D01*
X014690Y003845D01*
X014652Y003844D01*
X014614Y003839D01*
X014577Y003832D01*
X014541Y003822D01*
X014505Y003810D01*
X014470Y003795D01*
X014471Y003794D01*
X014505Y003809D01*
X014541Y003821D01*
X014577Y003831D01*
X014614Y003838D01*
X014652Y003843D01*
X014690Y003844D01*
X014690Y003843D01*
X014652Y003842D01*
X014615Y003837D01*
X014578Y003830D01*
X014541Y003820D01*
X014506Y003808D01*
X014471Y003793D01*
X014472Y003792D01*
X014506Y003807D01*
X014541Y003820D01*
X014578Y003829D01*
X014615Y003836D01*
X014652Y003841D01*
X014690Y003842D01*
X014690Y003841D01*
X014652Y003840D01*
X014615Y003835D01*
X014578Y003828D01*
X014542Y003819D01*
X014506Y003806D01*
X014472Y003791D01*
X014473Y003790D01*
X014507Y003805D01*
X014542Y003818D01*
X014578Y003827D01*
X014615Y003834D01*
X014652Y003839D01*
X014690Y003840D01*
X014690Y003839D01*
X014652Y003838D01*
X014615Y003833D01*
X014578Y003826D01*
X014542Y003817D01*
X014507Y003804D01*
X014473Y003789D01*
X014473Y003788D01*
X014508Y003803D01*
X014543Y003816D01*
X014579Y003825D01*
X014615Y003832D01*
X014652Y003837D01*
X014690Y003838D01*
X014690Y003837D01*
X014652Y003836D01*
X014615Y003831D01*
X014579Y003824D01*
X014543Y003815D01*
X014508Y003802D01*
X014474Y003788D01*
X014474Y003787D01*
X014508Y003801D01*
X014543Y003814D01*
X014579Y003823D01*
X014616Y003830D01*
X014652Y003835D01*
X014690Y003836D01*
X014690Y003835D01*
X014652Y003834D01*
X014616Y003829D01*
X014579Y003822D01*
X014544Y003813D01*
X014509Y003801D01*
X014475Y003786D01*
X014475Y003785D01*
X014509Y003800D01*
X014544Y003812D01*
X014580Y003821D01*
X014616Y003828D01*
X014653Y003833D01*
X014690Y003834D01*
X014690Y003833D01*
X014653Y003832D01*
X014616Y003827D01*
X014580Y003821D01*
X014544Y003811D01*
X014509Y003799D01*
X014476Y003784D01*
X014476Y003783D01*
X014510Y003798D01*
X014544Y003810D01*
X014580Y003820D01*
X014616Y003826D01*
X014653Y003831D01*
X014690Y003832D01*
X014690Y004149D02*
X014690Y004130D01*
X014689Y004131D02*
X014635Y004129D01*
X014580Y004123D01*
X014526Y004114D01*
X014473Y004101D01*
X014420Y004084D01*
X014369Y004063D01*
X014320Y004039D01*
X014272Y004012D01*
X014227Y003981D01*
X014183Y003948D01*
X014143Y003911D01*
X014104Y003872D01*
X014069Y003830D01*
X014036Y003785D01*
X014021Y003796D01*
X014054Y003841D01*
X014090Y003884D01*
X014129Y003925D01*
X014171Y003962D01*
X014216Y003997D01*
X014262Y004028D01*
X014311Y004056D01*
X014362Y004080D01*
X014414Y004101D01*
X014467Y004119D01*
X014522Y004132D01*
X014577Y004142D01*
X014633Y004148D01*
X014689Y004150D01*
X014689Y004149D01*
X014633Y004147D01*
X014577Y004141D01*
X014522Y004131D01*
X014468Y004118D01*
X014414Y004101D01*
X014362Y004080D01*
X014312Y004055D01*
X014263Y004027D01*
X014216Y003996D01*
X014172Y003961D01*
X014130Y003924D01*
X014091Y003884D01*
X014055Y003841D01*
X014021Y003795D01*
X014022Y003795D01*
X014055Y003840D01*
X014092Y003883D01*
X014131Y003923D01*
X014173Y003961D01*
X014217Y003995D01*
X014263Y004026D01*
X014312Y004054D01*
X014363Y004079D01*
X014415Y004100D01*
X014468Y004117D01*
X014522Y004130D01*
X014578Y004140D01*
X014633Y004146D01*
X014689Y004148D01*
X014689Y004147D01*
X014633Y004145D01*
X014578Y004139D01*
X014523Y004129D01*
X014468Y004116D01*
X014415Y004099D01*
X014363Y004078D01*
X014313Y004053D01*
X014264Y004025D01*
X014217Y003994D01*
X014173Y003960D01*
X014131Y003922D01*
X014092Y003882D01*
X014056Y003840D01*
X014023Y003794D01*
X014024Y003794D01*
X014057Y003839D01*
X014093Y003882D01*
X014132Y003922D01*
X014174Y003959D01*
X014218Y003993D01*
X014264Y004025D01*
X014313Y004052D01*
X014363Y004077D01*
X014415Y004098D01*
X014468Y004115D01*
X014523Y004128D01*
X014578Y004138D01*
X014634Y004144D01*
X014689Y004146D01*
X014689Y004145D01*
X014634Y004143D01*
X014578Y004137D01*
X014523Y004127D01*
X014469Y004114D01*
X014416Y004097D01*
X014364Y004076D01*
X014313Y004052D01*
X014265Y004024D01*
X014219Y003993D01*
X014174Y003958D01*
X014133Y003921D01*
X014094Y003881D01*
X014058Y003838D01*
X014025Y003793D01*
X014026Y003793D01*
X014059Y003838D01*
X014095Y003880D01*
X014133Y003920D01*
X014175Y003957D01*
X014219Y003992D01*
X014266Y004023D01*
X014314Y004051D01*
X014364Y004075D01*
X014416Y004096D01*
X014469Y004113D01*
X014523Y004127D01*
X014578Y004136D01*
X014634Y004142D01*
X014689Y004144D01*
X014689Y004143D01*
X014634Y004141D01*
X014578Y004135D01*
X014523Y004126D01*
X014469Y004112D01*
X014416Y004095D01*
X014365Y004074D01*
X014314Y004050D01*
X014266Y004022D01*
X014220Y003991D01*
X014176Y003957D01*
X014134Y003920D01*
X014095Y003880D01*
X014059Y003837D01*
X014026Y003792D01*
X014027Y003792D01*
X014060Y003836D01*
X014096Y003879D01*
X014135Y003919D01*
X014176Y003956D01*
X014220Y003990D01*
X014267Y004021D01*
X014315Y004049D01*
X014365Y004073D01*
X014417Y004094D01*
X014470Y004111D01*
X014524Y004125D01*
X014578Y004134D01*
X014634Y004140D01*
X014689Y004142D01*
X014689Y004141D01*
X014634Y004139D01*
X014579Y004133D01*
X014524Y004124D01*
X014470Y004110D01*
X014417Y004093D01*
X014365Y004072D01*
X014315Y004048D01*
X014267Y004020D01*
X014221Y003989D01*
X014177Y003955D01*
X014136Y003918D01*
X014097Y003878D01*
X014061Y003836D01*
X014028Y003791D01*
X014029Y003790D01*
X014062Y003835D01*
X014098Y003878D01*
X014136Y003917D01*
X014178Y003954D01*
X014222Y003988D01*
X014268Y004019D01*
X014316Y004047D01*
X014366Y004071D01*
X014417Y004092D01*
X014470Y004109D01*
X014524Y004123D01*
X014579Y004132D01*
X014634Y004138D01*
X014689Y004140D01*
X014689Y004139D01*
X014634Y004137D01*
X014579Y004131D01*
X014524Y004122D01*
X014470Y004108D01*
X014418Y004091D01*
X014366Y004070D01*
X014316Y004046D01*
X014268Y004019D01*
X014222Y003988D01*
X014178Y003954D01*
X014137Y003917D01*
X014098Y003877D01*
X014062Y003835D01*
X014030Y003790D01*
X014030Y003789D01*
X014063Y003834D01*
X014099Y003876D01*
X014138Y003916D01*
X014179Y003953D01*
X014223Y003987D01*
X014269Y004018D01*
X014317Y004045D01*
X014367Y004070D01*
X014418Y004090D01*
X014471Y004107D01*
X014524Y004121D01*
X014579Y004130D01*
X014634Y004136D01*
X014689Y004138D01*
X014689Y004137D01*
X014634Y004135D01*
X014579Y004129D01*
X014525Y004120D01*
X014471Y004106D01*
X014418Y004089D01*
X014367Y004069D01*
X014317Y004044D01*
X014269Y004017D01*
X014223Y003986D01*
X014180Y003952D01*
X014138Y003915D01*
X014100Y003876D01*
X014064Y003833D01*
X014031Y003789D01*
X014032Y003788D01*
X014065Y003833D01*
X014101Y003875D01*
X014139Y003915D01*
X014180Y003951D01*
X014224Y003985D01*
X014270Y004016D01*
X014318Y004044D01*
X014367Y004068D01*
X014419Y004088D01*
X014471Y004105D01*
X014525Y004119D01*
X014579Y004128D01*
X014634Y004134D01*
X014689Y004136D01*
X014689Y004135D01*
X014634Y004133D01*
X014579Y004127D01*
X014525Y004118D01*
X014472Y004104D01*
X014419Y004087D01*
X014368Y004067D01*
X014318Y004043D01*
X014270Y004015D01*
X014224Y003984D01*
X014181Y003951D01*
X014140Y003914D01*
X014101Y003874D01*
X014066Y003832D01*
X014033Y003788D01*
X014034Y003787D01*
X014066Y003831D01*
X014102Y003874D01*
X014140Y003913D01*
X014182Y003950D01*
X014225Y003984D01*
X014271Y004014D01*
X014319Y004042D01*
X014368Y004066D01*
X014419Y004086D01*
X014472Y004103D01*
X014525Y004117D01*
X014580Y004126D01*
X014634Y004132D01*
X014689Y004134D01*
X014689Y004133D01*
X014634Y004131D01*
X014580Y004125D01*
X014525Y004116D01*
X014472Y004102D01*
X014420Y004086D01*
X014369Y004065D01*
X014319Y004041D01*
X014271Y004013D01*
X014226Y003983D01*
X014182Y003949D01*
X014141Y003912D01*
X014103Y003873D01*
X014067Y003831D01*
X014035Y003786D01*
X014068Y003830D01*
X014103Y003872D01*
X014142Y003912D01*
X014183Y003948D01*
X014226Y003982D01*
X014272Y004013D01*
X014320Y004040D01*
X014369Y004064D01*
X014420Y004085D01*
X014472Y004102D01*
X014526Y004115D01*
X014580Y004124D01*
X014635Y004130D01*
X014689Y004132D01*
X017390Y002531D02*
X017390Y002550D01*
X017391Y002549D02*
X017445Y002551D01*
X017500Y002557D01*
X017554Y002566D01*
X017607Y002579D01*
X017660Y002596D01*
X017711Y002617D01*
X017760Y002641D01*
X017808Y002668D01*
X017853Y002699D01*
X017897Y002733D01*
X017938Y002769D01*
X017976Y002808D01*
X018011Y002850D01*
X018044Y002895D01*
X018059Y002885D01*
X018059Y002884D01*
X018026Y002839D01*
X017990Y002796D01*
X017951Y002755D01*
X017909Y002718D01*
X017864Y002683D01*
X017818Y002652D01*
X017769Y002624D01*
X017718Y002600D01*
X017666Y002579D01*
X017613Y002561D01*
X017558Y002548D01*
X017503Y002538D01*
X017447Y002532D01*
X017391Y002530D01*
X017391Y002531D01*
X017447Y002533D01*
X017503Y002539D01*
X017558Y002549D01*
X017612Y002562D01*
X017666Y002579D01*
X017718Y002600D01*
X017768Y002625D01*
X017817Y002653D01*
X017864Y002684D01*
X017908Y002719D01*
X017950Y002756D01*
X017989Y002796D01*
X018025Y002839D01*
X018059Y002885D01*
X018058Y002885D01*
X018025Y002840D01*
X017988Y002797D01*
X017949Y002757D01*
X017907Y002719D01*
X017863Y002685D01*
X017817Y002654D01*
X017768Y002626D01*
X017717Y002601D01*
X017665Y002580D01*
X017612Y002563D01*
X017558Y002550D01*
X017502Y002540D01*
X017447Y002534D01*
X017391Y002532D01*
X017391Y002533D01*
X017447Y002535D01*
X017502Y002541D01*
X017557Y002551D01*
X017612Y002564D01*
X017665Y002581D01*
X017717Y002602D01*
X017767Y002627D01*
X017816Y002655D01*
X017863Y002686D01*
X017907Y002720D01*
X017949Y002758D01*
X017988Y002798D01*
X018024Y002841D01*
X018057Y002886D01*
X018056Y002886D01*
X018023Y002841D01*
X017987Y002798D01*
X017948Y002758D01*
X017906Y002721D01*
X017862Y002687D01*
X017816Y002655D01*
X017767Y002628D01*
X017717Y002603D01*
X017665Y002582D01*
X017612Y002565D01*
X017557Y002552D01*
X017502Y002542D01*
X017446Y002536D01*
X017391Y002534D01*
X017391Y002535D01*
X017446Y002537D01*
X017502Y002543D01*
X017557Y002553D01*
X017611Y002566D01*
X017664Y002583D01*
X017716Y002604D01*
X017767Y002628D01*
X017815Y002656D01*
X017861Y002687D01*
X017906Y002722D01*
X017947Y002759D01*
X017986Y002799D01*
X018022Y002842D01*
X018055Y002887D01*
X018054Y002887D01*
X018021Y002842D01*
X017985Y002800D01*
X017947Y002760D01*
X017905Y002723D01*
X017861Y002688D01*
X017814Y002657D01*
X017766Y002629D01*
X017716Y002605D01*
X017664Y002584D01*
X017611Y002567D01*
X017557Y002553D01*
X017502Y002544D01*
X017446Y002538D01*
X017391Y002536D01*
X017391Y002537D01*
X017446Y002539D01*
X017502Y002545D01*
X017557Y002554D01*
X017611Y002568D01*
X017664Y002585D01*
X017715Y002606D01*
X017766Y002630D01*
X017814Y002658D01*
X017860Y002689D01*
X017904Y002723D01*
X017946Y002760D01*
X017985Y002800D01*
X018021Y002843D01*
X018054Y002888D01*
X018053Y002889D01*
X018020Y002844D01*
X017984Y002801D01*
X017945Y002761D01*
X017904Y002724D01*
X017860Y002690D01*
X017813Y002659D01*
X017765Y002631D01*
X017715Y002607D01*
X017663Y002586D01*
X017610Y002569D01*
X017556Y002555D01*
X017502Y002546D01*
X017446Y002540D01*
X017391Y002538D01*
X017391Y002539D01*
X017446Y002541D01*
X017501Y002547D01*
X017556Y002556D01*
X017610Y002570D01*
X017663Y002587D01*
X017715Y002608D01*
X017765Y002632D01*
X017813Y002660D01*
X017859Y002691D01*
X017903Y002725D01*
X017944Y002762D01*
X017983Y002802D01*
X018019Y002844D01*
X018052Y002889D01*
X018051Y002890D01*
X018018Y002845D01*
X017982Y002802D01*
X017944Y002763D01*
X017902Y002726D01*
X017858Y002692D01*
X017812Y002661D01*
X017764Y002633D01*
X017714Y002609D01*
X017663Y002588D01*
X017610Y002571D01*
X017556Y002557D01*
X017501Y002548D01*
X017446Y002542D01*
X017391Y002540D01*
X017391Y002541D01*
X017446Y002543D01*
X017501Y002549D01*
X017556Y002558D01*
X017610Y002572D01*
X017662Y002589D01*
X017714Y002610D01*
X017764Y002634D01*
X017812Y002661D01*
X017858Y002692D01*
X017902Y002726D01*
X017943Y002763D01*
X017982Y002803D01*
X018018Y002845D01*
X018050Y002890D01*
X018050Y002891D01*
X018017Y002846D01*
X017981Y002804D01*
X017942Y002764D01*
X017901Y002727D01*
X017857Y002693D01*
X017811Y002662D01*
X017763Y002635D01*
X017713Y002610D01*
X017662Y002590D01*
X017609Y002573D01*
X017556Y002559D01*
X017501Y002550D01*
X017446Y002544D01*
X017391Y002542D01*
X017391Y002543D01*
X017446Y002545D01*
X017501Y002551D01*
X017555Y002560D01*
X017609Y002574D01*
X017662Y002591D01*
X017713Y002611D01*
X017763Y002636D01*
X017811Y002663D01*
X017857Y002694D01*
X017900Y002728D01*
X017942Y002765D01*
X017980Y002804D01*
X018016Y002847D01*
X018049Y002891D01*
X018048Y002892D01*
X018015Y002847D01*
X017980Y002805D01*
X017941Y002766D01*
X017900Y002729D01*
X017856Y002695D01*
X017810Y002664D01*
X017762Y002636D01*
X017713Y002612D01*
X017661Y002592D01*
X017609Y002575D01*
X017555Y002561D01*
X017501Y002552D01*
X017446Y002546D01*
X017391Y002544D01*
X017391Y002545D01*
X017446Y002547D01*
X017501Y002553D01*
X017555Y002562D01*
X017609Y002576D01*
X017661Y002593D01*
X017712Y002613D01*
X017762Y002637D01*
X017810Y002665D01*
X017856Y002696D01*
X017899Y002729D01*
X017940Y002766D01*
X017979Y002806D01*
X018014Y002848D01*
X018047Y002892D01*
X018046Y002893D01*
X018014Y002849D01*
X017978Y002806D01*
X017940Y002767D01*
X017899Y002730D01*
X017855Y002696D01*
X017809Y002666D01*
X017761Y002638D01*
X017712Y002614D01*
X017661Y002594D01*
X017608Y002577D01*
X017555Y002563D01*
X017500Y002554D01*
X017446Y002548D01*
X017391Y002546D01*
X017391Y002547D01*
X017446Y002549D01*
X017500Y002555D01*
X017555Y002564D01*
X017608Y002578D01*
X017660Y002595D01*
X017711Y002615D01*
X017761Y002639D01*
X017809Y002667D01*
X017854Y002697D01*
X017898Y002731D01*
X017939Y002768D01*
X017977Y002807D01*
X018013Y002849D01*
X018045Y002894D01*
X018012Y002850D01*
X017977Y002808D01*
X017938Y002768D01*
X017897Y002732D01*
X017854Y002698D01*
X017808Y002667D01*
X017760Y002640D01*
X017711Y002616D01*
X017660Y002595D01*
X017608Y002579D01*
X017554Y002565D01*
X017500Y002556D01*
X017445Y002550D01*
X017391Y002548D01*
X017390Y002831D02*
X017390Y002850D01*
X017390Y002849D02*
X017427Y002850D01*
X017464Y002855D01*
X017500Y002861D01*
X017535Y002871D01*
X017570Y002883D01*
X017604Y002898D01*
X017611Y002881D01*
X017612Y002881D01*
X017577Y002865D01*
X017541Y002853D01*
X017504Y002843D01*
X017467Y002836D01*
X017429Y002831D01*
X017390Y002830D01*
X017390Y002831D01*
X017429Y002832D01*
X017466Y002837D01*
X017504Y002844D01*
X017541Y002854D01*
X017577Y002866D01*
X017611Y002882D01*
X017611Y002883D01*
X017576Y002867D01*
X017540Y002855D01*
X017504Y002845D01*
X017466Y002838D01*
X017428Y002833D01*
X017390Y002832D01*
X017390Y002833D01*
X017428Y002834D01*
X017466Y002839D01*
X017503Y002846D01*
X017540Y002856D01*
X017576Y002868D01*
X017611Y002883D01*
X017610Y002884D01*
X017575Y002869D01*
X017540Y002857D01*
X017503Y002847D01*
X017466Y002840D01*
X017428Y002835D01*
X017390Y002834D01*
X017390Y002835D01*
X017428Y002836D01*
X017466Y002841D01*
X017503Y002848D01*
X017539Y002858D01*
X017575Y002870D01*
X017610Y002885D01*
X017609Y002886D01*
X017575Y002871D01*
X017539Y002859D01*
X017503Y002849D01*
X017466Y002842D01*
X017428Y002837D01*
X017390Y002836D01*
X017390Y002837D01*
X017428Y002838D01*
X017465Y002843D01*
X017502Y002850D01*
X017539Y002860D01*
X017574Y002872D01*
X017609Y002887D01*
X017608Y002888D01*
X017574Y002873D01*
X017539Y002860D01*
X017502Y002851D01*
X017465Y002844D01*
X017428Y002839D01*
X017390Y002838D01*
X017390Y002839D01*
X017428Y002840D01*
X017465Y002845D01*
X017502Y002852D01*
X017538Y002861D01*
X017574Y002874D01*
X017608Y002889D01*
X017607Y002890D01*
X017573Y002875D01*
X017538Y002862D01*
X017502Y002853D01*
X017465Y002846D01*
X017428Y002841D01*
X017390Y002840D01*
X017390Y002841D01*
X017428Y002842D01*
X017465Y002847D01*
X017502Y002854D01*
X017538Y002863D01*
X017573Y002876D01*
X017607Y002891D01*
X017607Y002892D01*
X017572Y002877D01*
X017537Y002864D01*
X017501Y002855D01*
X017465Y002848D01*
X017428Y002843D01*
X017390Y002842D01*
X017390Y002843D01*
X017428Y002844D01*
X017465Y002849D01*
X017501Y002856D01*
X017537Y002865D01*
X017572Y002878D01*
X017606Y002892D01*
X017606Y002893D01*
X017572Y002879D01*
X017537Y002866D01*
X017501Y002857D01*
X017464Y002850D01*
X017428Y002845D01*
X017390Y002844D01*
X017390Y002845D01*
X017428Y002846D01*
X017464Y002851D01*
X017501Y002858D01*
X017536Y002867D01*
X017571Y002879D01*
X017605Y002894D01*
X017605Y002895D01*
X017571Y002880D01*
X017536Y002868D01*
X017500Y002859D01*
X017464Y002852D01*
X017427Y002847D01*
X017390Y002846D01*
X017390Y002847D01*
X017427Y002848D01*
X017464Y002853D01*
X017500Y002859D01*
X017536Y002869D01*
X017571Y002881D01*
X017604Y002896D01*
X017604Y002897D01*
X017570Y002882D01*
X017536Y002870D01*
X017500Y002860D01*
X017464Y002854D01*
X017427Y002849D01*
X017390Y002848D01*
X017611Y003799D02*
X017603Y003782D01*
X017604Y003782D02*
X017570Y003797D01*
X017535Y003809D01*
X017500Y003819D01*
X017464Y003825D01*
X017427Y003830D01*
X017390Y003831D01*
X017390Y003849D01*
X017390Y003850D01*
X017429Y003849D01*
X017467Y003844D01*
X017504Y003837D01*
X017541Y003827D01*
X017577Y003815D01*
X017612Y003799D01*
X017611Y003798D01*
X017577Y003814D01*
X017541Y003826D01*
X017504Y003836D01*
X017466Y003843D01*
X017429Y003848D01*
X017390Y003849D01*
X017390Y003848D01*
X017428Y003847D01*
X017466Y003842D01*
X017504Y003835D01*
X017540Y003825D01*
X017576Y003813D01*
X017611Y003797D01*
X017576Y003812D01*
X017540Y003824D01*
X017503Y003834D01*
X017466Y003841D01*
X017428Y003846D01*
X017390Y003847D01*
X017390Y003846D01*
X017428Y003845D01*
X017466Y003840D01*
X017503Y003833D01*
X017540Y003823D01*
X017575Y003811D01*
X017610Y003796D01*
X017610Y003795D01*
X017575Y003810D01*
X017539Y003822D01*
X017503Y003832D01*
X017466Y003839D01*
X017428Y003844D01*
X017390Y003845D01*
X017390Y003844D01*
X017428Y003843D01*
X017466Y003838D01*
X017503Y003831D01*
X017539Y003821D01*
X017575Y003809D01*
X017609Y003794D01*
X017609Y003793D01*
X017574Y003808D01*
X017539Y003820D01*
X017502Y003830D01*
X017465Y003837D01*
X017428Y003842D01*
X017390Y003843D01*
X017390Y003842D01*
X017428Y003841D01*
X017465Y003836D01*
X017502Y003829D01*
X017539Y003820D01*
X017574Y003807D01*
X017608Y003792D01*
X017608Y003791D01*
X017574Y003806D01*
X017538Y003819D01*
X017502Y003828D01*
X017465Y003835D01*
X017428Y003840D01*
X017390Y003841D01*
X017390Y003840D01*
X017428Y003839D01*
X017465Y003834D01*
X017502Y003827D01*
X017538Y003818D01*
X017573Y003805D01*
X017607Y003790D01*
X017607Y003789D01*
X017573Y003804D01*
X017538Y003817D01*
X017502Y003826D01*
X017465Y003833D01*
X017428Y003838D01*
X017390Y003839D01*
X017390Y003838D01*
X017428Y003837D01*
X017465Y003832D01*
X017501Y003825D01*
X017537Y003816D01*
X017572Y003803D01*
X017607Y003788D01*
X017606Y003788D01*
X017572Y003802D01*
X017537Y003815D01*
X017501Y003824D01*
X017465Y003831D01*
X017428Y003836D01*
X017390Y003837D01*
X017390Y003836D01*
X017428Y003835D01*
X017464Y003830D01*
X017501Y003823D01*
X017537Y003814D01*
X017572Y003801D01*
X017606Y003787D01*
X017605Y003786D01*
X017571Y003801D01*
X017536Y003813D01*
X017501Y003822D01*
X017464Y003829D01*
X017428Y003834D01*
X017390Y003835D01*
X017390Y003834D01*
X017427Y003833D01*
X017464Y003828D01*
X017500Y003821D01*
X017536Y003812D01*
X017571Y003800D01*
X017605Y003785D01*
X017604Y003784D01*
X017571Y003799D01*
X017536Y003811D01*
X017500Y003821D01*
X017464Y003827D01*
X017427Y003832D01*
X017390Y003833D01*
X017390Y003832D01*
X017427Y003831D01*
X017464Y003826D01*
X017500Y003820D01*
X017536Y003810D01*
X017570Y003798D01*
X017604Y003783D01*
X018059Y003796D02*
X018043Y003785D01*
X018044Y003785D02*
X018011Y003830D01*
X017976Y003872D01*
X017937Y003911D01*
X017897Y003948D01*
X017853Y003981D01*
X017808Y004012D01*
X017760Y004039D01*
X017711Y004063D01*
X017660Y004084D01*
X017607Y004101D01*
X017554Y004114D01*
X017500Y004123D01*
X017445Y004129D01*
X017390Y004131D01*
X017390Y004149D01*
X017390Y004150D01*
X017447Y004148D01*
X017503Y004142D01*
X017558Y004132D01*
X017613Y004119D01*
X017666Y004102D01*
X017718Y004081D01*
X017769Y004056D01*
X017818Y004028D01*
X017864Y003997D01*
X017909Y003962D01*
X017951Y003925D01*
X017990Y003884D01*
X018026Y003841D01*
X018059Y003796D01*
X018059Y003795D01*
X018025Y003841D01*
X017989Y003884D01*
X017950Y003924D01*
X017908Y003961D01*
X017864Y003996D01*
X017817Y004027D01*
X017768Y004055D01*
X017718Y004080D01*
X017666Y004101D01*
X017612Y004118D01*
X017558Y004131D01*
X017502Y004141D01*
X017447Y004147D01*
X017390Y004149D01*
X017390Y004148D01*
X017447Y004146D01*
X017502Y004140D01*
X017558Y004130D01*
X017612Y004117D01*
X017665Y004100D01*
X017717Y004079D01*
X017768Y004054D01*
X017817Y004026D01*
X017863Y003995D01*
X017907Y003961D01*
X017949Y003923D01*
X017988Y003883D01*
X018025Y003840D01*
X018058Y003795D01*
X018057Y003794D01*
X018024Y003840D01*
X017988Y003882D01*
X017949Y003922D01*
X017907Y003960D01*
X017863Y003994D01*
X017816Y004025D01*
X017767Y004053D01*
X017717Y004078D01*
X017665Y004099D01*
X017612Y004116D01*
X017557Y004129D01*
X017502Y004139D01*
X017446Y004145D01*
X017390Y004147D01*
X017390Y004146D01*
X017446Y004144D01*
X017502Y004138D01*
X017557Y004128D01*
X017611Y004115D01*
X017665Y004098D01*
X017717Y004077D01*
X017767Y004052D01*
X017815Y004025D01*
X017862Y003993D01*
X017906Y003959D01*
X017948Y003922D01*
X017987Y003882D01*
X018023Y003839D01*
X018056Y003794D01*
X018055Y003793D01*
X018022Y003838D01*
X017986Y003881D01*
X017947Y003921D01*
X017906Y003958D01*
X017861Y003993D01*
X017815Y004024D01*
X017766Y004052D01*
X017716Y004076D01*
X017664Y004097D01*
X017611Y004114D01*
X017557Y004127D01*
X017502Y004137D01*
X017446Y004143D01*
X017390Y004145D01*
X017390Y004144D01*
X017446Y004142D01*
X017502Y004136D01*
X017557Y004127D01*
X017611Y004113D01*
X017664Y004096D01*
X017716Y004075D01*
X017766Y004051D01*
X017814Y004023D01*
X017861Y003992D01*
X017905Y003958D01*
X017946Y003920D01*
X017985Y003880D01*
X018021Y003838D01*
X018054Y003793D01*
X018054Y003792D01*
X018021Y003837D01*
X017985Y003880D01*
X017946Y003920D01*
X017904Y003957D01*
X017860Y003991D01*
X017814Y004022D01*
X017766Y004050D01*
X017715Y004074D01*
X017664Y004095D01*
X017611Y004112D01*
X017557Y004126D01*
X017502Y004135D01*
X017446Y004141D01*
X017390Y004143D01*
X017390Y004142D01*
X017446Y004140D01*
X017502Y004134D01*
X017556Y004125D01*
X017610Y004111D01*
X017663Y004094D01*
X017715Y004073D01*
X017765Y004049D01*
X017813Y004021D01*
X017860Y003990D01*
X017904Y003956D01*
X017945Y003919D01*
X017984Y003879D01*
X018020Y003836D01*
X018053Y003792D01*
X018052Y003791D01*
X018019Y003836D01*
X017983Y003878D01*
X017944Y003918D01*
X017903Y003955D01*
X017859Y003989D01*
X017813Y004020D01*
X017765Y004048D01*
X017715Y004072D01*
X017663Y004093D01*
X017610Y004110D01*
X017556Y004124D01*
X017501Y004133D01*
X017446Y004139D01*
X017390Y004141D01*
X017390Y004140D01*
X017446Y004138D01*
X017501Y004132D01*
X017556Y004123D01*
X017610Y004109D01*
X017663Y004092D01*
X017714Y004071D01*
X017764Y004047D01*
X017812Y004019D01*
X017858Y003989D01*
X017902Y003954D01*
X017944Y003917D01*
X017982Y003878D01*
X018018Y003835D01*
X018051Y003790D01*
X018050Y003790D01*
X018018Y003835D01*
X017982Y003877D01*
X017943Y003917D01*
X017902Y003954D01*
X017858Y003988D01*
X017812Y004019D01*
X017764Y004046D01*
X017714Y004070D01*
X017662Y004091D01*
X017610Y004108D01*
X017556Y004122D01*
X017501Y004131D01*
X017446Y004137D01*
X017390Y004139D01*
X017390Y004138D01*
X017446Y004136D01*
X017501Y004130D01*
X017556Y004121D01*
X017609Y004107D01*
X017662Y004090D01*
X017713Y004070D01*
X017763Y004045D01*
X017811Y004018D01*
X017857Y003987D01*
X017901Y003953D01*
X017942Y003916D01*
X017981Y003876D01*
X018017Y003834D01*
X018050Y003789D01*
X018049Y003789D01*
X018016Y003833D01*
X017980Y003876D01*
X017942Y003915D01*
X017900Y003952D01*
X017857Y003986D01*
X017811Y004017D01*
X017763Y004044D01*
X017713Y004069D01*
X017662Y004089D01*
X017609Y004106D01*
X017555Y004120D01*
X017501Y004129D01*
X017446Y004135D01*
X017390Y004137D01*
X017390Y004136D01*
X017446Y004134D01*
X017501Y004128D01*
X017555Y004119D01*
X017609Y004105D01*
X017661Y004088D01*
X017713Y004068D01*
X017762Y004044D01*
X017810Y004016D01*
X017856Y003985D01*
X017900Y003951D01*
X017941Y003915D01*
X017979Y003875D01*
X018015Y003833D01*
X018048Y003788D01*
X018047Y003788D01*
X018014Y003832D01*
X017979Y003874D01*
X017940Y003914D01*
X017899Y003951D01*
X017856Y003984D01*
X017810Y004015D01*
X017762Y004043D01*
X017712Y004067D01*
X017661Y004087D01*
X017608Y004104D01*
X017555Y004118D01*
X017501Y004127D01*
X017446Y004133D01*
X017390Y004135D01*
X017390Y004134D01*
X017446Y004132D01*
X017500Y004126D01*
X017555Y004117D01*
X017608Y004103D01*
X017661Y004086D01*
X017712Y004066D01*
X017761Y004042D01*
X017809Y004014D01*
X017855Y003984D01*
X017898Y003950D01*
X017940Y003913D01*
X017978Y003874D01*
X018014Y003831D01*
X018046Y003787D01*
X018045Y003786D01*
X018013Y003831D01*
X017977Y003873D01*
X017939Y003912D01*
X017898Y003949D01*
X017854Y003983D01*
X017809Y004014D01*
X017761Y004041D01*
X017711Y004065D01*
X017660Y004086D01*
X017608Y004102D01*
X017554Y004116D01*
X017500Y004125D01*
X017446Y004131D01*
X017390Y004133D01*
X017390Y004132D01*
X017445Y004130D01*
X017500Y004124D01*
X017554Y004115D01*
X017608Y004102D01*
X017660Y004085D01*
X017711Y004064D01*
X017760Y004040D01*
X017808Y004013D01*
X017854Y003982D01*
X017897Y003948D01*
X017938Y003912D01*
X017977Y003872D01*
X018012Y003830D01*
X018045Y003786D01*
D24*
X017224Y016138D02*
X023051Y016138D01*
X023051Y021768D01*
X017224Y021768D01*
X017224Y016138D01*
X024705Y016138D02*
X030531Y016138D01*
X030531Y021768D01*
X024705Y021768D01*
X024705Y016138D01*
X032185Y016138D02*
X038012Y016138D01*
X038012Y021768D01*
X032185Y021768D01*
X032185Y016138D01*
M02*
